<?xml version="1.0" standalone="no"?>
<!DOCTYPE svg PUBLIC "-//W3C//DTD SVG 1.1//EN" "http://www.w3.org/Graphics/SVG/1.1/DTD/svg11.dtd" >
<svg xmlns="http://www.w3.org/2000/svg" xmlns:xlink="http://www.w3.org/1999/xlink" version="1.1">
<metadata>
Created by FontForge 20170731 at Thu Sep 29 17:22:54 2022
 By Aleksey,,,
(c) 2021 Kasper Nordkvist. All Rights Reserved.
</metadata>
<defs>
<font id="Uncut-Sans-Semibold" horiz-adv-x="1185" >
  <font-face 
    font-family="Uncut Sans Semibold"
    font-weight="600"
    font-stretch="normal"
    units-per-em="2048"
    panose-1="0 0 0 0 0 0 0 0 0 0"
    ascent="1638"
    descent="-410"
    x-height="1024"
    cap-height="1434"
    bbox="-109 -602 2419 2040"
    underline-thickness="102"
    underline-position="-358"
    unicode-range="U+0020-277E"
  />
<missing-glyph horiz-adv-x="1228" 
d="M1008 1946v-2458h-779v2458h779zM410 -342h409v80h-252l172 117h80v79h-409v-79h172l-172 -117v-80zM410 -8h409v278h-409v-278zM410 418h409v276h-246v-137h82v57h82v-116h-245v196h-82v-276zM410 750h409v245h-82v-164h-327v-81zM410 889h245v172h164v82h-409v-82h163
v-90h-163v-82zM410 1208h409v84h-164v172h-245v-256zM410 1528h409v82h-164v90h164v82h-405v-82h159v-90h-163v-82zM492 74v114h245v-114h-245zM492 1292v88h81v-88h-81z" />
    <glyph glyph-name=".notdef" horiz-adv-x="1228" 
d="M1008 1946v-2458h-779v2458h779zM410 -342h409v80h-252l172 117h80v79h-409v-79h172l-172 -117v-80zM410 -8h409v278h-409v-278zM410 418h409v276h-246v-137h82v57h82v-116h-245v196h-82v-276zM410 750h409v245h-82v-164h-327v-81zM410 889h245v172h164v82h-409v-82h163
v-90h-163v-82zM410 1208h409v84h-164v172h-245v-256zM410 1528h409v82h-164v90h164v82h-405v-82h159v-90h-163v-82zM492 74v114h245v-114h-245zM492 1292v88h81v-88h-81z" />
    <glyph glyph-name=".null" horiz-adv-x="0" 
 />
    <glyph glyph-name="nonmarkingreturn" horiz-adv-x="682" 
 />
    <glyph glyph-name="space" unicode=" " horiz-adv-x="444" 
 />
    <glyph glyph-name="space" unicode="&#xa0;" horiz-adv-x="444" 
 />
    <glyph glyph-name="exclam" unicode="!" horiz-adv-x="833" 
d="M244 440l131 994h254l-170 -994h-215zM205 0v281h293v-281h-293z" />
    <glyph glyph-name="quotedbl" unicode="&#x22;" horiz-adv-x="972" 
d="M289 975l-33 504h463l-35 -504h-395z" />
    <glyph glyph-name="numbersign" unicode="#" horiz-adv-x="1601" 
d="M733 0l117 346h-315l-117 -346h-248l117 346h-205v193h270l109 319h-256v193h321l142 415h245l-141 -415h318l141 415h246l-142 -415h185v-193h-248l-109 -319h234v-193h-299l-117 -346h-248zM600 539h315l109 319h-315z" />
    <glyph glyph-name="dollar" unicode="$" horiz-adv-x="1343" 
d="M588 -197v170q-223 31 -347 183.5t-124 406.5l254 21q-4 -165 53 -265t164 -133v500q-416 101 -416 401q0 149 113.5 254.5t302.5 122.5v133h143v-135q202 -19 312 -132t110 -308l-254 -21q0 103 -45 166t-123 84v-383q90 -22 158.5 -46t134.5 -61.5t108.5 -83.5
t68.5 -112t26 -147q0 -194 -134.5 -317.5t-361.5 -133.5v-164h-143zM428 1087q0 -68 36 -109.5t124 -70.5v350q-75 -12 -117.5 -56.5t-42.5 -113.5zM731 174q119 9 180.5 74t61.5 158q0 99 -55 153t-187 92v-477z" />
    <glyph glyph-name="percent" unicode="%" horiz-adv-x="1617" 
d="M176 0l1059 1466h205l-1057 -1466h-207zM82 1118q0 141 103.5 244.5t244.5 103.5t244.5 -103.5t103.5 -244.5t-103.5 -244.5t-244.5 -103.5t-244.5 103.5t-103.5 244.5zM258 1118q0 -72 50 -122t122 -50t122 50t50 122t-50 122t-122 50t-122 -50t-50 -122zM840 315
q0 141 103.5 245t244.5 104t244.5 -104t103.5 -245t-103.5 -244.5t-244.5 -103.5t-244.5 103.5t-103.5 244.5zM1016 315q0 -72 50 -122t122 -50t122 50t50 122t-50 122t-122 50t-122 -50t-50 -122z" />
    <glyph glyph-name="ampersand" unicode="&#x26;" horiz-adv-x="1531" 
d="M635 -33q-149 0 -264.5 47t-184.5 144t-69 233q0 70 21 129.5t60.5 106t85 80.5t105.5 67q-113 179 -113 342q0 116 56.5 196.5t148.5 117t211 36.5q183 0 297.5 -89t114.5 -261q0 -53 -13.5 -99t-41.5 -83.5t-58.5 -67.5t-77 -59t-84.5 -49t-92 -45q118 -132 275 -273
q65 149 65 355l244 -21q0 -124 -34 -250t-99 -233q71 -58 167 -133t140.5 -111t48.5 -47h-336q-2 5 -19 18t-63 47t-77 58q-172 -156 -414 -156zM371 391q0 -99 69.5 -159t194.5 -60q135 0 242 84q-232 191 -361 346q-145 -89 -145 -211zM530 1116q0 -103 82 -235
q56 26 93.5 47.5t73.5 50.5t53.5 63t17.5 74q0 68 -48 107t-110 39t-112 -39.5t-50 -106.5z" />
    <glyph glyph-name="quotesingle" unicode="'" horiz-adv-x="581" 
d="M190 975l-32 504h268l-35 -504h-201z" />
    <glyph glyph-name="parenleft" unicode="(" horiz-adv-x="755" 
d="M451 -225q-35 38 -70 85t-81.5 128.5t-80.5 170.5t-58 211.5t-24 250.5t24 250.5t58 211t80.5 170.5t81.5 128.5t70 84.5h264q-56 -62 -105 -134t-102.5 -178t-85 -244t-31.5 -289q0 -122 22.5 -238.5t55 -203.5t79 -169t85.5 -134.5t82 -100.5h-264z" />
    <glyph glyph-name="parenright" unicode=")" horiz-adv-x="755" 
d="M41 -225q43 48 82 100.5t85.5 134.5t79 169t55 203.5t22.5 238.5q0 151 -31.5 289t-85 244t-102.5 178t-105 134h264q35 -38 70 -84.5t81 -128.5t80 -170.5t58 -211t24 -250.5t-24 -250.5t-58 -211.5t-80 -170.5t-81 -128.5t-70 -85h-264z" />
    <glyph glyph-name="asterisk" unicode="*" horiz-adv-x="1038" 
d="M725 733l-182 238l37 -297h-164l37 297l-183 -236l-114 115l237 184l-297 -37v162l295 -37l-235 183l114 114l183 -235l-37 297h164l-37 -297l182 235l115 -116l-236 -181l297 37v-164l-297 37l238 -180z" />
    <glyph glyph-name="plus" unicode="+" horiz-adv-x="1226" 
d="M512 131v373h-375v203h375v376h203v-376h375v-203h-375v-373h-203z" />
    <glyph glyph-name="comma" unicode="," horiz-adv-x="612" 
d="M117 -166q105 0 149.5 37t44.5 129h-155v287h301v-287q0 -166 -87 -237.5t-253 -71.5v143z" />
    <glyph glyph-name="hyphen" unicode="-" horiz-adv-x="1028" 
d="M164 504v203h700v-203h-700z" />
    <glyph glyph-name="period" unicode="." horiz-adv-x="614" 
d="M158 0v287h299v-287h-299z" />
    <glyph glyph-name="slash" unicode="/" horiz-adv-x="1071" 
d="M76 -225l663 1691h256l-663 -1691h-256z" />
    <glyph glyph-name="zero" unicode="0" horiz-adv-x="1335" 
d="M668 -33q-279 0 -443 205t-164 545q0 224 73 393.5t211 262.5t323 93q186 0 323.5 -93t210 -262t72.5 -394q0 -341 -163 -545.5t-443 -204.5zM317 717q0 -156 38.5 -277.5t119 -194.5t193.5 -73q114 0 194.5 73t118 194t37.5 278t-37.5 278t-118 194t-194.5 73
q-113 0 -193.5 -73t-119 -194.5t-38.5 -277.5z" />
    <glyph glyph-name="one" unicode="1" horiz-adv-x="1142" 
d="M117 0v205h368v782q-59 -168 -262 -168h-106v205h106q136 0 199 94t63 316h254v-1229h369v-205h-991z" />
    <glyph glyph-name="two" unicode="2" horiz-adv-x="1230" 
d="M98 184q29 22 115 80t165 112t176.5 133.5t167.5 153.5t118.5 163.5t48.5 170.5q0 123 -77 194t-194 71q-122 0 -199 -80t-77 -250l-246 20q0 229 144 371.5t378 142.5q115 0 213.5 -37t166.5 -100.5t106.5 -149.5t38.5 -182q0 -101 -44.5 -203t-108 -181.5t-157.5 -162
t-168.5 -135.5t-164.5 -110h676v-205h-1078v184z" />
    <glyph glyph-name="three" unicode="3" horiz-adv-x="1284" 
d="M621 -59q-254 0 -412.5 136t-153.5 343l258 33q0 -84 26.5 -145.5t72 -95.5t97.5 -49.5t112 -15.5q79 0 147 26t115 84.5t47 139.5q0 80 -48 137.5t-116 82t-145 24.5h-185v209h185q119 0 189.5 60.5t70.5 162.5t-70 159.5t-190 57.5q-118 0 -188.5 -66.5t-72.5 -174.5
l-254 8q1 78 33.5 153.5t93.5 139.5t162 103.5t226 39.5q121 0 220.5 -34.5t162.5 -93.5t97 -134t34 -158q0 -111 -49.5 -194t-139.5 -129q115 -44 178.5 -133t63.5 -220q0 -195 -159.5 -325.5t-407.5 -130.5z" />
    <glyph glyph-name="four" unicode="4" horiz-adv-x="1435" 
d="M55 567q102 57 178 152.5t120 213t65.5 242.5t21.5 259h265q0 -223 -80.5 -466t-231.5 -382h506v848h256v-848h184v-205h-184v-381h-256v381h-844v186z" />
    <glyph glyph-name="five" unicode="5" horiz-adv-x="1243" 
d="M618 -33q-246 0 -394 118.5t-148 317.5l256 21q0 -105 79 -179.5t207 -74.5q135 0 215 84.5t80 216.5q0 130 -80 214.5t-215 84.5q-182 0 -278 -145h-246l66 809h901v-205h-662l-24 -338q81 74 243 74q246 0 398.5 -137t152.5 -357q0 -222 -153 -363t-398 -141z" />
    <glyph glyph-name="six" unicode="6" horiz-adv-x="1298" 
d="M682 -59q-136 0 -241.5 46.5t-169 119.5t-104.5 173.5t-56 198t-15 203.5q0 191 46 338t128.5 237.5t190 136.5t235.5 46q206 0 350 -98t197 -306l-256 -20q-19 47 -41.5 83t-56.5 68.5t-83 50t-110 17.5q-150 0 -245.5 -115t-120.5 -352q56 87 147 135.5t205 48.5
q110 0 208 -34.5t172.5 -97.5t117.5 -159.5t43 -214.5q0 -152 -74.5 -268.5t-196.5 -176.5t-270 -60zM389 446q0 -141 79 -222t214 -81q134 0 210.5 80.5t76.5 222.5q0 144 -76.5 223t-210.5 79q-135 0 -214 -79.5t-79 -222.5z" />
    <glyph glyph-name="seven" unicode="7" horiz-adv-x="1126" 
d="M344 0q-4 425 108 723t322 506h-739v205h1077v-187q-77 -46 -145 -112t-136.5 -173.5t-117 -239.5t-78 -318.5t-27.5 -403.5h-264z" />
    <glyph glyph-name="eight" unicode="8" horiz-adv-x="1333" 
d="M668 -33q-110 0 -213.5 30.5t-185.5 85.5t-131.5 140.5t-49.5 188.5q0 108 74 201.5t190 136.5q-94 47 -152.5 134t-58.5 175q0 178 141.5 292.5t385.5 114.5q243 0 383.5 -114.5t140.5 -292.5q0 -93 -57.5 -179.5t-151.5 -131.5q115 -43 188.5 -135.5t73.5 -200.5
q0 -136 -85 -239.5t-214.5 -154.5t-277.5 -51zM348 412q0 -113 91.5 -174.5t228.5 -61.5q135 0 226 61.5t91 174.5q0 112 -91 172.5t-226 60.5q-137 0 -228.5 -60.5t-91.5 -172.5zM397 1059q0 -94 80 -152.5t191 -58.5t189.5 58.5t78.5 152.5t-77.5 148.5t-190.5 54.5
t-192 -54.5t-79 -148.5z" />
    <glyph glyph-name="nine" unicode="9" horiz-adv-x="1298" 
d="M602 -33q-207 0 -350.5 97t-196.5 305l256 20q83 -217 291 -217q151 0 246.5 115t120.5 354q-56 -89 -147.5 -137.5t-205.5 -48.5q-148 0 -270 58t-197 174.5t-75 270.5q0 115 43 211.5t117 161t172.5 100t209.5 35.5q136 0 241.5 -46.5t169 -119.5t104.5 -173.5t56 -198
t15 -203.5q0 -190 -46.5 -337.5t-129 -238t-189.5 -136.5t-235 -46zM330 958q0 -142 76 -221.5t210 -79.5q133 0 212 80t79 221q0 143 -78 223.5t-213 80.5q-134 0 -210 -80t-76 -224z" />
    <glyph glyph-name="colon" unicode=":" horiz-adv-x="600" 
d="M143 0v287h299v-287h-299zM143 737v287h299v-287h-299z" />
    <glyph glyph-name="semicolon" unicode=";" horiz-adv-x="614" 
d="M117 -166q105 0 149.5 37t44.5 129h-155v287h301v-287q0 -166 -87 -237.5t-253 -71.5v143zM158 737v287h299v-287h-299z" />
    <glyph glyph-name="less" unicode="&#x3c;" 
d="M1049 -29l-953 523v202l953 523v-234l-713 -389l713 -391v-234z" />
    <glyph glyph-name="equal" unicode="=" horiz-adv-x="1226" 
d="M137 729v205h953v-205h-953zM137 279v204h953v-204h-953z" />
    <glyph glyph-name="greater" unicode="&#x3e;" 
d="M137 -29v234l713 391l-713 389v234l953 -523v-202z" />
    <glyph glyph-name="question" unicode="?" horiz-adv-x="1239" 
d="M449 739q204 0 311.5 74t107.5 201q0 124 -72 186t-178 62q-51 0 -95 -17t-81 -53.5t-58.5 -101t-21.5 -150.5l-245 21q0 141 59 255t174.5 182t267.5 68q232 0 368 -125t136 -327q0 -94 -34.5 -171t-95 -128t-136.5 -82t-164 -41v-205h-243v352zM432 0v240h279v-240
h-279z" />
    <glyph glyph-name="at" unicode="@" horiz-adv-x="1849" 
d="M924 -225q-161 0 -308 63.5t-253.5 170t-170 254t-63.5 308.5t63.5 308t170 253.5t253.5 170t308 63.5t308.5 -63.5t254 -170t170 -253.5t63.5 -308q0 -101 -28 -180t-74.5 -125.5t-101.5 -70t-115 -23.5q-105 0 -191.5 52.5t-113.5 140.5q-20 -94 -90 -150.5t-168 -56.5
q-105 0 -181.5 66t-76.5 171q0 66 25.5 113t76.5 76t106 45.5t134 29.5q16 2 27.5 4t26 5t24 5.5t21 6.5t19 8.5t15 10t11 12t6.5 14.5t2.5 18t-3.5 21q-10 35 -48 54.5t-91 19.5q-72 0 -108 -33t-36 -84l-198 16q-1 30 8 62t33.5 68t61.5 64.5t99 47t140 18.5
q338 0 338 -319v-137q0 -64 11 -108.5t32 -67t45.5 -32t56.5 -9.5q65 0 106.5 66t41.5 181q0 130 -50.5 248t-135.5 203t-203 135.5t-248 50.5q-174 0 -321 -85t-232.5 -232t-85.5 -320q0 -174 85.5 -321t232.5 -232.5t321 -85.5q160 0 303 76l254 -20q-104 -107 -248 -160
t-311 -53zM778 412q0 -41 30 -68t75 -27q82 0 139.5 70.5t58.5 204.5q-35 -45 -170 -72q-133 -24 -133 -108z" />
    <glyph glyph-name="A" unicode="A" horiz-adv-x="1437" 
d="M55 0l531 1434h266l530 -1434h-256l-145 395h-524l-146 -395h-256zM532 598h373l-186 504z" />
    <glyph glyph-name="B" unicode="B" horiz-adv-x="1271" 
d="M158 0v1434h415q521 0 521 -402q0 -87 -45 -162.5t-136 -119.5q126 -39 194.5 -127.5t68.5 -206.5q0 -79 -22 -143.5t-56.5 -106.5t-82.5 -74t-93.5 -49t-97.5 -27.5t-86.5 -13t-67.5 -2.5h-512zM401 205h240q126 0 203.5 53t77.5 158q0 63 -21 106t-61 65t-87.5 31
t-111.5 9h-240v-422zM401 829h172q267 0 267 203q0 110 -70.5 153.5t-196.5 43.5h-172v-400z" />
    <glyph glyph-name="C" unicode="C" horiz-adv-x="1548" 
d="M776 -33q-97 0 -191.5 26.5t-183.5 86t-156.5 144.5t-108 212t-40.5 279t40.5 279t108 212.5t156.5 145.5t183.5 87t191.5 27q92 0 178 -21t166 -66.5t143.5 -112t108 -163.5t60.5 -214l-258 -21q-35 188 -130 283.5t-268 95.5q-193 0 -309.5 -147.5t-116.5 -384.5
q0 -238 116 -384.5t310 -146.5q176 0 270.5 90.5t127.5 278.5l258 -21q-15 -117 -60 -213t-108 -160.5t-143.5 -108.5t-166.5 -63.5t-178 -19.5z" />
    <glyph glyph-name="D" unicode="D" horiz-adv-x="1409" 
d="M158 0v1434h477q59 0 108.5 -4t122.5 -20.5t130.5 -44.5t119 -82.5t103 -127.5t68 -185.5t26.5 -252.5t-26.5 -252.5t-68 -185.5t-103 -127.5t-119 -82.5t-130.5 -44.5t-122.5 -20.5t-108.5 -4h-477zM412 205h202q248 0 346.5 116t98.5 396q0 151 -21.5 247t-75 156.5
t-136 84.5t-212.5 24h-202v-1024z" />
    <glyph glyph-name="E" unicode="E" horiz-adv-x="1189" 
d="M158 0v1434h917v-205h-663v-383h561v-203h-561v-438h663v-205h-917z" />
    <glyph glyph-name="F" unicode="F" horiz-adv-x="1189" 
d="M158 0v1434h917v-205h-663v-383h561v-203h-561v-643h-254z" />
    <glyph glyph-name="G" unicode="G" horiz-adv-x="1617" 
d="M776 -33q-97 0 -191.5 26.5t-183.5 86t-156.5 144.5t-108 212t-40.5 279t40.5 279t108 212.5t156.5 145.5t183.5 87t191.5 27q117 0 225.5 -35t201.5 -103.5t156.5 -182.5t80.5 -260l-256 -21q-63 383 -408 383q-193 0 -309.5 -147.5t-116.5 -384.5q0 -238 116 -384.5
t310 -146.5q88 0 162.5 27.5t125 74t83 105t43.5 123.5h-418v205h688v-719h-219l45 317q-64 -162 -202.5 -256t-307.5 -94z" />
    <glyph glyph-name="H" unicode="H" horiz-adv-x="1411" 
d="M999 0v643h-587v-643h-254v1434h254v-588h587v588h256v-1434h-256z" />
    <glyph glyph-name="I" unicode="I" horiz-adv-x="569" 
d="M158 0v1434h254v-1434h-254z" />
    <glyph glyph-name="J" unicode="J" horiz-adv-x="1196" 
d="M571 -33q-117 0 -206 34.5t-143.5 91.5t-88.5 139t-46 167t-11 185l254 14q0 -414 241 -414q108 0 160.5 66.5t52.5 204.5v979h254v-938q0 -90 -9.5 -160.5t-39.5 -142.5t-80 -119t-136 -77t-202 -30z" />
    <glyph glyph-name="K" unicode="K" horiz-adv-x="1333" 
d="M158 0v1434h254v-611l549 611h286l-508 -574l559 -860h-282l-438 680l-166 -186v-494h-254z" />
    <glyph glyph-name="L" unicode="L" horiz-adv-x="1126" 
d="M158 0v1434h254v-1229h639v-205h-893z" />
    <glyph glyph-name="M" unicode="M" horiz-adv-x="1771" 
d="M158 0v1434h325l404 -1127l401 1127h328v-1434h-256v977l-348 -977h-250l-350 981v-981h-254z" />
    <glyph glyph-name="N" unicode="N" horiz-adv-x="1517" 
d="M158 0v1434h301l645 -1106v1106h256v-1434h-322l-626 1071v-1071h-254z" />
    <glyph glyph-name="O" unicode="O" horiz-adv-x="1576" 
d="M788 -33q-105 0 -203 27t-187.5 86t-156 145t-106 212.5t-39.5 279.5t39.5 279.5t106 212t156 144.5t187.5 86t203 27t203.5 -27t188 -86t156 -144.5t106 -212t39.5 -279.5t-39.5 -279.5t-106 -212.5t-156 -145t-188 -86t-203.5 -27zM358 717q0 -152 50 -271.5
t148.5 -190.5t231.5 -71q134 0 232.5 71t148.5 190.5t50 271.5q0 151 -50.5 271t-149.5 190.5t-231 70.5t-230.5 -70.5t-149 -190.5t-50.5 -271z" />
    <glyph glyph-name="P" unicode="P" horiz-adv-x="1230" 
d="M158 0v1434h497q32 0 68 -3t89 -13.5t100.5 -27.5t97 -49t85 -74.5t58.5 -106.5t23 -142t-23 -141.5t-58.5 -105.5t-85.5 -73.5t-97 -48.5t-100 -27t-88.5 -13t-68.5 -3h-243v-606h-254zM412 809h202q155 0 231.5 48t76.5 161q0 114 -76 162.5t-232 48.5h-202v-420z" />
    <glyph glyph-name="Q" unicode="Q" horiz-adv-x="1603" 
d="M1319 -135l-162 201q-162 -99 -369 -99q-105 0 -203 27t-187.5 86t-156 145t-106 212.5t-39.5 279.5t39.5 279.5t106 212t156 144.5t187.5 86t203 27t203.5 -27t188 -86t156 -144.5t106 -212t39.5 -279.5q0 -324 -172 -527l260 -325h-250zM358 717q0 -152 50 -271.5
t148.5 -190.5t231.5 -71q129 0 224 64l-369 461h252l250 -314q74 136 74 322q0 151 -50.5 271t-149.5 190.5t-231 70.5t-230.5 -70.5t-149 -190.5t-50.5 -271z" />
    <glyph glyph-name="R" unicode="R" horiz-adv-x="1335" 
d="M158 0v1434h497q32 0 68 -3t89 -13.5t100.5 -27.5t97 -49t85 -74.5t58.5 -106.5t23 -142q0 -275 -297 -338q61 -5 104 -14t76 -28t53 -43t33.5 -64.5t20 -87t10.5 -115.5l22 -328h-260l-20 354q-3 58 -8 91.5t-18 68.5t-36 52.5t-62 28.5t-96 11h-286v-606h-254zM412 809
h202q161 0 234.5 43.5t73.5 165.5q0 124 -73.5 167.5t-234.5 43.5h-202v-420z" />
    <glyph glyph-name="S" unicode="S" horiz-adv-x="1343" 
d="M696 -33q-271 0 -425 155.5t-154 440.5l254 21q-6 -204 81 -308t244 -104q135 0 206 66.5t71 167.5q0 119 -79.5 175t-283.5 99q-438 99 -438 407q0 161 132 270t345 109q241 0 372.5 -115t131.5 -329l-254 -21q0 129 -68 195t-182 66q-103 0 -162 -46t-59 -129
q0 -86 60 -132t217 -81q95 -22 166 -46t141.5 -61.5t115 -83.5t72 -113.5t27.5 -151.5q0 -202 -145 -326.5t-386 -124.5z" />
    <glyph glyph-name="T" unicode="T" horiz-adv-x="1280" 
d="M512 0v1229h-477v205h1210v-205h-477v-1229h-256z" />
    <glyph glyph-name="U" unicode="U" horiz-adv-x="1423" 
d="M713 -33q-115 0 -214 34.5t-176 101.5t-121 174.5t-44 244.5v912h254v-912q0 -95 24 -163.5t67.5 -105t95 -53t114.5 -16.5q299 0 299 338v912h254v-912q0 -137 -44 -244.5t-120 -174.5t-175 -101.5t-214 -34.5z" />
    <glyph glyph-name="V" unicode="V" horiz-adv-x="1353" 
d="M551 0l-516 1434h254l395 -1098l379 1098h256l-496 -1434h-272z" />
    <glyph glyph-name="W" unicode="W" horiz-adv-x="1849" 
d="M408 0l-353 1434h242l258 -1047l246 1047h248l245 -1047l258 1047h242l-352 -1434h-277l-241 1024l-242 -1024h-274z" />
    <glyph glyph-name="X" unicode="X" horiz-adv-x="1345" 
d="M1036 0l-362 520l-365 -520h-274l502 717l-502 717h274l365 -521l362 521h275l-502 -717l502 -717h-275z" />
    <glyph glyph-name="Y" unicode="Y" horiz-adv-x="1245" 
d="M297 0l199 442l-461 992h256l340 -699l313 699h266l-647 -1434h-266z" />
    <glyph glyph-name="Z" unicode="Z" horiz-adv-x="1255" 
d="M137 205l707 1024h-707v205h983v-205l-708 -1024h708v-205h-983v205z" />
    <glyph glyph-name="bracketleft" unicode="[" horiz-adv-x="790" 
d="M178 -225v1691h537v-204h-303v-1280h303v-207h-537z" />
    <glyph glyph-name="backslash" unicode="\" horiz-adv-x="1071" 
d="M739 -225l-663 1691h256l663 -1691h-256z" />
    <glyph glyph-name="bracketright" unicode="]" horiz-adv-x="790" 
d="M76 -225v207h303v1280h-303v204h536v-1691h-536z" />
    <glyph glyph-name="asciicircum" unicode="^" horiz-adv-x="1249" 
d="M287 1188l159 293h357l160 -293h-213l-125 211l-125 -211h-213z" />
    <glyph glyph-name="underscore" unicode="_" horiz-adv-x="700" 
d="M0 -182v205h700v-205h-700z" />
    <glyph glyph-name="a" unicode="a" horiz-adv-x="1124" 
d="M434 -31q-139 0 -238.5 82t-99.5 219q0 70 24 124.5t62.5 90t99.5 62.5t121.5 42t143.5 29q116 18 137 24q71 21 74 73q1 19 -6 43q-26 94 -191 94q-97 0 -146.5 -43.5t-52.5 -110.5l-253 21q0 38 11.5 79.5t43.5 89t80.5 84t131 61t185.5 24.5q447 0 447 -410v-647h-244
v211q-36 -106 -121 -174t-209 -68zM350 293q0 -55 41 -87t105 -32q110 0 189 79.5t79 217.5v68q-43 -62 -232 -97q-182 -35 -182 -149z" />
    <glyph glyph-name="b" unicode="b" horiz-adv-x="1288" 
d="M717 -33q-111 0 -192.5 53.5t-123.5 151.5v-172h-243v1434h243v-570q41 94 122.5 143.5t193.5 49.5q153 0 262 -72.5t161 -192t52 -272.5q0 -114 -30.5 -213.5t-88.5 -175.5t-149.5 -120t-206.5 -44zM401 535q0 -95 22.5 -167t61 -113.5t85.5 -62t100 -20.5
q116 0 192 85.5t76 262.5q0 91 -22 157.5t-61 103.5t-85 54t-100 17t-100.5 -17.5t-85 -54t-61 -99.5t-22.5 -146z" />
    <glyph glyph-name="c" unicode="c" horiz-adv-x="1196" 
d="M612 -33q-101 0 -191.5 32.5t-164 96t-117 169.5t-43.5 241q0 136 43.5 243.5t117 173.5t164 100t191.5 34q78 0 143.5 -12.5t125 -42.5t103 -76.5t74.5 -118.5t42 -166l-252 -20q-24 119 -78.5 175t-157.5 56q-125 0 -193.5 -96t-68.5 -248q0 -159 66.5 -247.5
t195.5 -88.5q99 0 156 51.5t80 167.5l252 -20q-14 -115 -56.5 -195.5t-109.5 -125t-145 -64t-177 -19.5z" />
    <glyph glyph-name="d" unicode="d" horiz-adv-x="1288" 
d="M571 -33q-115 0 -206.5 44t-149.5 120t-88.5 175.5t-30.5 213.5q0 153 52 272.5t161 192t262 72.5q112 0 193.5 -49.5t122.5 -143.5v570h243v-1434h-243v172q-42 -98 -123.5 -151.5t-192.5 -53.5zM350 520q0 -177 76 -262.5t192 -85.5q53 0 100 20.5t85.5 62t61 113.5
t22.5 167q0 83 -22.5 146t-61 99.5t-85 54t-100.5 17.5t-100 -17t-85 -54t-61 -103.5t-22 -157.5z" />
    <glyph glyph-name="e" unicode="e" horiz-adv-x="1169" 
d="M602 -33q-96 0 -183.5 31.5t-161 93.5t-117.5 169t-44 245t44 246.5t117.5 173.5t161.5 98t183 33t178 -33t149.5 -98t105 -173t38.5 -247v-49h-723q0 -130 65.5 -207.5t186.5 -77.5q183 0 221 150l248 -21q-15 -151 -148 -242.5t-321 -91.5zM350 625h488q0 91 -60.5 159
t-175.5 68q-116 0 -184 -69t-68 -158z" />
    <glyph glyph-name="f" unicode="f" horiz-adv-x="774" 
d="M229 1112q0 183 81.5 262.5t240.5 79.5h188v-205h-123q-90 0 -116.5 -30t-26.5 -138v-57h266v-205h-266v-819h-244v819h-174v205h174v88z" />
    <glyph glyph-name="g" unicode="g" horiz-adv-x="1288" 
d="M604 -442q-97 0 -179.5 22.5t-136 58t-91 79.5t-54 86t-16.5 79l254 21q11 -59 69.5 -100.5t153.5 -41.5q283 0 283 279v119q-41 -94 -122.5 -143.5t-193.5 -49.5q-153 0 -262 72.5t-161 192t-52 272.5q0 114 30.5 213.5t88.5 175.5t149.5 120t206.5 44
q111 0 192.5 -53.5t123.5 -151.5v172h243v-942q0 -267 -129.5 -395.5t-396.5 -128.5zM350 504q0 -91 22 -157.5t61 -103.5t85 -54t100 -17t100.5 17.5t85 54t61 99.5t22.5 146q0 95 -22.5 167t-61 113.5t-85.5 62t-100 20.5q-116 0 -192 -85.5t-76 -262.5z" />
    <glyph glyph-name="h" unicode="h" 
d="M795 651q0 62 -14.5 103.5t-40.5 62t-53 28t-62 7.5q-102 0 -168 -87t-66 -273v-492h-254v1448h254v-612q41 106 125 163.5t209 57.5q152 0 238 -98.5t86 -284.5v-674h-254v651z" />
    <glyph glyph-name="i" unicode="i" horiz-adv-x="555" 
d="M152 0v1024h254v-1024h-254zM137 1188v242h283v-242h-283z" />
    <glyph glyph-name="j" unicode="j" horiz-adv-x="598" 
d="M-88 -410v205h123q89 0 116 27t27 121v1081h248v-1112q0 -169 -83.5 -245.5t-242.5 -76.5h-188zM158 1188v242h282v-242h-282z" />
    <glyph glyph-name="k" unicode="k" horiz-adv-x="1114" 
d="M137 0v1434h244v-793l401 383h293l-391 -389l393 -635h-278l-285 465l-133 -131v-334h-244z" />
    <glyph glyph-name="l" unicode="l" horiz-adv-x="569" 
d="M158 0v1454h254v-1454h-254z" />
    <glyph glyph-name="m" unicode="m" horiz-adv-x="1843" 
d="M1452 651q0 62 -14.5 103.5t-40.5 62t-53 28t-62 7.5q-101 0 -167 -82.5t-66 -251.5v-518h-254v651q0 62 -14.5 103.5t-40.5 62t-53 28t-62 7.5q-102 0 -168 -87t-66 -273v-492h-254v1024h254v-188q41 106 125 163.5t209 57.5q113 0 190 -55t111 -160q48 101 140 158
t216 57q152 0 238 -98.5t86 -284.5v-674h-254v651z" />
    <glyph glyph-name="n" unicode="n" 
d="M795 651q0 62 -14.5 103.5t-40.5 62t-53 28t-62 7.5q-102 0 -168 -87t-66 -273v-492h-254v1024h254v-188q41 106 125 163.5t209 57.5q152 0 238 -98.5t86 -284.5v-674h-254v651z" />
    <glyph glyph-name="o" unicode="o" horiz-adv-x="1224" 
d="M612 -33q-99 0 -189.5 33t-164.5 97.5t-118 171t-44 241.5t44 242t118 172t164.5 99t189.5 34q100 0 190.5 -34t164.5 -99t117.5 -172t43.5 -242q0 -109 -29 -199.5t-78 -153t-115 -106t-140.5 -64t-153.5 -20.5zM350 510q0 -160 68 -249t194 -89q127 0 194.5 89
t67.5 249q0 162 -67.5 252t-194.5 90q-126 0 -194 -90.5t-68 -251.5z" />
    <glyph glyph-name="p" unicode="p" horiz-adv-x="1288" 
d="M717 -33q-112 0 -193.5 49.5t-122.5 143.5v-570h-243v1434h243v-172q42 98 123.5 151.5t192.5 53.5q115 0 206.5 -44t149.5 -120t88.5 -175.5t30.5 -213.5q0 -153 -52 -272.5t-161 -192t-262 -72.5zM401 489q0 -83 22.5 -146t61 -99.5t85 -54t100.5 -17.5t100 17t85 54
t61 103.5t22 157.5q0 177 -76 262.5t-192 85.5q-53 0 -100 -20.5t-85.5 -62t-61 -113.5t-22.5 -167z" />
    <glyph glyph-name="q" unicode="q" horiz-adv-x="1288" 
d="M563 -33q-114 0 -204.5 41.5t-147 114.5t-86 170t-29.5 211q0 115 29.5 214t86 175t147 120t204.5 44q113 0 197 -55t127 -154v176h243v-1434h-243v574q-43 -95 -126.5 -146t-197.5 -51zM350 504q0 -91 22 -157.5t61 -103.5t85 -54t100 -17t100.5 17.5t85 54t61 99.5
t22.5 146q0 95 -22.5 167t-61 113.5t-85.5 62t-100 20.5q-116 0 -192 -85.5t-76 -262.5z" />
    <glyph glyph-name="r" unicode="r" horiz-adv-x="806" 
d="M137 0v1024h254v-205q36 103 106 154t162 51h136v-205h-177q-123 0 -175 -84.5t-52 -273.5v-461h-254z" />
    <glyph glyph-name="s" unicode="s" horiz-adv-x="1103" 
d="M571 -33q-76 0 -146 14.5t-134 46t-111.5 77t-75.5 113t-28 149.5l246 20q0 -57 22.5 -100t59.5 -67t79 -36t88 -12q91 0 147 32.5t56 92.5q0 34 -17.5 59t-50 39.5t-63 22t-72.5 12.5l-133 16q-131 16 -219 95.5t-88 210.5q0 96 60 166.5t154.5 104.5t209.5 34
t210.5 -36.5t155.5 -112t60 -177.5l-246 -20q0 69 -50 105t-130 36q-74 0 -121 -28.5t-47 -78.5q0 -86 145 -108l123 -14q373 -50 373 -318q0 -108 -64 -186.5t-165.5 -115t-227.5 -36.5z" />
    <glyph glyph-name="t" unicode="t" horiz-adv-x="819" 
d="M535 0q-159 0 -239.5 76t-80.5 246v497h-174v205h174v309l242 21v-330h266v-205h-266v-467q0 -93 28 -120t115 -27h123v-205h-188z" />
    <glyph glyph-name="u" unicode="u" 
d="M461 -33q-152 0 -238 98.5t-86 284.5v674h254v-651q0 -62 14.5 -103.5t40.5 -62t53 -28t62 -7.5q102 0 168 87t66 273v492h254v-1024h-254v188q-41 -106 -125 -163.5t-209 -57.5z" />
    <glyph glyph-name="v" unicode="v" horiz-adv-x="1097" 
d="M412 0l-385 1024h245l269 -715l282 715h248l-405 -1024h-254z" />
    <glyph glyph-name="w" unicode="w" horiz-adv-x="1624" 
d="M317 0l-249 1024h245l170 -700l224 700h211l223 -700l170 700h245l-249 -1024h-273l-221 700l-223 -700h-273z" />
    <glyph glyph-name="x" unicode="x" horiz-adv-x="1099" 
d="M784 0l-233 326l-236 -326h-280l375 518l-365 506h281l225 -311l223 311h281l-365 -506l375 -518h-281z" />
    <glyph glyph-name="y" unicode="y" horiz-adv-x="1173" 
d="M297 -410l170 410l-440 1024h258l307 -723l297 723h256l-590 -1434h-258z" />
    <glyph glyph-name="z" unicode="z" horiz-adv-x="1017" 
d="M76 195l586 634h-586v195h866v-195l-584 -634h584v-195h-866v195z" />
    <glyph glyph-name="braceleft" unicode="{" horiz-adv-x="948" 
d="M371 1186q0 141 88 210.5t243 69.5h170v-204h-151q-68 0 -91.5 -25.5t-23.5 -108.5v-163q0 -111 -51 -202.5t-152 -148.5q203 -116 203 -338v-163q0 -83 23.5 -108t93.5 -25h149v-205h-167q-155 0 -243.5 69.5t-88.5 210.5v221q0 117 -67.5 183.5t-168.5 66.5v189
q103 0 168.5 66t65.5 184v221z" />
    <glyph glyph-name="bar" unicode="|" horiz-adv-x="559" 
d="M158 -211v1808h243v-1808h-243z" />
    <glyph glyph-name="braceright" unicode="}" horiz-adv-x="948" 
d="M342 1128q0 83 -23.5 108.5t-91.5 25.5h-151v204h170q155 0 243.5 -69.5t88.5 -210.5v-221q0 -118 65 -184t168 -66v-189q-101 0 -168.5 -66.5t-67.5 -183.5v-221q0 -141 -88 -210.5t-243 -69.5h-168v205h149q70 0 93.5 25t23.5 108v163q0 222 203 338
q-101 57 -152 148.5t-51 202.5v163z" />
    <glyph glyph-name="asciitilde" unicode="~" horiz-adv-x="1011" 
d="M96 459q0 134 68.5 210t175.5 79q58 1 105 -17.5t72 -41t57 -41.5t63 -19q39 0 57.5 35t18.5 90l202 -21q0 -134 -69 -211.5t-174 -77.5q-58 0 -105 18.5t-72 40t-57 40t-63 18.5q-36 0 -56 -35t-20 -88z" />
    <glyph glyph-name="exclamdown" unicode="&#xa1;" horiz-adv-x="833" 
d="M590 637l-131 -993h-254l170 993h215zM336 797v280h293v-280h-293z" />
    <glyph glyph-name="cent" unicode="&#xa2;" horiz-adv-x="1196" 
d="M543 -197v353q-91 10 -170 47.5t-142 101.5t-99 163t-36 222q0 124 36.5 225t99 166.5t141.5 105t170 50.5v360h143v-358q174 -16 281.5 -113t132.5 -301l-252 -20q-19 95 -57.5 150t-104.5 73v-663q65 17 104 67.5t58 142.5l252 -20q-13 -104 -48.5 -180t-91.5 -121.5
t-122.5 -69t-151.5 -30.5v-351h-143zM350 692q0 -135 48.5 -219.5t144.5 -107.5v663q-93 -27 -143 -117.5t-50 -218.5z" />
    <glyph glyph-name="sterling" unicode="&#xa3;" horiz-adv-x="1396" 
d="M117 158q109 80 158.5 151.5t50 137.5t-18.5 147h-266v164h227q-35 159 -35 293q0 192 139.5 303.5t385.5 111.5q148 0 269 -58.5t190 -168t63 -248.5l-248 -33q13 140 -66.5 222t-207.5 82q-123 0 -197 -52.5t-74 -156.5q0 -115 45 -295h408v-164h-369q13 -71 15 -134
t-24.5 -129t-84.5 -126h762v-205h-1122v158z" />
    <glyph glyph-name="currency" unicode="&#xa4;" horiz-adv-x="1419" 
d="M711 127q-136 0 -252 76l-150 -150l-143 144l147 147q-73 115 -73 254q0 134 73 254l-149 149l143 144l150 -150q115 76 254 76q137 0 254 -74l145 146l145 -146l-145 -145q72 -118 72 -252q0 -137 -74 -254l147 -147l-145 -146l-147 148q-122 -74 -252 -74zM426 598
q0 -117 83 -200.5t202 -84.5q119 2 201.5 85.5t82.5 201.5q0 117 -83 201t-201 84q-117 -2 -200.5 -85.5t-84.5 -201.5z" />
    <glyph glyph-name="yen" unicode="&#xa5;" horiz-adv-x="1333" 
d="M539 0v266h-359v144h359v190h-359v143h299l-444 691h278l355 -541l352 541h278l-444 -691h299v-143h-358v-190h358v-144h-358v-266h-256z" />
    <glyph glyph-name="brokenbar" unicode="&#xa6;" horiz-adv-x="559" 
d="M158 137v1127h243v-1127h-243z" />
    <glyph glyph-name="section" unicode="&#xa7;" horiz-adv-x="983" 
d="M500 -172q-183 0 -303.5 110.5t-120.5 258.5l256 20q0 -74 48.5 -129t119.5 -55q69 0 108 38.5t39 94.5q0 41 -32.5 75t-85 59t-115.5 49t-126 52.5t-115.5 62.5t-85 85t-32.5 115q0 153 158 217q-131 88 -131 247q0 140 109.5 239t291.5 99q183 0 303.5 -110t120.5 -258
l-256 -21q0 74 -48.5 129.5t-119.5 55.5q-69 0 -108 -39t-39 -95q0 -41 32.5 -75t85 -59t115.5 -49t126 -52t115.5 -62t85 -85t32.5 -115q0 -153 -158 -217q131 -88 131 -248q0 -140 -109.5 -239t-291.5 -99zM309 690q0 -19 4 -35.5t15.5 -30.5t21 -25t30.5 -22t33.5 -18
t41 -17.5t42 -15t47 -15.5t46.5 -15q84 31 84 108q0 17 -4.5 32.5t-10.5 27.5t-19 24t-23 20.5t-30.5 18.5t-32.5 16t-38 15t-38.5 13.5t-42.5 14t-42 13.5q-84 -31 -84 -109z" />
    <glyph glyph-name="copyright" unicode="&#xa9;" horiz-adv-x="1785" 
d="M897 317q-66 0 -129.5 24t-118 70.5t-88 125.5t-33.5 178q0 100 33.5 179.5t88 126.5t118 71t129.5 24q65 0 126 -19.5t111.5 -56.5t84.5 -97t41 -134l-189 -16q-16 83 -55.5 124t-118.5 41q-84 0 -132 -64.5t-48 -178.5t47.5 -177t132.5 -63q80 0 119 38.5t55 121.5
l189 -17q-7 -74 -41 -133t-84.5 -95t-111.5 -54.5t-126 -18.5zM129 717q0 155 61 296t163.5 243.5t244.5 163.5t297 61q154 0 295 -61t243.5 -163t163 -243.5t60.5 -296.5t-60.5 -296.5t-163 -243.5t-243.5 -163t-295 -61q-155 0 -297 61t-244.5 163.5t-163.5 243.5t-61 296
zM289 717q0 -164 81 -303t220.5 -220t304.5 -81q122 0 233.5 48t192.5 128.5t128.5 192.5t47.5 235t-47.5 235t-128.5 192.5t-192.5 128.5t-233.5 48q-165 0 -304.5 -81t-220.5 -220t-81 -303z" />
    <glyph glyph-name="guillemotleft" unicode="&#xab;" horiz-adv-x="1552" 
d="M1223 0q0 88 -27.5 159t-70 114t-97.5 72t-105.5 40.5t-99.5 11.5v230q49 0 99.5 11.5t105.5 40.5t97.5 72t70 114t27.5 159h233q0 -169 -93.5 -313t-246.5 -199q153 -55 246.5 -199t93.5 -313h-233zM137 397v230q48 0 98.5 11.5t105 40.5t97 72t70 114t27.5 159h235
q0 -169 -94 -313t-248 -199q154 -55 248 -199t94 -313h-235q0 88 -27.5 159t-70 114t-97 72t-105 40.5t-98.5 11.5z" />
    <glyph glyph-name="registered" unicode="&#xae;" horiz-adv-x="962" 
d="M481 586q-183 0 -311.5 128t-128.5 312t128.5 312t311.5 128q185 0 313 -128t128 -312t-128 -312t-313 -128zM135 1026q0 -146 100 -246t246 -100q149 0 247.5 99.5t98.5 246.5q0 148 -98.5 247t-247.5 99q-147 0 -246.5 -99.5t-99.5 -246.5zM322 809v459h159
q25 0 50.5 -5t56.5 -18.5t50 -43.5t19 -73q0 -75 -84 -96q49 -4 65 -25.5t19 -82.5l7 -115h-107l-6 121q-2 38 -10.5 49.5t-40.5 11.5h-72v-182h-106zM428 1081h55q68 0 68 47q0 50 -68 50h-55v-97z" />
    <glyph glyph-name="degree" unicode="&#xb0;" horiz-adv-x="860" 
d="M430 803q-141 0 -244.5 103.5t-103.5 244.5t103.5 244.5t244.5 103.5t244.5 -103.5t103.5 -244.5t-103.5 -244.5t-244.5 -103.5zM279 1151q0 -66 42.5 -109t108.5 -43t109 43t43 109t-43 109t-109 43t-108.5 -43t-42.5 -109z" />
    <glyph glyph-name="plusminus" unicode="&#xb1;" horiz-adv-x="1226" 
d="M512 281v372h-375v203h375v377h203v-377h375v-203h-375v-372h-203zM137 -29v203h953v-203h-953z" />
    <glyph glyph-name="uni00B5" unicode="&#xb5;" horiz-adv-x="1226" 
d="M473 -33q-37 0 -67 6v-381h-256v1432h256v-651q0 -62 14 -103.5t39.5 -62t52 -28t61.5 -7.5q102 0 168 87t66 273v492h256v-1024h-256v188q-41 -106 -125 -163.5t-209 -57.5z" />
    <glyph glyph-name="paragraph" unicode="&#xb6;" horiz-adv-x="1472" 
d="M575 578q-32 0 -67.5 3.5t-86 15t-96 30t-92 51.5t-80.5 76.5t-55.5 108.5t-21.5 143q0 79 21.5 144t55.5 108.5t80.5 76.5t92 51.5t96 29.5t86 14.5t67.5 3.5h801v-205h-149v-1372h-215v1372h-135v-1372h-215v721h-87zM289 1006q0 -123 78.5 -173.5t248.5 -50.5h46v447
h-46q-170 0 -248.5 -50.5t-78.5 -172.5z" />
    <glyph glyph-name="periodcentered" unicode="&#xb7;" horiz-adv-x="532" 
d="M266 401q-52 0 -90.5 38.5t-38.5 90.5t38.5 90.5t90.5 38.5t90.5 -38.5t38.5 -90.5t-38.5 -90.5t-90.5 -38.5z" />
    <glyph glyph-name="guillemotright" unicode="&#xbb;" horiz-adv-x="1552" 
d="M782 0q0 169 94 313t248 199q-154 55 -248 199t-94 313h236q0 -88 27.5 -159t69.5 -114t97 -72t105 -40.5t98 -11.5v-230q-48 0 -98 -11.5t-105 -40.5t-97 -72t-69.5 -114t-27.5 -159h-236zM96 0q0 169 93.5 313t246.5 199q-153 55 -246.5 199t-93.5 313h234
q0 -88 27.5 -159t69.5 -114t97 -72t105.5 -40.5t99.5 -11.5v-230q-49 0 -99.5 -11.5t-105.5 -40.5t-97 -72t-69.5 -114t-27.5 -159h-234z" />
    <glyph glyph-name="onequarter" unicode="&#xbc;" horiz-adv-x="1712" 
d="M1010 299q53 25 92.5 69t62 100t33 117.5t10.5 131.5h166q0 -101 -32.5 -213.5t-100.5 -190.5h205v404h162v-404h92v-141h-92v-172h-162v172h-436v127zM96 717v143h185v291q-44 -64 -127 -64h-58v142h58q57 0 81.5 13t35 55t10.5 137h161v-574h185v-143h-531zM287 0
l1050 1466h197l-1051 -1466h-196z" />
    <glyph glyph-name="onehalf" unicode="&#xbd;" horiz-adv-x="1693" 
d="M1108 125q13 9 68.5 40.5t104.5 63.5t103 73t86.5 87t32.5 88q0 58 -33 86.5t-86 28.5q-54 0 -86.5 -40t-29.5 -118l-160 21q-3 130 70.5 204t205.5 74q127 0 204 -73.5t77 -182.5q0 -168 -279 -334h295v-143h-573v125zM96 717v143h185v291q-44 -64 -127 -64h-58v142h58
q57 0 81.5 13t35 55t10.5 137h161v-574h185v-143h-531zM287 0l1050 1466h197l-1051 -1466h-196z" />
    <glyph glyph-name="threequarters" unicode="&#xbe;" horiz-adv-x="1691" 
d="M332 700q-134 0 -218.5 72t-78.5 180l164 19q-3 -64 35.5 -94.5t97.5 -30.5q137 0 137 86q0 84 -137 84h-90v147h90q52 0 82 19t30 55q0 35 -30 53.5t-82 18.5q-111 0 -111 -86l-164 18q-2 81 72.5 145t202.5 64t201 -60t73 -153q0 -100 -88 -145q115 -41 115 -160
q0 -104 -84 -168t-217 -64zM205 0l1050 1466h197l-1051 -1466h-196zM928 172v127q53 25 92.5 69t62 100t33 117.5t10.5 131.5h166q0 -101 -32.5 -213.5t-100.5 -190.5h205v404h162v-404h92v-141h-92v-172h-162v172h-436z" />
    <glyph glyph-name="questiondown" unicode="&#xbf;" horiz-adv-x="1239" 
d="M791 338q-204 0 -312 -74.5t-108 -200.5q0 -124 72 -185.5t178 -61.5q51 0 95 17t81 53t58.5 100.5t21.5 150.5l245 -20q0 -141 -59 -255.5t-174.5 -182.5t-267.5 -68q-232 0 -368 125t-136 327q0 94 34.5 171t95 128t136.5 82t164 41v205h244v-352zM528 838v239h279
v-239h-279z" />
    <glyph glyph-name="Agrave" unicode="&#xc0;" horiz-adv-x="1437" 
d="M55 0l531 1434h266l530 -1434h-256l-145 395h-524l-146 -395h-256zM406 1890h266l131 -293h-180zM532 598h373l-186 504z" />
    <glyph glyph-name="Aacute" unicode="&#xc1;" horiz-adv-x="1437" 
d="M55 0l531 1434h266l530 -1434h-256l-145 395h-524l-146 -395h-256zM532 598h373l-186 504zM645 1597l131 293h266l-217 -293h-180z" />
    <glyph glyph-name="Acircumflex" unicode="&#xc2;" horiz-adv-x="1437" 
d="M55 0l531 1434h266l530 -1434h-256l-145 395h-524l-146 -395h-256zM381 1597l160 293h356l160 -293h-213l-125 211l-125 -211h-213zM532 598h373l-186 504z" />
    <glyph glyph-name="Atilde" unicode="&#xc3;" horiz-adv-x="1437" 
d="M55 0l531 1434h266l530 -1434h-256l-145 395h-524l-146 -395h-256zM324 1618q0 130 68.5 205t176.5 78q45 1 81.5 -11.5t59.5 -30t42 -35t40.5 -30t45.5 -12.5q38 0 56.5 34t18.5 85l203 -21q0 -130 -69.5 -206.5t-174.5 -76.5q-55 0 -98 18.5t-65 40t-50 40t-57 18.5
q-35 0 -55.5 -34.5t-20.5 -82.5zM532 598h373l-186 504z" />
    <glyph glyph-name="Adieresis" unicode="&#xc4;" horiz-adv-x="1437" 
d="M55 0l531 1434h266l530 -1434h-256l-145 395h-524l-146 -395h-256zM369 1597v240h280v-240h-280zM532 598h373l-186 504zM791 1597v240h280v-240h-280z" />
    <glyph glyph-name="Aring" unicode="&#xc5;" horiz-adv-x="1437" 
d="M55 0l531 1434h266l530 -1434h-256l-145 395h-524l-146 -395h-256zM485 1806q0 94 70 164t164 70q95 0 165 -70t70 -164q0 -95 -70 -165t-165 -70q-94 0 -164 70t-70 165zM532 598h373l-186 504zM633 1806q0 -38 24.5 -62t61.5 -24q38 0 62 24t24 62q0 37 -24 61.5
t-62 24.5q-37 0 -61.5 -24.5t-24.5 -61.5z" />
    <glyph glyph-name="AE" unicode="&#xc6;" horiz-adv-x="1785" 
d="M55 0l531 1434h1083v-205h-741l141 -383h498v-203h-422l162 -438h362v-205h-543l-145 395h-524l-146 -395h-256zM532 598h373l-186 504z" />
    <glyph glyph-name="Ccedilla" unicode="&#xc7;" horiz-adv-x="1548" 
d="M805 -442q-86 0 -146 44t-63 111l139 21q1 -31 20.5 -47.5t49.5 -16.5q32 0 52 18t20 52q0 31 -20 49t-52 18q-48 0 -66 -36l-59 28l-57 27l45 149q-88 14 -169 49t-155 97t-128.5 144.5t-87 198t-32.5 251.5q0 152 40.5 279t108 212.5t156.5 145.5t183.5 87t191.5 27
q92 0 178 -21t166 -66.5t143.5 -112t108 -163.5t60.5 -214l-258 -21q-35 188 -130 283.5t-268 95.5q-193 0 -309.5 -147.5t-116.5 -384.5q0 -238 116 -384.5t310 -146.5q176 0 270.5 90.5t127.5 278.5l258 -21q-18 -137 -74 -243.5t-138.5 -172.5t-179.5 -102.5t-206 -44.5
l-23 -51q6 2 20 2q72 0 128.5 -49.5t56.5 -130.5q0 -84 -60.5 -133t-150.5 -49z" />
    <glyph glyph-name="Egrave" unicode="&#xc8;" horiz-adv-x="1189" 
d="M158 0v1434h917v-205h-663v-383h561v-203h-561v-438h663v-205h-917zM301 1849h266l131 -293h-180z" />
    <glyph glyph-name="Eacute" unicode="&#xc9;" horiz-adv-x="1189" 
d="M158 0v1434h917v-205h-663v-383h561v-203h-561v-438h663v-205h-917zM535 1556l131 293h266l-217 -293h-180z" />
    <glyph glyph-name="Ecircumflex" unicode="&#xca;" horiz-adv-x="1189" 
d="M158 0v1434h917v-205h-663v-383h561v-203h-561v-438h663v-205h-917zM279 1614l159 293h357l159 -293h-213l-125 211l-124 -211h-213z" />
    <glyph glyph-name="Edieresis" unicode="&#xcb;" horiz-adv-x="1189" 
d="M686 1597v240h281v-240h-281zM158 0v1434h917v-205h-663v-383h561v-203h-561v-438h663v-205h-917zM264 1597v240h281v-240h-281z" />
    <glyph glyph-name="Igrave" unicode="&#xcc;" horiz-adv-x="571" 
d="M160 0v1434h254v-1434h-254zM-27 1890h267l131 -293h-181z" />
    <glyph glyph-name="Iacute" unicode="&#xcd;" horiz-adv-x="571" 
d="M158 0v1434h254v-1434h-254zM203 1597l131 293h266l-217 -293h-180z" />
    <glyph glyph-name="Icircumflex" unicode="&#xce;" horiz-adv-x="620" 
d="M184 0v1434h254v-1434h-254zM-27 1597l160 293h356l160 -293h-213l-125 211l-125 -211h-213z" />
    <glyph glyph-name="Idieresis" unicode="&#xcf;" horiz-adv-x="667" 
d="M207 0v1434h254v-1434h-254zM-16 1597v240h280v-240h-280zM406 1597v240h280v-240h-280z" />
    <glyph glyph-name="Ntilde" unicode="&#xd1;" horiz-adv-x="1517" 
d="M158 0v1434h301l645 -1106v1106h256v-1434h-322l-626 1071v-1071h-254zM362 1618q0 130 69 205t177 78q45 1 81.5 -11.5t59.5 -30t42 -35t40.5 -30t45.5 -12.5q38 0 56.5 34t18.5 85l203 -21q0 -130 -69.5 -206.5t-174.5 -76.5q-55 0 -98 18.5t-65 40t-50 40t-57 18.5
q-35 0 -55.5 -34.5t-20.5 -82.5z" />
    <glyph glyph-name="Ograve" unicode="&#xd2;" horiz-adv-x="1576" 
d="M788 -33q-105 0 -203 27t-187.5 86t-156 145t-106 212.5t-39.5 279.5t39.5 279.5t106 212t156 144.5t187.5 86t203 27t203.5 -27t188 -86t156 -144.5t106 -212t39.5 -279.5t-39.5 -279.5t-106 -212.5t-156 -145t-188 -86t-203.5 -27zM358 717q0 -152 50 -271.5
t148.5 -190.5t231.5 -71q134 0 232.5 71t148.5 190.5t50 271.5q0 151 -50.5 271t-149.5 190.5t-231 70.5t-230.5 -70.5t-149 -190.5t-50.5 -271zM475 1890h266l131 -293h-180z" />
    <glyph glyph-name="Oacute" unicode="&#xd3;" horiz-adv-x="1576" 
d="M788 -33q-105 0 -203 27t-187.5 86t-156 145t-106 212.5t-39.5 279.5t39.5 279.5t106 212t156 144.5t187.5 86t203 27t203.5 -27t188 -86t156 -144.5t106 -212t39.5 -279.5t-39.5 -279.5t-106 -212.5t-156 -145t-188 -86t-203.5 -27zM358 717q0 -152 50 -271.5
t148.5 -190.5t231.5 -71q134 0 232.5 71t148.5 190.5t50 271.5q0 151 -50.5 271t-149.5 190.5t-231 70.5t-230.5 -70.5t-149 -190.5t-50.5 -271zM707 1597l131 293h266l-217 -293h-180z" />
    <glyph glyph-name="Ocircumflex" unicode="&#xd4;" horiz-adv-x="1576" 
d="M788 -33q-105 0 -203 27t-187.5 86t-156 145t-106 212.5t-39.5 279.5t39.5 279.5t106 212t156 144.5t187.5 86t203 27t203.5 -27t188 -86t156 -144.5t106 -212t39.5 -279.5t-39.5 -279.5t-106 -212.5t-156 -145t-188 -86t-203.5 -27zM358 717q0 -152 50 -271.5
t148.5 -190.5t231.5 -71q134 0 232.5 71t148.5 190.5t50 271.5q0 151 -50.5 271t-149.5 190.5t-231 70.5t-230.5 -70.5t-149 -190.5t-50.5 -271zM451 1597l159 293h357l159 -293h-213l-125 211l-124 -211h-213z" />
    <glyph glyph-name="Otilde" unicode="&#xd5;" horiz-adv-x="1576" 
d="M788 -33q-105 0 -203 27t-187.5 86t-156 145t-106 212.5t-39.5 279.5t39.5 279.5t106 212t156 144.5t187.5 86t203 27t203.5 -27t188 -86t156 -144.5t106 -212t39.5 -279.5t-39.5 -279.5t-106 -212.5t-156 -145t-188 -86t-203.5 -27zM358 717q0 -152 50 -271.5
t148.5 -190.5t231.5 -71q134 0 232.5 71t148.5 190.5t50 271.5q0 151 -50.5 271t-149.5 190.5t-231 70.5t-230.5 -70.5t-149 -190.5t-50.5 -271zM393 1618q0 130 69 205t177 78q55 1 98 -17.5t64.5 -41t49 -41.5t56.5 -19q39 0 57.5 34t18.5 85l203 -21q0 -130 -69.5 -206.5
t-174.5 -76.5q-55 0 -98 18.5t-65 40t-50 40t-57 18.5q-35 0 -55.5 -34.5t-20.5 -82.5z" />
    <glyph glyph-name="Odieresis" unicode="&#xd6;" horiz-adv-x="1576" 
d="M788 -33q-105 0 -203 27t-187.5 86t-156 145t-106 212.5t-39.5 279.5t39.5 279.5t106 212t156 144.5t187.5 86t203 27t203.5 -27t188 -86t156 -144.5t106 -212t39.5 -279.5t-39.5 -279.5t-106 -212.5t-156 -145t-188 -86t-203.5 -27zM358 717q0 -152 50 -271.5
t148.5 -190.5t231.5 -71q134 0 232.5 71t148.5 190.5t50 271.5q0 151 -50.5 271t-149.5 190.5t-231 70.5t-230.5 -70.5t-149 -190.5t-50.5 -271zM438 1597v240h281v-240h-281zM860 1597v240h281v-240h-281z" />
    <glyph glyph-name="multiply" unicode="&#xd7;" horiz-adv-x="1128" 
d="M270 170l-143 143l293 293l-295 295l145 143l293 -294l297 297l144 -146l-297 -295l294 -295l-143 -143l-295 295z" />
    <glyph glyph-name="Oslash" unicode="&#xd8;" horiz-adv-x="1564" 
d="M-6 -135l262 336q-166 201 -166 516q0 153 39.5 279.5t106 212t156 144.5t187.5 86t203 27q215 0 381 -104l160 205h250l-262 -336q164 -198 164 -514q0 -153 -39.5 -279.5t-106 -212.5t-156 -145t-188 -86t-203.5 -27q-211 0 -376 105l-162 -207h-250zM352 717
q0 -177 68 -307l598 766q-103 73 -236 73q-132 0 -230.5 -70.5t-149 -190.5t-50.5 -271zM549 256q101 -72 233 -72q133 0 232 71t148.5 190.5t49.5 271.5q0 176 -65 303z" />
    <glyph glyph-name="Ugrave" unicode="&#xd9;" horiz-adv-x="1423" 
d="M713 -33q-115 0 -214 34.5t-176 101.5t-121 174.5t-44 244.5v912h254v-912q0 -95 24 -163.5t67.5 -105t95 -53t114.5 -16.5q299 0 299 338v912h254v-912q0 -137 -44 -244.5t-120 -174.5t-175 -101.5t-214 -34.5zM397 1890h267l131 -293h-181z" />
    <glyph glyph-name="Uacute" unicode="&#xda;" horiz-adv-x="1423" 
d="M713 -33q-115 0 -214 34.5t-176 101.5t-121 174.5t-44 244.5v912h254v-912q0 -95 24 -163.5t67.5 -105t95 -53t114.5 -16.5q299 0 299 338v912h254v-912q0 -137 -44 -244.5t-120 -174.5t-175 -101.5t-214 -34.5zM631 1597l131 293h266l-217 -293h-180z" />
    <glyph glyph-name="Ucircumflex" unicode="&#xdb;" horiz-adv-x="1423" 
d="M713 -33q-115 0 -214 34.5t-176 101.5t-121 174.5t-44 244.5v912h254v-912q0 -95 24 -163.5t67.5 -105t95 -53t114.5 -16.5q299 0 299 338v912h254v-912q0 -137 -44 -244.5t-120 -174.5t-175 -101.5t-214 -34.5zM375 1597l160 293h356l160 -293h-213l-125 211l-125 -211
h-213z" />
    <glyph glyph-name="Udieresis" unicode="&#xdc;" horiz-adv-x="1423" 
d="M713 -33q-115 0 -214 34.5t-176 101.5t-121 174.5t-44 244.5v912h254v-912q0 -95 24 -163.5t67.5 -105t95 -53t114.5 -16.5q299 0 299 338v912h254v-912q0 -137 -44 -244.5t-120 -174.5t-175 -101.5t-214 -34.5zM362 1597v240h281v-240h-281zM784 1597v240h281v-240h-281
z" />
    <glyph glyph-name="Yacute" unicode="&#xdd;" horiz-adv-x="1245" 
d="M297 0l199 442l-461 992h256l340 -699l313 699h266l-647 -1434h-266zM541 1597l131 293h266l-217 -293h-180z" />
    <glyph glyph-name="Thorn" unicode="&#xde;" horiz-adv-x="1271" 
d="M158 0v1434h254v-295h243q33 0 68.5 -3t88.5 -13t100 -27t97 -49t85.5 -74t58.5 -106t23 -142t-23 -142t-58.5 -106t-85.5 -74t-97 -49t-100 -27t-88.5 -13t-68.5 -3h-243v-311h-254zM412 516h202q156 0 232 47.5t76 161.5q0 113 -76.5 162t-231.5 49h-202v-420z" />
    <glyph glyph-name="germandbls" unicode="&#xdf;" horiz-adv-x="1374" 
d="M616 0v211h115q128 -2 208.5 50.5t80.5 164.5q0 110 -80 162.5t-209 52.5h-115v209h84q128 0 199.5 55t71.5 154q0 96 -71.5 149.5t-199.5 53.5q-130 0 -209 -78.5t-79 -227.5v-956h-254v956q0 129 43.5 228.5t119 160t171.5 91t208 30.5q222 0 374.5 -116t152.5 -291
q0 -221 -207 -303q128 -32 194 -111t66 -219q0 -212 -143 -319t-406 -107h-115z" />
    <glyph glyph-name="agrave" unicode="&#xe0;" horiz-adv-x="1124" 
d="M434 -31q-139 0 -238.5 82t-99.5 219q0 70 24 124.5t62.5 90t99.5 62.5t121.5 42t143.5 29q116 18 137 24q71 21 74 73q1 19 -6 43q-26 94 -191 94q-97 0 -146.5 -43.5t-52.5 -110.5l-253 21q0 38 11.5 79.5t43.5 89t80.5 84t131 61t185.5 24.5q447 0 447 -410v-647h-244
v211q-36 -106 -121 -174t-209 -68zM246 1481h266l131 -293h-180zM350 293q0 -55 41 -87t105 -32q110 0 189 79.5t79 217.5v68q-43 -62 -232 -97q-182 -35 -182 -149z" />
    <glyph glyph-name="aacute" unicode="&#xe1;" horiz-adv-x="1124" 
d="M434 -31q-139 0 -238.5 82t-99.5 219q0 70 24 124.5t62.5 90t99.5 62.5t121.5 42t143.5 29q116 18 137 24q71 21 74 73q1 19 -6 43q-26 94 -191 94q-97 0 -146.5 -43.5t-52.5 -110.5l-253 21q0 38 11.5 79.5t43.5 89t80.5 84t131 61t185.5 24.5q447 0 447 -410v-647h-244
v211q-36 -106 -121 -174t-209 -68zM350 293q0 -55 41 -87t105 -32q110 0 189 79.5t79 217.5v68q-43 -62 -232 -97q-182 -35 -182 -149zM492 1188l131 293h266l-217 -293h-180z" />
    <glyph glyph-name="acircumflex" unicode="&#xe2;" horiz-adv-x="1124" 
d="M434 -31q-139 0 -238.5 82t-99.5 219q0 70 24 124.5t62.5 90t99.5 62.5t121.5 42t143.5 29q116 18 137 24q71 21 74 73q1 19 -6 43q-26 94 -191 94q-97 0 -146.5 -43.5t-52.5 -110.5l-253 21q0 38 11.5 79.5t43.5 89t80.5 84t131 61t185.5 24.5q447 0 447 -410v-647h-244
v211q-36 -106 -121 -174t-209 -68zM233 1188l160 293h357l159 -293h-213l-125 211l-125 -211h-213zM350 293q0 -55 41 -87t105 -32q110 0 189 79.5t79 217.5v68q-43 -62 -232 -97q-182 -35 -182 -149z" />
    <glyph glyph-name="atilde" unicode="&#xe3;" horiz-adv-x="1124" 
d="M434 -31q-139 0 -238.5 82t-99.5 219q0 70 24 124.5t62.5 90t99.5 62.5t121.5 42t143.5 29q116 18 137 24q71 21 74 73q1 19 -6 43q-26 94 -191 94q-97 0 -146.5 -43.5t-52.5 -110.5l-253 21q0 38 11.5 79.5t43.5 89t80.5 84t131 61t185.5 24.5q447 0 447 -410v-647h-244
v211q-36 -106 -121 -174t-209 -68zM174 1208q0 130 69 205t177 78q55 1 98 -17.5t64.5 -41t49 -41.5t56.5 -19q39 0 57.5 34t18.5 85l203 -21q0 -130 -69.5 -206t-174.5 -76q-55 0 -98 18.5t-65 40t-50 40t-57 18.5q-35 0 -55.5 -34.5t-20.5 -82.5zM350 293q0 -55 41 -87
t105 -32q110 0 189 79.5t79 217.5v68q-43 -62 -232 -97q-182 -35 -182 -149z" />
    <glyph glyph-name="adieresis" unicode="&#xe4;" horiz-adv-x="1124" 
d="M434 -31q-139 0 -238.5 82t-99.5 219q0 70 24 124.5t62.5 90t99.5 62.5t121.5 42t143.5 29q116 18 137 24q71 21 74 73q1 19 -6 43q-26 94 -191 94q-97 0 -146.5 -43.5t-52.5 -110.5l-253 21q0 38 11.5 79.5t43.5 89t80.5 84t131 61t185.5 24.5q447 0 447 -410v-647h-244
v211q-36 -106 -121 -174t-209 -68zM221 1188v239h281v-239h-281zM350 293q0 -55 41 -87t105 -32q110 0 189 79.5t79 217.5v68q-43 -62 -232 -97q-182 -35 -182 -149zM643 1188v239h281v-239h-281z" />
    <glyph glyph-name="aring" unicode="&#xe5;" horiz-adv-x="1124" 
d="M434 -31q-139 0 -238.5 82t-99.5 219q0 70 24 124.5t62.5 90t99.5 62.5t121.5 42t143.5 29q116 18 137 24q71 21 74 73q1 19 -6 43q-26 94 -191 94q-97 0 -146.5 -43.5t-52.5 -110.5l-253 21q0 38 11.5 79.5t43.5 89t80.5 84t131 61t185.5 24.5q447 0 447 -410v-647h-244
v211q-36 -106 -121 -174t-209 -68zM340 1397q0 94 69.5 163.5t163.5 69.5q95 0 165.5 -69.5t70.5 -163.5q0 -95 -70.5 -165.5t-165.5 -70.5q-94 0 -163.5 70.5t-69.5 165.5zM350 293q0 -55 41 -87t105 -32q110 0 189 79.5t79 217.5v68q-43 -62 -232 -97q-182 -35 -182 -149z
M487 1397q0 -38 24.5 -62t61.5 -24q38 0 62 24t24 62q0 37 -24 61.5t-62 24.5q-37 0 -61.5 -24.5t-24.5 -61.5z" />
    <glyph glyph-name="ae" unicode="&#xe6;" horiz-adv-x="1810" 
d="M434 -31q-139 0 -238.5 82t-99.5 219q0 70 24 124.5t62.5 90t99.5 62.5t121.5 42t143.5 29q116 18 137 24q71 21 74 73q1 19 -6 43q-26 94 -191 94q-97 0 -146.5 -43.5t-52.5 -110.5l-253 21q0 38 11.5 79.5t43.5 89t80.5 84t131 61t185.5 24.5q105 0 198.5 -41
t143.5 -119q56 78 148.5 119t191.5 41q95 0 178 -33t149.5 -98t105 -173t38.5 -247v-49h-723q0 -130 65.5 -207.5t186.5 -77.5q183 0 221 150l248 -21q-15 -151 -148 -242.5t-321 -91.5q-62 0 -121.5 11.5t-120 37.5t-111.5 75.5t-81 117.5q-45 -125 -145 -182.5t-230 -57.5
zM350 293q0 -55 41 -87t105 -32q41 0 77.5 9t72.5 32.5t61.5 59.5t41 95t15.5 134v31q-47 -58 -232 -93q-182 -35 -182 -149zM991 625h488q0 91 -60.5 159t-175.5 68q-116 0 -184 -69t-68 -158z" />
    <glyph glyph-name="ccedilla" unicode="&#xe7;" horiz-adv-x="1196" 
d="M631 -442q-86 0 -146 44t-63 111l139 21q1 -31 20.5 -47.5t49.5 -16.5q32 0 51.5 18t19.5 52q0 31 -19.5 49t-51.5 18q-48 0 -66 -36l-59 28l-57 27l47 154q-84 17 -154.5 56.5t-126.5 103t-87.5 157.5t-31.5 209q0 136 43.5 243.5t117 173.5t164 100t191.5 34
q78 0 143.5 -12.5t125 -42.5t103 -76.5t74.5 -118.5t42 -166l-252 -20q-24 119 -78.5 175t-157.5 56q-125 0 -193.5 -96t-68.5 -248q0 -159 66.5 -247.5t195.5 -88.5q99 0 156 51.5t80 167.5l252 -20q-13 -108 -51.5 -185.5t-98.5 -123t-131 -67.5t-160 -26l-22 -51
q6 2 20 2q72 0 128.5 -49.5t56.5 -130.5q0 -84 -60.5 -133t-150.5 -49z" />
    <glyph glyph-name="egrave" unicode="&#xe8;" horiz-adv-x="1169" 
d="M602 -33q-96 0 -183.5 31.5t-161 93.5t-117.5 169t-44 245t44 246.5t117.5 173.5t161.5 98t183 33t178 -33t149.5 -98t105 -173t38.5 -247v-49h-723q0 -130 65.5 -207.5t186.5 -77.5q183 0 221 150l248 -21q-15 -151 -148 -242.5t-321 -91.5zM270 1481h267l131 -293h-181
zM350 625h488q0 91 -60.5 159t-175.5 68q-116 0 -184 -69t-68 -158z" />
    <glyph glyph-name="eacute" unicode="&#xe9;" horiz-adv-x="1169" 
d="M602 -33q-96 0 -183.5 31.5t-161 93.5t-117.5 169t-44 245t44 246.5t117.5 173.5t161.5 98t183 33t178 -33t149.5 -98t105 -173t38.5 -247v-49h-723q0 -130 65.5 -207.5t186.5 -77.5q183 0 221 150l248 -21q-15 -151 -148 -242.5t-321 -91.5zM350 625h488q0 91 -60.5 159
t-175.5 68q-116 0 -184 -69t-68 -158zM504 1188l131 293h266l-217 -293h-180z" />
    <glyph glyph-name="ecircumflex" unicode="&#xea;" horiz-adv-x="1169" 
d="M602 -33q-96 0 -183.5 31.5t-161 93.5t-117.5 169t-44 245t44 246.5t117.5 173.5t161.5 98t183 33t178 -33t149.5 -98t105 -173t38.5 -247v-49h-723q0 -130 65.5 -207.5t186.5 -77.5q183 0 221 150l248 -21q-15 -151 -148 -242.5t-321 -91.5zM246 1188l160 293h356
l160 -293h-213l-125 211l-125 -211h-213zM350 625h488q0 91 -60.5 159t-175.5 68q-116 0 -184 -69t-68 -158z" />
    <glyph glyph-name="edieresis" unicode="&#xeb;" horiz-adv-x="1169" 
d="M602 -33q-96 0 -183.5 31.5t-161 93.5t-117.5 169t-44 245t44 246.5t117.5 173.5t161.5 98t183 33t178 -33t149.5 -98t105 -173t38.5 -247v-49h-723q0 -130 65.5 -207.5t186.5 -77.5q183 0 221 150l248 -21q-15 -151 -148 -242.5t-321 -91.5zM233 1188v239h281v-239h-281
zM350 625h488q0 91 -60.5 159t-175.5 68q-116 0 -184 -69t-68 -158zM655 1188v239h281v-239h-281z" />
    <glyph glyph-name="igrave" unicode="&#xec;" horiz-adv-x="552" 
d="M162 0v1024h254v-1024h-254zM-27 1481h267l131 -293h-181z" />
    <glyph glyph-name="iacute" unicode="&#xed;" horiz-adv-x="548" 
d="M180 1188l131 293h267l-218 -293h-180zM137 0v1024h254v-1024h-254z" />
    <glyph glyph-name="icircumflex" unicode="&#xee;" horiz-adv-x="587" 
d="M168 0v1024h254v-1024h-254zM-43 1188l160 293h356l160 -293h-213l-125 211l-125 -211h-213z" />
    <glyph glyph-name="idieresis" unicode="&#xef;" horiz-adv-x="626" 
d="M186 0v1024h254v-1024h-254zM-37 1188v239h281v-239h-281zM385 1188v239h281v-239h-281z" />
    <glyph glyph-name="eth" unicode="&#xf0;" horiz-adv-x="1230" 
d="M623 -33q-146 -1 -266.5 60.5t-190.5 175t-70 256.5q0 213 150.5 353t376.5 140q104 0 182.5 -46t124.5 -126q-48 268 -242 396l-385 -224v144l248 143q-95 29 -191 29v196q214 0 392 -108l254 147v-143l-146 -84q133 -119 209 -301t76 -418q0 -273 -138.5 -431
t-383.5 -159zM350 463q0 -128 76.5 -209.5t196.5 -81.5q123 0 200.5 81.5t77.5 209.5q0 127 -77.5 206t-200.5 79q-122 0 -197.5 -79t-75.5 -206z" />
    <glyph glyph-name="ntilde" unicode="&#xf1;" 
d="M795 651q0 62 -14.5 103.5t-40.5 62t-53 28t-62 7.5q-102 0 -168 -87t-66 -273v-492h-254v1024h254v-188q41 106 125 163.5t209 57.5q152 0 238 -98.5t86 -284.5v-674h-254v651zM195 1208q0 130 68.5 205t176.5 78q45 1 81.5 -11.5t59.5 -30t42 -35t40.5 -30t45.5 -12.5
q38 0 56.5 34t18.5 85l203 -21q0 -130 -69.5 -206t-174.5 -76q-55 0 -98 18.5t-65 40t-50 40t-57 18.5q-35 0 -55.5 -34.5t-20.5 -82.5z" />
    <glyph glyph-name="ograve" unicode="&#xf2;" horiz-adv-x="1224" 
d="M612 -33q-99 0 -189.5 33t-164.5 97.5t-118 171t-44 241.5t44 242t118 172t164.5 99t189.5 34q100 0 190.5 -34t164.5 -99t117.5 -172t43.5 -242q0 -109 -29 -199.5t-78 -153t-115 -106t-140.5 -64t-153.5 -20.5zM299 1481h266l131 -293h-180zM350 510q0 -160 68 -249
t194 -89q127 0 194.5 89t67.5 249q0 162 -67.5 252t-194.5 90q-126 0 -194 -90.5t-68 -251.5z" />
    <glyph glyph-name="oacute" unicode="&#xf3;" horiz-adv-x="1224" 
d="M612 -33q-99 0 -189.5 33t-164.5 97.5t-118 171t-44 241.5t44 242t118 172t164.5 99t189.5 34q100 0 190.5 -34t164.5 -99t117.5 -172t43.5 -242q0 -109 -29 -199.5t-78 -153t-115 -106t-140.5 -64t-153.5 -20.5zM350 510q0 -160 68 -249t194 -89q127 0 194.5 89
t67.5 249q0 162 -67.5 252t-194.5 90q-126 0 -194 -90.5t-68 -251.5zM530 1188l132 293h266l-217 -293h-181z" />
    <glyph glyph-name="otilde" unicode="&#xf5;" horiz-adv-x="1224" 
d="M612 -33q-99 0 -189.5 33t-164.5 97.5t-118 171t-44 241.5t44 242t118 172t164.5 99t189.5 34q100 0 190.5 -34t164.5 -99t117.5 -172t43.5 -242q0 -109 -29 -199.5t-78 -153t-115 -106t-140.5 -64t-153.5 -20.5zM215 1208q0 130 69 205t177 78q55 1 98 -17.5t64.5 -41
t49 -41.5t56.5 -19q39 0 57.5 34t18.5 85l203 -21q0 -130 -69.5 -206t-174.5 -76q-55 0 -98 18.5t-65 40t-50 40t-57 18.5q-35 0 -55.5 -34.5t-20.5 -82.5zM350 510q0 -160 68 -249t194 -89q127 0 194.5 89t67.5 249q0 162 -67.5 252t-194.5 90q-126 0 -194 -90.5
t-68 -251.5z" />
    <glyph glyph-name="odieresis" unicode="&#xf6;" horiz-adv-x="1224" 
d="M612 -33q-99 0 -189.5 33t-164.5 97.5t-118 171t-44 241.5t44 242t118 172t164.5 99t189.5 34q100 0 190.5 -34t164.5 -99t117.5 -172t43.5 -242q0 -109 -29 -199.5t-78 -153t-115 -106t-140.5 -64t-153.5 -20.5zM260 1188v239h281v-239h-281zM350 510q0 -160 68 -249
t194 -89q127 0 194.5 89t67.5 249q0 162 -67.5 252t-194.5 90q-126 0 -194 -90.5t-68 -251.5zM682 1188v239h281v-239h-281z" />
    <glyph glyph-name="divide" unicode="&#xf7;" horiz-adv-x="1226" 
d="M137 504v203h953v-203h-953zM485 238q0 52 38.5 90.5t90.5 38.5t90.5 -38.5t38.5 -90.5q0 -54 -38 -93t-91 -39t-91 39t-38 93zM485 973q0 54 38 92.5t91 38.5t91 -38.5t38 -92.5q0 -53 -38.5 -91t-90.5 -38t-90.5 38t-38.5 91z" />
    <glyph glyph-name="oslash" unicode="&#xf8;" horiz-adv-x="1253" 
d="M-6 -135l229 287q-112 138 -112 358q0 135 44 242t118 172t164.5 99t189.5 34q146 0 268 -70l137 172h230l-232 -289q113 -142 113 -360q0 -109 -29 -199.5t-78 -153t-115 -106t-140.5 -64t-153.5 -20.5q-146 0 -267 68l-137 -170h-229zM365 510q0 -81 20 -156l375 465
q-61 33 -133 33q-126 0 -194 -90.5t-68 -251.5zM496 205q61 -33 131 -33q127 0 194.5 89t67.5 249q0 90 -21 158z" />
    <glyph glyph-name="ugrave" unicode="&#xf9;" 
d="M461 -33q-152 0 -238 98.5t-86 284.5v674h254v-651q0 -62 14.5 -103.5t40.5 -62t53 -28t62 -7.5q102 0 168 87t66 273v492h254v-1024h-254v188q-41 -106 -125 -163.5t-209 -57.5zM279 1481h266l131 -293h-180z" />
    <glyph glyph-name="uacute" unicode="&#xfa;" 
d="M461 -33q-152 0 -238 98.5t-86 284.5v674h254v-651q0 -62 14.5 -103.5t40.5 -62t53 -28t62 -7.5q102 0 168 87t66 273v492h254v-1024h-254v188q-41 -106 -125 -163.5t-209 -57.5zM512 1188l131 293h266l-217 -293h-180z" />
    <glyph glyph-name="ucircumflex" unicode="&#xfb;" 
d="M461 -33q-152 0 -238 98.5t-86 284.5v674h254v-651q0 -62 14.5 -103.5t40.5 -62t53 -28t62 -7.5q102 0 168 87t66 273v492h254v-1024h-254v188q-41 -106 -125 -163.5t-209 -57.5zM254 1188l160 293h356l160 -293h-213l-125 211l-125 -211h-213z" />
    <glyph glyph-name="udieresis" unicode="&#xfc;" 
d="M461 -33q-152 0 -238 98.5t-86 284.5v674h254v-651q0 -62 14.5 -103.5t40.5 -62t53 -28t62 -7.5q102 0 168 87t66 273v492h254v-1024h-254v188q-41 -106 -125 -163.5t-209 -57.5zM242 1188v239h280v-239h-280zM664 1188v239h280v-239h-280z" />
    <glyph glyph-name="yacute" unicode="&#xfd;" horiz-adv-x="1173" 
d="M297 -410l170 410l-440 1024h258l307 -723l297 723h256l-590 -1434h-258zM506 1188l131 293h266l-217 -293h-180z" />
    <glyph glyph-name="thorn" unicode="&#xfe;" horiz-adv-x="1288" 
d="M670 172q55 0 101 16.5t84.5 52.5t60.5 102t22 157q0 179 -77 265.5t-191 86.5q-115 0 -192 -93t-77 -274q0 -158 77 -235.5t192 -77.5zM158 -410v1844h243v-584q42 98 122 152.5t188 54.5q120 0 213.5 -43.5t151 -120.5t87 -176.5t29.5 -216.5q0 -238 -124 -385.5
t-357 -147.5q-109 0 -189 48.5t-121 140.5v-566h-243z" />
    <glyph glyph-name="ydieresis" unicode="&#xff;" horiz-adv-x="1173" 
d="M297 -410l170 410l-440 1024h258l307 -723l297 723h256l-590 -1434h-258zM236 1188v239h280v-239h-280zM657 1188v239h281v-239h-281z" />
    <glyph glyph-name="Amacron" unicode="&#x100;" horiz-adv-x="1437" 
d="M55 0l531 1434h266l530 -1434h-256l-145 395h-524l-146 -395h-256zM383 1583v184h674v-184h-674zM532 598h373l-186 504z" />
    <glyph glyph-name="amacron" unicode="&#x101;" horiz-adv-x="1124" 
d="M434 -31q-139 0 -238.5 82t-99.5 219q0 70 24 124.5t62.5 90t99.5 62.5t121.5 42t143.5 29q116 18 137 24q71 21 74 73q1 19 -6 43q-26 94 -191 94q-97 0 -146.5 -43.5t-52.5 -110.5l-253 21q0 38 11.5 79.5t43.5 89t80.5 84t131 61t185.5 24.5q447 0 447 -410v-647h-244
v211q-36 -106 -121 -174t-209 -68zM236 1174v184h673v-184h-673zM350 293q0 -55 41 -87t105 -32q110 0 189 79.5t79 217.5v68q-43 -62 -232 -97q-182 -35 -182 -149z" />
    <glyph glyph-name="Abreve" unicode="&#x102;" horiz-adv-x="1437" 
d="M55 0l531 1434h266l530 -1434h-256l-145 395h-524l-146 -395h-256zM385 1931h174q0 -69 46.5 -114t113.5 -45t114.5 45t47.5 114h174q0 -143 -98.5 -238.5t-237.5 -95.5q-141 0 -237.5 95t-96.5 239zM532 598h373l-186 504z" />
    <glyph glyph-name="abreve" unicode="&#x103;" horiz-adv-x="1124" 
d="M434 -31q-139 0 -238.5 82t-99.5 219q0 70 24 124.5t62.5 90t99.5 62.5t121.5 42t143.5 29q116 18 137 24q71 21 74 73q1 19 -6 43q-26 94 -191 94q-97 0 -146.5 -43.5t-52.5 -110.5l-253 21q0 38 11.5 79.5t43.5 89t80.5 84t131 61t185.5 24.5q447 0 447 -410v-647h-244
v211q-36 -106 -121 -174t-209 -68zM238 1522h174q0 -70 46 -115t113 -45t114.5 45.5t47.5 114.5h174q0 -143 -98.5 -238.5t-237.5 -95.5q-141 0 -237 95t-96 239zM350 293q0 -55 41 -87t105 -32q110 0 189 79.5t79 217.5v68q-43 -62 -232 -97q-182 -35 -182 -149z" />
    <glyph glyph-name="Aogonek" unicode="&#x104;" horiz-adv-x="1425" 
d="M55 0l531 1434h266l530 -1434q-61 -25 -107 -63t-46 -84q0 -28 17 -43t38 -15q24 0 45 19.5t21 60.5l143 -20q0 -94 -62.5 -157t-164.5 -63q-91 0 -144 49t-53 134q0 117 127 182h-70l-145 395h-524l-146 -395h-256zM532 598h373l-186 504z" />
    <glyph glyph-name="aogonek" unicode="&#x105;" horiz-adv-x="1146" 
d="M434 -31q-139 0 -238.5 82t-99.5 219q0 70 24 124.5t62.5 90t99.5 62.5t121.5 42t143.5 29q116 18 137 24q71 21 74 73q1 19 -6 43q-26 94 -191 94q-97 0 -146.5 -43.5t-52.5 -110.5l-253 21q0 38 11.5 79.5t43.5 89t80.5 84t131 61t185.5 24.5q447 0 447 -410v-647h14
q-62 -25 -108 -63t-46 -84q0 -28 17 -43t39 -15q24 0 44.5 19.5t20.5 60.5l144 -20q0 -94 -63 -157t-165 -63q-91 0 -143.5 49t-52.5 134q0 117 127 182h-72v211q-36 -106 -121 -174t-209 -68zM350 293q0 -55 41 -87t105 -32q110 0 189 79.5t79 217.5v68q-43 -62 -232 -97
q-182 -35 -182 -149z" />
    <glyph glyph-name="Cacute" unicode="&#x106;" horiz-adv-x="1548" 
d="M776 -33q-97 0 -191.5 26.5t-183.5 86t-156.5 144.5t-108 212t-40.5 279t40.5 279t108 212.5t156.5 145.5t183.5 87t191.5 27q92 0 178 -21t166 -66.5t143.5 -112t108 -163.5t60.5 -214l-258 -21q-35 188 -130 283.5t-268 95.5q-193 0 -309.5 -147.5t-116.5 -384.5
q0 -238 116 -384.5t310 -146.5q176 0 270.5 90.5t127.5 278.5l258 -21q-15 -117 -60 -213t-108 -160.5t-143.5 -108.5t-166.5 -63.5t-178 -19.5zM682 1597l131 293h266l-217 -293h-180z" />
    <glyph glyph-name="cacute" unicode="&#x107;" horiz-adv-x="1196" 
d="M612 -33q-101 0 -191.5 32.5t-164 96t-117 169.5t-43.5 241q0 136 43.5 243.5t117 173.5t164 100t191.5 34q78 0 143.5 -12.5t125 -42.5t103 -76.5t74.5 -118.5t42 -166l-252 -20q-24 119 -78.5 175t-157.5 56q-125 0 -193.5 -96t-68.5 -248q0 -159 66.5 -247.5
t195.5 -88.5q99 0 156 51.5t80 167.5l252 -20q-14 -115 -56.5 -195.5t-109.5 -125t-145 -64t-177 -19.5zM516 1188l131 293h266l-217 -293h-180z" />
    <glyph glyph-name="Ccircumflex" unicode="&#x108;" horiz-adv-x="1548" 
d="M776 -33q-97 0 -191.5 26.5t-183.5 86t-156.5 144.5t-108 212t-40.5 279t40.5 279t108 212.5t156.5 145.5t183.5 87t191.5 27q92 0 178 -21t166 -66.5t143.5 -112t108 -163.5t60.5 -214l-258 -21q-35 188 -130 283.5t-268 95.5q-193 0 -309.5 -147.5t-116.5 -384.5
q0 -238 116 -384.5t310 -146.5q176 0 270.5 90.5t127.5 278.5l258 -21q-15 -117 -60 -213t-108 -160.5t-143.5 -108.5t-166.5 -63.5t-178 -19.5zM426 1597l160 293h356l160 -293h-213l-125 211l-125 -211h-213z" />
    <glyph glyph-name="ccircumflex" unicode="&#x109;" horiz-adv-x="1196" 
d="M612 -33q-101 0 -191.5 32.5t-164 96t-117 169.5t-43.5 241q0 136 43.5 243.5t117 173.5t164 100t191.5 34q78 0 143.5 -12.5t125 -42.5t103 -76.5t74.5 -118.5t42 -166l-252 -20q-24 119 -78.5 175t-157.5 56q-125 0 -193.5 -96t-68.5 -248q0 -159 66.5 -247.5
t195.5 -88.5q99 0 156 51.5t80 167.5l252 -20q-14 -115 -56.5 -195.5t-109.5 -125t-145 -64t-177 -19.5zM260 1188l160 293h356l160 -293h-213l-125 211l-125 -211h-213z" />
    <glyph glyph-name="Cdotaccent" unicode="&#x10a;" horiz-adv-x="1548" 
d="M623 1597v242h282v-242h-282zM96 715q0 152 40.5 279t108 212.5t156.5 145.5t183.5 87t191.5 27q92 0 178 -21t166 -66.5t143.5 -112t108 -163.5t60.5 -214l-258 -21q-35 188 -130 283.5t-268 95.5q-193 0 -309.5 -147.5t-116.5 -384.5q0 -238 116 -384.5t310 -146.5
q176 0 270.5 90.5t127.5 278.5l258 -21q-15 -117 -60 -213t-108 -160.5t-143.5 -108.5t-166.5 -63.5t-178 -19.5q-97 0 -191.5 26.5t-183.5 86t-156.5 144.5t-108 212t-40.5 279z" />
    <glyph glyph-name="cdotaccent" unicode="&#x10b;" horiz-adv-x="1196" 
d="M612 -33q-101 0 -191.5 32.5t-164 96t-117 169.5t-43.5 241q0 136 43.5 243.5t117 173.5t164 100t191.5 34q78 0 143.5 -12.5t125 -42.5t103 -76.5t74.5 -118.5t42 -166l-252 -20q-24 119 -78.5 175t-157.5 56q-125 0 -193.5 -96t-68.5 -248q0 -159 66.5 -247.5
t195.5 -88.5q99 0 156 51.5t80 167.5l252 -20q-14 -115 -56.5 -195.5t-109.5 -125t-145 -64t-177 -19.5zM457 1188v242h282v-242h-282z" />
    <glyph glyph-name="Ccaron" unicode="&#x10c;" horiz-adv-x="1548" 
d="M776 -33q-97 0 -191.5 26.5t-183.5 86t-156.5 144.5t-108 212t-40.5 279t40.5 279t108 212.5t156.5 145.5t183.5 87t191.5 27q92 0 178 -21t166 -66.5t143.5 -112t108 -163.5t60.5 -214l-258 -21q-35 188 -130 283.5t-268 95.5q-193 0 -309.5 -147.5t-116.5 -384.5
q0 -238 116 -384.5t310 -146.5q176 0 270.5 90.5t127.5 278.5l258 -21q-15 -117 -60 -213t-108 -160.5t-143.5 -108.5t-166.5 -63.5t-178 -19.5zM426 1905h213l125 -211l125 211h213l-160 -293h-356z" />
    <glyph glyph-name="ccaron" unicode="&#x10d;" horiz-adv-x="1196" 
d="M420 1202l-160 293h213l125 -211l125 211h213l-160 -293h-356zM96 506q0 136 43.5 243.5t117 173.5t164 100t191.5 34q78 0 143.5 -12.5t125 -42.5t103 -76.5t74.5 -118.5t42 -166l-252 -20q-24 119 -78.5 175t-157.5 56q-125 0 -193.5 -96t-68.5 -248
q0 -159 66.5 -247.5t195.5 -88.5q99 0 156 51.5t80 167.5l252 -20q-14 -115 -56.5 -195.5t-109.5 -125t-145 -64t-177 -19.5q-101 0 -191.5 32.5t-164 96t-117 169.5t-43.5 241z" />
    <glyph glyph-name="Dcaron" unicode="&#x10e;" horiz-adv-x="1409" 
d="M158 0v1434h477q59 0 108.5 -4t122.5 -20.5t130.5 -44.5t119 -82.5t103 -127.5t68 -185.5t26.5 -252.5t-26.5 -252.5t-68 -185.5t-103 -127.5t-119 -82.5t-130.5 -44.5t-122.5 -20.5t-108.5 -4h-477zM301 1905h213l125 -211l125 211h213l-160 -293h-356zM412 205h202
q248 0 346.5 116t98.5 396q0 151 -21.5 247t-75 156.5t-136 84.5t-212.5 24h-202v-1024z" />
    <glyph glyph-name="dcaron" unicode="&#x10f;" horiz-adv-x="1470" 
d="M571 -33q-115 0 -206.5 44t-149.5 120t-88.5 175.5t-30.5 213.5q0 153 52 272.5t161 192t262 72.5q112 0 193.5 -49.5t122.5 -143.5v570h243v-1434h-243v172q-42 -98 -123.5 -151.5t-192.5 -53.5zM350 520q0 -177 76 -262.5t192 -85.5q53 0 100 20.5t85.5 62t61 113.5
t22.5 167q0 83 -22.5 146t-61 99.5t-85 54t-100.5 17.5t-100 -17t-85 -54t-61 -103.5t-22 -157.5zM1268 979v129q100 0 131 24.5t31 94.5h-144v190h275v-190q0 -139 -63.5 -193.5t-229.5 -54.5z" />
    <glyph glyph-name="Dcroat" unicode="&#x110;" horiz-adv-x="1382" 
d="M-47 616v203h178v615h477q59 0 108.5 -4t122.5 -20.5t130.5 -44.5t119 -82.5t103 -127.5t68 -185.5t26.5 -252.5t-26.5 -252.5t-68 -185.5t-103 -127.5t-119 -82.5t-130.5 -44.5t-122.5 -20.5t-108.5 -4h-477v616h-178zM385 205h203q248 0 346 116t98 396
q0 151 -21.5 247t-74.5 156.5t-135.5 84.5t-212.5 24h-203v-410h211v-203h-211v-411z" />
    <glyph glyph-name="dcroat" unicode="&#x111;" horiz-adv-x="1294" 
d="M547 1169v121h340v144h243v-144h170v-121h-170v-1169h-243v172q-42 -98 -123.5 -151.5t-192.5 -53.5q-115 0 -206.5 44t-149.5 120t-88.5 175.5t-30.5 213.5q0 153 52 272.5t161 192t262 72.5q112 0 193.5 -49.5t122.5 -143.5v305h-340zM350 520q0 -177 76 -262.5
t192 -85.5q53 0 100 20.5t85.5 62t61 113.5t22.5 167q0 83 -22.5 146t-61 99.5t-85 54t-100.5 17.5t-100 -17t-85 -54t-61 -103.5t-22 -157.5z" />
    <glyph glyph-name="Emacron" unicode="&#x112;" horiz-adv-x="1189" 
d="M158 0v1434h917v-205h-663v-383h561v-203h-561v-438h663v-205h-917zM279 1542v184h673v-184h-673z" />
    <glyph glyph-name="emacron" unicode="&#x113;" horiz-adv-x="1169" 
d="M602 -33q-96 0 -183.5 31.5t-161 93.5t-117.5 169t-44 245t44 246.5t117.5 173.5t161.5 98t183 33t178 -33t149.5 -98t105 -173t38.5 -247v-49h-723q0 -130 65.5 -207.5t186.5 -77.5q183 0 221 150l248 -21q-15 -151 -148 -242.5t-321 -91.5zM248 1174v184h674v-184h-674
zM350 625h488q0 91 -60.5 159t-175.5 68q-116 0 -184 -69t-68 -158z" />
    <glyph glyph-name="Ebreve" unicode="&#x114;" horiz-adv-x="1189" 
d="M158 0v1434h917v-205h-663v-383h561v-203h-561v-438h663v-205h-917zM281 1890h174q0 -69 46 -114t113 -45t114.5 45t47.5 114h174q0 -143 -98.5 -238.5t-237.5 -95.5q-141 0 -237 95t-96 239z" />
    <glyph glyph-name="ebreve" unicode="&#x115;" horiz-adv-x="1169" 
d="M602 -33q-96 0 -183.5 31.5t-161 93.5t-117.5 169t-44 245t44 246.5t117.5 173.5t161.5 98t183 33t178 -33t149.5 -98t105 -173t38.5 -247v-49h-723q0 -130 65.5 -207.5t186.5 -77.5q183 0 221 150l248 -21q-15 -151 -148 -242.5t-321 -91.5zM250 1522h174
q0 -69 46.5 -114.5t113.5 -45.5t114 45.5t47 114.5h175q0 -143 -98.5 -238.5t-237.5 -95.5q-141 0 -237.5 95t-96.5 239zM350 625h488q0 91 -60.5 159t-175.5 68q-116 0 -184 -69t-68 -158z" />
    <glyph glyph-name="Edotaccent" unicode="&#x116;" horiz-adv-x="1189" 
d="M158 0v1434h917v-205h-663v-383h561v-203h-561v-438h663v-205h-917zM475 1556v242h283v-242h-283z" />
    <glyph glyph-name="edotaccent" unicode="&#x117;" horiz-adv-x="1169" 
d="M602 -33q-96 0 -183.5 31.5t-161 93.5t-117.5 169t-44 245t44 246.5t117.5 173.5t161.5 98t183 33t178 -33t149.5 -98t105 -173t38.5 -247v-49h-723q0 -130 65.5 -207.5t186.5 -77.5q183 0 221 150l248 -21q-15 -151 -148 -242.5t-321 -91.5zM350 625h488q0 91 -60.5 159
t-175.5 68q-116 0 -184 -69t-68 -158zM444 1188v242h283v-242h-283z" />
    <glyph glyph-name="Eogonek" unicode="&#x118;" horiz-adv-x="1290" 
d="M158 0v1434h917v-205h-663v-383h561v-203h-561v-438h663v-205h-2q-61 -25 -107 -63t-46 -84q0 -28 17 -43t38 -15q24 0 44.5 19.5t20.5 60.5l144 -20q0 -94 -63 -157t-165 -63q-91 0 -143.5 49t-52.5 134q0 117 127 182h-729z" />
    <glyph glyph-name="eogonek" unicode="&#x119;" horiz-adv-x="1169" 
d="M645 -365q-91 0 -143.5 49t-52.5 134q0 93 81 153q-86 11 -161.5 48t-138 100t-98.5 162.5t-36 224.5q0 138 44 246.5t117.5 173.5t161.5 98t183 33t178 -33t149.5 -98t105 -173t38.5 -247v-49h-723q0 -130 65.5 -207.5t186.5 -77.5q183 0 221 150l248 -21
q-12 -114 -92.5 -195t-208.5 -116q-75 -31 -117.5 -63t-42.5 -74q0 -28 16.5 -43t37.5 -15q24 0 44.5 19.5t20.5 60.5l145 -20q0 -94 -63.5 -157t-165.5 -63zM350 625h488q0 91 -60.5 159t-175.5 68q-116 0 -184 -69t-68 -158z" />
    <glyph glyph-name="Ecaron" unicode="&#x11a;" horiz-adv-x="1189" 
d="M158 0v1434h917v-205h-663v-383h561v-203h-561v-438h663v-205h-917zM279 1921h213l124 -211l125 211h213l-159 -293h-357z" />
    <glyph glyph-name="ecaron" unicode="&#x11b;" horiz-adv-x="1169" 
d="M406 1202l-160 293h213l125 -211l125 211h213l-160 -293h-356zM96 506q0 138 44 246.5t117.5 173.5t161.5 98t183 33t178 -33t149.5 -98t105 -173t38.5 -247v-49h-723q0 -130 65.5 -207.5t186.5 -77.5q183 0 221 150l248 -21q-15 -151 -148 -242.5t-321 -91.5
q-96 0 -183.5 31.5t-161 93.5t-117.5 169t-44 245zM350 625h488q0 91 -60.5 159t-175.5 68q-116 0 -184 -69t-68 -158z" />
    <glyph glyph-name="Gcircumflex" unicode="&#x11c;" horiz-adv-x="1617" 
d="M776 -33q-97 0 -191.5 26.5t-183.5 86t-156.5 144.5t-108 212t-40.5 279t40.5 279t108 212.5t156.5 145.5t183.5 87t191.5 27q117 0 225.5 -35t201.5 -103.5t156.5 -182.5t80.5 -260l-256 -21q-63 383 -408 383q-193 0 -309.5 -147.5t-116.5 -384.5q0 -238 116 -384.5
t310 -146.5q88 0 162.5 27.5t125 74t83 105t43.5 123.5h-418v205h688v-719h-219l45 317q-64 -162 -202.5 -256t-307.5 -94zM440 1597l160 293h356l160 -293h-213l-125 211l-125 -211h-213z" />
    <glyph glyph-name="gcircumflex" unicode="&#x11d;" horiz-adv-x="1288" 
d="M604 -442q-97 0 -179.5 22.5t-136 58t-91 79.5t-54 86t-16.5 79l254 21q11 -59 69.5 -100.5t153.5 -41.5q283 0 283 279v119q-41 -94 -122.5 -143.5t-193.5 -49.5q-153 0 -262 72.5t-161 192t-52 272.5q0 114 30.5 213.5t88.5 175.5t149.5 120t206.5 44
q111 0 192.5 -53.5t123.5 -151.5v172h243v-942q0 -267 -129.5 -395.5t-396.5 -128.5zM268 1188l160 293h356l160 -293h-213l-125 211l-125 -211h-213zM350 504q0 -91 22 -157.5t61 -103.5t85 -54t100 -17t100.5 17.5t85 54t61 99.5t22.5 146q0 95 -22.5 167t-61 113.5
t-85.5 62t-100 20.5q-116 0 -192 -85.5t-76 -262.5z" />
    <glyph glyph-name="Gbreve" unicode="&#x11e;" horiz-adv-x="1617" 
d="M776 -33q-97 0 -191.5 26.5t-183.5 86t-156.5 144.5t-108 212t-40.5 279t40.5 279t108 212.5t156.5 145.5t183.5 87t191.5 27q117 0 225.5 -35t201.5 -103.5t156.5 -182.5t80.5 -260l-256 -21q-63 383 -408 383q-193 0 -309.5 -147.5t-116.5 -384.5q0 -238 116 -384.5
t310 -146.5q88 0 162.5 27.5t125 74t83 105t43.5 123.5h-418v205h688v-719h-219l45 317q-64 -162 -202.5 -256t-307.5 -94zM444 1931h174q0 -69 46.5 -114t113.5 -45t114.5 45t47.5 114h174q0 -143 -98.5 -238.5t-237.5 -95.5q-141 0 -237.5 95t-96.5 239z" />
    <glyph glyph-name="gbreve" unicode="&#x11f;" horiz-adv-x="1288" 
d="M604 -442q-97 0 -179.5 22.5t-136 58t-91 79.5t-54 86t-16.5 79l254 21q11 -59 69.5 -100.5t153.5 -41.5q283 0 283 279v119q-41 -94 -122.5 -143.5t-193.5 -49.5q-153 0 -262 72.5t-161 192t-52 272.5q0 114 30.5 213.5t88.5 175.5t149.5 120t206.5 44
q111 0 192.5 -53.5t123.5 -151.5v172h243v-942q0 -267 -129.5 -395.5t-396.5 -128.5zM270 1522h174q0 -69 46.5 -114.5t113.5 -45.5t114.5 45.5t47.5 114.5h174q0 -143 -98.5 -238.5t-237.5 -95.5q-141 0 -237.5 95t-96.5 239zM350 504q0 -91 22 -157.5t61 -103.5t85 -54
t100 -17t100.5 17.5t85 54t61 99.5t22.5 146q0 95 -22.5 167t-61 113.5t-85.5 62t-100 20.5q-116 0 -192 -85.5t-76 -262.5z" />
    <glyph glyph-name="Gdotaccent" unicode="&#x120;" horiz-adv-x="1617" 
d="M776 -33q-97 0 -191.5 26.5t-183.5 86t-156.5 144.5t-108 212t-40.5 279t40.5 279t108 212.5t156.5 145.5t183.5 87t191.5 27q117 0 225.5 -35t201.5 -103.5t156.5 -182.5t80.5 -260l-256 -21q-63 383 -408 383q-193 0 -309.5 -147.5t-116.5 -384.5q0 -238 116 -384.5
t310 -146.5q88 0 162.5 27.5t125 74t83 105t43.5 123.5h-418v205h688v-719h-219l45 317q-64 -162 -202.5 -256t-307.5 -94zM637 1597v242h283v-242h-283z" />
    <glyph glyph-name="gdotaccent" unicode="&#x121;" horiz-adv-x="1288" 
d="M604 -442q-97 0 -179.5 22.5t-136 58t-91 79.5t-54 86t-16.5 79l254 21q11 -59 69.5 -100.5t153.5 -41.5q283 0 283 279v119q-41 -94 -122.5 -143.5t-193.5 -49.5q-153 0 -262 72.5t-161 192t-52 272.5q0 114 30.5 213.5t88.5 175.5t149.5 120t206.5 44
q111 0 192.5 -53.5t123.5 -151.5v172h243v-942q0 -267 -129.5 -395.5t-396.5 -128.5zM350 504q0 -91 22 -157.5t61 -103.5t85 -54t100 -17t100.5 17.5t85 54t61 99.5t22.5 146q0 95 -22.5 167t-61 113.5t-85.5 62t-100 20.5q-116 0 -192 -85.5t-76 -262.5zM473 1188v242h283
v-242h-283z" />
    <glyph glyph-name="uni0122" unicode="&#x122;" horiz-adv-x="1617" 
d="M776 -33q-97 0 -191.5 26.5t-183.5 86t-156.5 144.5t-108 212t-40.5 279t40.5 279t108 212.5t156.5 145.5t183.5 87t191.5 27q117 0 225.5 -35t201.5 -103.5t156.5 -182.5t80.5 -260l-256 -21q-63 383 -408 383q-193 0 -309.5 -147.5t-116.5 -384.5q0 -238 116 -384.5
t310 -146.5q88 0 162.5 27.5t125 74t83 105t43.5 123.5h-418v205h688v-719h-219l45 317q-64 -162 -202.5 -256t-307.5 -94zM627 -602v129q100 0 130.5 24.5t30.5 94.5h-143v190h275v-190q0 -139 -63.5 -193.5t-229.5 -54.5z" />
    <glyph glyph-name="uni0123" unicode="&#x123;" horiz-adv-x="1288" 
d="M604 -442q-97 0 -179.5 22.5t-136 58t-91 79.5t-54 86t-16.5 79l254 21q11 -59 69.5 -100.5t153.5 -41.5q283 0 283 279v119q-41 -94 -122.5 -143.5t-193.5 -49.5q-153 0 -262 72.5t-161 192t-52 272.5q0 114 30.5 213.5t88.5 175.5t149.5 120t206.5 44
q111 0 192.5 -53.5t123.5 -151.5v172h243v-942q0 -267 -129.5 -395.5t-396.5 -128.5zM350 504q0 -91 22 -157.5t61 -103.5t85 -54t100 -17t100.5 17.5t85 54t61 99.5t22.5 146q0 95 -22.5 167t-61 113.5t-85.5 62t-100 20.5q-116 0 -192 -85.5t-76 -262.5zM467 1188v190
q0 139 63.5 193.5t229.5 54.5v-129q-101 0 -131.5 -24.5t-30.5 -94.5h141v-190h-272z" />
    <glyph glyph-name="Hcircumflex" unicode="&#x124;" horiz-adv-x="1411" 
d="M999 0v643h-587v-643h-254v1434h254v-588h587v588h256v-1434h-256zM369 1597l159 293h357l159 -293h-213l-124 211l-125 -211h-213z" />
    <glyph glyph-name="hcircumflex" unicode="&#x125;" horiz-adv-x="1171" 
d="M780 651q0 62 -14.5 103.5t-40.5 62t-53 28t-62 7.5q-102 0 -167.5 -86.5t-65.5 -273.5v-492h-254v1448h254v-612q41 106 125 163.5t209 57.5q152 0 237.5 -98.5t85.5 -284.5v-674h-254v651zM-88 1597l160 293h356l160 -293h-213l-125 211l-125 -211h-213z" />
    <glyph glyph-name="Hbar" unicode="&#x126;" horiz-adv-x="1384" 
d="M-6 1067v182h149v185h254v-185h588v185h256v-185h150v-182h-150v-1067h-256v643h-588v-643h-254v1067h-149zM397 846h588v221h-588v-221z" />
    <glyph glyph-name="hbar" unicode="&#x127;" horiz-adv-x="1200" 
d="M-27 1169v121h179v158h254v-158h333v-121h-333v-333q84 221 333 221q152 0 238 -98.5t86 -284.5v-674h-254v651q0 62 -14.5 103.5t-40.5 62t-53 28t-62 7.5q-102 0 -167.5 -86.5t-65.5 -273.5v-492h-254v1169h-179z" />
    <glyph glyph-name="Itilde" unicode="&#x128;" horiz-adv-x="616" 
d="M180 0v1434h254v-1434h-254zM-88 1618q0 130 69 205t177 78q55 1 98 -17.5t64.5 -41t49 -41.5t56.5 -19q39 0 57.5 34t18.5 85l203 -21q0 -130 -69.5 -206.5t-174.5 -76.5q-55 0 -98.5 18.5t-65 40t-50 40t-57.5 18.5q-35 0 -55 -34t-20 -83z" />
    <glyph glyph-name="itilde" unicode="&#x129;" horiz-adv-x="575" 
d="M160 0v1024h254v-1024h-254zM-109 1208q0 130 69 205t177 78q45 1 81.5 -11.5t59.5 -30t42 -35t40.5 -30t45.5 -12.5q38 0 56.5 34t18.5 85l203 -21q0 -130 -69.5 -206t-174.5 -76q-55 0 -98 18.5t-65 40t-50 40t-57 18.5q-35 0 -55.5 -34.5t-20.5 -82.5z" />
    <glyph glyph-name="Imacron" unicode="&#x12a;" horiz-adv-x="577" 
d="M162 0v1434h254v-1434h-254zM-47 1583v184h674v-184h-674z" />
    <glyph glyph-name="imacron" unicode="&#x12b;" horiz-adv-x="528" 
d="M137 0v1024h254v-1024h-254zM-72 1174v184h674v-184h-674z" />
    <glyph glyph-name="Ibreve" unicode="&#x12c;" horiz-adv-x="655" 
d="M201 0v1434h254v-1434h-254zM-6 1931h174q0 -69 46.5 -114t113.5 -45t114 45t47 114h175q0 -143 -98.5 -238.5t-237.5 -95.5q-141 0 -237.5 95t-96.5 239z" />
    <glyph glyph-name="ibreve" unicode="&#x12d;" horiz-adv-x="378" 
d="M190 1188q-64 0 -113.5 19.5t-80 51t-50 76t-27 90t-7.5 97.5h197q2 -76 20 -112t61 -36t61.5 36t18.5 112h199q0 -66 -13.5 -122t-44 -105.5t-87 -78t-134.5 -28.5zM63 0v1024h254v-1024h-254z" />
    <glyph glyph-name="Iogonek" unicode="&#x12e;" horiz-adv-x="595" 
d="M197 0v1434h254v-1434q-62 -25 -108 -63t-46 -84q0 -28 17 -43t38 -15q24 0 45 19.5t21 60.5l143 -20q0 -94 -62.5 -157t-164.5 -63q-91 0 -144 49t-53 134q0 117 127 182h-67z" />
    <glyph glyph-name="iogonek" unicode="&#x12f;" horiz-adv-x="473" 
d="M80 1188v242h282v-242h-282zM35 -182q0 117 127 182h-56v1024h254v-1024h-12q-61 -25 -107 -63t-46 -84q0 -28 17 -43t38 -15q24 0 44.5 19.5t20.5 60.5l144 -20q0 -94 -63 -157t-165 -63q-91 0 -143.5 49t-52.5 134z" />
    <glyph glyph-name="Idotaccent" unicode="&#x130;" horiz-adv-x="595" 
d="M172 0v1434h254v-1434h-254zM158 1597v242h282v-242h-282z" />
    <glyph glyph-name="dotlessi" unicode="&#x131;" horiz-adv-x="528" 
d="M137 0v1024h254v-1024h-254z" />
    <glyph glyph-name="Jcircumflex" unicode="&#x134;" horiz-adv-x="1222" 
d="M571 -33q-117 0 -206 34.5t-143.5 91.5t-88.5 139t-46 167t-11 185l254 14q0 -414 241 -414q108 0 160.5 66.5t52.5 204.5v979h254v-938q0 -90 -9.5 -160.5t-39.5 -142.5t-80 -119t-136 -77t-202 -30zM573 1597l160 293h357l159 -293h-213l-125 211l-125 -211h-213z" />
    <glyph glyph-name="jcircumflex" unicode="&#x135;" horiz-adv-x="612" 
d="M-88 -410v205h123q89 0 116 27t27 121v1081h248v-1112q0 -169 -83.5 -245.5t-242.5 -76.5h-188zM-37 1188l160 293h356l160 -293h-213l-125 211l-125 -211h-213z" />
    <glyph glyph-name="uni0136" unicode="&#x136;" horiz-adv-x="1333" 
d="M158 0v1434h254v-611l549 611h286l-508 -574l559 -860h-282l-438 680l-166 -186v-494h-254zM567 -602v129q100 0 131 24.5t31 94.5h-143v190h274v-190q0 -139 -63.5 -193.5t-229.5 -54.5z" />
    <glyph glyph-name="uni0137" unicode="&#x137;" horiz-adv-x="1114" 
d="M137 0v1434h244v-793l401 383h293l-391 -389l393 -635h-278l-285 465l-133 -131v-334h-244zM434 -602v129q100 0 131 24.5t31 94.5h-143v190h274v-190q0 -139 -63.5 -193.5t-229.5 -54.5z" />
    <glyph glyph-name="Lacute" unicode="&#x139;" horiz-adv-x="1126" 
d="M158 0v1434h254v-1229h639v-205h-893zM203 1597l131 293h266l-217 -293h-180z" />
    <glyph glyph-name="lacute" unicode="&#x13a;" horiz-adv-x="585" 
d="M158 0v1454h254v-1454h-254zM195 1597l131 293h266l-217 -293h-180z" />
    <glyph glyph-name="uni013C" unicode="&#x13c;" horiz-adv-x="546" 
d="M135 0v1454h254v-1454h-254zM76 -602v129q100 0 131 24.5t31 94.5h-144v190h275v-190q0 -139 -63.5 -193.5t-229.5 -54.5z" />
    <glyph glyph-name="Lcaron" unicode="&#x13d;" horiz-adv-x="1126" 
d="M158 0v1434h254v-1229h639v-205h-893zM659 973v129q100 0 131 24.5t31 94.5h-143v190h274v-190q0 -139 -63.5 -193.5t-229.5 -54.5z" />
    <glyph glyph-name="lcaron" unicode="&#x13e;" horiz-adv-x="759" 
d="M158 0v1454h254v-1454h-254zM555 979v129q100 0 131 24.5t31 94.5h-144v190h275v-190q0 -139 -63.5 -193.5t-229.5 -54.5z" />
    <glyph glyph-name="Ldot" unicode="&#x13f;" horiz-adv-x="1126" 
d="M668 745v246h286v-246h-286zM158 0v1434h254v-1229h639v-205h-893z" />
    <glyph glyph-name="ldot" unicode="&#x140;" horiz-adv-x="886" 
d="M158 0v1454h254v-1454h-254zM569 840v241h283v-241h-283z" />
    <glyph glyph-name="Lslash" unicode="&#x141;" horiz-adv-x="1157" 
d="M-6 537v186l196 88v623h254v-510l197 88v-187l-197 -88v-532h639v-205h-893v625z" />
    <glyph glyph-name="lslash" unicode="&#x142;" horiz-adv-x="751" 
d="M55 520v180l193 93v661h254v-539l194 95v-181l-194 -94v-735h-254v612z" />
    <glyph glyph-name="Nacute" unicode="&#x143;" horiz-adv-x="1517" 
d="M158 0v1434h301l645 -1106v1106h256v-1434h-322l-626 1071v-1071h-254zM676 1597l131 293h266l-217 -293h-180z" />
    <glyph glyph-name="nacute" unicode="&#x144;" 
d="M795 651q0 62 -14.5 103.5t-40.5 62t-53 28t-62 7.5q-102 0 -168 -87t-66 -273v-492h-254v1024h254v-188q41 106 125 163.5t209 57.5q152 0 238 -98.5t86 -284.5v-674h-254v651zM512 1188l131 293h266l-217 -293h-180z" />
    <glyph glyph-name="uni0145" unicode="&#x145;" horiz-adv-x="1517" 
d="M158 0v1434h301l645 -1106v1106h256v-1434h-322l-626 1071v-1071h-254zM606 -602v129q100 0 131 24.5t31 94.5h-143v190h274v-190q0 -139 -63.5 -193.5t-229.5 -54.5z" />
    <glyph glyph-name="uni0146" unicode="&#x146;" 
d="M795 651q0 62 -14.5 103.5t-40.5 62t-53 28t-62 7.5q-102 0 -168 -87t-66 -273v-492h-254v1024h254v-188q41 106 125 163.5t209 57.5q152 0 238 -98.5t86 -284.5v-674h-254v651zM446 -602v129q100 0 131 24.5t31 94.5h-143v190h274v-190q0 -139 -63.5 -193.5
t-229.5 -54.5z" />
    <glyph glyph-name="Ncaron" unicode="&#x147;" horiz-adv-x="1517" 
d="M158 0v1434h301l645 -1106v1106h256v-1434h-322l-626 1071v-1071h-254zM420 1905h213l125 -211l125 211h213l-160 -293h-356z" />
    <glyph glyph-name="ncaron" unicode="&#x148;" 
d="M795 651q0 62 -14.5 103.5t-40.5 62t-53 28t-62 7.5q-102 0 -168 -87t-66 -273v-492h-254v1024h254v-188q41 106 125 163.5t209 57.5q152 0 238 -98.5t86 -284.5v-674h-254v651zM254 1495h213l125 -211l125 211h213l-160 -293h-356z" />
    <glyph glyph-name="napostrophe" unicode="&#x149;" horiz-adv-x="1411" 
d="M1020 651q0 62 -14.5 103.5t-40.5 62t-53 28t-62 7.5q-102 0 -168 -87t-66 -273v-492h-254v1024h254v-188q41 106 125 163.5t209 57.5q152 0 238 -98.5t86 -284.5v-674h-254v651zM-27 979v129q100 0 131 24.5t31 94.5h-143v190h274v-190q0 -139 -63.5 -193.5
t-229.5 -54.5z" />
    <glyph glyph-name="Eng" unicode="&#x14a;" horiz-adv-x="1517" 
d="M846 -410v205h117q88 0 114.5 27t26.5 121v57h-66l-626 1071v-1071h-254v1434h301l645 -1106v1106h256v-1522q0 -169 -83.5 -245.5t-242.5 -76.5h-188z" />
    <glyph glyph-name="eng" unicode="&#x14b;" horiz-adv-x="1206" 
d="M535 -410v205h116q89 0 116.5 27t27.5 121v708q0 62 -14.5 103.5t-40.5 62t-53 28t-62 7.5q-102 0 -168 -87t-66 -273v-492h-254v1024h254v-188q41 106 125 163.5t209 57.5q152 0 238 -98.5t86 -284.5v-762q0 -169 -83 -245.5t-243 -76.5h-188z" />
    <glyph glyph-name="Omacron" unicode="&#x14c;" horiz-adv-x="1576" 
d="M788 -33q-105 0 -203 27t-187.5 86t-156 145t-106 212.5t-39.5 279.5t39.5 279.5t106 212t156 144.5t187.5 86t203 27t203.5 -27t188 -86t156 -144.5t106 -212t39.5 -279.5t-39.5 -279.5t-106 -212.5t-156 -145t-188 -86t-203.5 -27zM358 717q0 -152 50 -271.5
t148.5 -190.5t231.5 -71q134 0 232.5 71t148.5 190.5t50 271.5q0 151 -50.5 271t-149.5 190.5t-231 70.5t-230.5 -70.5t-149 -190.5t-50.5 -271zM453 1583v184h673v-184h-673z" />
    <glyph glyph-name="omacron" unicode="&#x14d;" horiz-adv-x="1224" 
d="M612 -33q-99 0 -189.5 33t-164.5 97.5t-118 171t-44 241.5t44 242t118 172t164.5 99t189.5 34q100 0 190.5 -34t164.5 -99t117.5 -172t43.5 -242q0 -109 -29 -199.5t-78 -153t-115 -106t-140.5 -64t-153.5 -20.5zM274 1174v184h674v-184h-674zM350 510q0 -160 68 -249
t194 -89q127 0 194.5 89t67.5 249q0 162 -67.5 252t-194.5 90q-126 0 -194 -90.5t-68 -251.5z" />
    <glyph glyph-name="Obreve" unicode="&#x14e;" horiz-adv-x="1576" 
d="M788 -33q-105 0 -203 27t-187.5 86t-156 145t-106 212.5t-39.5 279.5t39.5 279.5t106 212t156 144.5t187.5 86t203 27t203.5 -27t188 -86t156 -144.5t106 -212t39.5 -279.5t-39.5 -279.5t-106 -212.5t-156 -145t-188 -86t-203.5 -27zM358 717q0 -152 50 -271.5
t148.5 -190.5t231.5 -71q134 0 232.5 71t148.5 190.5t50 271.5q0 151 -50.5 271t-149.5 190.5t-231 70.5t-230.5 -70.5t-149 -190.5t-50.5 -271zM455 1931h174q0 -69 46 -114t113 -45t114.5 45t47.5 114h174q0 -143 -98.5 -238.5t-237.5 -95.5q-141 0 -237 95t-96 239z" />
    <glyph glyph-name="obreve" unicode="&#x14f;" horiz-adv-x="1224" 
d="M612 -33q-99 0 -189.5 33t-164.5 97.5t-118 171t-44 241.5t44 242t118 172t164.5 99t189.5 34q100 0 190.5 -34t164.5 -99t117.5 -172t43.5 -242q0 -109 -29 -199.5t-78 -153t-115 -106t-140.5 -64t-153.5 -20.5zM276 1522h175q0 -70 46 -115t113 -45t114.5 45.5
t47.5 114.5h174q0 -143 -98.5 -238.5t-237.5 -95.5q-141 0 -237.5 95t-96.5 239zM350 510q0 -160 68 -249t194 -89q127 0 194.5 89t67.5 249q0 162 -67.5 252t-194.5 90q-126 0 -194 -90.5t-68 -251.5z" />
    <glyph glyph-name="Ohungarumlaut" unicode="&#x150;" horiz-adv-x="1576" 
d="M788 -33q-105 0 -203 27t-187.5 86t-156 145t-106 212.5t-39.5 279.5t39.5 279.5t106 212t156 144.5t187.5 86t203 27t203.5 -27t188 -86t156 -144.5t106 -212t39.5 -279.5t-39.5 -279.5t-106 -212.5t-156 -145t-188 -86t-203.5 -27zM358 717q0 -152 50 -271.5
t148.5 -190.5t231.5 -71q134 0 232.5 71t148.5 190.5t50 271.5q0 151 -50.5 271t-149.5 190.5t-231 70.5t-230.5 -70.5t-149 -190.5t-50.5 -271zM508 1597l131 293h266l-217 -293h-180zM905 1597l131 293h267l-218 -293h-180z" />
    <glyph glyph-name="ohungarumlaut" unicode="&#x151;" horiz-adv-x="1241" 
d="M612 -33q-99 0 -189.5 33t-164.5 97.5t-118 171t-44 241.5t44 242t118 172t164.5 99t189.5 34q100 0 190.5 -34t164.5 -99t117.5 -172t43.5 -242q0 -109 -29 -199.5t-78 -153t-115 -106t-140.5 -64t-153.5 -20.5zM332 1188l131 293h266l-217 -293h-180zM350 510
q0 -160 68 -249t194 -89q127 0 194.5 89t67.5 249q0 162 -67.5 252t-194.5 90q-126 0 -194 -90.5t-68 -251.5zM727 1188l131 293h266l-217 -293h-180z" />
    <glyph glyph-name="OE" unicode="&#x152;" horiz-adv-x="2279" 
d="M788 -33q-105 0 -203 27t-187.5 86t-156 145t-106 212.5t-39.5 279.5t39.5 279.5t106 212t156 144.5t187.5 86t203 27q273 0 459 -163v131h918v-205h-664v-383h561v-203h-561v-438h664v-205h-918v131q-187 -164 -459 -164zM358 717q0 -152 50 -271.5t148.5 -190.5
t231.5 -71q134 0 232.5 71t148.5 190.5t50 271.5q0 151 -50.5 271t-149.5 190.5t-231 70.5t-230.5 -70.5t-149 -190.5t-50.5 -271z" />
    <glyph glyph-name="oe" unicode="&#x153;" horiz-adv-x="1949" 
d="M612 -33q-99 0 -189.5 33t-164.5 97.5t-118 171t-44 241.5t44 242t118 172t164.5 99t189.5 34q112 0 214.5 -43t174.5 -125q71 83 171.5 125.5t209.5 42.5q95 0 178 -33t149.5 -98t105 -173t38.5 -247v-49h-723q0 -130 65.5 -207.5t186.5 -77.5q184 0 222 150l247 -21
q-15 -151 -148 -242.5t-321 -91.5q-109 0 -210.5 41t-172.5 123q-71 -81 -173 -122.5t-214 -41.5zM350 510q0 -160 68 -249t194 -89q127 0 194.5 89t67.5 249q0 162 -67.5 252t-194.5 90q-126 0 -194 -90.5t-68 -251.5zM1130 625h488q0 91 -60.5 159t-175.5 68
q-116 0 -184 -69t-68 -158z" />
    <glyph glyph-name="Racute" unicode="&#x154;" horiz-adv-x="1335" 
d="M158 0v1434h497q32 0 68 -3t89 -13.5t100.5 -27.5t97 -49t85 -74.5t58.5 -106.5t23 -142q0 -275 -297 -338q61 -5 104 -14t76 -28t53 -43t33.5 -64.5t20 -87t10.5 -115.5l22 -328h-260l-20 354q-3 58 -8 91.5t-18 68.5t-36 52.5t-62 28.5t-96 11h-286v-606h-254zM412 809
h202q161 0 234.5 43.5t73.5 165.5q0 124 -73.5 167.5t-234.5 43.5h-202v-420zM596 1597l131 293h266l-217 -293h-180z" />
    <glyph glyph-name="racute" unicode="&#x155;" horiz-adv-x="806" 
d="M137 0v1024h254v-205q36 103 106 154t162 51h136v-205h-177q-123 0 -175 -84.5t-52 -273.5v-461h-254zM362 1188l132 293h266l-217 -293h-181z" />
    <glyph glyph-name="uni0156" unicode="&#x156;" horiz-adv-x="1335" 
d="M158 0v1434h497q32 0 68 -3t89 -13.5t100.5 -27.5t97 -49t85 -74.5t58.5 -106.5t23 -142q0 -275 -297 -338q61 -5 104 -14t76 -28t53 -43t33.5 -64.5t20 -87t10.5 -115.5l22 -328h-260l-20 354q-3 58 -8 91.5t-18 68.5t-36 52.5t-62 28.5t-96 11h-286v-606h-254zM412 809
h202q161 0 234.5 43.5t73.5 165.5q0 124 -73.5 167.5t-234.5 43.5h-202v-420zM526 -602v129q100 0 131 24.5t31 94.5h-143v190h274v-190q0 -139 -63.5 -193.5t-229.5 -54.5z" />
    <glyph glyph-name="uni0157" unicode="&#x157;" horiz-adv-x="815" 
d="M145 0v1024h254v-205q36 103 106.5 154t162.5 51h135v-205h-176q-123 0 -175.5 -85t-52.5 -273v-461h-254zM117 -602v129q100 0 131 24.5t31 94.5h-144v190h275v-190q0 -139 -63.5 -193.5t-229.5 -54.5z" />
    <glyph glyph-name="Rcaron" unicode="&#x158;" horiz-adv-x="1335" 
d="M158 0v1434h497q32 0 68 -3t89 -13.5t100.5 -27.5t97 -49t85 -74.5t58.5 -106.5t23 -142q0 -275 -297 -338q61 -5 104 -14t76 -28t53 -43t33.5 -64.5t20 -87t10.5 -115.5l22 -328h-260l-20 354q-3 58 -8 91.5t-18 68.5t-36 52.5t-62 28.5t-96 11h-286v-606h-254z
M340 1905h213l125 -211l125 211h213l-160 -293h-356zM412 809h202q161 0 234.5 43.5t73.5 165.5q0 124 -73.5 167.5t-234.5 43.5h-202v-420z" />
    <glyph glyph-name="rcaron" unicode="&#x159;" horiz-adv-x="843" 
d="M150 0v1024h253v-205q36 103 106.5 154t162.5 51h135v-205h-176q-123 0 -175.5 -85t-52.5 -273v-461h-253zM145 1495h213l125 -211l125 211h213l-159 -293h-357z" />
    <glyph glyph-name="Sacute" unicode="&#x15a;" horiz-adv-x="1343" 
d="M696 -33q-271 0 -425 155.5t-154 440.5l254 21q-6 -204 81 -308t244 -104q135 0 206 66.5t71 167.5q0 119 -79.5 175t-283.5 99q-438 99 -438 407q0 161 132 270t345 109q241 0 372.5 -115t131.5 -329l-254 -21q0 129 -68 195t-182 66q-103 0 -162 -46t-59 -129
q0 -86 60 -132t217 -81q95 -22 166 -46t141.5 -61.5t115 -83.5t72 -113.5t27.5 -151.5q0 -202 -145 -326.5t-386 -124.5zM590 1597l131 293h266l-217 -293h-180z" />
    <glyph glyph-name="sacute" unicode="&#x15b;" horiz-adv-x="1103" 
d="M571 -33q-76 0 -146 14.5t-134 46t-111.5 77t-75.5 113t-28 149.5l246 20q0 -57 22.5 -100t59.5 -67t79 -36t88 -12q91 0 147 32.5t56 92.5q0 34 -17.5 59t-50 39.5t-63 22t-72.5 12.5l-133 16q-131 16 -219 95.5t-88 210.5q0 96 60 166.5t154.5 104.5t209.5 34
t210.5 -36.5t155.5 -112t60 -177.5l-246 -20q0 69 -50 105t-130 36q-74 0 -121 -28.5t-47 -78.5q0 -86 145 -108l123 -14q373 -50 373 -318q0 -108 -64 -186.5t-165.5 -115t-227.5 -36.5zM465 1188l131 293h266l-217 -293h-180z" />
    <glyph glyph-name="Scircumflex" unicode="&#x15c;" horiz-adv-x="1343" 
d="M696 -33q-271 0 -425 155.5t-154 440.5l254 21q-6 -204 81 -308t244 -104q135 0 206 66.5t71 167.5q0 119 -79.5 175t-283.5 99q-438 99 -438 407q0 161 132 270t345 109q241 0 372.5 -115t131.5 -329l-254 -21q0 129 -68 195t-182 66q-103 0 -162 -46t-59 -129
q0 -86 60 -132t217 -81q95 -22 166 -46t141.5 -61.5t115 -83.5t72 -113.5t27.5 -151.5q0 -202 -145 -326.5t-386 -124.5zM334 1597l160 293h356l160 -293h-213l-125 211l-125 -211h-213z" />
    <glyph glyph-name="scircumflex" unicode="&#x15d;" horiz-adv-x="1103" 
d="M571 -33q-76 0 -146 14.5t-134 46t-111.5 77t-75.5 113t-28 149.5l246 20q0 -57 22.5 -100t59.5 -67t79 -36t88 -12q91 0 147 32.5t56 92.5q0 34 -17.5 59t-50 39.5t-63 22t-72.5 12.5l-133 16q-131 16 -219 95.5t-88 210.5q0 96 60 166.5t154.5 104.5t209.5 34
t210.5 -36.5t155.5 -112t60 -177.5l-246 -20q0 69 -50 105t-130 36q-74 0 -121 -28.5t-47 -78.5q0 -86 145 -108l123 -14q373 -50 373 -318q0 -108 -64 -186.5t-165.5 -115t-227.5 -36.5zM213 1188l160 293h356l160 -293h-213l-125 211l-125 -211h-213z" />
    <glyph glyph-name="Scedilla" unicode="&#x15e;" horiz-adv-x="1343" 
d="M711 -442q-86 0 -146 44t-63 111l139 21q1 -31 20.5 -47.5t49.5 -16.5q32 0 51.5 18t19.5 52q0 31 -19.5 49t-51.5 18q-48 0 -66 -36l-59 28l-58 27l47 149q-218 34 -338 185.5t-120 402.5l254 21q-6 -204 81 -308t244 -104q135 0 206 66.5t71 167.5q0 119 -79.5 175
t-283.5 99q-438 99 -438 407q0 161 132 270t345 109q241 0 372.5 -115t131.5 -329l-254 -21q0 129 -68 195t-182 66q-103 0 -162 -46t-59 -129q0 -86 60 -132t217 -81q95 -22 166 -46t141.5 -61.5t115 -83.5t72 -113.5t27.5 -151.5q0 -193 -132.5 -316t-355.5 -133l-22 -51
q6 2 20 2q72 0 128.5 -49.5t56.5 -130.5q0 -84 -60.5 -133t-150.5 -49z" />
    <glyph glyph-name="scedilla" unicode="&#x15f;" horiz-adv-x="1103" 
d="M588 -442q-86 0 -146 44t-63 111l139 21q1 -31 20.5 -47.5t49.5 -16.5q32 0 51.5 18t19.5 52q0 31 -19.5 49t-51.5 18q-48 0 -66 -36l-59 28l-57 27l47 151q-79 13 -145 42.5t-119 76t-83 116t-30 155.5l246 20q0 -57 22.5 -100t59.5 -67t79 -36t88 -12q91 0 147 32.5
t56 92.5q0 34 -17.5 59t-50 39.5t-63 22t-72.5 12.5l-133 16q-131 16 -219 95.5t-88 210.5q0 96 60 166.5t154.5 104.5t209.5 34t210.5 -36.5t155.5 -112t60 -177.5l-246 -20q0 69 -50 105t-130 36q-74 0 -121 -28.5t-47 -78.5q0 -86 145 -108l123 -14q373 -50 373 -318
q0 -151 -116.5 -238.5t-295.5 -97.5l-22 -51q6 2 20 2q72 0 128.5 -49.5t56.5 -130.5q0 -84 -60.5 -133t-150.5 -49z" />
    <glyph glyph-name="Scaron" unicode="&#x160;" horiz-adv-x="1343" 
d="M696 -33q-271 0 -425 155.5t-154 440.5l254 21q-6 -204 81 -308t244 -104q135 0 206 66.5t71 167.5q0 119 -79.5 175t-283.5 99q-438 99 -438 407q0 161 132 270t345 109q241 0 372.5 -115t131.5 -329l-254 -21q0 129 -68 195t-182 66q-103 0 -162 -46t-59 -129
q0 -86 60 -132t217 -81q95 -22 166 -46t141.5 -61.5t115 -83.5t72 -113.5t27.5 -151.5q0 -202 -145 -326.5t-386 -124.5zM334 1905h213l125 -211l125 211h213l-160 -293h-356z" />
    <glyph glyph-name="scaron" unicode="&#x161;" horiz-adv-x="1103" 
d="M571 -33q-76 0 -146 14.5t-134 46t-111.5 77t-75.5 113t-28 149.5l246 20q0 -57 22.5 -100t59.5 -67t79 -36t88 -12q91 0 147 32.5t56 92.5q0 34 -17.5 59t-50 39.5t-63 22t-72.5 12.5l-133 16q-131 16 -219 95.5t-88 210.5q0 96 60 166.5t154.5 104.5t209.5 34
t210.5 -36.5t155.5 -112t60 -177.5l-246 -20q0 69 -50 105t-130 36q-74 0 -121 -28.5t-47 -78.5q0 -86 145 -108l123 -14q373 -50 373 -318q0 -108 -64 -186.5t-165.5 -115t-227.5 -36.5zM213 1495h213l125 -211l125 211h213l-160 -293h-356z" />
    <glyph glyph-name="uni0162" unicode="&#x162;" horiz-adv-x="1280" 
d="M512 0v1229h-477v205h1210v-205h-477v-1229h-78l-39 -82q6 2 21 2q71 0 127.5 -49t56.5 -131q0 -84 -60.5 -133t-150.5 -49q-86 0 -146 44t-63 111l139 21q1 -31 20.5 -47.5t49.5 -16.5q32 0 52 18t20 52q0 31 -20 49t-52 18q-47 0 -65 -36l-60 28l-57 27l53 174h-4z" />
    <glyph glyph-name="uni0163" unicode="&#x163;" horiz-adv-x="819" 
d="M41 819v205h174v309l242 21v-330h266v-205h-266v-467q0 -93 28 -120t115 -27h123v-205h-186l-39 -82q6 2 20 2q71 0 127.5 -49t56.5 -131q0 -84 -60.5 -133t-149.5 -49q-86 0 -146 44t-63 111l139 21q1 -31 20.5 -47.5t49.5 -16.5q32 0 51.5 18t19.5 52q0 31 -19.5 49
t-51.5 18q-48 0 -66 -36l-59 28l-58 27l62 201q-156 64 -156 295v497h-174z" />
    <glyph glyph-name="Tcaron" unicode="&#x164;" horiz-adv-x="1280" 
d="M512 0v1229h-477v205h1210v-205h-477v-1229h-256zM301 1905h213l125 -211l125 211h213l-160 -293h-356z" />
    <glyph glyph-name="tcaron" unicode="&#x165;" horiz-adv-x="954" 
d="M535 0q-159 0 -239.5 76t-80.5 246v497h-174v205h174v309l242 21v-330h266v-205h-266v-467q0 -93 28 -120t115 -27h123v-205h-188zM813 979v129q100 0 131 24.5t31 94.5h-144v190h275v-190q0 -139 -63.5 -193.5t-229.5 -54.5z" />
    <glyph glyph-name="Tbar" unicode="&#x166;" horiz-adv-x="1280" 
d="M258 604v182h254v443h-477v205h1210v-205h-477v-443h254v-182h-254v-604h-256v604h-254z" />
    <glyph glyph-name="tbar" unicode="&#x167;" horiz-adv-x="819" 
d="M41 442v205h174v172h-174v205h174v309l242 21v-330h266v-205h-266v-172h266v-205h-266v-90q0 -93 28 -120t115 -27h123v-205h-188q-159 0 -239.5 76t-80.5 246v120h-174z" />
    <glyph glyph-name="Utilde" unicode="&#x168;" horiz-adv-x="1423" 
d="M713 -33q-115 0 -214 34.5t-176 101.5t-121 174.5t-44 244.5v912h254v-912q0 -95 24 -163.5t67.5 -105t95 -53t114.5 -16.5q299 0 299 338v912h254v-912q0 -137 -44 -244.5t-120 -174.5t-175 -101.5t-214 -34.5zM315 1618q0 130 69 205t177 78q55 1 98 -17.5t64.5 -41
t49 -41.5t56.5 -19q39 0 57.5 34t18.5 85l203 -21q0 -130 -69.5 -206.5t-174.5 -76.5q-55 0 -98 18.5t-65 40t-50 40t-57 18.5q-35 0 -55.5 -34.5t-20.5 -82.5z" />
    <glyph glyph-name="utilde" unicode="&#x169;" 
d="M461 -33q-152 0 -238 98.5t-86 284.5v674h254v-651q0 -62 14.5 -103.5t40.5 -62t53 -28t62 -7.5q102 0 168 87t66 273v492h254v-1024h-254v188q-41 -106 -125 -163.5t-209 -57.5zM195 1208q0 130 68.5 205t176.5 78q45 1 81.5 -11.5t59.5 -30t42 -35t40.5 -30t45.5 -12.5
q38 0 56.5 34t18.5 85l203 -21q0 -130 -69.5 -206t-174.5 -76q-55 0 -98 18.5t-65 40t-50 40t-57 18.5q-35 0 -55.5 -34.5t-20.5 -82.5z" />
    <glyph glyph-name="Umacron" unicode="&#x16a;" horiz-adv-x="1423" 
d="M713 -33q-115 0 -214 34.5t-176 101.5t-121 174.5t-44 244.5v912h254v-912q0 -95 24 -163.5t67.5 -105t95 -53t114.5 -16.5q299 0 299 338v912h254v-912q0 -137 -44 -244.5t-120 -174.5t-175 -101.5t-214 -34.5zM377 1583v184h674v-184h-674z" />
    <glyph glyph-name="umacron" unicode="&#x16b;" 
d="M461 -33q-152 0 -238 98.5t-86 284.5v674h254v-651q0 -62 14.5 -103.5t40.5 -62t53 -28t62 -7.5q102 0 168 87t66 273v492h254v-1024h-254v188q-41 -106 -125 -163.5t-209 -57.5zM256 1174v184h674v-184h-674z" />
    <glyph glyph-name="Ubreve" unicode="&#x16c;" horiz-adv-x="1423" 
d="M713 -33q-115 0 -214 34.5t-176 101.5t-121 174.5t-44 244.5v912h254v-912q0 -95 24 -163.5t67.5 -105t95 -53t114.5 -16.5q299 0 299 338v912h254v-912q0 -137 -44 -244.5t-120 -174.5t-175 -101.5t-214 -34.5zM379 1931h174q0 -69 46.5 -114t113.5 -45t114 45t47 114
h175q0 -143 -98.5 -238.5t-237.5 -95.5q-141 0 -237.5 95t-96.5 239z" />
    <glyph glyph-name="ubreve" unicode="&#x16d;" 
d="M461 -33q-152 0 -238 98.5t-86 284.5v674h254v-651q0 -62 14.5 -103.5t40.5 -62t53 -28t62 -7.5q102 0 168 87t66 273v492h254v-1024h-254v188q-41 -106 -125 -163.5t-209 -57.5zM258 1522h174q0 -69 46.5 -114.5t113.5 -45.5t114.5 45.5t47.5 114.5h174
q0 -143 -98.5 -238.5t-237.5 -95.5q-141 0 -237.5 95t-96.5 239z" />
    <glyph glyph-name="Uring" unicode="&#x16e;" horiz-adv-x="1423" 
d="M713 -33q-115 0 -214 34.5t-176 101.5t-121 174.5t-44 244.5v912h254v-912q0 -95 24 -163.5t67.5 -105t95 -53t114.5 -16.5q299 0 299 338v912h254v-912q0 -137 -44 -244.5t-120 -174.5t-175 -101.5t-214 -34.5zM479 1806q0 94 70 164t164 70q95 0 165 -70t70 -164
q0 -95 -70 -165t-165 -70q-94 0 -164 70t-70 165zM627 1806q0 -38 24.5 -62t61.5 -24q38 0 62 24t24 62q0 37 -24 61.5t-62 24.5q-37 0 -61.5 -24.5t-24.5 -61.5z" />
    <glyph glyph-name="uring" unicode="&#x16f;" 
d="M461 -33q-152 0 -238 98.5t-86 284.5v674h254v-651q0 -62 14.5 -103.5t40.5 -62t53 -28t62 -7.5q102 0 168 87t66 273v492h254v-1024h-254v188q-41 -106 -125 -163.5t-209 -57.5zM358 1397q0 94 70 163.5t164 69.5q95 0 165 -69.5t70 -163.5q0 -95 -70 -165.5t-165 -70.5
q-94 0 -164 70.5t-70 165.5zM506 1397q0 -38 24.5 -62t61.5 -24q38 0 62 24t24 62q0 37 -24 61.5t-62 24.5q-37 0 -61.5 -24.5t-24.5 -61.5z" />
    <glyph glyph-name="Uhungarumlaut" unicode="&#x170;" horiz-adv-x="1423" 
d="M713 -33q-115 0 -214 34.5t-176 101.5t-121 174.5t-44 244.5v912h254v-912q0 -95 24 -163.5t67.5 -105t95 -53t114.5 -16.5q299 0 299 338v912h254v-912q0 -137 -44 -244.5t-120 -174.5t-175 -101.5t-214 -34.5zM430 1597l131 293h266l-217 -293h-180zM827 1597l131 293
h267l-217 -293h-181z" />
    <glyph glyph-name="uhungarumlaut" unicode="&#x171;" horiz-adv-x="1241" 
d="M461 -33q-152 0 -238 98.5t-86 284.5v674h254v-651q0 -62 14.5 -103.5t40.5 -62t53 -28t62 -7.5q102 0 168 87t66 273v492h254v-1024h-254v188q-41 -106 -125 -163.5t-209 -57.5zM311 1188l131 293h267l-217 -293h-181zM709 1188l131 293h266l-217 -293h-180z" />
    <glyph glyph-name="Uogonek" unicode="&#x172;" horiz-adv-x="1423" 
d="M735 -365q-91 0 -143.5 49t-52.5 134q0 93 84 155q-206 26 -335.5 167t-129.5 382v912h254v-912q0 -95 24 -163.5t67.5 -105t95 -53t114.5 -16.5q299 0 299 338v912h254v-912q0 -215 -103 -350t-274 -182h2q-193 -54 -193 -137q0 -28 17 -43t39 -15q24 0 44.5 19.5
t20.5 60.5l144 -20q0 -94 -63 -157t-165 -63z" />
    <glyph glyph-name="uogonek" unicode="&#x173;" horiz-adv-x="1296" 
d="M461 -33q-152 0 -238 98.5t-86 284.5v674h254v-651q0 -62 14.5 -103.5t40.5 -62t53 -28t62 -7.5q102 0 168 87t66 273v492h254v-1024q-62 -25 -108 -63t-46 -84q0 -28 17 -43t38 -15q24 0 45 19.5t21 60.5l143 -20q0 -94 -62.5 -157t-164.5 -63q-91 0 -144 49t-53 134
q0 117 127 182h-67v188q-41 -106 -125 -163.5t-209 -57.5z" />
    <glyph glyph-name="Wcircumflex" unicode="&#x174;" horiz-adv-x="1849" 
d="M408 0l-353 1434h242l258 -1047l246 1047h248l245 -1047l258 1047h242l-352 -1434h-277l-241 1024l-242 -1024h-274zM586 1597l159 293h357l160 -293h-213l-125 211l-125 -211h-213z" />
    <glyph glyph-name="wcircumflex" unicode="&#x175;" horiz-adv-x="1624" 
d="M317 0l-249 1024h245l170 -700l224 700h211l223 -700l170 700h245l-249 -1024h-273l-221 700l-223 -700h-273zM461 1188l160 293h356l160 -293h-213l-125 211l-125 -211h-213z" />
    <glyph glyph-name="Ycircumflex" unicode="&#x176;" horiz-adv-x="1245" 
d="M297 0l199 442l-461 992h256l340 -699l313 699h266l-647 -1434h-266zM285 1597l159 293h357l160 -293h-213l-125 211l-125 -211h-213z" />
    <glyph glyph-name="ycircumflex" unicode="&#x177;" horiz-adv-x="1173" 
d="M248 1188l160 293h356l160 -293h-213l-125 211l-125 -211h-213zM27 1024h258l307 -723l297 723h256l-590 -1434h-258l170 410z" />
    <glyph glyph-name="Ydieresis" unicode="&#x178;" horiz-adv-x="1245" 
d="M297 0l199 442l-461 992h256l340 -699l313 699h266l-647 -1434h-266zM272 1597v240h281v-240h-281zM694 1597v240h281v-240h-281z" />
    <glyph glyph-name="Zacute" unicode="&#x179;" horiz-adv-x="1255" 
d="M137 205l707 1024h-707v205h983v-205l-708 -1024h708v-205h-983v205zM547 1597l131 293h266l-217 -293h-180z" />
    <glyph glyph-name="zacute" unicode="&#x17a;" horiz-adv-x="1017" 
d="M76 195l586 634h-586v195h866v-195l-584 -634h584v-195h-866v195zM428 1188l131 293h266l-217 -293h-180z" />
    <glyph glyph-name="Zdotaccent" unicode="&#x17b;" horiz-adv-x="1255" 
d="M137 205l707 1024h-707v205h983v-205l-708 -1024h708v-205h-983v205zM487 1597v242h283v-242h-283z" />
    <glyph glyph-name="zdotaccent" unicode="&#x17c;" horiz-adv-x="1017" 
d="M76 195l586 634h-586v195h866v-195l-584 -634h584v-195h-866v195zM369 1188v242h282v-242h-282z" />
    <glyph glyph-name="Zcaron" unicode="&#x17d;" horiz-adv-x="1255" 
d="M137 205l707 1024h-707v205h983v-205l-708 -1024h708v-205h-983v205zM291 1905h213l125 -211l125 211h213l-160 -293h-356z" />
    <glyph glyph-name="zcaron" unicode="&#x17e;" horiz-adv-x="1017" 
d="M76 195l586 634h-586v195h866v-195l-584 -634h584v-195h-866v195zM170 1495h213l125 -211l125 211h213l-160 -293h-356z" />
    <glyph glyph-name="florin" unicode="&#x192;" horiz-adv-x="952" 
d="M6 -442v204h150q59 0 81 24t29 101l84 797h-194v203h215l24 227q20 189 88.5 264.5t223.5 75.5h211v-205h-148q-60 0 -83 -24.5t-30 -100.5l-24 -237h209v-203h-232l-82 -786q-20 -189 -88 -264.5t-223 -75.5h-211z" />
    <glyph glyph-name="AEacute" unicode="&#x1fc;" horiz-adv-x="1751" 
d="M55 0l531 1434h1083v-205h-741l141 -383h498v-203h-422l162 -438h362v-205h-543l-145 395h-524l-146 -395h-256zM532 598h373l-186 504zM637 1597l131 293h266l-217 -293h-180z" />
    <glyph glyph-name="aeacute" unicode="&#x1fd;" horiz-adv-x="1810" 
d="M434 -31q-139 0 -238.5 82t-99.5 219q0 70 24 124.5t62.5 90t99.5 62.5t121.5 42t143.5 29q116 18 137 24q71 21 74 73q1 19 -6 43q-26 94 -191 94q-97 0 -146.5 -43.5t-52.5 -110.5l-253 21q0 38 11.5 79.5t43.5 89t80.5 84t131 61t185.5 24.5q105 0 198.5 -41
t143.5 -119q56 78 148.5 119t191.5 41q95 0 178 -33t149.5 -98t105 -173t38.5 -247v-49h-723q0 -130 65.5 -207.5t186.5 -77.5q183 0 221 150l248 -21q-15 -151 -148 -242.5t-321 -91.5q-62 0 -121.5 11.5t-120 37.5t-111.5 75.5t-81 117.5q-45 -125 -145 -182.5t-230 -57.5
zM350 293q0 -55 41 -87t105 -32q41 0 77.5 9t72.5 32.5t61.5 59.5t41 95t15.5 134v31q-47 -58 -232 -93q-182 -35 -182 -149zM838 1188l131 293h266l-217 -293h-180zM991 625h488q0 91 -60.5 159t-175.5 68q-116 0 -184 -69t-68 -158z" />
    <glyph glyph-name="Oslashacute" unicode="&#x1fe;" horiz-adv-x="1564" 
d="M-6 -135l262 336q-166 201 -166 516q0 153 39.5 279.5t106 212t156 144.5t187.5 86t203 27q215 0 381 -104l160 205h250l-262 -336q164 -198 164 -514q0 -153 -39.5 -279.5t-106 -212.5t-156 -145t-188 -86t-203.5 -27q-211 0 -376 105l-162 -207h-250zM352 717
q0 -177 68 -307l598 766q-103 73 -236 73q-132 0 -230.5 -70.5t-149 -190.5t-50.5 -271zM549 256q101 -72 233 -72q133 0 232 71t148.5 190.5t49.5 271.5q0 176 -65 303zM700 1597l131 293h267l-217 -293h-181z" />
    <glyph glyph-name="oslashacute" unicode="&#x1ff;" horiz-adv-x="1376" 
d="M55 -135l230 287q-113 139 -113 358q0 135 44 242t118 172t164.5 99t189.5 34q146 0 268 -70l138 172h229l-231 -289q112 -141 112 -360q0 -109 -29 -199.5t-78 -153t-115 -106t-140.5 -64t-153.5 -20.5q-145 0 -266 68l-137 -170h-230zM426 510q0 -81 20 -156l375 465
q-61 33 -133 33q-126 0 -194 -90.5t-68 -251.5zM557 205q61 -33 131 -33q127 0 194.5 89t67.5 249q0 94 -20 158zM606 1188l131 293h267l-218 -293h-180z" />
    <glyph glyph-name="uni0218" unicode="&#x218;" horiz-adv-x="1343" 
d="M696 -33q-271 0 -425 155.5t-154 440.5l254 21q-6 -204 81 -308t244 -104q135 0 206 66.5t71 167.5q0 119 -79.5 175t-283.5 99q-438 99 -438 407q0 161 132 270t345 109q241 0 372.5 -115t131.5 -329l-254 -21q0 129 -68 195t-182 66q-103 0 -162 -46t-59 -129
q0 -86 60 -132t217 -81q95 -22 166 -46t141.5 -61.5t115 -83.5t72 -113.5t27.5 -151.5q0 -202 -145 -326.5t-386 -124.5zM506 -602v129q100 0 131 24.5t31 94.5h-144v190h275v-190q0 -139 -63.5 -193.5t-229.5 -54.5z" />
    <glyph glyph-name="uni0218" unicode="&#x219;" horiz-adv-x="1343" 
d="M696 -33q-271 0 -425 155.5t-154 440.5l254 21q-6 -204 81 -308t244 -104q135 0 206 66.5t71 167.5q0 119 -79.5 175t-283.5 99q-438 99 -438 407q0 161 132 270t345 109q241 0 372.5 -115t131.5 -329l-254 -21q0 129 -68 195t-182 66q-103 0 -162 -46t-59 -129
q0 -86 60 -132t217 -81q95 -22 166 -46t141.5 -61.5t115 -83.5t72 -113.5t27.5 -151.5q0 -202 -145 -326.5t-386 -124.5zM506 -602v129q100 0 131 24.5t31 94.5h-144v190h275v-190q0 -139 -63.5 -193.5t-229.5 -54.5z" />
    <glyph glyph-name="uni021A" unicode="&#x21a;" horiz-adv-x="1280" 
d="M512 0v1229h-477v205h1210v-205h-477v-1229h-256zM487 -602v129q100 0 131 24.5t31 94.5h-143v190h274v-190q0 -139 -63.5 -193.5t-229.5 -54.5z" />
    <glyph glyph-name="uni021B" unicode="&#x21b;" horiz-adv-x="819" 
d="M535 0q-159 0 -239.5 76t-80.5 246v497h-174v205h174v309l242 21v-330h266v-205h-266v-467q0 -93 28 -120t115 -27h123v-205h-188zM315 -602v129q100 0 131 24.5t31 94.5h-143v190h274v-190q0 -139 -63.5 -193.5t-229.5 -54.5z" />
    <glyph glyph-name="uni0237" unicode="&#x237;" horiz-adv-x="583" 
d="M-88 -410v205h123q89 0 116 27t27 121v1081h248v-1112q0 -169 -83.5 -245.5t-242.5 -76.5h-188z" />
    <glyph glyph-name="uni0259" unicode="&#x259;" horiz-adv-x="1169" 
d="M567 1057q96 0 183.5 -31.5t161 -93.5t117.5 -169t44 -245t-44 -246.5t-117.5 -173.5t-161.5 -98t-183 -33t-178 33t-149.5 98t-105 173t-38.5 247v49h723q0 130 -65.5 207.5t-186.5 77.5q-183 0 -221 -150l-248 21q15 151 148 242.5t321 91.5zM332 399q0 -91 60 -159
t175 -68q116 0 184 69t68 158h-487z" />
    <glyph glyph-name="circumflex" unicode="&#x2c6;" horiz-adv-x="1249" 
d="M287 1188l159 293h357l160 -293h-213l-125 211l-125 -211h-213z" />
    <glyph glyph-name="caron" unicode="&#x2c7;" horiz-adv-x="1249" 
d="M446 1202l-159 293h213l125 -211l125 211h213l-160 -293h-357z" />
    <glyph glyph-name="gravecomb" unicode="&#x300;" horiz-adv-x="0" 
d="M504 1188l-217 293h266l131 -293h-180z" />
    <glyph glyph-name="acutecomb" unicode="&#x301;" horiz-adv-x="0" 
d="M287 1188l131 293h266l-217 -293h-180z" />
    <glyph glyph-name="tildecomb" unicode="&#x303;" horiz-adv-x="0" 
d="M287 1208q0 130 68.5 205t176.5 78q45 1 81.5 -11.5t59.5 -30t42 -35t40.5 -30t45.5 -12.5q39 0 57.5 34t18.5 85l202 -21q0 -130 -69 -206t-174 -76q-55 0 -98.5 18.5t-65 40t-50 40t-57.5 18.5q-35 0 -55.5 -34.5t-20.5 -82.5z" />
    <glyph glyph-name="uni0304" unicode="&#x304;" horiz-adv-x="0" 
d="M287 1174v184h674v-184h-674z" />
    <glyph glyph-name="uni0306" unicode="&#x306;" horiz-adv-x="0" 
d="M621 1188q-141 0 -237.5 95t-96.5 239h174q0 -69 46.5 -114.5t113.5 -45.5t114 45.5t47 114.5h174q0 -143 -98 -238.5t-237 -95.5z" />
    <glyph glyph-name="uni0307" unicode="&#x307;" horiz-adv-x="0" 
d="M287 1188v242h282v-242h-282z" />
    <glyph glyph-name="uni0308" unicode="&#x308;" horiz-adv-x="0" 
d="M709 1188v239h280v-239h-280zM287 1188v239h280v-239h-280z" />
    <glyph glyph-name="uni030A" unicode="&#x30a;" horiz-adv-x="0" 
d="M520 1174q-94 0 -163.5 70t-69.5 165q0 94 69.5 163.5t163.5 69.5q95 0 165.5 -69.5t70.5 -163.5q0 -95 -70.5 -165t-165.5 -70zM434 1409q0 -38 24.5 -62t61.5 -24q38 0 62 24t24 62q0 37 -24 61.5t-62 24.5q-37 0 -61.5 -24.5t-24.5 -61.5z" />
    <glyph glyph-name="uni030B" unicode="&#x30b;" horiz-adv-x="0" 
d="M684 1188l131 293h266l-217 -293h-180zM287 1188l131 293h266l-217 -293h-180z" />
    <glyph glyph-name="uni0312" unicode="&#x312;" horiz-adv-x="0" 
d="M287 1362q0 139 63.5 193.5t229.5 54.5v-129q-101 0 -131.5 -24.5t-30.5 -94.5h141v-191h-272v191z" />
    <glyph glyph-name="uni0326" unicode="&#x326;" horiz-adv-x="0" 
d="M287 -473q100 0 131 24.5t31 94.5h-144v190h275v-190q0 -139 -63.5 -193.5t-229.5 -54.5v129z" />
    <glyph glyph-name="uni0327" unicode="&#x327;" horiz-adv-x="0" 
d="M481 -442q-86 0 -146 44t-63 111l140 21q1 -31 20 -47.5t49 -16.5q32 0 52 18t20 52q0 31 -20 49t-52 18q-47 0 -65 -36l-60 28l-57 27l88 287h193l-93 -195q6 2 21 2q71 0 127.5 -49t56.5 -131q0 -84 -60.5 -133t-150.5 -49z" />
    <glyph glyph-name="uni0328" unicode="&#x328;" horiz-adv-x="0" 
d="M483 -365q-91 0 -143.5 49t-52.5 134q0 117 127 182h186q-62 -25 -108 -63t-46 -84q0 -28 17 -43t39 -15q24 0 44.5 19.5t20.5 60.5l144 -20q0 -94 -63 -157t-165 -63z" />
    <glyph glyph-name="uni03A9" unicode="&#x3a9;" horiz-adv-x="1665" 
d="M82 0v207h358q-327 233 -327 614q0 138 51.5 260.5t144 214t229 144.5t296.5 53t295.5 -53t227.5 -144.5t143.5 -214t51.5 -260.5q0 -381 -327 -614h358v-207h-635v193q348 241 348 614q1 129 -51 237t-159.5 177t-251.5 69q-109 0 -199 -40t-147 -107.5t-88 -153.5
t-31 -182q0 -371 348 -614v-193h-635z" />
    <glyph glyph-name="uni03BC" unicode="&#x3bc;" 
d="M461 -33q-35 0 -70 6v-381h-254v1432h254v-651q0 -62 14.5 -103.5t40.5 -62t53 -28t62 -7.5q102 0 168 87t66 273v492h254v-1024h-254v188q-41 -106 -125 -163.5t-209 -57.5z" />
    <glyph glyph-name="pi" unicode="&#x3c0;" horiz-adv-x="1495" 
d="M1204 0q-159 0 -239 76t-80 246v518h-289v-840h-254v840h-205v184h1200v-184h-204v-488q0 -94 25.5 -120.5t111.5 -26.5h67v-205h-133z" />
    <glyph glyph-name="uni1E20" unicode="&#x1e20;" horiz-adv-x="1617" 
d="M776 -33q-97 0 -191.5 26.5t-183.5 86t-156.5 144.5t-108 212t-40.5 279t40.5 279t108 212.5t156.5 145.5t183.5 87t191.5 27q117 0 225.5 -35t201.5 -103.5t156.5 -182.5t80.5 -260l-256 -21q-63 383 -408 383q-193 0 -309.5 -147.5t-116.5 -384.5q0 -238 116 -384.5
t310 -146.5q88 0 162.5 27.5t125 74t83 105t43.5 123.5h-418v205h688v-719h-219l45 317q-64 -162 -202.5 -256t-307.5 -94zM442 1583v184h674v-184h-674z" />
    <glyph glyph-name="uni1E21" unicode="&#x1e21;" horiz-adv-x="1288" 
d="M604 -442q-97 0 -179.5 22.5t-136 58t-91 79.5t-54 86t-16.5 79l254 21q11 -59 69.5 -100.5t153.5 -41.5q283 0 283 279v119q-41 -94 -122.5 -143.5t-193.5 -49.5q-153 0 -262 72.5t-161 192t-52 272.5q0 114 30.5 213.5t88.5 175.5t149.5 120t206.5 44
q111 0 192.5 -53.5t123.5 -151.5v172h243v-942q0 -267 -129.5 -395.5t-396.5 -128.5zM276 1174v184h674v-184h-674zM350 504q0 -91 22 -157.5t61 -103.5t85 -54t100 -17t100.5 17.5t85 54t61 99.5t22.5 146q0 95 -22.5 167t-61 113.5t-85.5 62t-100 20.5q-116 0 -192 -85.5
t-76 -262.5z" />
    <glyph glyph-name="Wgrave" unicode="&#x1e80;" horiz-adv-x="1849" 
d="M408 0l-353 1434h242l258 -1047l246 1047h248l245 -1047l258 1047h242l-352 -1434h-277l-241 1024l-242 -1024h-274zM596 1890h266l131 -293h-180z" />
    <glyph glyph-name="wgrave" unicode="&#x1e81;" horiz-adv-x="1624" 
d="M317 0l-249 1024h245l170 -700l224 700h211l223 -700l170 700h245l-249 -1024h-273l-221 700l-223 -700h-273zM485 1481h267l131 -293h-181z" />
    <glyph glyph-name="Wacute" unicode="&#x1e82;" horiz-adv-x="1849" 
d="M408 0l-353 1434h242l258 -1047l246 1047h248l245 -1047l258 1047h242l-352 -1434h-277l-241 1024l-242 -1024h-274zM842 1597l131 293h266l-217 -293h-180z" />
    <glyph glyph-name="wacute" unicode="&#x1e83;" horiz-adv-x="1624" 
d="M317 0l-249 1024h245l170 -700l224 700h211l223 -700l170 700h245l-249 -1024h-273l-221 700l-223 -700h-273zM717 1188l131 293h266l-217 -293h-180z" />
    <glyph glyph-name="Wdieresis" unicode="&#x1e84;" horiz-adv-x="1849" 
d="M408 0l-353 1434h242l258 -1047l246 1047h248l245 -1047l258 1047h242l-352 -1434h-277l-241 1024l-242 -1024h-274zM567 1597v240h281v-240h-281zM989 1597v240h281v-240h-281z" />
    <glyph glyph-name="wdieresis" unicode="&#x1e85;" horiz-adv-x="1624" 
d="M317 0l-249 1024h245l170 -700l224 700h211l223 -700l170 700h245l-249 -1024h-273l-221 700l-223 -700h-273zM449 1188v239h280v-239h-280zM870 1188v239h281v-239h-281z" />
    <glyph glyph-name="uni1E9E" unicode="&#x1e9e;" horiz-adv-x="1376" 
d="M616 0v211h117q124 0 206.5 55t82.5 170q0 78 -42 130t-104.5 72.5t-142.5 20.5h-117v187l306 393h-510v-1239h-254v1434h880q55 0 93.5 -23.5t53 -59.5t7 -81t-38.5 -86l-268 -346q188 -27 291.5 -126t103.5 -276q0 -144 -70 -243.5t-191 -146t-286 -46.5h-117z" />
    <glyph glyph-name="uni1EBC" unicode="&#x1ebc;" horiz-adv-x="1189" 
d="M158 0v1434h917v-205h-663v-383h561v-203h-561v-438h663v-205h-917zM219 1577q0 130 69 205t177 78q55 1 98 -17.5t64.5 -41t49 -41.5t56.5 -19q39 0 57.5 34t18.5 85l203 -21q0 -130 -69.5 -206.5t-174.5 -76.5q-55 0 -98 18.5t-65 40t-50 40t-57 18.5
q-35 0 -55.5 -34.5t-20.5 -82.5z" />
    <glyph glyph-name="uni1EBD" unicode="&#x1ebd;" horiz-adv-x="1169" 
d="M602 -33q-96 0 -183.5 31.5t-161 93.5t-117.5 169t-44 245t44 246.5t117.5 173.5t161.5 98t183 33t178 -33t149.5 -98t105 -173t38.5 -247v-49h-723q0 -130 65.5 -207.5t186.5 -77.5q183 0 221 150l248 -21q-15 -151 -148 -242.5t-321 -91.5zM186 1208q0 130 69 205
t177 78q55 1 98 -17.5t64.5 -41t49 -41.5t56.5 -19q39 0 57.5 34t18.5 85l203 -21q0 -130 -69.5 -206t-174.5 -76q-55 0 -98 18.5t-65 40t-50 40t-57 18.5q-35 0 -55.5 -34.5t-20.5 -82.5zM350 625h488q0 91 -60.5 159t-175.5 68q-116 0 -184 -69t-68 -158z" />
    <glyph glyph-name="Ygrave" unicode="&#x1ef2;" horiz-adv-x="1245" 
d="M297 0l199 442l-461 992h256l340 -699l313 699h266l-647 -1434h-266zM309 1890h266l132 -293h-181z" />
    <glyph glyph-name="ygrave" unicode="&#x1ef3;" horiz-adv-x="1173" 
d="M489 1188l-217 293h267l131 -293h-181zM27 1024h258l307 -723l297 723h256l-590 -1434h-258l170 410z" />
    <glyph glyph-name="uni1EF8" unicode="&#x1ef8;" horiz-adv-x="1245" 
d="M297 0l199 442l-461 992h256l340 -699l313 699h266l-647 -1434h-266zM225 1618q0 130 69 205t177 78q55 1 98 -17.5t64.5 -41t49 -41.5t56.5 -19q39 0 57.5 34t18.5 85l203 -21q0 -130 -69.5 -206.5t-174.5 -76.5q-55 0 -98 18.5t-65 40t-50 40t-57 18.5
q-35 0 -55.5 -34.5t-20.5 -82.5z" />
    <glyph glyph-name="uni1EF9" unicode="&#x1ef9;" horiz-adv-x="1173" 
d="M297 -410l170 410l-440 1024h258l307 -723l297 723h256l-590 -1434h-258zM188 1208q0 130 69 205t177 78q55 1 98 -17.5t64.5 -41t49 -41.5t56.5 -19q39 0 57.5 34t18.5 85l203 -21q0 -130 -69.5 -206t-174.5 -76q-55 0 -98 18.5t-65 40t-50 40t-57 18.5
q-35 0 -55.5 -34.5t-20.5 -82.5z" />
    <glyph glyph-name="endash" unicode="&#x2013;" horiz-adv-x="1396" 
d="M164 504v203h1069v-203h-1069z" />
    <glyph glyph-name="emdash" unicode="&#x2014;" horiz-adv-x="1806" 
d="M164 504v203h1478v-203h-1478z" />
    <glyph glyph-name="quoteleft" unicode="&#x2018;" horiz-adv-x="579" 
d="M442 1335q-105 0 -149.5 -37t-44.5 -129h155v-286h-301v286q0 166 87 238t253 72v-144z" />
    <glyph glyph-name="quoteright" unicode="&#x2019;" horiz-adv-x="581" 
d="M139 1081q105 0 150 37t45 129h-156v287h301v-287q0 -166 -87 -237.5t-253 -71.5v143z" />
    <glyph glyph-name="quotedblleft" unicode="&#x201c;" horiz-adv-x="1036" 
d="M961 1335q-105 0 -150 -37t-45 -129h156v-286h-301v286q0 166 87 238t253 72v-144zM156 883v286q0 166 87 238t253 72v-144q-105 0 -150 -37t-45 -129h156v-286h-301z" />
    <glyph glyph-name="quotedblright" unicode="&#x201d;" horiz-adv-x="1036" 
d="M541 1081q105 0 149.5 37t44.5 129h-155v287h301v-287q0 -166 -87 -237.5t-253 -71.5v143zM76 938v143q105 0 149.5 37t44.5 129h-155v287h301v-287q0 -166 -87 -237.5t-253 -71.5z" />
    <glyph glyph-name="bullet" unicode="&#x2022;" horiz-adv-x="757" 
d="M379 289q-98 0 -170 71.5t-72 169.5t72 170t170 72t170 -72t72 -170t-72 -169.5t-170 -71.5z" />
    <glyph glyph-name="ellipsis" unicode="&#x2026;" horiz-adv-x="1652" 
d="M158 0v287h299v-287h-299zM676 0v287h299v-287h-299zM1196 0v287h299v-287h-299z" />
    <glyph glyph-name="perthousand" unicode="&#x2030;" horiz-adv-x="2396" 
d="M176 0l1059 1466h205l-1057 -1466h-207zM82 1118q0 141 103.5 244.5t244.5 103.5t244.5 -103.5t103.5 -244.5t-103.5 -244.5t-244.5 -103.5t-244.5 103.5t-103.5 244.5zM258 1118q0 -72 50 -122t122 -50t122 50t50 122t-50 122t-122 50t-122 -50t-50 -122zM840 315
q0 141 103.5 245t244.5 104t244.5 -104t103.5 -245t-103.5 -244.5t-244.5 -103.5t-244.5 103.5t-103.5 244.5zM1016 315q0 -72 50 -122t122 -50t122 50t50 122t-50 122t-122 50t-122 -50t-50 -122zM1618 315q0 141 103.5 245t244.5 104t244.5 -104t103.5 -245t-103.5 -244.5
t-244.5 -103.5t-244.5 103.5t-103.5 244.5zM1794 315q0 -72 50 -122t122 -50t122 50t50 122t-50 122t-122 50t-122 -50t-50 -122z" />
    <glyph glyph-name="guilsinglleft" unicode="&#x2039;" horiz-adv-x="864" 
d="M535 0q0 88 -27.5 159t-70 114t-97 72t-105 40.5t-98.5 11.5v230q48 0 98.5 11.5t105 40.5t97 72t70 114t27.5 159h235q0 -169 -94 -313t-248 -199q154 -55 248 -199t94 -313h-235z" />
    <glyph glyph-name="guilsinglright" unicode="&#x203a;" horiz-adv-x="864" 
d="M96 0q0 169 93.5 313t246.5 199q-153 55 -246.5 199t-93.5 313h234q0 -88 27.5 -159t69.5 -114t97 -72t105.5 -40.5t99.5 -11.5v-230q-49 0 -99.5 -11.5t-105.5 -40.5t-97 -72t-69.5 -114t-27.5 -159h-234z" />
    <glyph glyph-name="fraction" unicode="&#x2044;" horiz-adv-x="1538" 
d="M137 0l1051 1466h196l-1050 -1466h-197z" />
    <glyph glyph-name="uni20A9" unicode="&#x20a9;" horiz-adv-x="1849" 
d="M408 0l-105 424h-235v143h200l-47 191h-153v143h118l-131 533h242l115 -533h280l109 533h248l108 -533h281l114 533h242l-131 -533h117v-143h-152l-47 -191h199v-143h-234l-104 -424h-277l-92 424h-297l-94 -424h-274zM442 758l41 -191h140l39 191h-220zM514 424l41 -188
l39 188h-80zM807 567h233l-41 191h-149zM881 901h88l-45 199zM1188 758l39 -191h139l41 191h-219zM1255 424l39 -188l41 188h-80z" />
    <glyph glyph-name="Euro" unicode="&#x20ac;" horiz-adv-x="1726" 
d="M954 -33q-103 0 -203 31.5t-191 93t-160.5 165.5t-100.5 237h-170v141h147q-2 27 -2 80q0 48 2 71h-147v142h168q30 135 99.5 240.5t160.5 169t192 96t205 32.5q92 0 178 -21t166 -66.5t143.5 -112t108 -163.5t60.5 -214l-258 -21q-35 188 -130 283.5t-268 95.5
q-145 0 -248.5 -85t-148.5 -234h492v-142h-519q-2 -23 -2 -71q0 -26 4 -80h517v-141h-490q46 -145 149 -227.5t246 -82.5q176 0 270.5 90.5t127.5 278.5l258 -21q-15 -117 -60 -213t-108 -160.5t-143.5 -108.5t-166.5 -63.5t-178 -19.5z" />
    <glyph glyph-name="uni20B9" unicode="&#x20b9;" horiz-adv-x="1271" 
d="M584 0l-467 631v151h272q138 0 211 40t90 130h-573v144h571q-21 78 -90.5 105.5t-208.5 27.5h-272v205h1032v-197h-250q39 -66 47 -141h203v-144h-205q-14 -87 -62 -153t-106 -101t-129 -57.5t-122 -28.5t-95 -6h-18l448 -606h-276z" />
    <glyph glyph-name="uni20BA" unicode="&#x20ba;" horiz-adv-x="1396" 
d="M315 0v539l-192 -54v144l192 53v149l-192 -53v144l192 53v459h254v-390l453 123v-143l-453 -123v-149l453 122v-143l-453 -123v-403h271q126 0 206.5 94t67.5 236l248 -33q6 -139 -62.5 -254.5t-190.5 -181.5t-269 -66h-525z" />
    <glyph glyph-name="uni20BD" unicode="&#x20bd;" horiz-adv-x="1339" 
d="M96 305v144h170v219h-170v141h170v625h498q32 0 68 -3t89 -13.5t100.5 -27.5t97.5 -49t85.5 -74.5t58.5 -106.5t23 -142t-23 -141.5t-58.5 -105.5t-85.5 -73.5t-97.5 -48.5t-100.5 -27t-88.5 -13t-68.5 -3h-242v-157h377v-144h-377v-305h-256v305h-170zM522 809h201
q155 0 231 48t76 161q0 115 -76 163t-231 48h-201v-420z" />
    <glyph glyph-name="uni20BF" unicode="&#x20bf;" horiz-adv-x="1271" 
d="M158 0v1434h186v163h129v-163h100l64 -2v165h129v-180q328 -63 328 -385q0 -87 -45 -162.5t-136 -119.5q126 -39 194.5 -127.5t68.5 -206.5q0 -89 -28 -159.5t-69 -113t-99 -73t-108.5 -44t-105.5 -20.5v-170h-129v164h-164v-164h-129v164h-186zM401 205h240
q126 0 203.5 53t77.5 158q0 63 -21 106t-61 65t-87.5 31t-111.5 9h-240v-422zM401 829h172q267 0 267 203q0 110 -70.5 153.5t-196.5 43.5h-172v-400z" />
    <glyph glyph-name="uni2116" unicode="&#x2116;" horiz-adv-x="2492" 
d="M158 0v1434h301l645 -1106v1106h256v-1434h-322l-626 1071v-1071h-254zM1483 821q0 196 136.5 332.5t330.5 136.5q196 0 332.5 -136t136.5 -333q0 -195 -136.5 -331t-332.5 -136q-127 0 -234.5 62t-170 169.5t-62.5 235.5zM1579 0v205h741v-205h-741zM1688 821
q0 -113 75 -187.5t187 -74.5q116 0 190 74.5t74 187.5q0 116 -73.5 190t-190.5 74q-113 0 -187.5 -74.5t-74.5 -189.5z" />
    <glyph glyph-name="uni2117" unicode="&#x2117;" horiz-adv-x="962" 
d="M481 586q-183 0 -311.5 128t-128.5 312t128.5 312t311.5 128q185 0 313 -128t128 -312t-128 -312t-313 -128zM135 1026q0 -146 100 -246t246 -100q149 0 247.5 99.5t98.5 246.5q0 148 -98.5 247t-247.5 99q-147 0 -246.5 -99.5t-99.5 -246.5zM356 809v459h160
q20 0 43.5 -5t53.5 -19t49.5 -45.5t19.5 -76.5q0 -36 -14 -63t-33 -41.5t-44 -23t-42.5 -11t-32.5 -2.5h-63v-172h-97zM453 1073h51q48 0 65 9.5t17 39.5q0 32 -17 43t-65 11h-51v-103z" />
    <glyph glyph-name="trademark" unicode="&#x2122;" horiz-adv-x="1646" 
d="M795 688v746h157l203 -551l203 551h158v-746h-140v428l-155 -428h-131l-156 424v-424h-139zM35 1305v129h637v-129h-250v-617h-139v617h-248z" />
    <glyph glyph-name="uni2153" unicode="&#x2153;" horiz-adv-x="1695" 
d="M1380 -16q-134 0 -218.5 72t-78.5 180l164 18q-3 -64 35.5 -94.5t97.5 -30.5q58 0 98 19.5t40 66.5q0 84 -138 84h-90v147h90q52 0 82.5 19t30.5 55q0 35 -30.5 53.5t-82.5 18.5q-110 0 -110 -86l-164 18q-2 81 72 145t202 64t201.5 -60.5t73.5 -152.5q0 -101 -90 -145
q116 -40 116 -160q0 -104 -84 -167.5t-217 -63.5zM96 717v143h185v291q-44 -64 -127 -64h-58v142h58q57 0 81.5 13t35 55t10.5 137h161v-574h185v-143h-531zM287 0l1050 1466h197l-1051 -1466h-196z" />
    <glyph glyph-name="uni2154" unicode="&#x2154;" horiz-adv-x="1708" 
d="M76 842q11 8 68.5 42t105 66t102.5 74.5t87 86.5t32 83q0 58 -33 86.5t-86 28.5q-54 0 -86.5 -40t-29.5 -118l-160 20q-3 130 70.5 204.5t205.5 74.5q127 0 204 -73.5t77 -182.5q0 -168 -279 -334h295v-143h-573v125zM295 0l1051 1466h196l-1050 -1466h-197zM1077 236
l164 18q-3 -64 35.5 -94.5t97.5 -30.5q137 0 137 86q0 84 -137 84h-90v147h90q52 0 82.5 19t30.5 55q0 35 -30.5 53.5t-82.5 18.5q-110 0 -110 -86l-164 18q-2 81 72 145t202 64t201.5 -60.5t73.5 -152.5q0 -101 -90 -145q116 -40 116 -160q0 -104 -84 -167.5t-217 -63.5
q-134 0 -218.5 72t-78.5 180z" />
    <glyph glyph-name="oneeighth" unicode="&#x215b;" horiz-adv-x="1693" 
d="M1374 -16q-124 0 -214.5 64t-90.5 167q0 114 113 164q-86 55 -86 141q0 92 78 152.5t200 60.5t201.5 -61t79.5 -152q0 -88 -90 -143q55 -24 85.5 -65.5t30.5 -96.5q0 -103 -92 -167t-215 -64zM96 717v143h185v291q-44 -64 -127 -64h-58v142h58q57 0 81.5 13t35 55
t10.5 137h161v-574h185v-143h-531zM287 0l1050 1466h197l-1051 -1466h-196zM1233 215q0 -42 38.5 -64t102.5 -22q62 0 103 23t41 63q0 41 -40.5 63.5t-103.5 22.5q-64 0 -102.5 -22t-38.5 -64zM1257 520q0 -28 23 -46t47 -23t47 -5q22 0 46.5 5t48.5 23t24 46t-24.5 45.5
t-48.5 22t-46 4.5q-23 0 -46.5 -4.5t-47 -22t-23.5 -45.5z" />
    <glyph glyph-name="threeeighths" unicode="&#x215c;" horiz-adv-x="1673" 
d="M332 700q-134 0 -218.5 72t-78.5 180l164 19q-3 -64 35.5 -94.5t97.5 -30.5q137 0 137 86q0 84 -137 84h-90v147h90q52 0 82 19t30 55q0 35 -30 53.5t-82 18.5q-111 0 -111 -86l-164 18q-2 81 72.5 145t202.5 64t201 -60t73 -153q0 -100 -88 -145q115 -41 115 -160
q0 -104 -84 -168t-217 -64zM205 0l1050 1466h197l-1051 -1466h-196zM987 215q0 114 113 164q-86 55 -86 141q0 92 78 152.5t200 60.5t201.5 -61t79.5 -152q0 -88 -90 -143q55 -24 85.5 -65.5t30.5 -96.5q0 -103 -92 -167t-215 -64q-124 0 -214.5 64t-90.5 167zM1151 215
q0 -42 38.5 -64t102.5 -22q62 0 103 23t41 63q0 41 -40.5 63.5t-103.5 22.5q-64 0 -102.5 -22t-38.5 -64zM1176 520q0 -28 23 -46t46.5 -23t46.5 -5q22 0 46.5 5t48.5 23t24 46t-24.5 45.5t-48.5 22t-46 4.5q-23 0 -46.5 -4.5t-46.5 -22t-23 -45.5z" />
    <glyph glyph-name="fiveeighths" unicode="&#x215d;" horiz-adv-x="1679" 
d="M346 696q-131 0 -211 60t-80 155l164 21q0 -35 36.5 -64.5t90.5 -29.5q56 0 92.5 32t36.5 84q0 50 -36.5 81.5t-92.5 31.5q-86 0 -127 -59h-156l37 426h484v-142h-334l-8 -112q41 26 104 26q127 0 209 -68t82 -184q0 -126 -78.5 -192t-212.5 -66zM233 0l1051 1466h197
l-1051 -1466h-197zM1014 215q0 114 112 164q-86 55 -86 141q0 91 78.5 152t200.5 61t201 -61t79 -152q0 -88 -90 -143q55 -24 86 -65.5t31 -96.5q0 -103 -92 -167t-215 -64q-124 0 -214.5 64t-90.5 167zM1178 215q0 -42 38.5 -64t102.5 -22q62 0 102.5 23t40.5 63
q0 41 -40 63.5t-103 22.5q-64 0 -102.5 -22t-38.5 -64zM1202 520q0 -28 23 -46t47 -23t47 -5q22 0 46.5 5t48.5 23t24 46t-24.5 45.5t-48.5 22t-46 4.5q-23 0 -46.5 -4.5t-47 -22t-23.5 -45.5z" />
    <glyph glyph-name="seveneighths" unicode="&#x215e;" horiz-adv-x="1503" 
d="M182 717q-10 393 203 575h-358v142h573v-136q-50 -24 -92 -64.5t-81.5 -107.5t-60.5 -171.5t-18 -237.5h-166zM102 0l1051 1466h197l-1051 -1466h-197zM885 215q0 114 112 164q-86 55 -86 141q0 91 78.5 152t200.5 61t201 -61t79 -152q0 -88 -90 -143q55 -24 86 -65.5
t31 -96.5q0 -103 -92 -167t-215 -64q-124 0 -214.5 64t-90.5 167zM1049 215q0 -42 38.5 -64t102.5 -22q62 0 102.5 23t40.5 63q0 41 -40 63.5t-103 22.5q-64 0 -102.5 -22t-38.5 -64zM1073 520q0 -28 23 -46t47 -23t47 -5q22 0 46.5 5t48.5 23t24 46t-24.5 45.5t-48.5 22
t-46 4.5q-23 0 -46.5 -4.5t-47 -22t-23.5 -45.5z" />
    <glyph glyph-name="arrowleft" unicode="&#x2190;" horiz-adv-x="1794" 
d="M561 72q0 85 -15.5 153t-40 113t-60.5 77.5t-70 50t-76.5 27.5t-71.5 12.5t-63 2.5v225q34 0 63 2.5t71.5 12.5t76.5 27.5t70 50t60.5 77.5t40 113t15.5 153h236q0 -180 -73 -294t-204 -160h1110v-189h-1110q131 -46 204 -160t73 -294h-236z" />
    <glyph glyph-name="arrowup" unicode="&#x2191;" horiz-adv-x="1427" 
d="M164 932q85 0 153 15.5t113 40t77.5 60.5t50 70t27.5 76.5t12.5 71.5t2.5 63h225q0 -50 5.5 -92t31.5 -102t70 -101.5t129.5 -71.5t202.5 -30v-236q-180 0 -294.5 73t-160.5 204v-1043h-191v1043q-46 -131 -160 -204t-294 -73v236z" />
    <glyph glyph-name="arrowright" unicode="&#x2192;" horiz-adv-x="1794" 
d="M997 72q0 180 73 294t204 160h-1110v189h1110q-131 46 -204 160t-73 294h236q0 -85 16 -153t40 -113t60.5 -77.5t70.5 -50t76.5 -27.5t71.5 -12.5t62 -2.5v-225q-33 0 -62 -2.5t-71.5 -12.5t-76.5 -27.5t-70.5 -50t-60.5 -77.5t-40 -113t-16 -153h-236z" />
    <glyph glyph-name="arrowdown" unicode="&#x2193;" horiz-adv-x="1427" 
d="M602 -90q-1 34 -3.5 63t-13 71.5t-27.5 76t-50 70t-77.5 61t-112.5 40t-152 15.5l-2 236q180 1 295 -72.5t159 -204.5l3 1043h188v-1043q46 131 160.5 204t294.5 73v-236q-85 0 -153 -15.5t-113 -40t-78 -60.5t-50.5 -70t-27.5 -76.5t-12.5 -71.5t-2.5 -63h-225z" />
    <glyph glyph-name="arrowboth" unicode="&#x2194;" horiz-adv-x="2023" 
d="M1227 72q0 180 72.5 294t203.5 160h-983q131 -46 204 -160t73 -294h-236q0 85 -15.5 153t-40 113t-60.5 77.5t-70 50t-76.5 27.5t-71.5 12.5t-63 2.5v225q34 0 63 2.5t71.5 12.5t76.5 27.5t70 50t60.5 77.5t40 113t15.5 153h236q0 -180 -73 -294t-204 -160h983
q-131 46 -203.5 160t-72.5 294h235q0 -85 16 -153t40.5 -113t61 -77.5t70.5 -50t76 -27.5t71.5 -12.5t62.5 -2.5v-225q-33 0 -62.5 -2.5t-71.5 -12.5t-76 -27.5t-70.5 -50t-61 -77.5t-40.5 -113t-16 -153h-235z" />
    <glyph glyph-name="uni2196" unicode="&#x2196;" horiz-adv-x="1490" 
d="M1192 68l-735 735q39 -82 40 -166t-40.5 -174.5t-126.5 -175.5l-166 166q60 60 97 119t51 108t12 98t-14 85.5t-35 73t-42 59.5t-43 46l160 160q23 -24 46 -43t60 -41.5t73.5 -34.5t85.5 -14.5t97.5 12t108 51.5t119.5 97l166 -166q-85 -85 -175 -126.5t-175 -40
t-166 41.5l737 -737z" />
    <glyph glyph-name="uni2197" unicode="&#x2197;" horiz-adv-x="1490" 
d="M299 68l-135 133l735 735q-81 -39 -165 -40t-174.5 40.5t-176.5 126.5l168 166q309 -309 590 -27l159 -160q-24 -23 -43 -46t-42 -59.5t-34.5 -73t-14 -85.5t12 -98t51.5 -108t97 -119l-166 -166q-85 85 -126.5 175.5t-40.5 174.5t40 166z" />
    <glyph glyph-name="uni2198" unicode="&#x2198;" horiz-adv-x="1490" 
d="M383 176q127 127 263 158t253 -29l-735 735l135 134l735 -736q-39 82 -40 165.5t40.5 173.5t126.5 175l166 -164q-308 -310 -27 -591l-159 -158q-284 277 -590 -29z" />
    <glyph glyph-name="uni2199" unicode="&#x2199;" horiz-adv-x="1490" 
d="M940 10q-306 306 -590 29l-157 158q281 281 -29 591l166 164q85 -85 126.5 -175.5t40.5 -174.5t-40 -166l737 738l133 -134l-735 -737q82 40 166 41.5t174.5 -40.5t175.5 -128z" />
    <glyph glyph-name="uni2206" unicode="&#x2206;" horiz-adv-x="1228" 
d="M-39 0l518 1434h246l498 -1434h-1262zM252 205h682l-334 964z" />
    <glyph glyph-name="product" unicode="&#x220f;" horiz-adv-x="1445" 
d="M1055 -442v1671h-664v-1671h-213v1876h1090v-1876h-213z" />
    <glyph glyph-name="summation" unicode="&#x2211;" horiz-adv-x="1396" 
d="M178 -442v184l539 754l-539 753v185h1041v-205h-783l529 -733l-529 -734h783v-204h-1041z" />
    <glyph glyph-name="minus" unicode="&#x2212;" horiz-adv-x="1226" 
d="M137 504v203h953v-203h-953z" />
    <glyph glyph-name="radical" unicode="&#x221a;" horiz-adv-x="1333" 
d="M524 -442l-239 858h-209v194h370l199 -719l404 1543h217l-490 -1876h-252z" />
    <glyph glyph-name="infinity" unicode="&#x221e;" horiz-adv-x="1853" 
d="M1270 86q-93 0 -185.5 40.5t-156.5 115.5q-66 -75 -158 -115.5t-184 -40.5q-79 0 -157 29.5t-144 83.5t-107 140.5t-41 190.5q0 103 41 191t106 144t144 87t158 31q91 0 183.5 -43t158.5 -119q65 77 157 119.5t185 42.5q62 0 125 -19t120.5 -58t102.5 -92t71.5 -127
t26.5 -157q0 -104 -41 -190.5t-106.5 -140.5t-143 -83.5t-155.5 -29.5zM350 530q0 -100 60.5 -170.5t175.5 -70.5t175 70.5t60 170.5q0 42 -14.5 84.5t-42 80t-74 61.5t-104.5 24t-105 -24t-74.5 -61.5t-42 -80t-14.5 -84.5zM1034 530q0 -100 60.5 -170.5t175.5 -70.5
t175 70.5t60 170.5q0 42 -14.5 84.5t-42 80t-74 61.5t-104.5 24t-105 -24t-74.5 -61.5t-42 -80t-14.5 -84.5z" />
    <glyph glyph-name="integral" unicode="&#x222b;" horiz-adv-x="1265" 
d="M178 -442v204h148q59 0 81 24t29 101l131 1227q19 189 86.5 264.5t223.5 75.5h210v-205h-147q-59 0 -81.5 -24t-29.5 -101l-131 -1226q-19 -189 -86.5 -264.5t-222.5 -75.5h-211z" />
    <glyph glyph-name="approxequal" unicode="&#x2248;" horiz-adv-x="1226" 
d="M137 895q17 17 32 28.5t48 30.5t82 29t111 10q60 0 117.5 -19t96.5 -42.5t91 -42.5t102 -19q55 0 96.5 8t74.5 28t51.5 36t50.5 49v-225q-17 -17 -32 -28.5t-48 -30.5t-82 -29t-111 -10q-60 0 -117.5 19t-96.5 42.5t-91 42.5t-102 19q-55 0 -96.5 -8t-74.5 -28t-51.5 -36
t-50.5 -49v225zM137 193v225q17 17 32 28.5t48 30.5t82 29t111 10q60 0 117.5 -19t96.5 -42.5t91 -42.5t102 -19q55 0 96.5 8t74.5 28t51.5 36t50.5 49v-225q-18 -18 -32 -29t-47.5 -30t-82.5 -29.5t-111 -10.5q-60 0 -117.5 19t-96.5 42.5t-91 42.5t-102 19
q-73 0 -126.5 -18t-79.5 -38.5t-67 -63.5z" />
    <glyph glyph-name="notequal" unicode="&#x2260;" horiz-adv-x="1226" 
d="M285 18l96 248h-244v203h322l106 274h-428v203h506l102 266h195l-102 -266h252v-203h-330l-107 -274h437v-203h-515l-96 -248h-194z" />
    <glyph glyph-name="lessequal" unicode="&#x2264;" horiz-adv-x="1206" 
d="M1069 301l-952 369v207l952 368v-227l-633 -244l633 -246v-227zM117 -29v203h952v-203h-952z" />
    <glyph glyph-name="greaterequal" unicode="&#x2265;" horiz-adv-x="1206" 
d="M137 301v227l633 246l-633 244v227l953 -368v-207zM137 -29v203h953v-203h-953z" />
    <glyph glyph-name="uni2460" unicode="&#x2460;" horiz-adv-x="1826" 
d="M670 375v145h184v283q-45 -58 -127 -58h-57v142h57q44 0 66.5 5.5t37.5 28.5t19 60.5t4 110.5h162v-572h184v-145h-530zM150 717q0 155 60.5 296t163 243.5t244.5 163.5t297 61q154 0 295 -61t243.5 -163t163 -243.5t60.5 -296.5t-60.5 -296.5t-163 -243.5t-243.5 -163
t-295 -61q-155 0 -297 61t-244.5 163.5t-163 243.5t-60.5 296zM309 717q0 -164 81 -303t220.5 -220t304.5 -81q122 0 234 48t192.5 128.5t128.5 192.5t48 235t-48 235t-128.5 192.5t-192.5 128.5t-234 48q-165 0 -304.5 -81t-220.5 -220t-81 -303z" />
    <glyph glyph-name="uni2461" unicode="&#x2461;" horiz-adv-x="1826" 
d="M629 500q11 7 68.5 41.5t105 67t102.5 75t87 87t32 83.5q0 58 -33 85.5t-86 27.5q-54 0 -87 -40t-30 -116l-159 18q-3 130 70.5 204.5t205.5 74.5q127 0 204 -73t77 -181q0 -161 -283 -334h299v-145h-573v125zM150 717q0 155 60.5 296t163 243.5t244.5 163.5t297 61
q154 0 295 -61t243.5 -163t163 -243.5t60.5 -296.5t-60.5 -296.5t-163 -243.5t-243.5 -163t-295 -61q-155 0 -297 61t-244.5 163.5t-163 243.5t-60.5 296zM309 717q0 -164 81 -303t220.5 -220t304.5 -81q122 0 234 48t192.5 128.5t128.5 192.5t48 235t-48 235t-128.5 192.5
t-192.5 128.5t-234 48q-165 0 -304.5 -81t-220.5 -220t-81 -303z" />
    <glyph glyph-name="uni2462" unicode="&#x2462;" horiz-adv-x="1826" 
d="M913 346q-133 0 -217 72t-78 180l164 18q-4 -64 34.5 -94t96.5 -30q138 0 138 86q0 84 -138 84h-88v145h88q53 0 83 19.5t30 54.5q0 71 -113 71q-110 0 -110 -86l-162 19q-2 81 71.5 146t200.5 65q129 0 202 -60.5t73 -154.5q0 -100 -84 -144q110 -42 110 -159
q0 -105 -83.5 -168.5t-217.5 -63.5zM150 717q0 155 60.5 296t163 243.5t244.5 163.5t297 61q154 0 295 -61t243.5 -163t163 -243.5t60.5 -296.5t-60.5 -296.5t-163 -243.5t-243.5 -163t-295 -61q-155 0 -297 61t-244.5 163.5t-163 243.5t-60.5 296zM309 717q0 -164 81 -303
t220.5 -220t304.5 -81q122 0 234 48t192.5 128.5t128.5 192.5t48 235t-48 235t-128.5 192.5t-192.5 128.5t-234 48q-165 0 -304.5 -81t-220.5 -220t-81 -303z" />
    <glyph glyph-name="uni2463" unicode="&#x2463;" horiz-adv-x="1826" 
d="M958 375v172h-436v129q104 48 151.5 159t47.5 257h166q0 -101 -32.5 -213.5t-98.5 -190.5h202v404h162v-404h92v-141h-92v-172h-162zM150 717q0 155 60.5 296t163 243.5t244.5 163.5t297 61q154 0 295 -61t243.5 -163t163 -243.5t60.5 -296.5t-60.5 -296.5t-163 -243.5
t-243.5 -163t-295 -61q-155 0 -297 61t-244.5 163.5t-163 243.5t-60.5 296zM309 717q0 -164 81 -303t220.5 -220t304.5 -81q122 0 234 48t192.5 128.5t128.5 192.5t48 235t-48 235t-128.5 192.5t-192.5 128.5t-234 48q-165 0 -304.5 -81t-220.5 -220t-81 -303z" />
    <glyph glyph-name="uni2464" unicode="&#x2464;" horiz-adv-x="1826" 
d="M920 354q-131 0 -211 59.5t-80 155.5l166 21q0 -36 35.5 -65t89.5 -29q57 0 93 31.5t36 82.5q0 52 -36 83.5t-93 31.5q-86 0 -127 -59h-154l37 426h481v-144h-332l-8 -110q37 24 103 24q128 0 209 -67.5t81 -184.5q0 -125 -78 -190.5t-212 -65.5zM150 717q0 155 60.5 296
t163 243.5t244.5 163.5t297 61q154 0 295 -61t243.5 -163t163 -243.5t60.5 -296.5t-60.5 -296.5t-163 -243.5t-243.5 -163t-295 -61q-155 0 -297 61t-244.5 163.5t-163 243.5t-60.5 296zM309 717q0 -164 81 -303t220.5 -220t304.5 -81q122 0 234 48t192.5 128.5t128.5 192.5
t48 235t-48 235t-128.5 192.5t-192.5 128.5t-234 48q-165 0 -304.5 -81t-220.5 -220t-81 -303z" />
    <glyph glyph-name="uni2465" unicode="&#x2465;" horiz-adv-x="1826" 
d="M920 358q-70 0 -125 24t-89.5 62t-57 89t-31.5 101.5t-9 102.5q0 183 86 277t226 94q119 0 198.5 -55.5t108.5 -149.5l-166 -20q-38 84 -141 84q-136 0 -154 -172q57 57 154 57q51 0 99.5 -14t91.5 -42t69 -77t26 -113q0 -63 -26 -112.5t-69 -78t-91.5 -43t-99.5 -14.5z
M150 717q0 155 60.5 296t163 243.5t244.5 163.5t297 61q154 0 295 -61t243.5 -163t163 -243.5t60.5 -296.5t-60.5 -296.5t-163 -243.5t-243.5 -163t-295 -61q-155 0 -297 61t-244.5 163.5t-163 243.5t-60.5 296zM309 717q0 -164 81 -303t220.5 -220t304.5 -81q122 0 234 48
t192.5 128.5t128.5 192.5t48 235t-48 235t-128.5 192.5t-192.5 128.5t-234 48q-165 0 -304.5 -81t-220.5 -220t-81 -303zM791 606q0 -51 38.5 -76.5t90.5 -25.5q51 0 87.5 25t36.5 77q0 53 -36 78t-88 25q-53 0 -91 -25t-38 -78z" />
    <glyph glyph-name="uni2466" unicode="&#x2466;" horiz-adv-x="1826" 
d="M782 375q-10 395 201 575h-356v142h573v-136q-40 -19 -74.5 -47t-69.5 -76.5t-58.5 -109.5t-37.5 -151t-12 -197h-166zM150 717q0 155 60.5 296t163 243.5t244.5 163.5t297 61q154 0 295 -61t243.5 -163t163 -243.5t60.5 -296.5t-60.5 -296.5t-163 -243.5t-243.5 -163
t-295 -61q-155 0 -297 61t-244.5 163.5t-163 243.5t-60.5 296zM309 717q0 -164 81 -303t220.5 -220t304.5 -81q122 0 234 48t192.5 128.5t128.5 192.5t48 235t-48 235t-128.5 192.5t-192.5 128.5t-234 48q-165 0 -304.5 -81t-220.5 -220t-81 -303z" />
    <glyph glyph-name="uni2467" unicode="&#x2467;" horiz-adv-x="1826" 
d="M913 352q-123 0 -214 64.5t-91 167.5q0 114 113 164q-86 55 -86 141q0 92 78 152.5t200 60.5t201.5 -61t79.5 -152q0 -88 -88 -144q115 -50 115 -161q0 -103 -92.5 -167.5t-215.5 -64.5zM150 717q0 155 60.5 296t163 243.5t244.5 163.5t297 61q154 0 295 -61t243.5 -163
t163 -243.5t60.5 -296.5t-60.5 -296.5t-163 -243.5t-243.5 -163t-295 -61q-155 0 -297 61t-244.5 163.5t-163 243.5t-60.5 296zM309 717q0 -164 81 -303t220.5 -220t304.5 -81q122 0 234 48t192.5 128.5t128.5 192.5t48 235t-48 235t-128.5 192.5t-192.5 128.5t-234 48
q-165 0 -304.5 -81t-220.5 -220t-81 -303zM772 584q0 -41 39 -63.5t102 -22.5q62 0 103 23t41 63q0 41 -40.5 63.5t-103.5 22.5t-102 -22.5t-39 -63.5zM797 889q0 -28 23 -46t46.5 -23t46.5 -5t47 5t48 23t24 46t-24 45.5t-48 22t-47 4.5t-46.5 -4.5t-46.5 -22t-23 -45.5z
" />
    <glyph glyph-name="uni2468" unicode="&#x2468;" horiz-adv-x="1826" 
d="M909 358q-119 0 -198.5 56.5t-108.5 150.5l166 21q38 -84 141 -84q66 0 105.5 43.5t48.5 126.5q-58 -58 -154 -58q-51 0 -99.5 14t-91.5 42.5t-69 77.5t-26 112q0 64 26 113.5t69 78t91.5 42.5t99.5 14q70 0 125 -24t89.5 -61.5t57 -88.5t31.5 -101.5t9 -103.5
q0 -182 -86 -276.5t-226 -94.5zM150 717q0 155 60.5 296t163 243.5t244.5 163.5t297 61q154 0 295 -61t243.5 -163t163 -243.5t60.5 -296.5t-60.5 -296.5t-163 -243.5t-243.5 -163t-295 -61q-155 0 -297 61t-244.5 163.5t-163 243.5t-60.5 296zM309 717q0 -164 81 -303
t220.5 -220t304.5 -81q122 0 234 48t192.5 128.5t128.5 192.5t48 235t-48 235t-128.5 192.5t-192.5 128.5t-234 48q-165 0 -304.5 -81t-220.5 -220t-81 -303zM784 856q0 -51 36.5 -75.5t88.5 -24.5q53 0 91 24.5t38 75.5q0 53 -38.5 79t-90.5 26t-88.5 -26t-36.5 -79z" />
    <glyph glyph-name="uni24EA" unicode="&#x24ea;" horiz-adv-x="1826" 
d="M915 356q-146 0 -233.5 106.5t-87.5 268.5t87.5 268.5t233.5 106.5t233 -106.5t87 -268.5t-87 -268.5t-233 -106.5zM150 717q0 155 60.5 296t163 243.5t244.5 163.5t297 61q154 0 295 -61t243.5 -163t163 -243.5t60.5 -296.5t-60.5 -296.5t-163 -243.5t-243.5 -163
t-295 -61q-155 0 -297 61t-244.5 163.5t-163 243.5t-60.5 296zM309 717q0 -164 81 -303t220.5 -220t304.5 -81q122 0 234 48t192.5 128.5t128.5 192.5t48 235t-48 235t-128.5 192.5t-192.5 128.5t-234 48q-165 0 -304.5 -81t-220.5 -220t-81 -303zM756 731q0 -110 39 -170.5
t120 -60.5q158 0 158 231q0 110 -39 172t-119 62q-81 0 -120 -62t-39 -172z" />
    <glyph glyph-name="uni24FF" unicode="&#x24ff;" horiz-adv-x="1841" 
d="M922 -53q-209 0 -387 103.5t-281.5 280.5t-103.5 386t103.5 386t281.5 280.5t387 103.5q155 0 297.5 -61t245.5 -164.5t164 -246t61 -298.5t-61 -298.5t-164 -246t-245.5 -164.5t-297.5 -61zM600 721q0 -162 88 -268.5t234 -106.5t232.5 106.5t86.5 268.5t-86.5 268.5
t-232.5 106.5t-234 -106.5t-88 -268.5zM762 721q0 233 160 233q159 0 159 -233q0 -234 -159 -234q-160 0 -160 234z" />
    <glyph glyph-name="lozenge" unicode="&#x25ca;" horiz-adv-x="1247" 
d="M510 0l-373 717l373 717h207l395 -717l-395 -717h-207zM352 717l264 -506l279 506l-279 508z" />
    <glyph glyph-name="circle" unicode="&#x25cb;" horiz-adv-x="1826" 
d="M915 -47q-155 0 -297 61t-244.5 163.5t-163 243.5t-60.5 296t60.5 296t163 243.5t244.5 163.5t297 61q154 0 295 -61t243.5 -163t163 -243.5t60.5 -296.5t-60.5 -296.5t-163 -243.5t-243.5 -163t-295 -61zM309 717q0 -164 81 -303t220.5 -220t304.5 -81q122 0 234 48
t192.5 128.5t128.5 192.5t48 235t-48 235t-128.5 192.5t-192.5 128.5t-234 48q-165 0 -304.5 -81t-220.5 -220t-81 -303z" />
    <glyph glyph-name="uni25CF" unicode="&#x25cf;" horiz-adv-x="1826" 
d="M915 -47q-155 0 -297 61t-244.5 163.5t-163 243.5t-60.5 296t60.5 296t163 243.5t244.5 163.5t297 61q154 0 295 -61t243.5 -163t163 -243.5t60.5 -296.5t-60.5 -296.5t-163 -243.5t-243.5 -163t-295 -61z" />
    <glyph glyph-name="uni2776" unicode="&#x2776;" horiz-adv-x="1841" 
d="M922 -53q-209 0 -387 103.5t-281.5 280.5t-103.5 386t103.5 386t281.5 280.5t387 103.5q155 0 297.5 -61t245.5 -164.5t164 -246t61 -298.5t-61 -298.5t-164 -246t-245.5 -164.5t-297.5 -61zM676 375h530v145h-184v572h-162q0 -73 -4 -110.5t-19 -60.5t-37.5 -28.5
t-66.5 -5.5h-57v-142h57q82 0 127 58v-283h-184v-145z" />
    <glyph glyph-name="uni2777" unicode="&#x2777;" horiz-adv-x="1841" 
d="M922 -53q-209 0 -387 103.5t-281.5 280.5t-103.5 386t103.5 386t281.5 280.5t387 103.5q155 0 297.5 -61t245.5 -164.5t164 -246t61 -298.5t-61 -298.5t-164 -246t-245.5 -164.5t-297.5 -61zM635 375h573v145h-299q283 173 283 334q0 108 -77 181t-204 73
q-132 0 -205 -74t-71 -205l162 -18q-3 76 28.5 116t85.5 40q55 0 87 -27.5t32 -85.5q0 -39 -31.5 -83t-87.5 -87.5t-101.5 -74.5t-106 -67t-68.5 -42v-125z" />
    <glyph glyph-name="uni2778" unicode="&#x2778;" horiz-adv-x="1841" 
d="M922 -53q-209 0 -387 103.5t-281.5 280.5t-103.5 386t103.5 386t281.5 280.5t387 103.5q155 0 297.5 -61t245.5 -164.5t164 -246t61 -298.5t-61 -298.5t-164 -246t-245.5 -164.5t-297.5 -61zM625 598q-6 -108 78.5 -180t218.5 -72q133 0 217 63.5t84 168.5
q0 117 -113 159q86 46 86 144q0 94 -73 154.5t-201 60.5t-202.5 -65t-72.5 -146l150 -19q0 47 31 74t94 27q60 0 92.5 -24t32.5 -62q0 -37 -33 -61.5t-92 -24.5h-76v-119h76q64 0 106.5 -25t42.5 -73q0 -49 -42.5 -75t-106.5 -26q-66 0 -108.5 36.5t-39.5 102.5z" />
    <glyph glyph-name="uni2779" unicode="&#x2779;" horiz-adv-x="1841" 
d="M922 -53q-209 0 -387 103.5t-281.5 280.5t-103.5 386t103.5 386t281.5 280.5t387 103.5q155 0 297.5 -61t245.5 -164.5t164 -246t61 -298.5t-61 -298.5t-164 -246t-245.5 -164.5t-297.5 -61zM528 547h437v-172h161v172h93v141h-93v404h-161v-404h-230q146 134 146 404
h-166q0 -329 -187 -416v-129z" />
    <glyph glyph-name="uni277A" unicode="&#x277a;" horiz-adv-x="1841" 
d="M922 -53q-209 0 -387 103.5t-281.5 280.5t-103.5 386t103.5 386t281.5 280.5t387 103.5q155 0 297.5 -61t245.5 -164.5t164 -246t61 -298.5t-61 -298.5t-164 -246t-245.5 -164.5t-297.5 -61zM637 567q0 -94 80 -153.5t211 -59.5q134 0 212.5 66t78.5 190
q0 117 -81.5 184.5t-209.5 67.5q-78 0 -119 -26l8 112h348v144h-483l-37 -412h156q4 10 15.5 22t41.5 24.5t70 12.5q66 0 103.5 -34t37.5 -95t-37.5 -95t-103.5 -34q-61 0 -94 34t-33 73z" />
    <glyph glyph-name="uni277B" unicode="&#x277b;" horiz-adv-x="1841" 
d="M922 -53q-209 0 -387 103.5t-281.5 280.5t-103.5 386t103.5 386t281.5 280.5t387 103.5q155 0 297.5 -61t245.5 -164.5t164 -246t61 -298.5t-61 -298.5t-164 -246t-245.5 -164.5t-297.5 -61zM614 737q0 -52 9 -102.5t32 -101.5t57.5 -89t89.5 -62t124 -24q51 0 100 14.5
t91.5 43t68.5 78t26 112.5q0 64 -26 113t-68.5 77t-91 42t-100.5 14q-100 0 -154 -57q18 186 154 186q95 0 143 -98l164 20q-29 94 -108.5 149.5t-198.5 55.5q-139 0 -225.5 -94t-86.5 -277zM782 606q0 56 41.5 86.5t102.5 30.5q62 0 101.5 -30.5t39.5 -86.5q0 -55 -40 -87
t-101 -32q-60 0 -102 32t-42 87z" />
    <glyph glyph-name="uni277C" unicode="&#x277c;" horiz-adv-x="1841" 
d="M922 -53q-209 0 -387 103.5t-281.5 280.5t-103.5 386t103.5 386t281.5 280.5t387 103.5q155 0 297.5 -61t245.5 -164.5t164 -246t61 -298.5t-61 -298.5t-164 -246t-245.5 -164.5t-297.5 -61zM633 950h358q-211 -180 -203 -575h166q-3 133 18 237.5t60.5 171.5t81.5 107.5
t92 64.5v136h-573v-142z" />
    <glyph glyph-name="uni277D" unicode="&#x277d;" horiz-adv-x="1841" 
d="M922 -53q-209 0 -387 103.5t-281.5 280.5t-103.5 386t103.5 386t281.5 280.5t387 103.5q155 0 297.5 -61t245.5 -164.5t164 -246t61 -298.5t-61 -298.5t-164 -246t-245.5 -164.5t-297.5 -61zM614 584q0 -103 91.5 -167.5t214.5 -64.5q124 0 215.5 64.5t91.5 167.5
q0 111 -115 161q88 56 88 144q0 91 -79 152t-201 61t-200.5 -61t-78.5 -152q0 -84 86 -141q-113 -50 -113 -164zM764 584q0 45 43 73.5t113 28.5q71 0 115 -29t44 -73q0 -43 -44 -72t-115 -29q-69 0 -112.5 29t-43.5 72zM788 889q0 42 40 64t92 22q54 0 94.5 -22t40.5 -64
q0 -44 -41 -67t-94 -23q-52 0 -92 23t-40 67z" />
    <glyph glyph-name="uni277E" unicode="&#x277e;" horiz-adv-x="1841" 
d="M922 -53q-209 0 -387 103.5t-281.5 280.5t-103.5 386t103.5 386t281.5 280.5t387 103.5q155 0 297.5 -61t245.5 -164.5t164 -246t61 -298.5t-61 -298.5t-164 -246t-245.5 -164.5t-297.5 -61zM610 565q29 -94 107.5 -150.5t197.5 -56.5q140 0 226 94.5t86 276.5
q0 53 -9 103.5t-31.5 101.5t-57 88.5t-89.5 61.5t-125 24q-51 0 -99.5 -14t-91.5 -42.5t-69 -78t-26 -113.5q0 -63 26 -112t69 -77.5t91.5 -42.5t99.5 -14q98 0 156 58q-18 -185 -156 -185q-92 0 -141 99zM776 856q0 56 39.5 87.5t99.5 31.5q62 0 104 -31.5t42 -87.5
q0 -55 -42 -86t-104 -31q-60 0 -99.5 31t-39.5 86z" />
    <glyph glyph-name="uni004A0301" horiz-adv-x="1198" 
d="M571 -33q-117 0 -206 34.5t-143.5 91.5t-88.5 139t-46 167t-11 185l254 14q0 -414 241 -414q108 0 160.5 66.5t52.5 204.5v979h254v-938q0 -90 -9.5 -160.5t-39.5 -142.5t-80 -119t-136 -77t-202 -30zM829 1597l132 293h266l-217 -293h-181z" />
    <glyph glyph-name="Y.ss01" horiz-adv-x="1292" 
d="M518 0v569l-504 865h279l354 -615l352 615h279l-504 -865v-569h-256z" />
    <glyph glyph-name="Yacute.ss01" horiz-adv-x="1292" 
d="M518 0v569l-504 865h279l354 -615l352 615h279l-504 -865v-569h-256zM604 1597l131 293h266l-217 -293h-180z" />
    <glyph glyph-name="Ycircumflex.ss01" horiz-adv-x="1292" 
d="M518 0v569l-504 865h279l354 -615l352 615h279l-504 -865v-569h-256zM307 1597l160 293h356l160 -293h-213l-125 211l-125 -211h-213z" />
    <glyph glyph-name="Ydieresis.ss01" horiz-adv-x="1292" 
d="M518 0v569l-504 865h279l354 -615l352 615h279l-504 -865v-569h-256zM295 1597v240h280v-240h-280zM717 1597v240h280v-240h-280z" />
    <glyph glyph-name="Ygrave.ss01" horiz-adv-x="1292" 
d="M518 0v569l-504 865h279l354 -615l352 615h279l-504 -865v-569h-256zM332 1890h266l131 -293h-180z" />
    <glyph glyph-name="uni1EF8.ss01" horiz-adv-x="1292" 
d="M518 0v569l-504 865h279l354 -615l352 615h279l-504 -865v-569h-256zM250 1618q0 130 69 205t177 78q55 1 98 -17.5t64.5 -41t49 -41.5t56.5 -19q39 0 57.5 34t18.5 85l202 -21q0 -130 -69 -206.5t-174 -76.5q-55 0 -98.5 18.5t-65 40t-50 40t-57.5 18.5q-35 0 -55 -34
t-20 -83z" />
    <glyph glyph-name="i.loclTRK" horiz-adv-x="555" 
d="M137 1188v242h283v-242h-283zM152 0v1024h254v-1024h-254z" />
    <glyph glyph-name="uni006A0301" horiz-adv-x="585" 
d="M-88 -410v205h123q89 0 116 27t27 121v1081h248v-1112q0 -169 -83.5 -245.5t-242.5 -76.5h-188zM217 1188l131 293h266l-217 -293h-180z" />
    <glyph glyph-name="y.ss01" horiz-adv-x="1175" 
d="M137 -410v217h137q44 0 81.5 25t56.5 68l43 102l-428 1022h258l299 -723l307 723h258l-520 -1223q-43 -99 -127.5 -155t-192.5 -56h-172z" />
    <glyph glyph-name="y.ss01.001" horiz-adv-x="1175" 
d="M137 -410v217h137q44 0 81.5 25t56.5 68l43 102l-428 1022h258l299 -723l307 723h258l-520 -1223q-43 -99 -127.5 -155t-192.5 -56h-172z" />
    <glyph glyph-name="yacute.ss01" horiz-adv-x="1175" 
d="M137 -410v217h137q44 0 81.5 25t56.5 68l43 102l-428 1022h258l299 -723l307 723h258l-520 -1223q-43 -99 -127.5 -155t-192.5 -56h-172zM506 1188l131 293h266l-217 -293h-180z" />
    <glyph glyph-name="ycircumflex.ss01" horiz-adv-x="1175" 
d="M137 -410v217h137q44 0 81.5 25t56.5 68l43 102l-428 1022h258l299 -723l307 723h258l-520 -1223q-43 -99 -127.5 -155t-192.5 -56h-172zM250 1188l160 293h356l160 -293h-213l-125 211l-125 -211h-213z" />
    <glyph glyph-name="ydieresis.ss01" horiz-adv-x="1175" 
d="M137 -410v217h137q44 0 81.5 25t56.5 68l43 102l-428 1022h258l299 -723l307 723h258l-520 -1223q-43 -99 -127.5 -155t-192.5 -56h-172zM236 1188v239h280v-239h-280zM657 1188v239h281v-239h-281z" />
    <glyph glyph-name="ygrave.ss01" horiz-adv-x="1175" 
d="M137 -410v217h137q44 0 81.5 25t56.5 68l43 102l-428 1022h258l299 -723l307 723h258l-520 -1223q-43 -99 -127.5 -155t-192.5 -56h-172zM274 1481h267l131 -293h-180z" />
    <glyph glyph-name="uni1EF9.ss01" horiz-adv-x="1175" 
d="M137 -410v217h137q44 0 81.5 25t56.5 68l43 102l-428 1022h258l299 -723l307 723h258l-520 -1223q-43 -99 -127.5 -155t-192.5 -56h-172zM190 1208q0 130 69 205t177 78q45 1 81.5 -11.5t59.5 -30t42 -35t40.5 -30t45.5 -12.5q38 0 56.5 34t18.5 85l203 -21
q0 -130 -69.5 -206t-174.5 -76q-55 0 -98 18.5t-65 40t-50 40t-57 18.5q-35 0 -55.5 -34.5t-20.5 -82.5z" />
    <glyph glyph-name="one.ss02" horiz-adv-x="897" 
d="M424 0v987q-59 -168 -262 -168h-107v205h107q136 0 199 94t63 316h254v-1434h-254z" />
    <glyph glyph-name="four.ss02" horiz-adv-x="1333" 
d="M797 0v381h-742v205l748 848h250v-848h184v-205h-184v-381h-256zM330 586h467v547z" />
    <glyph glyph-name="uni2776.ss02" horiz-adv-x="1841" 
d="M922 -53q-209 0 -387 103.5t-281.5 280.5t-103.5 386t103.5 386t281.5 280.5t387 103.5q155 0 297.5 -61t245.5 -164.5t164 -246t61 -298.5t-61 -298.5t-164 -246t-245.5 -164.5t-297.5 -61zM684 745h57q82 0 127 58v-428h162v717h-162q0 -94 -10.5 -136t-35 -55.5
t-81.5 -13.5h-57v-142z" />
    <glyph glyph-name="uni2779.ss02" horiz-adv-x="1841" 
d="M922 -53q-209 0 -387 103.5t-281.5 280.5t-103.5 386t103.5 386t281.5 280.5t387 103.5q155 0 297.5 -61t245.5 -164.5t164 -246t61 -298.5t-61 -298.5t-164 -246t-245.5 -164.5t-297.5 -61zM563 541h365v-172h162v172h92v141h-92v403h-142l-385 -413v-131zM748 682
l194 209v-209h-194z" />
    <glyph glyph-name="uni2460.ss02" horiz-adv-x="1677" 
d="M827 375v434q-44 -64 -127 -64h-57v142h57q57 0 81.5 13.5t35 55.5t10.5 136h162v-717h-162zM115 717q0 155 61 296t163.5 243.5t244.5 163.5t297 61q154 0 295 -61t243 -163t162.5 -243.5t60.5 -296.5t-60.5 -296.5t-162.5 -243.5t-243 -163t-295 -61q-155 0 -297 61
t-244.5 163.5t-163.5 243.5t-61 296zM274 717q0 -123 48 -235t129 -192.5t193.5 -128.5t236.5 -48q122 0 233.5 48t192.5 128.5t128.5 192.5t47.5 235t-47.5 235t-128.5 192.5t-192.5 128.5t-233.5 48q-124 0 -236.5 -48t-193.5 -128.5t-129 -192.5t-48 -235z" />
    <glyph glyph-name="uni2463.ss02" horiz-adv-x="1677" 
d="M825 369v172h-364v131l385 413h141v-403h92v-141h-92v-172h-162zM53 717q0 155 61 296t163.5 243.5t244.5 163.5t297 61q154 0 295 -61t243.5 -163t163 -243.5t60.5 -296.5t-60.5 -296.5t-163 -243.5t-243.5 -163t-295 -61q-155 0 -297 61t-244.5 163.5t-163.5 243.5
t-61 296zM213 717q0 -164 81 -303t220.5 -220t304.5 -81q122 0 233.5 48t192.5 128.5t128.5 192.5t47.5 235t-47.5 235t-128.5 192.5t-192.5 128.5t-233.5 48q-165 0 -304.5 -81t-220.5 -220t-81 -303zM645 682h180v192z" />
    <glyph glyph-name="zero.dnom" horiz-adv-x="749" 
d="M377 -16q-146 0 -234 106.5t-88 267.5q0 162 88 268.5t234 106.5t232.5 -106.5t86.5 -268.5q0 -161 -86.5 -267.5t-232.5 -106.5zM217 358q0 -231 160 -231q158 0 158 231q0 110 -39 172t-119 62q-82 0 -121 -62t-39 -172z" />
    <glyph glyph-name="one.dnom" horiz-adv-x="638" 
d="M96 0v143h185v287q-40 -59 -115 -59h-70v141h70q51 0 73 13t32 55t10 137h161v-574h185v-143h-531z" />
    <glyph glyph-name="two.dnom" horiz-adv-x="684" 
d="M76 125q13 9 68.5 40.5t104.5 63.5t103 73t86.5 87t32.5 88q0 58 -33 86.5t-86 28.5q-54 0 -86.5 -40t-29.5 -118l-160 21q-3 130 70.5 204t205.5 74q127 0 204 -73.5t77 -182.5q0 -168 -279 -334h295v-143h-573v125z" />
    <glyph glyph-name="three.dnom" horiz-adv-x="706" 
d="M332 -16q-134 0 -218.5 72t-78.5 180l164 18q-3 -64 35.5 -94.5t97.5 -30.5q137 0 137 86q0 84 -137 84h-90v147h90q52 0 82 19t30 55q0 35 -30 53.5t-82 18.5q-111 0 -111 -86l-164 18q-2 81 72.5 145t202.5 64t201 -60t73 -153q0 -101 -90 -145q117 -41 117 -160
q0 -104 -84 -167.5t-217 -63.5z" />
    <glyph glyph-name="four.dnom" horiz-adv-x="798" 
d="M35 299q53 25 92.5 69t62 100t33 117.5t10.5 131.5h166q0 -101 -32.5 -213.5t-100.5 -190.5h205v404h162v-404h92v-141h-92v-172h-162v172h-436v127z" />
    <glyph glyph-name="five.dnom" horiz-adv-x="690" 
d="M346 -20q-131 0 -211 60t-80 155l164 20q0 -35 36.5 -64.5t90.5 -29.5q56 0 92.5 32.5t36.5 84.5q0 50 -36.5 81t-92.5 31q-86 0 -127 -59h-156l37 426h484v-142h-334l-8 -112q41 26 104 26q128 0 209.5 -67.5t81.5 -183.5q0 -126 -78.5 -192t-212.5 -66z" />
    <glyph glyph-name="six.dnom" horiz-adv-x="727" 
d="M387 -16q-70 0 -125 23.5t-89 61.5t-56.5 88.5t-31.5 101t-9 103.5q0 182 85.5 276.5t225.5 94.5q119 0 197.5 -56t107.5 -149l-164 -20q-41 84 -141 84q-136 0 -154 -172q54 57 154 57q51 0 99.5 -14t91.5 -42t69.5 -77t26.5 -113t-26.5 -113.5t-69.5 -77.5t-91.5 -42
t-99.5 -14zM258 231q0 -53 38.5 -78.5t90.5 -25.5t88.5 25.5t36.5 78.5t-36.5 78t-88.5 25q-53 0 -91 -25t-38 -78z" />
    <glyph glyph-name="seven.dnom" horiz-adv-x="608" 
d="M182 0q-10 393 203 575h-358v142h573v-135q-39 -19 -73.5 -47t-69.5 -76.5t-59 -110t-38 -151.5t-12 -197h-166z" />
    <glyph glyph-name="eight.dnom" horiz-adv-x="720" 
d="M360 -16q-124 0 -214.5 64t-90.5 167q0 114 113 164q-86 55 -86 141q0 92 78 152.5t200 60.5t201.5 -61t79.5 -152q0 -88 -90 -143q55 -24 86 -65.5t31 -96.5q0 -103 -92.5 -167t-215.5 -64zM219 215q0 -42 38.5 -64t102.5 -22q62 0 103 23t41 63q0 41 -40.5 63.5
t-103.5 22.5q-64 0 -102.5 -22t-38.5 -64zM244 520q0 -28 23 -46t46.5 -23t46.5 -5q22 0 46.5 5t48.5 23t24 46t-24.5 45.5t-48.5 22t-46 4.5q-23 0 -46.5 -4.5t-46.5 -22t-23 -45.5z" />
    <glyph glyph-name="nine.dnom" horiz-adv-x="727" 
d="M340 -16q-119 0 -197.5 55.5t-107.5 148.5l164 21q41 -84 141 -84q136 0 154 172q-54 -57 -154 -57q-51 0 -99.5 14t-91.5 41.5t-69.5 76.5t-26.5 113t26.5 113.5t69.5 78t91.5 42.5t99.5 14q70 0 125 -24t89 -61.5t56.5 -88.5t31.5 -101.5t9 -103.5q0 -182 -85.5 -276
t-225.5 -94zM215 481q0 -53 36.5 -77.5t88.5 -24.5q53 0 91 25t38 77q0 53 -38.5 79t-90.5 26t-88.5 -26t-36.5 -79z" />
    <glyph glyph-name="zero.numr" horiz-adv-x="749" 
d="M377 700q-146 0 -234 106.5t-88 268.5t88 268.5t234 106.5t232.5 -106.5t86.5 -268.5t-86.5 -268.5t-232.5 -106.5zM217 1075q0 -231 160 -231q158 0 158 231q0 110 -39 172t-119 62q-82 0 -121 -62t-39 -172z" />
    <glyph glyph-name="one.numr" horiz-adv-x="638" 
d="M96 717v143h185v291q-44 -64 -127 -64h-58v142h58q57 0 81.5 13t35 55t10.5 137h161v-574h185v-143h-531z" />
    <glyph glyph-name="two.numr" horiz-adv-x="684" 
d="M76 842q11 8 68.5 42t105 66t102.5 74.5t87 86.5t32 83q0 58 -33 86.5t-86 28.5q-54 0 -86.5 -40t-29.5 -118l-160 20q-3 130 70.5 204.5t205.5 74.5q127 0 204 -73.5t77 -182.5q0 -168 -279 -334h295v-143h-573v125z" />
    <glyph glyph-name="three.numr" horiz-adv-x="706" 
d="M332 700q-134 0 -218.5 72t-78.5 180l164 19q-3 -64 35.5 -94.5t97.5 -30.5q137 0 137 86q0 84 -137 84h-90v147h90q52 0 82 19t30 55q0 35 -30 53.5t-82 18.5q-111 0 -111 -86l-164 18q-2 81 72.5 145t202.5 64t201 -60t73 -153q0 -100 -88 -145q115 -41 115 -160
q0 -104 -84 -168t-217 -64z" />
    <glyph glyph-name="four.numr" horiz-adv-x="798" 
d="M35 1024q198 92 198 410h166q0 -101 -32.5 -213.5t-100.5 -190.5h205v404h162v-404h92v-141h-92v-172h-162v172h-436v135z" />
    <glyph glyph-name="five.numr" horiz-adv-x="690" 
d="M346 696q-131 0 -211 60t-80 155l164 21q0 -35 36.5 -64.5t90.5 -29.5q56 0 92.5 32t36.5 84q0 50 -36.5 81.5t-92.5 31.5q-86 0 -127 -59h-156l37 426h484v-142h-334l-8 -112q41 26 104 26q127 0 209 -68t82 -184q0 -126 -78.5 -192t-212.5 -66z" />
    <glyph glyph-name="six.numr" horiz-adv-x="727" 
d="M387 700q-70 0 -125 24t-89 61.5t-56.5 88.5t-31.5 101.5t-9 103.5q0 182 85.5 276.5t225.5 94.5q119 0 197.5 -56t107.5 -149l-164 -20q-41 84 -141 84q-136 0 -154 -172q54 57 154 57q51 0 99.5 -14t91.5 -42t69.5 -77t26.5 -113t-26.5 -113.5t-69.5 -78t-91.5 -42.5
t-99.5 -14zM258 948q0 -53 38.5 -78.5t90.5 -25.5t88.5 25.5t36.5 78.5t-36.5 78t-88.5 25q-53 0 -91 -25t-38 -78z" />
    <glyph glyph-name="seven.numr" horiz-adv-x="608" 
d="M182 717q-10 393 203 575h-358v142h573v-136q-50 -24 -92 -64.5t-81.5 -107.5t-60.5 -171.5t-18 -237.5h-166z" />
    <glyph glyph-name="eight.numr" horiz-adv-x="720" 
d="M360 700q-124 0 -214.5 64.5t-90.5 167.5q0 114 113 164q-86 55 -86 141q0 92 78 152.5t200 60.5t201.5 -61t79.5 -152q0 -88 -90 -143q55 -24 86 -65.5t31 -96.5q0 -103 -92.5 -167.5t-215.5 -64.5zM219 932q0 -42 38.5 -64t102.5 -22q62 0 103 23t41 63
q0 41 -40.5 63.5t-103.5 22.5q-64 0 -102.5 -22t-38.5 -64zM244 1237q0 -28 23 -46t46.5 -23t46.5 -5q22 0 46.5 5t48.5 23t24 46t-24.5 45.5t-48.5 22t-46 4.5q-23 0 -46.5 -4.5t-46.5 -22t-23 -45.5z" />
    <glyph glyph-name="nine.numr" horiz-adv-x="727" 
d="M340 700q-119 0 -197.5 56t-107.5 149l164 21q41 -84 141 -84q136 0 154 172q-55 -58 -154 -58q-51 0 -99.5 14t-91.5 42t-69.5 77t-26.5 113t26.5 113.5t69.5 78t91.5 42.5t99.5 14q70 0 125 -24t89 -61.5t56.5 -88.5t31.5 -101.5t9 -103.5q0 -182 -85.5 -276.5
t-225.5 -94.5zM215 1198q0 -53 36.5 -77.5t88.5 -24.5q53 0 91 25t38 77q0 53 -38.5 79t-90.5 26t-88.5 -26t-36.5 -79z" />
    <glyph glyph-name="one.dnom.ss02" horiz-adv-x="516" 
d="M240 0v434q-44 -63 -127 -63h-58v141h58q57 0 81.5 13t35 55t10.5 137h161v-717h-161z" />
    <glyph glyph-name="four.dnom.ss02" horiz-adv-x="727" 
d="M399 0v172h-364v131l383 414h143v-404h92v-141h-92v-172h-162zM219 313h180v195z" />
    <glyph glyph-name="one.numr.ss02" horiz-adv-x="516" 
d="M240 717v434q-44 -64 -127 -64h-58v142h58q57 0 81.5 13t35 55t10.5 137h161v-717h-161z" />
    <glyph glyph-name="four.numr.ss02" horiz-adv-x="727" 
d="M399 717v172h-364v131l383 414h143v-404h92v-141h-92v-172h-162zM219 1030h180v195z" />
    <glyph glyph-name="onehalf.ss02" horiz-adv-x="1550" 
d="M281 717v434q-44 -64 -127 -64h-58v142h58q57 0 81.5 13t35 55t10.5 137h161v-717h-161zM143 0l1051 1466h197l-1051 -1466h-197zM965 0v125q13 9 68.5 40.5t104.5 63.5t103 73t86.5 87t32.5 88q0 58 -33 86.5t-86 28.5q-54 0 -87 -40t-30 -118l-159 21q-3 130 70.5 204
t205.5 74q127 0 204 -73.5t77 -182.5q0 -168 -279 -334h295v-143h-573z" />
    <glyph glyph-name="uni2153.ss02" horiz-adv-x="1552" 
d="M281 717v434q-44 -64 -127 -64h-58v142h58q57 0 81.5 13t35 55t10.5 137h161v-717h-161zM143 0l1051 1466h197l-1051 -1466h-197zM940 236l164 18q-3 -64 35.5 -94.5t97.5 -30.5q137 0 137 86q0 84 -137 84h-90v147h90q52 0 82.5 19t30.5 55q0 35 -30.5 53.5t-82.5 18.5
q-111 0 -111 -86l-163 18q-2 81 72 145t202 64t201 -60t73 -153q0 -101 -90 -145q117 -41 117 -160q0 -104 -84 -167.5t-217 -63.5q-134 0 -218.5 72t-78.5 180z" />
    <glyph glyph-name="onequarter.ss02" horiz-adv-x="1462" 
d="M281 717v434q-44 -64 -127 -64h-58v142h58q57 0 81.5 13t35 55t10.5 137h161v-717h-161zM158 0l1050 1466h197l-1051 -1466h-196zM831 172v131l383 414h144v-404h92v-141h-92v-172h-162v172h-365zM1016 313h180v195z" />
    <glyph glyph-name="threequarters.ss02" horiz-adv-x="1599" 
d="M332 700q-134 0 -218.5 72t-78.5 180l164 19q-3 -64 35.5 -94.5t97.5 -30.5q137 0 137 86q0 84 -137 84h-90v147h90q52 0 82 19t30 55q0 35 -30 53.5t-82 18.5q-111 0 -111 -86l-164 18q-2 81 72.5 145t202.5 64t201 -60t73 -153q0 -100 -88 -145q115 -41 115 -160
q0 -104 -84 -168t-217 -64zM205 0l1050 1466h197l-1051 -1466h-196zM907 172v131l383 414h144v-404h92v-141h-92v-172h-162v172h-365zM1092 313h180v195z" />
    <glyph glyph-name="oneeighth.ss02" horiz-adv-x="1556" 
d="M1237 -16q-124 0 -214.5 64t-90.5 167q0 114 112 164q-86 55 -86 141q0 91 78.5 152t200.5 61t201.5 -61t79.5 -152q0 -87 -91 -143q55 -24 86 -65.5t31 -96.5q0 -103 -92 -167t-215 -64zM96 1087v142h58q57 0 81.5 13t35 55t10.5 137h161v-717h-161v434
q-44 -64 -127 -64h-58zM137 0l1051 1466h196l-1050 -1466h-197zM1096 215q0 -42 38.5 -64t102.5 -22q62 0 102.5 23t40.5 63q0 41 -40 63.5t-103 22.5q-64 0 -102.5 -22t-38.5 -64zM1120 520q0 -28 23 -46t47 -23t47 -5q22 0 46.5 5t48.5 23t24 46t-24.5 45.5t-48.5 22
t-46 4.5q-23 0 -46.5 -4.5t-47 -22t-23.5 -45.5z" />
    <glyph glyph-name="exclam.ss03" horiz-adv-x="702" 
d="M244 440l-21 994h256l-20 -994h-215zM205 0v281h293v-281h-293z" />
    <glyph glyph-name="exclamdown.ss03" horiz-adv-x="702" 
d="M244 637h215l20 -993h-256zM205 797v280h293v-280h-293z" />
    <glyph glyph-name="question.ss03" horiz-adv-x="1218" 
d="M461 442q0 72 21.5 131t55.5 99.5t75.5 76t82.5 68t75 66t55.5 79.5t21.5 101q0 89 -60.5 144t-171.5 55q-119 0 -186.5 -87t-67.5 -253l-245 20q0 127 38.5 228t106.5 165t158 97.5t196 33.5q212 0 349 -112.5t137 -290.5q0 -71 -22 -130t-56.5 -100.5t-77 -78
t-84.5 -69.5t-76.5 -67t-56.5 -79t-22 -97v-69h-246v69zM444 0v240h281v-240h-281z" />
    <glyph glyph-name="questiondown.ss03" horiz-adv-x="1218" 
d="M758 635q0 -72 -21.5 -131t-55.5 -99.5t-75.5 -76t-82.5 -68t-75 -66t-55.5 -79.5t-21.5 -101q0 -89 60 -143.5t171 -54.5q119 0 186.5 87t67.5 253l246 -21q0 -127 -38.5 -228t-107 -165t-158.5 -97.5t-196 -33.5q-212 0 -348.5 112.5t-136.5 290.5q0 71 22 130
t56.5 100.5t76.5 78t84.5 69.5t77 67t56.5 79t22 97v70h246v-70zM494 838v239h280v-239h-280z" />
    </font>
</defs>
</svg>
