<?xml version="1.0" standalone="no"?>
<!DOCTYPE svg PUBLIC "-//W3C//DTD SVG 1.1//EN" "http://www.w3.org/Graphics/SVG/1.1/DTD/svg11.dtd" >
<svg xmlns="http://www.w3.org/2000/svg" xmlns:xlink="http://www.w3.org/1999/xlink" version="1.1">
<metadata>
Created by FontForge 20170731 at Thu Sep 29 17:22:55 2022
 By Aleksey,,,
(c) 2021 Kasper Nordkvist. All Rights Reserved.
</metadata>
<defs>
<font id="Uncut-Sans-Regular" horiz-adv-x="1144" >
  <font-face 
    font-family="Uncut Sans"
    font-weight="400"
    font-stretch="normal"
    units-per-em="2048"
    panose-1="0 0 0 0 0 0 0 0 0 0"
    ascent="1638"
    descent="-410"
    x-height="1024"
    cap-height="1434"
    bbox="-82 -549 2363 2007"
    underline-thickness="102"
    underline-position="-358"
    unicode-range="U+0020-277E"
  />
<missing-glyph horiz-adv-x="1228" 
d="M1008 1946v-2458h-779v2458h779zM410 -342h409v80h-252l172 117h80v79h-409v-79h172l-172 -117v-80zM410 -8h409v278h-409v-278zM410 418h409v276h-246v-137h82v57h82v-116h-245v196h-82v-276zM410 750h409v245h-82v-164h-327v-81zM410 889h245v172h164v82h-409v-82h163
v-90h-163v-82zM410 1208h409v84h-164v172h-245v-256zM410 1528h409v82h-164v90h164v82h-405v-82h159v-90h-163v-82zM492 74v114h245v-114h-245zM492 1292v88h81v-88h-81z" />
    <glyph glyph-name=".notdef" horiz-adv-x="1228" 
d="M1008 1946v-2458h-779v2458h779zM410 -342h409v80h-252l172 117h80v79h-409v-79h172l-172 -117v-80zM410 -8h409v278h-409v-278zM410 418h409v276h-246v-137h82v57h82v-116h-245v196h-82v-276zM410 750h409v245h-82v-164h-327v-81zM410 889h245v172h164v82h-409v-82h163
v-90h-163v-82zM410 1208h409v84h-164v172h-245v-256zM410 1528h409v82h-164v90h164v82h-405v-82h159v-90h-163v-82zM492 74v114h245v-114h-245zM492 1292v88h81v-88h-81z" />
    <glyph glyph-name=".null" horiz-adv-x="0" 
 />
    <glyph glyph-name="nonmarkingreturn" horiz-adv-x="682" 
 />
    <glyph glyph-name="space" unicode=" " horiz-adv-x="512" 
 />
    <glyph glyph-name="space" unicode="&#xa0;" horiz-adv-x="512" 
 />
    <glyph glyph-name="exclam" unicode="!" horiz-adv-x="704" 
d="M238 340l102 1094h160l-144 -1094h-118zM205 0v184h184v-184h-184z" />
    <glyph glyph-name="quotedbl" unicode="&#x22;" horiz-adv-x="831" 
d="M215 1001l-31 451h170l-30 -451h-109zM477 1452h170l-31 -451h-108z" />
    <glyph glyph-name="numbersign" unicode="#" horiz-adv-x="1505" 
d="M743 0l121 373h-413l-121 -373h-150l121 373h-219v139h266l121 373h-264v139h309l145 442h150l-145 -442h413l146 442h149l-145 -442h196v-139h-241l-121 -373h239v-139h-286l-121 -373h-150zM498 512h413l121 373h-414z" />
    <glyph glyph-name="dollar" unicode="$" horiz-adv-x="1302" 
d="M588 -197v170q-204 26 -324.5 172t-120.5 400l160 20q0 -193 75.5 -303.5t209.5 -136.5v594q-207 63 -291 152t-84 231q0 141 103 241t272 119v135h129v-133q175 -19 276 -130.5t101 -293.5l-160 -20q0 118 -58.5 195t-158.5 96v-477q235 -67 338.5 -168t103.5 -275
q0 -181 -117 -296.5t-325 -125.5v-166h-129zM373 1102q0 -88 52.5 -141.5t162.5 -90.5v443q-99 -14 -157 -68t-58 -143zM717 119q134 10 208 82.5t74 189.5q0 63 -19 110.5t-57.5 81.5t-87 57.5t-118.5 43.5v-565z" />
    <glyph glyph-name="percent" unicode="%" horiz-adv-x="1617" 
d="M184 0l1073 1466h177l-1074 -1466h-176zM82 1118q0 141 103.5 244.5t244.5 103.5t244.5 -103.5t103.5 -244.5t-103.5 -244.5t-244.5 -103.5t-244.5 103.5t-103.5 244.5zM231 1118q0 -79 59.5 -138.5t139.5 -59.5t139.5 59.5t59.5 138.5q0 80 -59.5 139.5t-139.5 59.5
t-139.5 -59.5t-59.5 -139.5zM840 315q0 141 103.5 245t244.5 104t244.5 -104t103.5 -245t-103.5 -244.5t-244.5 -103.5t-244.5 103.5t-103.5 244.5zM989 315q0 -79 59.5 -138.5t139.5 -59.5t139 59.5t59 138.5q0 80 -59.5 139.5t-138.5 59.5q-80 0 -139.5 -60t-59.5 -139z
" />
    <glyph glyph-name="ampersand" unicode="&#x26;" horiz-adv-x="1476" 
d="M627 -33q-204 0 -344 122t-140 317q0 71 21 130t62 104.5t86.5 79t107.5 66.5q-117 184 -117 344q0 162 105.5 249t269.5 87q157 0 257.5 -87t100.5 -249q0 -44 -12.5 -83.5t-29.5 -69.5t-50.5 -60.5t-60 -50.5t-74 -45.5t-76 -39t-81.5 -37.5q-7 -3 -11 -5
q127 -160 350 -354q72 176 72 444l149 -20q0 -314 -100 -526q84 -69 178.5 -140t140.5 -105.5t46 -37.5h-242q0 3 -23 20.5t-77 58t-101 77.5q-150 -189 -407 -189zM303 406q0 -135 91 -212t233 -77q179 0 288 135q-262 220 -415 418q-94 -51 -145.5 -113.5t-51.5 -150.5z
M463 1130q0 -124 98 -278q36 16 50 22.5t46 21.5t46 23t40.5 22.5t38.5 25t31 26.5t27.5 30t18.5 31.5t14 36t4 39.5q0 88 -58.5 137.5t-140.5 49.5q-84 0 -149.5 -50t-65.5 -137z" />
    <glyph glyph-name="quotesingle" unicode="'" horiz-adv-x="538" 
d="M215 1001l-31 451h170l-30 -451h-109z" />
    <glyph glyph-name="parenleft" unicode="(" horiz-adv-x="686" 
d="M485 -225q-34 37 -69.5 85.5t-82.5 132.5t-83 174t-61 211t-25 243t25 243t61 211t83 173.5t82.5 132t69.5 85.5h160q-34 -37 -69.5 -85.5t-82.5 -132t-83 -173.5t-61 -211t-25 -243t25 -243t61 -211t83 -174t82.5 -132.5t69.5 -85.5h-160z" />
    <glyph glyph-name="parenright" unicode=")" horiz-adv-x="686" 
d="M41 -225q34 37 69.5 85.5t82.5 132.5t83 174t61 211t25 243t-25 243t-61 211t-83 173.5t-82.5 132t-69.5 85.5h160q34 -37 69.5 -85.5t82.5 -132t83 -173.5t61 -211t25 -243t-25 -243t-61 -211t-83 -174t-82.5 -132.5t-69.5 -85.5h-160z" />
    <glyph glyph-name="asterisk" unicode="*" horiz-adv-x="1064" 
d="M743 758l-192 225l22 -295h-122l22 297l-192 -227l-88 86l229 196l-299 -24v121l299 -25l-229 197l88 86l192 -226l-22 297h122l-22 -297l192 226l86 -86l-227 -195l299 25v-123l-297 22l227 -192z" />
    <glyph glyph-name="plus" unicode="+" horiz-adv-x="1226" 
d="M539 158v372h-375v150h375v377h149v-377h375v-150h-375v-372h-149z" />
    <glyph glyph-name="comma" unicode="," horiz-adv-x="573" 
d="M143 -195q79 0 109.5 48t30.5 147h-99v205h205v-205q0 -283 -246 -283v88z" />
    <glyph glyph-name="hyphen" unicode="-" horiz-adv-x="1013" 
d="M164 530v150h686v-150h-686z" />
    <glyph glyph-name="period" unicode="." horiz-adv-x="573" 
d="M184 0v205h205v-205h-205z" />
    <glyph glyph-name="slash" unicode="/" horiz-adv-x="1007" 
d="M102 -225l643 1691h160l-643 -1691h-160z" />
    <glyph glyph-name="zero" unicode="0" horiz-adv-x="1320" 
d="M662 -33q-259 0 -409.5 204.5t-150.5 545.5t150.5 545t409.5 204t408 -204t149 -545q0 -225 -66 -394t-192.5 -262.5t-298.5 -93.5zM262 717q0 -120 23 -224t69 -190t125 -136t183 -50t182.5 50t124 136t68 190t22.5 224t-22.5 224t-68 190t-124 136t-182.5 50t-183 -50
t-125 -136t-69 -190t-23 -224z" />
    <glyph glyph-name="one" unicode="1" horiz-adv-x="1101" 
d="M143 0v150h369v884q-29 -71 -110 -115.5t-199 -44.5h-60v150h60q156 0 232.5 99t76.5 311h160v-1284h368v-150h-897z" />
    <glyph glyph-name="two" unicode="2" horiz-adv-x="1189" 
d="M125 150q21 15 90 62.5t118.5 83t127.5 96t134.5 111.5t120.5 119.5t104.5 130t67.5 133t27 138.5q0 133 -94 213t-223 80q-63 0 -120 -19.5t-104 -57.5t-74.5 -102t-27.5 -145l-149 21q0 201 130.5 326.5t344.5 125.5q212 0 344.5 -127t132.5 -315q0 -87 -30.5 -175.5
t-75 -160.5t-113.5 -147.5t-128 -128t-137.5 -110.5t-122 -87t-101.5 -65h741v-150h-983v150z" />
    <glyph glyph-name="three" unicode="3" horiz-adv-x="1247" 
d="M604 -33q-152 0 -274 55t-188.5 154t-57.5 221l164 21q0 -78 32 -137.5t85 -93t113.5 -50t125.5 -16.5q86 0 165.5 29.5t135.5 94.5t56 152q0 66 -32.5 119.5t-85 85.5t-114 49t-125.5 17h-164v155h164q137 0 222 71t85 179t-85 176t-222 68t-219.5 -64.5t-87.5 -169.5
l-160 21q2 71 33 134.5t87 115t146 82t201 30.5t201.5 -32.5t147.5 -87.5t87.5 -125t30.5 -148q0 -110 -58.5 -196.5t-140.5 -126.5q111 -33 181.5 -123.5t70.5 -229.5q0 -186 -145.5 -308t-374.5 -122z" />
    <glyph glyph-name="four" unicode="4" horiz-adv-x="1421" 
d="M82 545q134 84 233 234t146 318.5t47 336.5h170q0 -110 -27 -238.5t-74.5 -252t-121 -231.5t-158.5 -167h657v889h160v-889h184v-150h-184v-395h-160v395h-872v150z" />
    <glyph glyph-name="five" unicode="5" horiz-adv-x="1204" 
d="M600 -33q-219 0 -358.5 117t-139.5 313l160 21q0 -127 94 -215t244 -88q108 0 187.5 53t117 133.5t37.5 175.5t-37.5 175.5t-117 133t-187.5 52.5q-63 0 -118 -20t-87.5 -44.5t-60 -57.5t-35.5 -48.5t-14 -28.5h-160l61 795h807v-150h-659l-33 -442q43 56 125 96.5
t174 40.5q219 0 360.5 -137.5t141.5 -364.5q0 -228 -142 -369t-360 -141z" />
    <glyph glyph-name="six" unicode="6" horiz-adv-x="1251" 
d="M662 -33q-124 0 -220.5 48t-155.5 123t-97 178t-52 202t-14 205q0 186 40.5 329.5t114 233t170.5 135t214 45.5q392 0 507 -383l-165 -20q-96 254 -342 254q-203 0 -295.5 -159t-100.5 -478q40 125 144.5 198.5t251.5 73.5q100 0 189.5 -34t157 -96t107 -155.5
t39.5 -205.5q0 -140 -67.5 -254t-180.5 -177t-245 -63zM322 461q0 -155 92 -249.5t248 -94.5q153 0 243 94.5t90 249.5t-90 248.5t-243 93.5q-154 0 -247 -94t-93 -248z" />
    <glyph glyph-name="seven" unicode="7" horiz-adv-x="1085" 
d="M371 0q0 193 25.5 368.5t68.5 312t102.5 254.5t123.5 201.5t136 147.5h-766v150h983v-150q-77 -51 -147 -127.5t-136 -191t-114 -252.5t-77 -322t-29 -391h-170z" />
    <glyph glyph-name="eight" unicode="8" horiz-adv-x="1265" 
d="M633 -33q-135 0 -255 51t-198 151t-78 228q0 121 80 222.5t201 130.5q-94 38 -160.5 134t-66.5 189q0 169 127 281t350 112t350 -112t127 -281q0 -93 -67.5 -190t-161.5 -133q122 -31 202 -131.5t80 -221.5q0 -128 -77.5 -228t-197.5 -151t-255 -51zM266 397
q0 -88 54.5 -152.5t136 -94t176.5 -29.5t176.5 29.5t135.5 94t54 152.5t-54 152t-135.5 93.5t-176.5 29.5t-176.5 -29.5t-136 -93.5t-54.5 -152zM315 1073q0 -108 90.5 -180t227.5 -72t227 72t90 180q0 107 -89.5 175.5t-227.5 68.5t-228 -68.5t-90 -175.5z" />
    <glyph glyph-name="nine" unicode="9" horiz-adv-x="1251" 
d="M590 -33q-393 0 -508 383l166 21q96 -254 342 -254q203 0 295 159t100 478q-41 -125 -144.5 -199t-250.5 -74q-134 0 -245.5 58t-180 171.5t-68.5 262.5q0 140 68 254t181 176.5t245 62.5q89 0 165 -25t130 -67t97 -102t70 -126t44.5 -142t24.5 -147.5t7 -145.5
q0 -186 -40.5 -330t-113.5 -233.5t-170 -135t-214 -45.5zM256 973q0 -155 90.5 -248.5t243.5 -93.5q154 0 247 94t93 248q0 155 -92 249.5t-248 94.5q-153 0 -243.5 -94.5t-90.5 -249.5z" />
    <glyph glyph-name="colon" unicode=":" horiz-adv-x="532" 
d="M143 0v205h205v-205h-205zM143 737v205h205v-205h-205z" />
    <glyph glyph-name="semicolon" unicode=";" horiz-adv-x="573" 
d="M143 -195q79 0 109.5 48t30.5 147h-99v205h205v-205q0 -283 -246 -283v88zM184 737v205h205v-205h-205z" />
    <glyph glyph-name="less" unicode="&#x3c;" horiz-adv-x="1185" 
d="M1022 18l-899 492v170l899 491v-170l-741 -405l741 -408v-170z" />
    <glyph glyph-name="equal" unicode="=" horiz-adv-x="1226" 
d="M164 729v150h899v-150h-899zM164 334v149h899v-149h-899z" />
    <glyph glyph-name="greater" unicode="&#x3e;" horiz-adv-x="1185" 
d="M164 18v170l741 408l-741 405v170l899 -491v-170z" />
    <glyph glyph-name="question" unicode="?" horiz-adv-x="1198" 
d="M475 737q218 0 319 79t101 212q0 126 -81 207.5t-216 81.5q-141 0 -223 -89t-82 -255l-150 20q0 205 122.5 339t332.5 134q214 0 335.5 -118.5t121.5 -319.5q0 -95 -38.5 -173t-102.5 -127t-137.5 -77.5t-151.5 -36.5v-274h-150v397zM459 0v184h184v-184h-184z" />
    <glyph glyph-name="at" unicode="@" horiz-adv-x="1931" 
d="M965 -211q-158 0 -303 62t-249.5 166.5t-166.5 249.5t-62 304q0 211 105 391t285 285t391 105q159 0 304 -62t249.5 -166.5t166.5 -249.5t62 -303q0 -95 -29.5 -173t-75.5 -124t-99 -71t-105 -25q-96 0 -173 49.5t-102 141.5q-21 -99 -91 -155t-163 -56
q-105 0 -187.5 63.5t-82.5 175.5q0 125 83 187t245 84q102 13 132 26q62 27 36 92q-16 43 -65.5 59.5t-100.5 16.5q-92 0 -134.5 -37t-39.5 -110l-140 18q-3 86 47 147.5t120 88t147 26.5q56 0 107 -13.5t96.5 -41.5t72.5 -80t27 -121v-200q0 -73 15 -122t42 -71.5t52 -30.5
t57 -8q76 0 128 66t52 196q0 177 -87.5 327.5t-237.5 238.5t-326 88q-177 0 -327.5 -88t-238.5 -238.5t-88 -327.5q0 -176 88 -326t238.5 -237.5t327.5 -87.5q162 0 305 76l221 -21q-201 -184 -528 -184zM780 391q0 -43 37 -72.5t92 -29.5q99 0 165.5 72t66.5 219v22
q-51 -51 -193 -67q-168 -23 -168 -144z" />
    <glyph glyph-name="A" unicode="A" horiz-adv-x="1351" 
d="M82 0l498 1434h192l498 -1434h-162l-160 463h-545l-159 -463h-162zM457 612h438l-219 633z" />
    <glyph glyph-name="B" unicode="B" horiz-adv-x="1230" 
d="M184 0v1434h369q40 0 78 -3t87 -13.5t90.5 -27.5t82.5 -47t70 -69.5t47 -98.5t18 -131q0 -95 -44.5 -178.5t-129.5 -122.5q120 -34 188 -123.5t68 -218.5q0 -76 -20 -138t-51.5 -103t-76 -71.5t-87 -47t-91.5 -26.5t-82 -12.5t-65 -2.5h-451zM334 150h301q313 0 313 251
q0 252 -313 252h-301v-503zM334 803h219q313 0 313 241q0 240 -313 240h-219v-481z" />
    <glyph glyph-name="C" unicode="C" horiz-adv-x="1550" 
d="M782 -33q-83 0 -163 20.5t-154 60t-136 103t-108 144.5t-72 189t-26 233q0 149 37 274t100.5 211.5t148 147t179 88.5t194.5 28q110 0 210 -34t185 -101.5t145.5 -178.5t84.5 -255l-164 -23q-20 94 -57 172t-92.5 139.5t-135 95.5t-176.5 34q-120 0 -216 -47t-157 -129
t-93.5 -190t-32.5 -232t32.5 -232t93.5 -190.5t157 -130t216 -47.5q192 0 308.5 115t154.5 315l162 -21q-23 -143 -83.5 -253t-146 -175.5t-185 -98t-210.5 -32.5z" />
    <glyph glyph-name="D" unicode="D" horiz-adv-x="1368" 
d="M184 0v1434h430q59 0 113 -6t119.5 -25.5t119.5 -50.5t107.5 -86.5t90 -128.5t59 -180.5t22.5 -239.5t-22.5 -239.5t-59 -180.5t-90 -128.5t-107.5 -86.5t-119.5 -50.5t-119.5 -25.5t-113 -6h-430zM344 150h250q145 0 240.5 33t151 106t77.5 174.5t22 253.5t-22 253.5
t-77.5 174.5t-151 106t-240.5 33h-250v-1134z" />
    <glyph glyph-name="E" unicode="E" horiz-adv-x="1163" 
d="M184 0v1434h836v-150h-676v-465h574v-149h-574v-520h676v-150h-836z" />
    <glyph glyph-name="F" unicode="F" horiz-adv-x="1163" 
d="M184 0v1434h836v-150h-676v-465h574v-149h-574v-670h-160z" />
    <glyph glyph-name="G" unicode="G" horiz-adv-x="1617" 
d="M782 -33q-83 0 -163 20.5t-154 60t-136 103t-108 144.5t-72 189t-26 233q0 149 37 274t100.5 211t148 146t179 88t194.5 28q91 0 178 -22t167 -69t143 -114.5t106.5 -164t57.5 -211.5l-160 -21q-13 86 -52 165.5t-99 144.5t-148.5 104t-192.5 39q-120 0 -216 -47
t-157 -129t-93.5 -190t-32.5 -232t32.5 -232t93.5 -190.5t157 -130t216 -47.5q200 0 327.5 118t160.5 300h-498v149h662v-684h-150l35 379q-28 -106 -86.5 -188t-133.5 -129.5t-155 -71t-162 -23.5z" />
    <glyph glyph-name="H" unicode="H" horiz-adv-x="1384" 
d="M1040 0v670h-696v-670h-160v1434h160v-615h696v615h160v-1434h-160z" />
    <glyph glyph-name="I" unicode="I" horiz-adv-x="528" 
d="M184 0v1434h160v-1434h-160z" />
    <glyph glyph-name="J" unicode="J" horiz-adv-x="1155" 
d="M537 -33q-101 0 -178.5 30t-125.5 80t-78 124t-41.5 153.5t-11.5 177.5h160q0 -213 68 -314t207 -101q274 0 274 334v983h160v-983q0 -484 -434 -484z" />
    <glyph glyph-name="K" unicode="K" horiz-adv-x="1271" 
d="M184 0v1434h160v-715l623 715h184l-504 -582l563 -852h-184l-481 733l-201 -233v-500h-160z" />
    <glyph glyph-name="L" unicode="L" horiz-adv-x="1112" 
d="M184 0v1434h160v-1284h666v-150h-826z" />
    <glyph glyph-name="M" unicode="M" horiz-adv-x="1679" 
d="M184 0v1434h211l445 -1227l442 1227h213v-1434h-160v1161l-420 -1161h-151l-420 1161v-1161h-160z" />
    <glyph glyph-name="N" unicode="N" horiz-adv-x="1503" 
d="M184 0v1434h222l753 -1297v1297h160v-1434h-242l-733 1262v-1262h-160z" />
    <glyph glyph-name="O" unicode="O" horiz-adv-x="1562" 
d="M782 -33q-83 0 -163 20.5t-154 60t-136 103t-108 144.5t-72 189t-26 233q0 149 37 274t100.5 211.5t148 147t179 88.5t194.5 28t194.5 -28t179 -88.5t147.5 -147t100 -211.5t37 -274t-37 -274t-100 -211.5t-147.5 -147t-179 -89t-194.5 -28.5zM283 717q0 -124 32.5 -232
t93.5 -190.5t157 -130t216 -47.5q159 0 273.5 82.5t169.5 216.5t55 301t-55 301t-169.5 216.5t-273.5 82.5q-120 0 -216 -47.5t-157 -130t-93.5 -190.5t-32.5 -232z" />
    <glyph glyph-name="P" unicode="P" horiz-adv-x="1189" 
d="M184 0v1434h451q37 0 78.5 -5.5t98.5 -19t106.5 -42.5t93.5 -71t70 -110.5t26 -153.5q0 -73 -20 -134t-52 -101t-76 -71t-87 -48t-91 -28t-82 -14t-65 -3h-291v-633h-160zM344 782h250q176 0 265 58.5t89 191.5q0 134 -89.5 193t-264.5 59h-250v-502z" />
    <glyph glyph-name="Q" unicode="Q" horiz-adv-x="1599" 
d="M1358 -135l-187 229q-170 -127 -389 -127q-83 0 -163 20.5t-154 60t-136 103t-108 144.5t-72 189t-26 233q0 149 37 274t100.5 211.5t148 147t179 88.5t194.5 28t194.5 -28t179 -88.5t147.5 -147t100 -211.5t37 -274q0 -325 -168 -524l266 -328h-180zM283 717
q0 -124 32.5 -232t93.5 -190.5t157 -130t216 -47.5q170 0 293 96l-403 496h180l319 -392q109 160 109 400q0 167 -55 301t-169.5 216.5t-273.5 82.5q-120 0 -216 -47.5t-157 -130t-93.5 -190.5t-32.5 -232z" />
    <glyph glyph-name="R" unicode="R" horiz-adv-x="1292" 
d="M184 0v1434h451q37 0 78.5 -5.5t98.5 -19t106.5 -42.5t93.5 -71t70 -110.5t26 -153.5q0 -145 -73 -230.5t-187 -107.5q142 -17 195 -94t65 -274l20 -326h-163l-21 356q-3 49 -7 79.5t-14 66t-27.5 56.5t-45.5 40t-71 27t-101 8h-334v-633h-160zM344 782h250
q176 0 265 58.5t89 191.5q0 134 -89.5 193t-264.5 59h-250v-502z" />
    <glyph glyph-name="S" unicode="S" horiz-adv-x="1302" 
d="M676 -33q-116 0 -213 36t-168.5 106.5t-111.5 181.5t-40 254l160 20q0 -224 99 -336t274 -112q152 0 237.5 74.5t85.5 199.5q0 67 -21.5 117t-66.5 85t-99.5 57.5t-135.5 43.5q-257 67 -360 159.5t-103 248.5t122.5 260t319.5 104q201 0 320 -114t119 -312l-160 -20
q0 136 -77 216.5t-202 80.5q-127 0 -204.5 -55.5t-77.5 -159.5q0 -103 72.5 -160.5t230.5 -97.5q258 -67 370.5 -169.5t112.5 -283.5q0 -189 -128.5 -306.5t-354.5 -117.5z" />
    <glyph glyph-name="T" unicode="T" horiz-adv-x="1306" 
d="M573 0v1284h-512v150h1184v-150h-512v-1284h-160z" />
    <glyph glyph-name="U" unicode="U" horiz-adv-x="1382" 
d="M692 -33q-224 0 -366 138.5t-142 390.5v938h160v-938q0 -96 28 -170.5t77 -119t110.5 -67t132.5 -22.5t132 22.5t109.5 67t76.5 118.5t28 171v938h160v-938q0 -128 -38.5 -229t-107 -166.5t-160 -99.5t-200.5 -34z" />
    <glyph glyph-name="V" unicode="V" horiz-adv-x="1306" 
d="M559 0l-498 1434h160l441 -1272l423 1272h160l-477 -1434h-209z" />
    <glyph glyph-name="W" unicode="W" horiz-adv-x="1794" 
d="M434 0l-352 1434h160l311 -1264l274 1264h140l274 -1264l311 1264h160l-352 -1434h-221l-242 1108l-242 -1108h-221z" />
    <glyph glyph-name="X" unicode="X" horiz-adv-x="1263" 
d="M1026 0l-393 586l-395 -586h-177l484 717l-484 717h177l395 -586l393 586h176l-483 -717l483 -717h-176z" />
    <glyph glyph-name="Y" unicode="Y" horiz-adv-x="1179" 
d="M324 0l182 416l-445 1018h160l369 -824l358 824h170l-624 -1434h-170z" />
    <glyph glyph-name="Z" unicode="Z" horiz-adv-x="1228" 
d="M164 150l725 1134h-725v150h901v-150l-725 -1134h725v-150h-901v150z" />
    <glyph glyph-name="bracketleft" unicode="[" horiz-adv-x="749" 
d="M205 -225v1691h442v-149h-303v-1391h303v-151h-442z" />
    <glyph glyph-name="backslash" unicode="\" horiz-adv-x="1007" 
d="M745 -225l-643 1691h160l643 -1691h-160z" />
    <glyph glyph-name="bracketright" unicode="]" horiz-adv-x="749" 
d="M102 -225v151h304v1391h-304v149h443v-1691h-443z" />
    <glyph glyph-name="asciicircum" unicode="^" horiz-adv-x="1093" 
d="M287 1188l143 307h234l143 -307h-129l-131 225l-131 -225h-129z" />
    <glyph glyph-name="underscore" unicode="_" horiz-adv-x="686" 
d="M0 -182v149h686v-149h-686z" />
    <glyph glyph-name="a" unicode="a" horiz-adv-x="1083" 
d="M469 -33q-63 0 -123.5 19.5t-111 56.5t-81 97t-30.5 134q0 161 107.5 240t318.5 107q127 17 170 34q105 41 65 144q-13 34 -42.5 57t-67 33t-67 14t-58.5 4q-122 0 -184 -50.5t-62 -143.5l-160 20q0 81 37 145t97.5 102t130 57.5t141.5 19.5q58 0 111.5 -10t105.5 -34.5
t90 -61.5t61 -94t23 -128v-729h-149v205q-35 -104 -121 -171t-201 -67zM283 266q0 -61 54.5 -105t131.5 -44q64 0 120 23t102 69.5t73 125.5t27 183v55q-54 -76 -273 -102q-118 -17 -176.5 -71t-58.5 -134z" />
    <glyph glyph-name="b" unicode="b" horiz-adv-x="1247" 
d="M670 -33q-134 0 -222 69.5t-114 180.5v-217h-150v1434h150v-627q26 111 114 180.5t222 69.5q139 0 244 -77t157.5 -199.5t52.5 -268.5t-52.5 -268.5t-157.5 -199.5t-244 -77zM334 512q0 -189 91.5 -292t223.5 -103q139 0 227.5 101.5t88.5 293.5q0 189 -92 292t-224 103
t-223.5 -103t-91.5 -292z" />
    <glyph glyph-name="c" unicode="c" horiz-adv-x="1179" 
d="M606 -33q-95 0 -180 33.5t-153.5 98t-109 170t-40.5 239.5q0 108 26.5 198.5t72.5 154.5t107.5 108.5t131.5 66t145 21.5q190 0 303.5 -98t147.5 -310l-160 -20q-27 132 -94.5 205t-196.5 73q-81 0 -144.5 -33t-101.5 -90t-57.5 -127t-19.5 -149t19.5 -148t57.5 -124
t101 -87t145 -32q131 0 197.5 67.5t93.5 198.5l160 -21q-34 -208 -147 -301.5t-304 -93.5z" />
    <glyph glyph-name="d" unicode="d" horiz-adv-x="1247" 
d="M578 -33q-105 0 -192 44.5t-143.5 120.5t-88 174t-31.5 206t31.5 206t88 174t143.5 120.5t192 44.5q134 0 221.5 -69.5t113.5 -180.5v627h150v-1434h-150v217q-26 -111 -113.5 -180.5t-221.5 -69.5zM283 512q0 -192 88 -293.5t227 -101.5q132 0 223.5 103t91.5 292
t-91.5 292t-223.5 103t-223.5 -103t-91.5 -292z" />
    <glyph glyph-name="e" unicode="e" horiz-adv-x="1169" 
d="M606 -33q-95 0 -180 33.5t-153.5 98t-109 170t-40.5 239.5q0 108 26.5 198.5t72.5 154.5t107.5 108.5t131.5 66t145 21.5q94 0 173 -34.5t139.5 -101t94.5 -172.5t34 -241v-37h-764q0 -145 88 -249.5t235 -104.5q73 0 126 18.5t82 51t43.5 62t23.5 66.5l159 -20
q-31 -156 -141.5 -242t-292.5 -86zM283 610h604q0 49 -15.5 98.5t-47.5 95.5t-88.5 74.5t-129.5 28.5t-136 -29t-103 -73.5t-62 -96t-22 -98.5z" />
    <glyph glyph-name="f" unicode="f" horiz-adv-x="733" 
d="M256 1139q0 173 67.5 244t206.5 71h142v-149h-117q-46 0 -71 -6t-44.5 -28t-26.5 -63t-7 -112v-72h266v-150h-266v-874h-150v874h-174v150h174v115z" />
    <glyph glyph-name="g" unicode="g" horiz-adv-x="1247" 
d="M598 -442q-94 0 -171.5 22.5t-127 56.5t-83.5 77.5t-48 84t-14 76.5l159 21q0 -22 16.5 -51.5t48.5 -61.5t90 -54t130 -22q159 0 237 76.5t78 255.5v186q-24 -114 -111 -186t-224 -72q-105 0 -192 44.5t-143.5 120.5t-88 174t-31.5 206t31.5 206t88 174t143.5 120.5
t192 44.5q137 0 224 -72t111 -186v225h150v-985q0 -248 -110.5 -364.5t-354.5 -116.5zM283 512q0 -189 91.5 -292t223.5 -103t223.5 103t91.5 292t-91.5 292t-223.5 103q-139 0 -227 -101.5t-88 -293.5z" />
    <glyph glyph-name="h" unicode="h" 
d="M821 674q0 130 -55 181.5t-156 51.5q-40 0 -77 -11t-76.5 -40.5t-68 -76t-46.5 -124.5t-18 -178v-477h-160v1434h160v-631q26 111 114.5 182.5t223.5 71.5q162 0 240.5 -103t78.5 -280v-674h-160v674z" />
    <glyph glyph-name="i" unicode="i" horiz-adv-x="520" 
d="M180 0v1024h160v-1024h-160zM164 1188v192h192v-192h-192z" />
    <glyph glyph-name="j" unicode="j" horiz-adv-x="565" 
d="M-61 -410v150h116q87 0 118.5 27.5t31.5 119.5v1137h160v-1180q0 -254 -285 -254h-141zM188 1188v192h193v-192h-193z" />
    <glyph glyph-name="k" unicode="k" horiz-adv-x="1052" 
d="M313 315v-315h-149v1434h149v-908l475 498h189l-367 -391l381 -633h-180l-305 520z" />
    <glyph glyph-name="l" unicode="l" horiz-adv-x="528" 
d="M184 0v1454h160v-1454h-160z" />
    <glyph glyph-name="m" unicode="m" horiz-adv-x="1802" 
d="M1479 674q0 130 -55 181.5t-156 51.5q-50 0 -97.5 -18t-91.5 -55.5t-71 -108.5t-27 -166v-559h-160v674q0 130 -55 181.5t-156 51.5q-40 0 -77 -11t-76.5 -40.5t-68 -76t-46.5 -124.5t-18 -178v-477h-160v1024h160v-221q26 111 114.5 182.5t223.5 71.5q242 0 303 -236
q33 101 127.5 168.5t226.5 67.5q162 0 240.5 -103t78.5 -280v-674h-159v674z" />
    <glyph glyph-name="n" unicode="n" 
d="M821 674q0 130 -55 181.5t-156 51.5q-40 0 -77 -11t-76.5 -40.5t-68 -76t-46.5 -124.5t-18 -178v-477h-160v1024h160v-221q26 111 114.5 182.5t223.5 71.5q162 0 240.5 -103t78.5 -280v-674h-160v674z" />
    <glyph glyph-name="o" unicode="o" horiz-adv-x="1210" 
d="M606 -33q-95 0 -180 33.5t-153.5 98t-109 170t-40.5 239.5q0 108 26.5 198.5t72.5 154.5t107.5 108.5t131.5 66t145 21.5t144.5 -21.5t131 -66t107 -108.5t72 -154.5t26.5 -198.5q0 -134 -40 -239.5t-108.5 -170t-153 -98t-179.5 -33.5zM283 508q0 -178 80.5 -284.5
t242.5 -106.5t243 106.5t81 284.5q0 179 -81.5 289t-242.5 110t-242 -110t-81 -289z" />
    <glyph glyph-name="p" unicode="p" horiz-adv-x="1247" 
d="M670 -33q-134 0 -222 69.5t-114 180.5v-627h-150v1434h150v-217q26 111 114 180.5t222 69.5q139 0 244 -77t157.5 -199.5t52.5 -268.5t-52.5 -268.5t-157.5 -199.5t-244 -77zM334 512q0 -189 91.5 -292t223.5 -103t224 103t92 292q0 192 -88.5 293.5t-227.5 101.5
q-132 0 -223.5 -103t-91.5 -292z" />
    <glyph glyph-name="q" unicode="q" horiz-adv-x="1247" 
d="M557 -33q-104 0 -188 44.5t-137 120.5t-81 173.5t-28 206.5t28 206.5t81 173.5t137 120.5t188 44.5q138 0 232.5 -71.5t123.5 -184.5v223h150v-1434h-150v633q-29 -113 -123.5 -184.5t-232.5 -71.5zM283 512q0 -189 91.5 -292t223.5 -103t223.5 103t91.5 292t-91.5 292
t-223.5 103q-139 0 -227 -101.5t-88 -293.5z" />
    <glyph glyph-name="r" unicode="r" horiz-adv-x="780" 
d="M164 0v1024h160v-223q30 103 109 163t179 60h127v-150h-127q-136 0 -212 -98.5t-76 -308.5v-467h-160z" />
    <glyph glyph-name="s" unicode="s" horiz-adv-x="1071" 
d="M553 -33q-193 0 -322 110t-129 302l150 20q0 -88 46 -154t113.5 -97t141.5 -31q116 0 186 41.5t70 128.5q0 45 -13.5 76.5t-41.5 50t-61 28.5t-81 17l-180 24q-122 17 -197 93.5t-75 183.5q0 136 106 216.5t277 80.5q167 0 267.5 -89t100.5 -229l-149 -20q0 92 -56 140
t-163 48q-98 0 -161 -37t-63 -110q0 -60 42 -91.5t135 -45.5l155 -23q143 -21 230.5 -101t87.5 -212q0 -139 -116.5 -229.5t-299.5 -90.5z" />
    <glyph glyph-name="t" unicode="t" horiz-adv-x="784" 
d="M520 0q-134 0 -199 61t-65 193v620h-174v150h174v309l139 21v-330h267v-150h-267v-577q0 -90 34 -118.5t116 -28.5h117v-150h-142z" />
    <glyph glyph-name="u" unicode="u" 
d="M483 -33q-162 0 -240.5 103t-78.5 280v674h160v-674q0 -130 55 -181.5t156 -51.5q40 0 77 11t76.5 40.5t68 76t46.5 124.5t18 178v477h160v-1024h-160v221q-26 -111 -114.5 -182.5t-223.5 -71.5z" />
    <glyph glyph-name="v" unicode="v" horiz-adv-x="1003" 
d="M406 0l-365 1024h149l304 -850l319 850h150l-385 -1024h-172z" />
    <glyph glyph-name="w" unicode="w" horiz-adv-x="1583" 
d="M332 0l-250 1024h149l207 -852l279 852h149l279 -852l207 852h149l-250 -1024h-190l-268 825l-271 -825h-190z" />
    <glyph glyph-name="x" unicode="x" horiz-adv-x="1042" 
d="M801 0l-279 393l-280 -393h-181l371 520l-360 504h180l270 -379l269 379h180l-359 -504l369 -520h-180z" />
    <glyph glyph-name="y" unicode="y" horiz-adv-x="1073" 
d="M291 -410l166 410l-416 1024h160l336 -827l335 827h160l-581 -1434h-160z" />
    <glyph glyph-name="z" unicode="z" horiz-adv-x="1017" 
d="M102 139l635 746h-635v139h813v-139l-632 -746h632v-139h-813v139z" />
    <glyph glyph-name="braceleft" unicode="{" horiz-adv-x="907" 
d="M399 1212q0 254 285 254h121v-149h-117q-87 0 -118 -28t-31 -120v-231q0 -95 -50 -177.5t-137 -139.5q87 -57 137 -140t50 -178v-231q0 -92 31 -120t118 -28h117v-149h-121q-285 0 -285 254v274q0 106 -76.5 178t-158.5 72v135q82 0 158.5 72t76.5 178v274z" />
    <glyph glyph-name="bar" unicode="|" horiz-adv-x="559" 
d="M205 -197v1794h149v-1794h-149z" />
    <glyph glyph-name="braceright" unicode="}" horiz-adv-x="907" 
d="M369 1169q0 92 -31.5 120t-118.5 28h-117v149h121q285 0 285 -254v-274q0 -106 76.5 -178t158.5 -72v-135q-82 0 -158.5 -72t-76.5 -178v-274q0 -254 -285 -254h-121v149h117q87 0 118.5 28t31.5 120v231q0 95 50 178t136 140q-87 57 -136.5 139.5t-49.5 177.5v231z" />
    <glyph glyph-name="asciitilde" unicode="~" horiz-adv-x="987" 
d="M123 481q0 109 54 176.5t149 67.5q48 0 97.5 -18t83 -39.5t70.5 -39.5t64 -18q13 0 24 3t18.5 10t13 12.5t9 17.5t5.5 18.5t3 20.5t1 19v19v15l149 -20q0 -108 -55.5 -176t-146.5 -68q-48 0 -98 18t-83.5 39.5t-70.5 39.5t-64 18q-74 0 -74 -135z" />
    <glyph glyph-name="exclamdown" unicode="&#xa1;" horiz-adv-x="704" 
d="M467 737l-102 -1093h-160l143 1093h119zM315 893v184h185v-184h-185z" />
    <glyph glyph-name="cent" unicode="&#xa2;" horiz-adv-x="1179" 
d="M543 -197v353q-85 10 -159 48.5t-133.5 103t-93.5 163.5t-34 221t34 222t93 166t133.5 106t159.5 51v360h129v-358q160 -15 256.5 -113.5t128.5 -291.5l-160 -21q-24 114 -76.5 184t-148.5 88v-780q98 18 150 83.5t75 178.5l160 -20q-31 -189 -127.5 -283.5
t-257.5 -109.5v-351h-129zM283 692q0 -148 66 -255.5t194 -129.5v778q-86 -16 -146.5 -76t-87 -140.5t-26.5 -176.5z" />
    <glyph glyph-name="sterling" unicode="&#xa3;" horiz-adv-x="1396" 
d="M164 150q67 51 110.5 99t66 89.5t28.5 88.5t2 86.5t-17 94.5h-313v150h276q-36 148 -36 293q0 184 126.5 299.5t350.5 115.5q198 0 336.5 -129.5t138.5 -322.5l-150 -21q0 134 -95 229t-230 95q-134 0 -226 -75.5t-92 -188.5q0 -115 45 -295h455v-150h-418
q15 -70 17 -123.5t-11.5 -113t-55 -114.5t-112.5 -107h832v-150h-1028v150z" />
    <glyph glyph-name="currency" unicode="&#xa4;" horiz-adv-x="1320" 
d="M664 156q-139 0 -261 84l-135 -136l-104 107l135 135q-82 116 -82 254q0 140 82 256l-135 135l104 107l138 -137q113 83 258 83q138 0 254 -79l133 133l106 -107l-133 -133q82 -116 82 -256q0 -139 -82 -258l133 -133l-106 -107l-133 134q-116 -82 -254 -82zM369 600
q-1 -123 85.5 -209t209.5 -84q121 0 205.5 85t86.5 208q0 122 -85.5 208.5t-206.5 86.5q-123 -1 -209 -87t-86 -208z" />
    <glyph glyph-name="yen" unicode="&#xa5;" horiz-adv-x="1327" 
d="M584 0v281h-369v129h369v204h-369v129h309l-463 691h181l422 -621l421 621h181l-463 -691h311v-129h-371v-204h371v-129h-371v-281h-159z" />
    <glyph glyph-name="brokenbar" unicode="&#xa6;" horiz-adv-x="559" 
d="M205 803v794h149v-794h-149zM205 -197v795h149v-795h-149z" />
    <glyph glyph-name="section" unicode="&#xa7;" horiz-adv-x="983" 
d="M500 -172q-163 0 -270 108.5t-107 251.5l160 21q0 -105 61.5 -168.5t155.5 -63.5q87 0 140.5 54t53.5 121q0 44 -25.5 79.5t-67 59t-94.5 47.5t-109 44.5t-109 50.5t-94.5 64.5t-67 88t-25.5 119.5q0 140 144 204q-117 85 -117 234q0 131 96.5 227t257.5 96
q163 0 270 -108.5t107 -251.5l-160 -21q0 105 -61.5 168.5t-155.5 63.5q-87 0 -140.5 -53.5t-53.5 -120.5q0 -44 25.5 -79.5t67 -59t95 -47.5t108.5 -44.5t108.5 -50.5t95 -64.5t67 -88t25.5 -119.5q0 -141 -144 -205q117 -85 117 -233q0 -131 -96.5 -227.5t-257.5 -96.5z
M262 705q0 -37 16.5 -67.5t40 -51t63.5 -41t74.5 -33.5t86 -32t84.5 -34q42 23 68 61t26 83q0 37 -16 67.5t-40 51t-64 40.5t-74.5 33t-86 32t-84.5 34q-42 -23 -68 -60.5t-26 -82.5z" />
    <glyph glyph-name="copyright" unicode="&#xa9;" horiz-adv-x="1867" 
d="M940 311q-69 0 -132 25.5t-114.5 73.5t-82.5 127.5t-31 179.5t31 179.5t82.5 127.5t114.5 73t132 25q84 0 157 -33t125.5 -102.5t65.5 -165.5l-141 -18q-20 78 -70 130t-137 52q-107 0 -163 -73.5t-56 -194.5t56 -194.5t163 -73.5q89 0 139.5 49.5t67.5 128.5l141 -19
q-19 -142 -118 -219.5t-230 -77.5zM184 717q0 153 59.5 291.5t160 238.5t240 159.5t292.5 59.5q152 0 290 -59.5t238.5 -159.5t159.5 -239t59 -291t-59 -291t-159.5 -239.5t-238.5 -160t-290 -59.5q-153 0 -292.5 59.5t-240 160t-160 239t-59.5 291.5zM315 717
q0 -167 83.5 -310t226.5 -226t311 -83q124 0 238 49.5t197 132.5t132 197.5t49 239.5q0 167 -83 309.5t-225 225.5t-308 83q-168 0 -311 -83t-226.5 -225.5t-83.5 -309.5z" />
    <glyph glyph-name="guillemotleft" unicode="&#xab;" horiz-adv-x="1404" 
d="M1143 0q0 95 -40 181t-100.5 141.5t-129.5 88.5t-130 33v136q61 0 130 33t129.5 88.5t100.5 141.5t40 181h139q0 -105 -51 -215t-131.5 -190t-165.5 -107q131 -41 239.5 -196.5t108.5 -315.5h-139zM164 444v136q48 0 102.5 20t107 60t95 92.5t68.5 123.5t26 148h139
q0 -105 -51 -215t-131.5 -190t-165.5 -107q131 -41 239.5 -196.5t108.5 -315.5h-139q0 77 -26 148t-68.5 123.5t-95 92.5t-107 60t-102.5 20z" />
    <glyph glyph-name="registered" unicode="&#xae;" horiz-adv-x="962" 
d="M481 586q-183 0 -311.5 128t-128.5 312t128.5 312t311.5 128q185 0 313 -128t128 -312t-128 -312t-313 -128zM117 1026q0 -152 106 -258t258 -106q155 0 260 105.5t105 258.5q0 154 -105 259.5t-260 105.5q-153 0 -258.5 -105.5t-105.5 -259.5zM336 809v459h149
q19 0 41 -4.5t51 -17t47.5 -42t18.5 -71.5q0 -68 -76 -93q41 -6 57 -30.5t19 -87.5l6 -113h-78l-6 121q-2 40 -13.5 54.5t-51.5 14.5h-86v-190h-78zM414 1073h59q51 0 71.5 13t20.5 47q0 35 -21 48t-71 13h-59v-121z" />
    <glyph glyph-name="degree" unicode="&#xb0;" horiz-adv-x="860" 
d="M430 803q-141 0 -244.5 103.5t-103.5 244.5t103.5 244.5t244.5 103.5t244.5 -103.5t103.5 -244.5t-103.5 -244.5t-244.5 -103.5zM231 1151q0 -79 59.5 -139t139.5 -60t139.5 60t59.5 139t-59.5 139t-139.5 60t-139.5 -60t-59.5 -139z" />
    <glyph glyph-name="plusminus" unicode="&#xb1;" horiz-adv-x="1226" 
d="M539 307v373h-375v149h375v377h149v-377h375v-149h-375v-373h-149zM164 -2v149h899v-149h-899z" />
    <glyph glyph-name="uni00B5" unicode="&#xb5;" horiz-adv-x="1226" 
d="M524 -33q-94 0 -159 35v-412h-160v1434h160v-674q0 -130 54.5 -181.5t155.5 -51.5q40 0 77.5 11t76.5 40.5t67.5 76t47 124.5t18.5 178v477h160v-1024h-160v221q-26 -111 -114.5 -182.5t-223.5 -71.5z" />
    <glyph glyph-name="paragraph" unicode="&#xb6;" horiz-adv-x="1390" 
d="M575 633q-31 0 -65 3t-82 14t-91 28t-87 48t-76 71t-52 101t-20 134q0 85 26 153.5t70 110.5t93.5 71t106.5 42.5t98.5 19t78.5 5.5h693v-150h-123v-1427h-160v1427h-164v-1427h-159v776h-87zM262 1032q0 -133 89 -191.5t265 -58.5h46v502h-46q-175 0 -264.5 -59
t-89.5 -193z" />
    <glyph glyph-name="periodcentered" unicode="&#xb7;" horiz-adv-x="532" 
d="M266 428q-41 0 -71.5 30.5t-30.5 71.5t30.5 72t71.5 31t72 -31t31 -72t-31 -71.5t-72 -30.5z" />
    <glyph glyph-name="guillemotright" unicode="&#xbb;" horiz-adv-x="1404" 
d="M702 0q0 160 108.5 315.5t240.5 196.5q-85 27 -166 107t-132 190t-51 215h140q0 -77 26 -148t68.5 -123.5t95 -92.5t107 -60t102.5 -20v-136q-48 0 -102.5 -20t-107 -60t-95 -92.5t-68.5 -123.5t-26 -148h-140zM123 0q0 160 108.5 315.5t239.5 196.5q-85 27 -165.5 107
t-131.5 190t-51 215h139q0 -95 40 -181t100.5 -141.5t129.5 -88.5t130 -33v-136q-61 0 -130 -33t-129.5 -88.5t-100.5 -141.5t-40 -181h-139z" />
    <glyph glyph-name="onequarter" unicode="&#xbc;" horiz-adv-x="1671" 
d="M981 293q104 54 158.5 172t54.5 252h125q0 -98 -36.5 -213.5t-100.5 -190.5h235v404h121v-404h92v-114h-92v-199h-121v199h-436v94zM123 717v117h184v340q-48 -60 -135 -60h-49v115h49q41 0 63 5.5t40.5 26.5t25 62t6.5 111h121v-600h184v-117h-489zM287 0l1050 1466h150
l-1051 -1466h-149z" />
    <glyph glyph-name="onehalf" unicode="&#xbd;" horiz-adv-x="1613" 
d="M1040 106q15 11 74 51.5t106 76t100.5 81.5t84.5 92t31 85q0 59 -40 92.5t-100 33.5q-67 0 -107 -40.5t-32 -124.5l-119 16q-6 116 66 190t192 74q114 0 187 -70t73 -171q0 -172 -319 -375h336v-117h-533v106zM123 717v117h184v340q-48 -60 -135 -60h-49v115h49
q41 0 63 5.5t40.5 26.5t25 62t6.5 111h121v-600h184v-117h-489zM287 0l1050 1466h150l-1051 -1466h-149z" />
    <glyph glyph-name="threequarters" unicode="&#xbe;" horiz-adv-x="1691" 
d="M342 700q-130 0 -213.5 73.5t-65.5 180.5l123 15q-7 -53 16 -88.5t58.5 -48.5t81.5 -13q67 0 112.5 26t45.5 81t-45.5 79.5t-112.5 24.5h-82v119h82q63 0 98 24.5t35 69.5t-34.5 68.5t-98.5 23.5q-67 0 -99 -28t-32 -70l-123 14q-7 74 62.5 136.5t191.5 62.5
q119 0 186.5 -58.5t67.5 -148.5q0 -98 -78 -153q105 -45 105 -164q0 -101 -78.5 -163.5t-202.5 -62.5zM246 0l1050 1466h150l-1051 -1466h-149zM940 199v94q104 54 158.5 172t54.5 252h125q0 -98 -36.5 -213.5t-100.5 -190.5h235v404h121v-404h92v-114h-92v-199h-121v199
h-436z" />
    <glyph glyph-name="questiondown" unicode="&#xbf;" horiz-adv-x="1198" 
d="M723 340q-218 0 -319 -79t-101 -212q0 -126 81 -207.5t216 -81.5q141 0 223 89t82 255l150 -20q0 -205 -122.5 -339t-332.5 -134q-214 0 -335.5 118.5t-121.5 319.5q0 95 38.5 173t102.5 127t137.5 77.5t151.5 36.5v274h150v-397zM555 893v184h184v-184h-184z" />
    <glyph glyph-name="Agrave" unicode="&#xc0;" horiz-adv-x="1351" 
d="M82 0l498 1434h192l498 -1434h-162l-160 463h-545l-159 -463h-162zM418 1905h190l123 -308h-129zM457 612h438l-219 633z" />
    <glyph glyph-name="Aacute" unicode="&#xc1;" horiz-adv-x="1351" 
d="M82 0l498 1434h192l498 -1434h-162l-160 463h-545l-159 -463h-162zM457 612h438l-219 633zM643 1597l123 308h190l-184 -308h-129z" />
    <glyph glyph-name="Acircumflex" unicode="&#xc2;" horiz-adv-x="1351" 
d="M82 0l498 1434h192l498 -1434h-162l-160 463h-545l-159 -463h-162zM416 1597l143 308h234l143 -308h-129l-131 226l-131 -226h-129zM457 612h438l-219 633z" />
    <glyph glyph-name="Atilde" unicode="&#xc3;" horiz-adv-x="1351" 
d="M82 0l498 1434h192l498 -1434h-162l-160 463h-545l-159 -463h-162zM346 1618q0 96 54.5 159.5t148.5 63.5q42 0 79.5 -18t60.5 -39.5t48 -39.5t45 -18q12 0 22 3t17 7t13 11t9.5 13.5t6 15.5t4 15.5t2 16t0.5 14v12.5v7l150 -20q0 -95 -56.5 -159.5t-146.5 -64.5
q-42 0 -80 18t-60.5 39.5t-48 39.5t-45.5 18q-24 0 -40 -14.5t-22.5 -36.5t-8.5 -37t-2 -27zM457 612h438l-219 633z" />
    <glyph glyph-name="Adieresis" unicode="&#xc4;" horiz-adv-x="1351" 
d="M82 0l498 1434h192l498 -1434h-162l-160 463h-545l-159 -463h-162zM422 1597v185h184v-185h-184zM457 612h438l-219 633zM745 1597v185h185v-185h-185z" />
    <glyph glyph-name="Aring" unicode="&#xc5;" horiz-adv-x="1351" 
d="M82 0l498 1434h192l498 -1434h-162l-160 463h-545l-159 -463h-162zM457 612h438l-219 633zM461 1792q0 88 63.5 151.5t151.5 63.5t151.5 -63.5t63.5 -151.5t-63.5 -151.5t-151.5 -63.5t-151.5 63.5t-63.5 151.5zM594 1792q0 -35 23.5 -58.5t58.5 -23.5t58.5 23.5
t23.5 58.5t-23.5 58.5t-58.5 23.5t-58.5 -23.5t-23.5 -58.5z" />
    <glyph glyph-name="AE" unicode="&#xc6;" horiz-adv-x="1771" 
d="M82 0l498 1434h1048v-150h-805l162 -465h541v-149h-490l183 -520h409v-150h-520l-160 463h-545l-159 -463h-162zM457 612h438l-219 633z" />
    <glyph glyph-name="Ccedilla" unicode="&#xc7;" horiz-adv-x="1550" 
d="M807 -442q-71 0 -123 39.5t-59 105.5l116 21q5 -25 22.5 -39.5t43.5 -14.5q31 0 50.5 19.5t19.5 50.5q0 30 -19.5 48.5t-50.5 18.5q-44 0 -59 -34l-105 47l53 153q-91 12 -174 47t-156 97.5t-127 146.5t-85 200.5t-31 252.5q0 149 37 274t100.5 211.5t148 147t179 88.5
t194.5 28q110 0 210 -34t185 -101.5t145.5 -178.5t84.5 -255l-164 -23q-20 94 -57 172t-92.5 139.5t-135 95.5t-176.5 34q-120 0 -216 -47t-157 -129t-93.5 -190t-32.5 -232t32.5 -232t93.5 -190.5t157 -130t216 -47.5q192 0 308.5 115t154.5 315l162 -21q-22 -138 -79 -245
t-137.5 -173t-175 -101t-200.5 -40l-16 -45h8q73 0 127.5 -54t54.5 -128t-54.5 -128t-127.5 -54z" />
    <glyph glyph-name="Egrave" unicode="&#xc8;" horiz-adv-x="1163" 
d="M184 0v1434h836v-150h-676v-465h574v-149h-574v-520h676v-150h-836zM344 1864h191l122 -308h-129z" />
    <glyph glyph-name="Eacute" unicode="&#xc9;" horiz-adv-x="1163" 
d="M184 0v1434h836v-150h-676v-465h574v-149h-574v-520h676v-150h-836zM549 1556l123 308h190l-184 -308h-129z" />
    <glyph glyph-name="Ecircumflex" unicode="&#xca;" horiz-adv-x="1163" 
d="M184 0v1434h836v-150h-676v-465h574v-149h-574v-520h676v-150h-836zM342 1614l143 307h234l143 -307h-129l-131 225l-131 -225h-129z" />
    <glyph glyph-name="Edieresis" unicode="&#xcb;" horiz-adv-x="1163" 
d="M672 1597v185h184v-185h-184zM184 0v1434h836v-150h-676v-465h574v-149h-574v-520h676v-150h-836zM348 1597v185h184v-185h-184z" />
    <glyph glyph-name="Igrave" unicode="&#xcc;" horiz-adv-x="524" 
d="M180 0v1434h160v-1434h-160zM0 1905h190l123 -308h-129z" />
    <glyph glyph-name="Iacute" unicode="&#xcd;" horiz-adv-x="522" 
d="M184 0v1434h160v-1434h-160zM209 1597l123 308h190l-184 -308h-129z" />
    <glyph glyph-name="Icircumflex" unicode="&#xce;" horiz-adv-x="520" 
d="M180 0v1434h160v-1434h-160zM0 1597l143 308h234l143 -308h-129l-131 226l-131 -226h-129z" />
    <glyph glyph-name="Idieresis" unicode="&#xcf;" horiz-adv-x="528" 
d="M184 0v1434h160v-1434h-160zM10 1597v185h185v-185h-185zM334 1597v185h184v-185h-184z" />
    <glyph glyph-name="Ntilde" unicode="&#xd1;" horiz-adv-x="1503" 
d="M184 0v1434h222l753 -1297v1297h160v-1434h-242l-733 1262v-1262h-160zM422 1618q0 96 54.5 159.5t148.5 63.5q42 0 79.5 -18t60.5 -39.5t48 -39.5t45 -18q12 0 22 3t17 7t13 11t9.5 13.5t6 15.5t4 15.5t2 16t0.5 14v12.5v7l149 -20q0 -95 -56 -159.5t-146 -64.5
q-42 0 -80 18t-60.5 39.5t-48 39.5t-45.5 18q-24 0 -40 -14.5t-22.5 -36.5t-9 -37t-2.5 -27z" />
    <glyph glyph-name="Ograve" unicode="&#xd2;" horiz-adv-x="1562" 
d="M782 -33q-83 0 -163 20.5t-154 60t-136 103t-108 144.5t-72 189t-26 233q0 149 37 274t100.5 211.5t148 147t179 88.5t194.5 28t194.5 -28t179 -88.5t147.5 -147t100 -211.5t37 -274t-37 -274t-100 -211.5t-147.5 -147t-179 -89t-194.5 -28.5zM283 717q0 -124 32.5 -232
t93.5 -190.5t157 -130t216 -47.5q159 0 273.5 82.5t169.5 216.5t55 301t-55 301t-169.5 216.5t-273.5 82.5q-120 0 -216 -47.5t-157 -130t-93.5 -190.5t-32.5 -232zM522 1905h191l123 -308h-129z" />
    <glyph glyph-name="Oacute" unicode="&#xd3;" horiz-adv-x="1562" 
d="M782 -33q-83 0 -163 20.5t-154 60t-136 103t-108 144.5t-72 189t-26 233q0 149 37 274t100.5 211.5t148 147t179 88.5t194.5 28t194.5 -28t179 -88.5t147.5 -147t100 -211.5t37 -274t-37 -274t-100 -211.5t-147.5 -147t-179 -89t-194.5 -28.5zM283 717q0 -124 32.5 -232
t93.5 -190.5t157 -130t216 -47.5q159 0 273.5 82.5t169.5 216.5t55 301t-55 301t-169.5 216.5t-273.5 82.5q-120 0 -216 -47.5t-157 -130t-93.5 -190.5t-32.5 -232zM727 1597l123 308h190l-184 -308h-129z" />
    <glyph glyph-name="Ocircumflex" unicode="&#xd4;" horiz-adv-x="1562" 
d="M782 -33q-83 0 -163 20.5t-154 60t-136 103t-108 144.5t-72 189t-26 233q0 149 37 274t100.5 211.5t148 147t179 88.5t194.5 28t194.5 -28t179 -88.5t147.5 -147t100 -211.5t37 -274t-37 -274t-100 -211.5t-147.5 -147t-179 -89t-194.5 -28.5zM283 717q0 -124 32.5 -232
t93.5 -190.5t157 -130t216 -47.5q159 0 273.5 82.5t169.5 216.5t55 301t-55 301t-169.5 216.5t-273.5 82.5q-120 0 -216 -47.5t-157 -130t-93.5 -190.5t-32.5 -232zM522 1597l144 308h233l143 -308h-129l-131 226l-131 -226h-129z" />
    <glyph glyph-name="Otilde" unicode="&#xd5;" horiz-adv-x="1562" 
d="M782 -33q-83 0 -163 20.5t-154 60t-136 103t-108 144.5t-72 189t-26 233q0 149 37 274t100.5 211.5t148 147t179 88.5t194.5 28t194.5 -28t179 -88.5t147.5 -147t100 -211.5t37 -274t-37 -274t-100 -211.5t-147.5 -147t-179 -89t-194.5 -28.5zM283 717q0 -124 32.5 -232
t93.5 -190.5t157 -130t216 -47.5q159 0 273.5 82.5t169.5 216.5t55 301t-55 301t-169.5 216.5t-273.5 82.5q-120 0 -216 -47.5t-157 -130t-93.5 -190.5t-32.5 -232zM453 1618q0 96 54 159.5t148 63.5q42 0 80 -18t60.5 -39.5t48 -39.5t45.5 -18q12 0 22 3t17 7t13 11
t9.5 13.5t6 15.5t4 15.5t2 16t0.5 14v12.5v7l149 -20q0 -95 -56.5 -159.5t-146.5 -64.5q-42 0 -79.5 18t-60.5 39.5t-48 39.5t-45 18q-24 0 -40 -14.5t-22.5 -36.5t-9 -37t-2.5 -27z" />
    <glyph glyph-name="Odieresis" unicode="&#xd6;" horiz-adv-x="1562" 
d="M782 -33q-83 0 -163 20.5t-154 60t-136 103t-108 144.5t-72 189t-26 233q0 149 37 274t100.5 211.5t148 147t179 88.5t194.5 28t194.5 -28t179 -88.5t147.5 -147t100 -211.5t37 -274t-37 -274t-100 -211.5t-147.5 -147t-179 -89t-194.5 -28.5zM283 717q0 -124 32.5 -232
t93.5 -190.5t157 -130t216 -47.5q159 0 273.5 82.5t169.5 216.5t55 301t-55 301t-169.5 216.5t-273.5 82.5q-120 0 -216 -47.5t-157 -130t-93.5 -190.5t-32.5 -232zM528 1597v185h185v-185h-185zM852 1597v185h184v-185h-184z" />
    <glyph glyph-name="multiply" unicode="&#xd7;" horiz-adv-x="1128" 
d="M270 209l-104 104l293 293l-295 295l106 105l293 -295l297 297l105 -107l-297 -295l295 -295l-105 -104l-295 295z" />
    <glyph glyph-name="Oslash" unicode="&#xd8;" horiz-adv-x="1562" 
d="M20 -135l265 336q-162 200 -162 516q0 149 37 274t100.5 211.5t148 147t179 88.5t194.5 28q226 0 396 -133l184 234h180l-262 -334q160 -202 160 -516q0 -149 -37 -274t-100 -211.5t-147.5 -147t-179 -89t-194.5 -28.5q-225 0 -395 133l-186 -235h-181zM283 717
q0 -230 102 -389l698 886q-128 103 -301 103q-120 0 -216 -47.5t-157 -130t-93.5 -190.5t-32.5 -232zM481 219q126 -102 301 -102q159 0 273.5 82.5t169.5 216.5t55 301q0 230 -102 389z" />
    <glyph glyph-name="Ugrave" unicode="&#xd9;" horiz-adv-x="1382" 
d="M692 -33q-224 0 -366 138.5t-142 390.5v938h160v-938q0 -96 28 -170.5t77 -119t110.5 -67t132.5 -22.5t132 22.5t109.5 67t76.5 118.5t28 171v938h160v-938q0 -128 -38.5 -229t-107 -166.5t-160 -99.5t-200.5 -34zM432 1905h191l122 -308h-129z" />
    <glyph glyph-name="Uacute" unicode="&#xda;" horiz-adv-x="1382" 
d="M692 -33q-224 0 -366 138.5t-142 390.5v938h160v-938q0 -96 28 -170.5t77 -119t110.5 -67t132.5 -22.5t132 22.5t109.5 67t76.5 118.5t28 171v938h160v-938q0 -128 -38.5 -229t-107 -166.5t-160 -99.5t-200.5 -34zM637 1597l123 308h190l-184 -308h-129z" />
    <glyph glyph-name="Ucircumflex" unicode="&#xdb;" horiz-adv-x="1382" 
d="M692 -33q-224 0 -366 138.5t-142 390.5v938h160v-938q0 -96 28 -170.5t77 -119t110.5 -67t132.5 -22.5t132 22.5t109.5 67t76.5 118.5t28 171v938h160v-938q0 -128 -38.5 -229t-107 -166.5t-160 -99.5t-200.5 -34zM432 1597l143 308h234l143 -308h-129l-131 226
l-131 -226h-129z" />
    <glyph glyph-name="Udieresis" unicode="&#xdc;" horiz-adv-x="1382" 
d="M692 -33q-224 0 -366 138.5t-142 390.5v938h160v-938q0 -96 28 -170.5t77 -119t110.5 -67t132.5 -22.5t132 22.5t109.5 67t76.5 118.5t28 171v938h160v-938q0 -128 -38.5 -229t-107 -166.5t-160 -99.5t-200.5 -34zM438 1597v185h185v-185h-185zM762 1597v185h184v-185
h-184z" />
    <glyph glyph-name="Yacute" unicode="&#xdd;" horiz-adv-x="1179" 
d="M324 0l182 416l-445 1018h160l369 -824l358 824h170l-624 -1434h-170zM537 1597l122 308h191l-184 -308h-129z" />
    <glyph glyph-name="Thorn" unicode="&#xde;" horiz-adv-x="1230" 
d="M184 0v1434h160v-293h291q37 0 78.5 -5.5t98.5 -19t106.5 -42.5t93.5 -71t70 -110.5t26 -153.5q0 -73 -20 -134t-52 -101t-76 -71t-87 -48t-91 -28t-82 -14t-65 -3h-291v-340h-160zM344 489h250q176 0 265 58.5t89 191.5q0 134 -89.5 193t-264.5 59h-250v-502z" />
    <glyph glyph-name="germandbls" unicode="&#xdf;" horiz-adv-x="1335" 
d="M590 0v156h102q71 -1 133.5 13.5t113.5 44.5t80.5 80.5t29.5 117.5q0 88 -52 147.5t-130 84t-175 24.5h-102v155h92q137 0 227 69t90 181q0 108 -90.5 176t-226.5 68q-68 0 -126.5 -18t-107 -56t-76.5 -104.5t-28 -155.5v-983h-160v983q0 119 41 213t111.5 152t158.5 88
t187 30q130 0 240 -52.5t173.5 -143t63.5 -197.5q0 -89 -47 -178t-141 -139q241 -75 241 -344q0 -190 -133 -301t-387 -111h-102z" />
    <glyph glyph-name="agrave" unicode="&#xe0;" horiz-adv-x="1083" 
d="M469 -33q-63 0 -123.5 19.5t-111 56.5t-81 97t-30.5 134q0 161 107.5 240t318.5 107q127 17 170 34q105 41 65 144q-13 34 -42.5 57t-67 33t-67 14t-58.5 4q-122 0 -184 -50.5t-62 -143.5l-160 20q0 81 37 145t97.5 102t130 57.5t141.5 19.5q58 0 111.5 -10t105.5 -34.5
t90 -61.5t61 -94t23 -128v-729h-149v205q-35 -104 -121 -171t-201 -67zM283 266q0 -61 54.5 -105t131.5 -44q64 0 120 23t102 69.5t73 125.5t27 183v55q-54 -76 -273 -102q-118 -17 -176.5 -71t-58.5 -134zM293 1495h190l123 -307h-129z" />
    <glyph glyph-name="aacute" unicode="&#xe1;" horiz-adv-x="1083" 
d="M469 -33q-63 0 -123.5 19.5t-111 56.5t-81 97t-30.5 134q0 161 107.5 240t318.5 107q127 17 170 34q105 41 65 144q-13 34 -42.5 57t-67 33t-67 14t-58.5 4q-122 0 -184 -50.5t-62 -143.5l-160 20q0 81 37 145t97.5 102t130 57.5t141.5 19.5q58 0 111.5 -10t105.5 -34.5
t90 -61.5t61 -94t23 -128v-729h-149v205q-35 -104 -121 -171t-201 -67zM283 266q0 -61 54.5 -105t131.5 -44q64 0 120 23t102 69.5t73 125.5t27 183v55q-54 -76 -273 -102q-118 -17 -176.5 -71t-58.5 -134zM498 1188l123 307h190l-184 -307h-129z" />
    <glyph glyph-name="acircumflex" unicode="&#xe2;" horiz-adv-x="1083" 
d="M469 -33q-63 0 -123.5 19.5t-111 56.5t-81 97t-30.5 134q0 161 107.5 240t318.5 107q127 17 170 34q105 41 65 144q-13 34 -42.5 57t-67 33t-67 14t-58.5 4q-122 0 -184 -50.5t-62 -143.5l-160 20q0 81 37 145t97.5 102t130 57.5t141.5 19.5q58 0 111.5 -10t105.5 -34.5
t90 -61.5t61 -94t23 -128v-729h-149v205q-35 -104 -121 -171t-201 -67zM283 266q0 -61 54.5 -105t131.5 -44q64 0 120 23t102 69.5t73 125.5t27 183v55q-54 -76 -273 -102q-118 -17 -176.5 -71t-58.5 -134zM291 1188l143 307h234l143 -307h-129l-131 225l-131 -225h-129z
" />
    <glyph glyph-name="atilde" unicode="&#xe3;" horiz-adv-x="1083" 
d="M469 -33q-63 0 -123.5 19.5t-111 56.5t-81 97t-30.5 134q0 161 107.5 240t318.5 107q127 17 170 34q105 41 65 144q-13 34 -42.5 57t-67 33t-67 14t-58.5 4q-122 0 -184 -50.5t-62 -143.5l-160 20q0 81 37 145t97.5 102t130 57.5t141.5 19.5q58 0 111.5 -10t105.5 -34.5
t90 -61.5t61 -94t23 -128v-729h-149v205q-35 -104 -121 -171t-201 -67zM221 1208q0 96 54.5 160t148.5 64q42 0 79.5 -18t60.5 -39.5t48 -39.5t45 -18q12 0 22 3t17 7t13 11t9.5 13.5t6 15.5t4 15.5t2 16t0.5 14v11.5v8l150 -21q0 -94 -56.5 -158.5t-146.5 -64.5
q-42 0 -80 18t-60.5 39.5t-48 39.5t-45.5 18q-24 0 -40 -14.5t-22.5 -36.5t-8.5 -37t-2 -27zM283 266q0 -61 54.5 -105t131.5 -44q64 0 120 23t102 69.5t73 125.5t27 183v55q-54 -76 -273 -102q-118 -17 -176.5 -71t-58.5 -134z" />
    <glyph glyph-name="adieresis" unicode="&#xe4;" horiz-adv-x="1083" 
d="M469 -33q-63 0 -123.5 19.5t-111 56.5t-81 97t-30.5 134q0 161 107.5 240t318.5 107q127 17 170 34q105 41 65 144q-13 34 -42.5 57t-67 33t-67 14t-58.5 4q-122 0 -184 -50.5t-62 -143.5l-160 20q0 81 37 145t97.5 102t130 57.5t141.5 19.5q58 0 111.5 -10t105.5 -34.5
t90 -61.5t61 -94t23 -128v-729h-149v205q-35 -104 -121 -171t-201 -67zM283 266q0 -61 54.5 -105t131.5 -44q64 0 120 23t102 69.5t73 125.5t27 183v55q-54 -76 -273 -102q-118 -17 -176.5 -71t-58.5 -134zM299 1188v184h184v-184h-184zM623 1188v184h184v-184h-184z" />
    <glyph glyph-name="aring" unicode="&#xe5;" horiz-adv-x="1083" 
d="M469 -33q-63 0 -123.5 19.5t-111 56.5t-81 97t-30.5 134q0 161 107.5 240t318.5 107q127 17 170 34q105 41 65 144q-13 34 -42.5 57t-67 33t-67 14t-58.5 4q-122 0 -184 -50.5t-62 -143.5l-160 20q0 81 37 145t97.5 102t130 57.5t141.5 19.5q58 0 111.5 -10t105.5 -34.5
t90 -61.5t61 -94t23 -128v-729h-149v205q-35 -104 -121 -171t-201 -67zM283 266q0 -61 54.5 -105t131.5 -44q64 0 120 23t102 69.5t73 125.5t27 183v55q-54 -76 -273 -102q-118 -17 -176.5 -71t-58.5 -134zM338 1382q0 88 63.5 151.5t151.5 63.5t151.5 -63.5t63.5 -151.5
t-63.5 -151.5t-151.5 -63.5t-151.5 63.5t-63.5 151.5zM471 1382q0 -35 23.5 -58.5t58.5 -23.5t58.5 23.5t23.5 58.5t-23.5 58.5t-58.5 23.5t-58.5 -23.5t-23.5 -58.5z" />
    <glyph glyph-name="ae" unicode="&#xe6;" horiz-adv-x="1837" 
d="M469 -33q-63 0 -123.5 19.5t-111 56.5t-81 97t-30.5 134q0 161 107.5 240t318.5 107q127 17 170 34q105 41 65 144q-13 34 -42.5 57t-67 33t-67 14t-58.5 4q-122 0 -184 -50.5t-62 -143.5l-160 20q0 81 37 145t97.5 102t130 57.5t141.5 19.5q115 0 212.5 -42.5
t143.5 -131.5q67 85 164.5 129.5t204.5 44.5q94 0 173 -34.5t139 -101t94 -172.5t34 -241v-37h-764q0 -94 37.5 -173.5t112.5 -130t174 -50.5q59 0 105.5 13t74 32.5t48 48t30 52t16.5 52.5l160 -20q-31 -156 -141.5 -242t-292.5 -86q-138 0 -254.5 70.5t-177.5 206.5
q-27 -129 -131 -203t-242 -74zM283 266q0 -61 54.5 -105t131.5 -44q64 0 120 23t102 69.5t73 125.5t27 183v55q-54 -76 -273 -102q-118 -17 -176.5 -71t-58.5 -134zM950 610h604q0 49 -15.5 98.5t-47 95.5t-88 74.5t-129.5 28.5q-97 0 -173.5 -49.5t-113.5 -116t-37 -131.5z
" />
    <glyph glyph-name="ccedilla" unicode="&#xe7;" horiz-adv-x="1179" 
d="M610 -442q-71 0 -123 39.5t-59 105.5l117 21q5 -25 22 -39.5t43 -14.5q31 0 50.5 19.5t19.5 50.5q0 30 -19.5 48.5t-50.5 18.5q-44 0 -59 -34l-105 47l54 157q-78 17 -145 57.5t-119.5 105t-82.5 159.5t-30 209q0 108 26.5 198.5t72.5 154.5t107.5 108.5t131.5 66
t145 21.5q190 0 303.5 -98t147.5 -310l-160 -20q-27 132 -94.5 205t-196.5 73q-81 0 -144.5 -33t-101.5 -90t-57.5 -127t-19.5 -149t19.5 -148t57.5 -124t101 -87t145 -32q131 0 197.5 67.5t93.5 198.5l160 -21q-34 -205 -143.5 -298.5t-295.5 -96.5l-16 -45h8
q74 0 128.5 -54.5t54.5 -127.5t-54.5 -127.5t-128.5 -54.5z" />
    <glyph glyph-name="egrave" unicode="&#xe8;" horiz-adv-x="1169" 
d="M606 -33q-95 0 -180 33.5t-153.5 98t-109 170t-40.5 239.5q0 108 26.5 198.5t72.5 154.5t107.5 108.5t131.5 66t145 21.5q94 0 173 -34.5t139.5 -101t94.5 -172.5t34 -241v-37h-764q0 -145 88 -249.5t235 -104.5q73 0 126 18.5t82 51t43.5 62t23.5 66.5l159 -20
q-31 -156 -141.5 -242t-292.5 -86zM283 610h604q0 49 -15.5 98.5t-47.5 95.5t-88.5 74.5t-129.5 28.5t-136 -29t-103 -73.5t-62 -96t-22 -98.5zM326 1495h190l123 -307h-129z" />
    <glyph glyph-name="eacute" unicode="&#xe9;" horiz-adv-x="1169" 
d="M606 -33q-95 0 -180 33.5t-153.5 98t-109 170t-40.5 239.5q0 108 26.5 198.5t72.5 154.5t107.5 108.5t131.5 66t145 21.5q94 0 173 -34.5t139.5 -101t94.5 -172.5t34 -241v-37h-764q0 -145 88 -249.5t235 -104.5q73 0 126 18.5t82 51t43.5 62t23.5 66.5l159 -20
q-31 -156 -141.5 -242t-292.5 -86zM283 610h604q0 49 -15.5 98.5t-47.5 95.5t-88.5 74.5t-129.5 28.5t-136 -29t-103 -73.5t-62 -96t-22 -98.5zM530 1188l123 307h191l-185 -307h-129z" />
    <glyph glyph-name="ecircumflex" unicode="&#xea;" horiz-adv-x="1169" 
d="M606 -33q-95 0 -180 33.5t-153.5 98t-109 170t-40.5 239.5q0 108 26.5 198.5t72.5 154.5t107.5 108.5t131.5 66t145 21.5q94 0 173 -34.5t139.5 -101t94.5 -172.5t34 -241v-37h-764q0 -145 88 -249.5t235 -104.5q73 0 126 18.5t82 51t43.5 62t23.5 66.5l159 -20
q-31 -156 -141.5 -242t-292.5 -86zM283 610h604q0 49 -15.5 98.5t-47.5 95.5t-88.5 74.5t-129.5 28.5t-136 -29t-103 -73.5t-62 -96t-22 -98.5zM326 1188l143 307h233l144 -307h-129l-131 225l-131 -225h-129z" />
    <glyph glyph-name="edieresis" unicode="&#xeb;" horiz-adv-x="1169" 
d="M606 -33q-95 0 -180 33.5t-153.5 98t-109 170t-40.5 239.5q0 108 26.5 198.5t72.5 154.5t107.5 108.5t131.5 66t145 21.5q94 0 173 -34.5t139.5 -101t94.5 -172.5t34 -241v-37h-764q0 -145 88 -249.5t235 -104.5q73 0 126 18.5t82 51t43.5 62t23.5 66.5l159 -20
q-31 -156 -141.5 -242t-292.5 -86zM283 610h604q0 49 -15.5 98.5t-47.5 95.5t-88.5 74.5t-129.5 28.5t-136 -29t-103 -73.5t-62 -96t-22 -98.5zM332 1188v184h184v-184h-184zM655 1188v184h185v-184h-185z" />
    <glyph glyph-name="igrave" unicode="&#xec;" horiz-adv-x="503" 
d="M180 0v1024h160v-1024h-160zM0 1495h190l123 -307h-129z" />
    <glyph glyph-name="iacute" unicode="&#xed;" horiz-adv-x="501" 
d="M188 1188l123 307h191l-185 -307h-129zM164 0v1024h160v-1024h-160z" />
    <glyph glyph-name="icircumflex" unicode="&#xee;" horiz-adv-x="487" 
d="M164 0v1024h160v-1024h-160zM-16 1188l143 307h233l144 -307h-129l-131 225l-131 -225h-129z" />
    <glyph glyph-name="idieresis" unicode="&#xef;" horiz-adv-x="487" 
d="M164 0v1024h160v-1024h-160zM-10 1188v184h184v-184h-184zM313 1188v184h185v-184h-185z" />
    <glyph glyph-name="eth" unicode="&#xf0;" horiz-adv-x="1236" 
d="M616 -33q-100 0 -191.5 39t-157.5 105.5t-105 157.5t-39 190q0 134 66 247.5t179.5 179.5t247.5 66q113 0 199 -50.5t135 -139.5q-57 295 -254 450l-366 -208v110l274 156q-111 57 -233 57v139q203 0 372 -116l207 116v-110l-125 -72q134 -125 211.5 -319t77.5 -441
q0 -83 -16 -160.5t-53.5 -150.5t-93.5 -127t-142 -86.5t-193 -32.5zM283 463q0 -142 96.5 -244t236.5 -102t240 102t100 244q0 141 -99.5 240.5t-240.5 99.5q-140 0 -236.5 -99t-96.5 -241z" />
    <glyph glyph-name="ntilde" unicode="&#xf1;" 
d="M821 674q0 130 -55 181.5t-156 51.5q-40 0 -77 -11t-76.5 -40.5t-68 -76t-46.5 -124.5t-18 -178v-477h-160v1024h160v-221q26 111 114.5 182.5t223.5 71.5q162 0 240.5 -103t78.5 -280v-674h-160v674zM242 1208q0 96 54 160t148 64q42 0 80 -18t60.5 -39.5t48 -39.5
t45.5 -18q12 0 22 3t17 7t13 11t9.5 13.5t6 15.5t4 15.5t2 16t0.5 14v11.5v8l149 -21q0 -94 -56.5 -158.5t-146.5 -64.5q-42 0 -79.5 18t-60.5 39.5t-48 39.5t-45 18q-24 0 -40 -14.5t-22.5 -36.5t-9 -37t-2.5 -27z" />
    <glyph glyph-name="ograve" unicode="&#xf2;" horiz-adv-x="1210" 
d="M606 -33q-95 0 -180 33.5t-153.5 98t-109 170t-40.5 239.5q0 108 26.5 198.5t72.5 154.5t107.5 108.5t131.5 66t145 21.5t144.5 -21.5t131 -66t107 -108.5t72 -154.5t26.5 -198.5q0 -134 -40 -239.5t-108.5 -170t-153 -98t-179.5 -33.5zM283 508q0 -178 80.5 -284.5
t242.5 -106.5t243 106.5t81 284.5q0 179 -81.5 289t-242.5 110t-242 -110t-81 -289zM346 1495h191l122 -307h-129z" />
    <glyph glyph-name="oacute" unicode="&#xf3;" horiz-adv-x="1210" 
d="M606 -33q-95 0 -180 33.5t-153.5 98t-109 170t-40.5 239.5q0 108 26.5 198.5t72.5 154.5t107.5 108.5t131.5 66t145 21.5t144.5 -21.5t131 -66t107 -108.5t72 -154.5t26.5 -198.5q0 -134 -40 -239.5t-108.5 -170t-153 -98t-179.5 -33.5zM283 508q0 -178 80.5 -284.5
t242.5 -106.5t243 106.5t81 284.5q0 179 -81.5 289t-242.5 110t-242 -110t-81 -289zM551 1188l123 307h190l-184 -307h-129z" />
    <glyph glyph-name="otilde" unicode="&#xf5;" horiz-adv-x="1210" 
d="M606 -33q-95 0 -180 33.5t-153.5 98t-109 170t-40.5 239.5q0 108 26.5 198.5t72.5 154.5t107.5 108.5t131.5 66t145 21.5t144.5 -21.5t131 -66t107 -108.5t72 -154.5t26.5 -198.5q0 -134 -40 -239.5t-108.5 -170t-153 -98t-179.5 -33.5zM274 1208q0 96 54.5 160t148.5 64
q42 0 80 -18t60.5 -39.5t48 -39.5t45.5 -18q13 0 24 3t18.5 9.5t13 13t8.5 16t5.5 17t3 18t0.5 15.5v14v9l150 -21q0 -94 -56.5 -158.5t-146.5 -64.5q-42 0 -79.5 18t-60.5 39.5t-48 39.5t-45 18q-24 0 -40 -14.5t-22.5 -36.5t-9 -37t-2.5 -27zM283 508q0 -178 80.5 -284.5
t242.5 -106.5t243 106.5t81 284.5q0 179 -81.5 289t-242.5 110t-242 -110t-81 -289z" />
    <glyph glyph-name="odieresis" unicode="&#xf6;" horiz-adv-x="1210" 
d="M606 -33q-95 0 -180 33.5t-153.5 98t-109 170t-40.5 239.5q0 108 26.5 198.5t72.5 154.5t107.5 108.5t131.5 66t145 21.5t144.5 -21.5t131 -66t107 -108.5t72 -154.5t26.5 -198.5q0 -134 -40 -239.5t-108.5 -170t-153 -98t-179.5 -33.5zM283 508q0 -178 80.5 -284.5
t242.5 -106.5t243 106.5t81 284.5q0 179 -81.5 289t-242.5 110t-242 -110t-81 -289zM352 1188v184h185v-184h-185zM676 1188v184h184v-184h-184z" />
    <glyph glyph-name="divide" unicode="&#xf7;" horiz-adv-x="1226" 
d="M164 530v150h899v-150h-899zM512 264q0 41 30.5 72t71.5 31t72 -31t31 -72t-31 -71.5t-72 -30.5t-71.5 30.5t-30.5 71.5zM512 946q0 41 30.5 72t71.5 31t72 -31t31 -72t-31 -71.5t-72 -30.5t-71.5 30.5t-30.5 71.5z" />
    <glyph glyph-name="oslash" unicode="&#xf8;" horiz-adv-x="1251" 
d="M20 -135l230 282q-107 143 -107 361q0 108 26.5 198.5t73 154.5t108 108.5t131.5 66t145 21.5q162 0 284 -94l160 196h160l-232 -285q109 -144 109 -366q0 -134 -40 -239.5t-108.5 -170t-153 -98t-179.5 -33.5q-162 0 -289 92l-158 -194h-160zM303 508q0 -138 49 -236
l467 576q-78 59 -192 59q-161 0 -242.5 -110t-81.5 -289zM432 176q74 -59 195 -59q162 0 242.5 106.5t80.5 284.5q0 146 -51 242z" />
    <glyph glyph-name="ugrave" unicode="&#xf9;" 
d="M483 -33q-162 0 -240.5 103t-78.5 280v674h160v-674q0 -130 55 -181.5t156 -51.5q40 0 77 11t76.5 40.5t68 76t46.5 124.5t18 178v477h160v-1024h-160v221q-26 -111 -114.5 -182.5t-223.5 -71.5zM313 1495h191l123 -307h-129z" />
    <glyph glyph-name="uacute" unicode="&#xfa;" 
d="M483 -33q-162 0 -240.5 103t-78.5 280v674h160v-674q0 -130 55 -181.5t156 -51.5q40 0 77 11t76.5 40.5t68 76t46.5 124.5t18 178v477h160v-1024h-160v221q-26 -111 -114.5 -182.5t-223.5 -71.5zM518 1188l123 307h190l-184 -307h-129z" />
    <glyph glyph-name="ucircumflex" unicode="&#xfb;" 
d="M483 -33q-162 0 -240.5 103t-78.5 280v674h160v-674q0 -130 55 -181.5t156 -51.5q40 0 77 11t76.5 40.5t68 76t46.5 124.5t18 178v477h160v-1024h-160v221q-26 -111 -114.5 -182.5t-223.5 -71.5zM313 1188l144 307h233l144 -307h-129l-132 225l-131 -225h-129z" />
    <glyph glyph-name="udieresis" unicode="&#xfc;" 
d="M483 -33q-162 0 -240.5 103t-78.5 280v674h160v-674q0 -130 55 -181.5t156 -51.5q40 0 77 11t76.5 40.5t68 76t46.5 124.5t18 178v477h160v-1024h-160v221q-26 -111 -114.5 -182.5t-223.5 -71.5zM319 1188v184h185v-184h-185zM643 1188v184h184v-184h-184z" />
    <glyph glyph-name="yacute" unicode="&#xfd;" horiz-adv-x="1073" 
d="M291 -410l166 410l-416 1024h160l336 -827l335 827h160l-581 -1434h-160zM483 1188l123 307h191l-185 -307h-129z" />
    <glyph glyph-name="thorn" unicode="&#xfe;" horiz-adv-x="1247" 
d="M649 117q144 0 230 90.5t86 292.5q0 206 -87.5 306.5t-228.5 100.5q-135 0 -225 -112.5t-90 -294.5q0 -179 89 -281t226 -102zM184 -410v1844h150v-629q26 110 108.5 181t206.5 71q98 0 178 -29.5t134.5 -81t91.5 -122.5t54 -152t17 -172q0 -150 -52.5 -269
t-161.5 -191.5t-261 -72.5q-125 0 -207 63t-108 167v-607h-150z" />
    <glyph glyph-name="ydieresis" unicode="&#xff;" horiz-adv-x="1073" 
d="M291 -410l166 410l-416 1024h160l336 -827l335 827h160l-581 -1434h-160zM283 1188v184h184v-184h-184zM606 1188v184h185v-184h-185z" />
    <glyph glyph-name="Amacron" unicode="&#x100;" horiz-adv-x="1351" 
d="M82 0l498 1434h192l498 -1434h-162l-160 463h-545l-159 -463h-162zM387 1597v129h578v-129h-578zM457 612h438l-219 633z" />
    <glyph glyph-name="amacron" unicode="&#x101;" horiz-adv-x="1083" 
d="M469 -33q-63 0 -123.5 19.5t-111 56.5t-81 97t-30.5 134q0 161 107.5 240t318.5 107q127 17 170 34q105 41 65 144q-13 34 -42.5 57t-67 33t-67 14t-58.5 4q-122 0 -184 -50.5t-62 -143.5l-160 20q0 81 37 145t97.5 102t130 57.5t141.5 19.5q58 0 111.5 -10t105.5 -34.5
t90 -61.5t61 -94t23 -128v-729h-149v205q-35 -104 -121 -171t-201 -67zM262 1188v129h578v-129h-578zM283 266q0 -61 54.5 -105t131.5 -44q64 0 120 23t102 69.5t73 125.5t27 183v55q-54 -76 -273 -102q-118 -17 -176.5 -71t-58.5 -134z" />
    <glyph glyph-name="Abreve" unicode="&#x102;" horiz-adv-x="1351" 
d="M82 0l498 1434h192l498 -1434h-162l-160 463h-545l-159 -463h-162zM369 1905h131q2 -73 53 -124.5t123 -51.5t123 51.5t53 124.5h131q0 -129 -89.5 -218.5t-217.5 -89.5q-129 0 -218 89.5t-89 218.5zM457 612h438l-219 633z" />
    <glyph glyph-name="abreve" unicode="&#x103;" horiz-adv-x="1083" 
d="M469 -33q-63 0 -123.5 19.5t-111 56.5t-81 97t-30.5 134q0 161 107.5 240t318.5 107q127 17 170 34q105 41 65 144q-13 34 -42.5 57t-67 33t-67 14t-58.5 4q-122 0 -184 -50.5t-62 -143.5l-160 20q0 81 37 145t97.5 102t130 57.5t141.5 19.5q58 0 111.5 -10t105.5 -34.5
t90 -61.5t61 -94t23 -128v-729h-149v205q-35 -104 -121 -171t-201 -67zM244 1495h131q1 -73 52.5 -124.5t123.5 -51.5t123.5 51.5t52.5 124.5h131q0 -129 -89.5 -218t-217.5 -89q-129 0 -218 89t-89 218zM283 266q0 -61 54.5 -105t131.5 -44q64 0 120 23t102 69.5t73 125.5
t27 183v55q-54 -76 -273 -102q-118 -17 -176.5 -71t-58.5 -134z" />
    <glyph glyph-name="Aogonek" unicode="&#x104;" horiz-adv-x="1363" 
d="M82 0l498 1434h192l498 -1434q-55 -31 -86 -73t-31 -85q0 -32 19.5 -52.5t44.5 -20.5q71 0 71 73l117 -20q0 -89 -57 -138t-146 -49q-86 0 -134 52.5t-48 130.5q0 118 121 182h-33l-160 463h-545l-159 -463h-162zM457 612h438l-219 633z" />
    <glyph glyph-name="aogonek" unicode="&#x105;" horiz-adv-x="1116" 
d="M469 -33q-63 0 -123.5 19.5t-111 56.5t-81 97t-30.5 134q0 161 107.5 240t318.5 107q127 17 170 34q105 41 65 144q-13 34 -42.5 57t-67 33t-67 14t-58.5 4q-122 0 -184 -50.5t-62 -143.5l-160 20q0 81 37 145t97.5 102t130 57.5t141.5 19.5q58 0 111.5 -10t105.5 -34.5
t90 -61.5t61 -94t23 -128v-729q-55 -31 -86 -73t-31 -85q0 -32 19.5 -52.5t44.5 -20.5q71 0 71 73l117 -20q0 -89 -57 -138t-146 -49q-86 0 -134 52.5t-48 130.5q0 118 121 182h-20v205q-35 -104 -121 -171t-201 -67zM283 266q0 -61 54.5 -105t131.5 -44q64 0 120 23
t102 69.5t73 125.5t27 183v55q-54 -76 -273 -102q-118 -17 -176.5 -71t-58.5 -134z" />
    <glyph glyph-name="Cacute" unicode="&#x106;" horiz-adv-x="1550" 
d="M782 -33q-83 0 -163 20.5t-154 60t-136 103t-108 144.5t-72 189t-26 233q0 149 37 274t100.5 211.5t148 147t179 88.5t194.5 28q110 0 210 -34t185 -101.5t145.5 -178.5t84.5 -255l-164 -23q-20 94 -57 172t-92.5 139.5t-135 95.5t-176.5 34q-120 0 -216 -47t-157 -129
t-93.5 -190t-32.5 -232t32.5 -232t93.5 -190.5t157 -130t216 -47.5q192 0 308.5 115t154.5 315l162 -21q-23 -143 -83.5 -253t-146 -175.5t-185 -98t-210.5 -32.5zM711 1597l123 308h190l-184 -308h-129z" />
    <glyph glyph-name="cacute" unicode="&#x107;" horiz-adv-x="1179" 
d="M606 -33q-95 0 -180 33.5t-153.5 98t-109 170t-40.5 239.5q0 108 26.5 198.5t72.5 154.5t107.5 108.5t131.5 66t145 21.5q190 0 303.5 -98t147.5 -310l-160 -20q-27 132 -94.5 205t-196.5 73q-81 0 -144.5 -33t-101.5 -90t-57.5 -127t-19.5 -149t19.5 -148t57.5 -124
t101 -87t145 -32q131 0 197.5 67.5t93.5 198.5l160 -21q-34 -208 -147 -301.5t-304 -93.5zM537 1188l122 307h191l-184 -307h-129z" />
    <glyph glyph-name="Ccircumflex" unicode="&#x108;" horiz-adv-x="1550" 
d="M782 -33q-83 0 -163 20.5t-154 60t-136 103t-108 144.5t-72 189t-26 233q0 149 37 274t100.5 211.5t148 147t179 88.5t194.5 28q110 0 210 -34t185 -101.5t145.5 -178.5t84.5 -255l-164 -23q-20 94 -57 172t-92.5 139.5t-135 95.5t-176.5 34q-120 0 -216 -47t-157 -129
t-93.5 -190t-32.5 -232t32.5 -232t93.5 -190.5t157 -130t216 -47.5q192 0 308.5 115t154.5 315l162 -21q-23 -143 -83.5 -253t-146 -175.5t-185 -98t-210.5 -32.5zM506 1597l143 308h234l143 -308h-129l-131 226l-131 -226h-129z" />
    <glyph glyph-name="ccircumflex" unicode="&#x109;" horiz-adv-x="1179" 
d="M606 -33q-95 0 -180 33.5t-153.5 98t-109 170t-40.5 239.5q0 108 26.5 198.5t72.5 154.5t107.5 108.5t131.5 66t145 21.5q190 0 303.5 -98t147.5 -310l-160 -20q-27 132 -94.5 205t-196.5 73q-81 0 -144.5 -33t-101.5 -90t-57.5 -127t-19.5 -149t19.5 -148t57.5 -124
t101 -87t145 -32q131 0 197.5 67.5t93.5 198.5l160 -21q-34 -208 -147 -301.5t-304 -93.5zM330 1188l143 307h234l143 -307h-129l-131 225l-131 -225h-129z" />
    <glyph glyph-name="Cdotaccent" unicode="&#x10a;" horiz-adv-x="1550" 
d="M670 1597v193h192v-193h-192zM123 717q0 149 37 274t100.5 211.5t148 147t179 88.5t194.5 28q110 0 210 -34t185 -101.5t145.5 -178.5t84.5 -255l-164 -23q-20 94 -57 172t-92.5 139.5t-135 95.5t-176.5 34q-120 0 -216 -47t-157 -129t-93.5 -190t-32.5 -232t32.5 -232
t93.5 -190.5t157 -130t216 -47.5q192 0 308.5 115t154.5 315l162 -21q-23 -143 -83.5 -253t-146 -175.5t-185 -98t-210.5 -32.5q-83 0 -163 20.5t-154 60t-136 103t-108 144.5t-72 189t-26 233z" />
    <glyph glyph-name="cdotaccent" unicode="&#x10b;" horiz-adv-x="1179" 
d="M606 -33q-95 0 -180 33.5t-153.5 98t-109 170t-40.5 239.5q0 108 26.5 198.5t72.5 154.5t107.5 108.5t131.5 66t145 21.5q190 0 303.5 -98t147.5 -310l-160 -20q-27 132 -94.5 205t-196.5 73q-81 0 -144.5 -33t-101.5 -90t-57.5 -127t-19.5 -149t19.5 -148t57.5 -124
t101 -87t145 -32q131 0 197.5 67.5t93.5 198.5l160 -21q-34 -208 -147 -301.5t-304 -93.5zM494 1188v192h192v-192h-192z" />
    <glyph glyph-name="Ccaron" unicode="&#x10c;" horiz-adv-x="1550" 
d="M782 -33q-83 0 -163 20.5t-154 60t-136 103t-108 144.5t-72 189t-26 233q0 149 37 274t100.5 211.5t148 147t179 88.5t194.5 28q110 0 210 -34t185 -101.5t145.5 -178.5t84.5 -255l-164 -23q-20 94 -57 172t-92.5 139.5t-135 95.5t-176.5 34q-120 0 -216 -47t-157 -129
t-93.5 -190t-32.5 -232t32.5 -232t93.5 -190.5t157 -130t216 -47.5q192 0 308.5 115t154.5 315l162 -21q-23 -143 -83.5 -253t-146 -175.5t-185 -98t-210.5 -32.5zM506 1905h129l131 -226l131 226h129l-143 -308h-234z" />
    <glyph glyph-name="ccaron" unicode="&#x10d;" horiz-adv-x="1179" 
d="M473 1188l-143 307h129l131 -225l131 225h129l-143 -307h-234zM123 508q0 108 26.5 198.5t72.5 154.5t107.5 108.5t131.5 66t145 21.5q190 0 303.5 -98t147.5 -310l-160 -20q-27 132 -94.5 205t-196.5 73q-81 0 -144.5 -33t-101.5 -90t-57.5 -127t-19.5 -149t19.5 -148
t57.5 -124t101 -87t145 -32q131 0 197.5 67.5t93.5 198.5l160 -21q-34 -208 -147 -301.5t-304 -93.5q-95 0 -180 33.5t-153.5 98t-109 170t-40.5 239.5z" />
    <glyph glyph-name="Dcaron" unicode="&#x10e;" horiz-adv-x="1368" 
d="M184 0v1434h430q59 0 113 -6t119.5 -25.5t119.5 -50.5t107.5 -86.5t90 -128.5t59 -180.5t22.5 -239.5t-22.5 -239.5t-59 -180.5t-90 -128.5t-107.5 -86.5t-119.5 -50.5t-119.5 -25.5t-113 -6h-430zM344 150h250q145 0 240.5 33t151 106t77.5 174.5t22 253.5t-22 253.5
t-77.5 174.5t-151 106t-240.5 33h-250v-1134zM373 1905h129l131 -226l131 226h129l-143 -308h-234z" />
    <glyph glyph-name="dcaron" unicode="&#x10f;" horiz-adv-x="1349" 
d="M578 -33q-105 0 -192 44.5t-143.5 120.5t-88 174t-31.5 206t31.5 206t88 174t143.5 120.5t192 44.5q134 0 221.5 -69.5t113.5 -180.5v627h150v-1434h-150v217q-26 -111 -113.5 -180.5t-221.5 -69.5zM283 512q0 -192 88 -293.5t227 -101.5q132 0 223.5 103t91.5 292
t-91.5 292t-223.5 103t-223.5 -103t-91.5 -292zM1186 1047v88q79 0 99 25.5t20 107.5h-99v164h205v-164q0 -129 -52 -175t-173 -46z" />
    <glyph glyph-name="Dcroat" unicode="&#x110;" horiz-adv-x="1368" 
d="M-20 643v150h204v641h430q59 0 113 -6t119.5 -25.5t119.5 -50.5t107.5 -86.5t90 -128.5t59 -180.5t22.5 -239.5t-22.5 -239.5t-59 -180.5t-90 -128.5t-107.5 -86.5t-119.5 -50.5t-119.5 -25.5t-113 -6h-430v643h-204zM344 150h250q145 0 240.5 33t151 106t77.5 174.5
t22 253.5t-22 253.5t-77.5 174.5t-151 106t-240.5 33h-250v-491h225v-150h-225v-493z" />
    <glyph glyph-name="dcroat" unicode="&#x111;" horiz-adv-x="1226" 
d="M535 1184v106h378v144h150v-144h143v-106h-143v-1184h-150v217q-26 -111 -113.5 -180.5t-221.5 -69.5q-105 0 -192 44.5t-143.5 120.5t-88 174t-31.5 206t31.5 206t88 174t143.5 120.5t192 44.5q134 0 221.5 -69.5t113.5 -180.5v377h-378zM283 512q0 -192 88 -293.5
t227 -101.5q132 0 223.5 103t91.5 292t-91.5 292t-223.5 103t-223.5 -103t-91.5 -292z" />
    <glyph glyph-name="Emacron" unicode="&#x112;" horiz-adv-x="1163" 
d="M184 0v1434h836v-150h-676v-465h574v-149h-574v-520h676v-150h-836zM313 1556v130h578v-130h-578z" />
    <glyph glyph-name="emacron" unicode="&#x113;" horiz-adv-x="1169" 
d="M606 -33q-95 0 -180 33.5t-153.5 98t-109 170t-40.5 239.5q0 108 26.5 198.5t72.5 154.5t107.5 108.5t131.5 66t145 21.5q94 0 173 -34.5t139.5 -101t94.5 -172.5t34 -241v-37h-764q0 -145 88 -249.5t235 -104.5q73 0 126 18.5t82 51t43.5 62t23.5 66.5l159 -20
q-31 -156 -141.5 -242t-292.5 -86zM283 610h604q0 49 -15.5 98.5t-47.5 95.5t-88.5 74.5t-129.5 28.5t-136 -29t-103 -73.5t-62 -96t-22 -98.5zM297 1188v129h577v-129h-577z" />
    <glyph glyph-name="Ebreve" unicode="&#x114;" horiz-adv-x="1163" 
d="M184 0v1434h836v-150h-676v-465h574v-149h-574v-520h676v-150h-836zM295 1864h131q2 -74 53 -125t123 -51t123 51t53 125h131q0 -129 -89.5 -218.5t-217.5 -89.5q-129 0 -218 89.5t-89 218.5z" />
    <glyph glyph-name="ebreve" unicode="&#x115;" horiz-adv-x="1169" 
d="M606 -33q-95 0 -180 33.5t-153.5 98t-109 170t-40.5 239.5q0 108 26.5 198.5t72.5 154.5t107.5 108.5t131.5 66t145 21.5q94 0 173 -34.5t139.5 -101t94.5 -172.5t34 -241v-37h-764q0 -145 88 -249.5t235 -104.5q73 0 126 18.5t82 51t43.5 62t23.5 66.5l159 -20
q-31 -156 -141.5 -242t-292.5 -86zM276 1495h132q2 -73 53 -124.5t123 -51.5t123 51.5t53 124.5h131q0 -129 -89.5 -218t-217.5 -89q-129 0 -218.5 89t-89.5 218zM283 610h604q0 49 -15.5 98.5t-47.5 95.5t-88.5 74.5t-129.5 28.5t-136 -29t-103 -73.5t-62 -96t-22 -98.5z
" />
    <glyph glyph-name="Edotaccent" unicode="&#x116;" horiz-adv-x="1163" 
d="M184 0v1434h836v-150h-676v-465h574v-149h-574v-520h676v-150h-836zM506 1556v193h192v-193h-192z" />
    <glyph glyph-name="edotaccent" unicode="&#x117;" horiz-adv-x="1169" 
d="M606 -33q-95 0 -180 33.5t-153.5 98t-109 170t-40.5 239.5q0 108 26.5 198.5t72.5 154.5t107.5 108.5t131.5 66t145 21.5q94 0 173 -34.5t139.5 -101t94.5 -172.5t34 -241v-37h-764q0 -145 88 -249.5t235 -104.5q73 0 126 18.5t82 51t43.5 62t23.5 66.5l159 -20
q-31 -156 -141.5 -242t-292.5 -86zM283 610h604q0 49 -15.5 98.5t-47.5 95.5t-88.5 74.5t-129.5 28.5t-136 -29t-103 -73.5t-62 -96t-22 -98.5zM489 1188v192h193v-192h-193z" />
    <glyph glyph-name="Eogonek" unicode="&#x118;" horiz-adv-x="1288" 
d="M184 0v1434h836v-150h-676v-465h574v-149h-574v-520h676v-150q-55 -31 -86 -73t-31 -85q0 -32 19.5 -52.5t44.5 -20.5q71 0 71 73l117 -20q0 -89 -57 -138t-146 -49q-86 0 -134 52.5t-48 130.5q0 118 121 182h-707z" />
    <glyph glyph-name="eogonek" unicode="&#x119;" horiz-adv-x="1169" 
d="M723 -365q-86 0 -134 52.5t-48 130.5q0 90 71 149h-6q-95 0 -180 33.5t-153.5 98t-109 170t-40.5 239.5q0 108 26.5 198.5t72.5 154.5t107.5 108.5t131.5 66t145 21.5q94 0 173 -34.5t139.5 -101t94.5 -172.5t34 -241v-37h-764q0 -145 88 -249.5t235 -104.5
q73 0 126 18.5t82 51t43.5 62t23.5 66.5l159 -20q-45 -216 -227 -291q-139 -70 -139 -162q0 -32 19 -52.5t44 -20.5q72 0 72 73l117 -20q0 -89 -57 -138t-146 -49zM283 610h604q0 49 -15.5 98.5t-47.5 95.5t-88.5 74.5t-129.5 28.5t-136 -29t-103 -73.5t-62 -96t-22 -98.5z
" />
    <glyph glyph-name="Ecaron" unicode="&#x11a;" horiz-adv-x="1163" 
d="M184 0v1434h836v-150h-676v-465h574v-149h-574v-520h676v-150h-836zM342 1921h129l131 -225l131 225h129l-143 -307h-234z" />
    <glyph glyph-name="ecaron" unicode="&#x11b;" horiz-adv-x="1169" 
d="M469 1188l-143 307h129l131 -225l131 225h129l-144 -307h-233zM123 508q0 108 26.5 198.5t72.5 154.5t107.5 108.5t131.5 66t145 21.5q94 0 173 -34.5t139.5 -101t94.5 -172.5t34 -241v-37h-764q0 -145 88 -249.5t235 -104.5q73 0 126 18.5t82 51t43.5 62t23.5 66.5
l159 -20q-31 -156 -141.5 -242t-292.5 -86q-95 0 -180 33.5t-153.5 98t-109 170t-40.5 239.5zM283 610h604q0 49 -15.5 98.5t-47.5 95.5t-88.5 74.5t-129.5 28.5t-136 -29t-103 -73.5t-62 -96t-22 -98.5z" />
    <glyph glyph-name="Gcircumflex" unicode="&#x11c;" horiz-adv-x="1617" 
d="M782 -33q-83 0 -163 20.5t-154 60t-136 103t-108 144.5t-72 189t-26 233q0 149 37 274t100.5 211t148 146t179 88t194.5 28q91 0 178 -22t167 -69t143 -114.5t106.5 -164t57.5 -211.5l-160 -21q-13 86 -52 165.5t-99 144.5t-148.5 104t-192.5 39q-120 0 -216 -47
t-157 -129t-93.5 -190t-32.5 -232t32.5 -232t93.5 -190.5t157 -130t216 -47.5q200 0 327.5 118t160.5 300h-498v149h662v-684h-150l35 379q-28 -106 -86.5 -188t-133.5 -129.5t-155 -71t-162 -23.5zM518 1597l144 308h233l143 -308h-129l-131 226l-131 -226h-129z" />
    <glyph glyph-name="gcircumflex" unicode="&#x11d;" horiz-adv-x="1247" 
d="M598 -442q-94 0 -171.5 22.5t-127 56.5t-83.5 77.5t-48 84t-14 76.5l159 21q0 -22 16.5 -51.5t48.5 -61.5t90 -54t130 -22q159 0 237 76.5t78 255.5v186q-24 -114 -111 -186t-224 -72q-105 0 -192 44.5t-143.5 120.5t-88 174t-31.5 206t31.5 206t88 174t143.5 120.5
t192 44.5q137 0 224 -72t111 -186v225h150v-985q0 -248 -110.5 -364.5t-354.5 -116.5zM283 512q0 -189 91.5 -292t223.5 -103t223.5 103t91.5 292t-91.5 292t-223.5 103q-139 0 -227 -101.5t-88 -293.5zM313 1188l144 307h233l144 -307h-129l-132 225l-131 -225h-129z" />
    <glyph glyph-name="Gbreve" unicode="&#x11e;" horiz-adv-x="1617" 
d="M782 -33q-83 0 -163 20.5t-154 60t-136 103t-108 144.5t-72 189t-26 233q0 149 37 274t100.5 211t148 146t179 88t194.5 28q91 0 178 -22t167 -69t143 -114.5t106.5 -164t57.5 -211.5l-160 -21q-13 86 -52 165.5t-99 144.5t-148.5 104t-192.5 39q-120 0 -216 -47
t-157 -129t-93.5 -190t-32.5 -232t32.5 -232t93.5 -190.5t157 -130t216 -47.5q200 0 327.5 118t160.5 300h-498v149h662v-684h-150l35 379q-28 -106 -86.5 -188t-133.5 -129.5t-155 -71t-162 -23.5zM471 1905h131q2 -73 53 -124.5t123 -51.5t123 51.5t53 124.5h131
q0 -129 -89.5 -218.5t-217.5 -89.5q-129 0 -218 89.5t-89 218.5z" />
    <glyph glyph-name="gbreve" unicode="&#x11f;" horiz-adv-x="1247" 
d="M598 -442q-94 0 -171.5 22.5t-127 56.5t-83.5 77.5t-48 84t-14 76.5l159 21q0 -22 16.5 -51.5t48.5 -61.5t90 -54t130 -22q159 0 237 76.5t78 255.5v186q-24 -114 -111 -186t-224 -72q-105 0 -192 44.5t-143.5 120.5t-88 174t-31.5 206t31.5 206t88 174t143.5 120.5
t192 44.5q137 0 224 -72t111 -186v225h150v-985q0 -248 -110.5 -364.5t-354.5 -116.5zM264 1495h131q1 -73 52.5 -124.5t123.5 -51.5t124 51.5t53 124.5h131q0 -129 -90 -218t-218 -89q-129 0 -218 89t-89 218zM283 512q0 -189 91.5 -292t223.5 -103t223.5 103t91.5 292
t-91.5 292t-223.5 103q-139 0 -227 -101.5t-88 -293.5z" />
    <glyph glyph-name="Gdotaccent" unicode="&#x120;" horiz-adv-x="1617" 
d="M782 -33q-83 0 -163 20.5t-154 60t-136 103t-108 144.5t-72 189t-26 233q0 149 37 274t100.5 211t148 146t179 88t194.5 28q91 0 178 -22t167 -69t143 -114.5t106.5 -164t57.5 -211.5l-160 -21q-13 86 -52 165.5t-99 144.5t-148.5 104t-192.5 39q-120 0 -216 -47
t-157 -129t-93.5 -190t-32.5 -232t32.5 -232t93.5 -190.5t157 -130t216 -47.5q200 0 327.5 118t160.5 300h-498v149h662v-684h-150l35 379q-28 -106 -86.5 -188t-133.5 -129.5t-155 -71t-162 -23.5zM682 1597v193h192v-193h-192z" />
    <glyph glyph-name="gdotaccent" unicode="&#x121;" horiz-adv-x="1247" 
d="M598 -442q-94 0 -171.5 22.5t-127 56.5t-83.5 77.5t-48 84t-14 76.5l159 21q0 -22 16.5 -51.5t48.5 -61.5t90 -54t130 -22q159 0 237 76.5t78 255.5v186q-24 -114 -111 -186t-224 -72q-105 0 -192 44.5t-143.5 120.5t-88 174t-31.5 206t31.5 206t88 174t143.5 120.5
t192 44.5q137 0 224 -72t111 -186v225h150v-985q0 -248 -110.5 -364.5t-354.5 -116.5zM283 512q0 -189 91.5 -292t223.5 -103t223.5 103t91.5 292t-91.5 292t-223.5 103q-139 0 -227 -101.5t-88 -293.5zM498 1188v192h192v-192h-192z" />
    <glyph glyph-name="uni0122" unicode="&#x122;" horiz-adv-x="1617" 
d="M782 -33q-83 0 -163 20.5t-154 60t-136 103t-108 144.5t-72 189t-26 233q0 149 37 274t100.5 211t148 146t179 88t194.5 28q91 0 178 -22t167 -69t143 -114.5t106.5 -164t57.5 -211.5l-160 -21q-13 86 -52 165.5t-99 144.5t-148.5 104t-192.5 39q-120 0 -216 -47
t-157 -129t-93.5 -190t-32.5 -232t32.5 -232t93.5 -190.5t157 -130t216 -47.5q200 0 327.5 118t160.5 300h-498v149h662v-684h-150l35 379q-28 -106 -86.5 -188t-133.5 -129.5t-155 -71t-162 -23.5zM645 -549v88q79 0 99 25.5t20 107.5h-98v164h204v-164q0 -129 -52 -175
t-173 -46z" />
    <glyph glyph-name="uni0123" unicode="&#x123;" horiz-adv-x="1247" 
d="M598 -442q-94 0 -171.5 22.5t-127 56.5t-83.5 77.5t-48 84t-14 76.5l159 21q0 -22 16.5 -51.5t48.5 -61.5t90 -54t130 -22q159 0 237 76.5t78 255.5v186q-24 -114 -111 -186t-224 -72q-105 0 -192 44.5t-143.5 120.5t-88 174t-31.5 206t31.5 206t88 174t143.5 120.5
t192 44.5q137 0 224 -72t111 -186v225h150v-985q0 -248 -110.5 -364.5t-354.5 -116.5zM283 512q0 -189 91.5 -292t223.5 -103t223.5 103t91.5 292t-91.5 292t-223.5 103q-139 0 -227 -101.5t-88 -293.5zM481 1188v164q0 129 52.5 175t173.5 46v-88q-79 0 -99 -25.5
t-20 -107.5h98v-164h-205z" />
    <glyph glyph-name="Hcircumflex" unicode="&#x124;" horiz-adv-x="1384" 
d="M1040 0v670h-696v-670h-160v1434h160v-615h696v615h160v-1434h-160zM432 1597l143 308h234l143 -308h-129l-131 226l-131 -226h-129z" />
    <glyph glyph-name="hcircumflex" unicode="&#x125;" horiz-adv-x="1099" 
d="M776 674q0 130 -55 181.5t-156 51.5q-40 0 -77 -11t-76.5 -40.5t-68 -76t-46.5 -124.5t-18 -178v-477h-160v1434h160v-631q26 112 114 183t223 71q162 0 241 -103t79 -280v-674h-160v674zM-61 1597l143 308h233l144 -308h-129l-131 226l-131 -226h-129z" />
    <glyph glyph-name="Hbar" unicode="&#x126;" horiz-adv-x="1343" 
d="M20 1081v127h144v226h160v-226h696v226h160v-226h143v-127h-143v-1081h-160v670h-696v-670h-160v1081h-144zM324 819h696v262h-696v-262z" />
    <glyph glyph-name="hbar" unicode="&#x127;" 
d="M0 1184v106h164v144h160v-144h389v-106h-389v-381q26 111 114.5 182.5t223.5 71.5q162 0 240.5 -103t78.5 -280v-674h-160v674q0 130 -55 181.5t-156 51.5q-40 0 -77 -11t-76.5 -40.5t-68 -76t-46.5 -124.5t-18 -178v-477h-160v1184h-164z" />
    <glyph glyph-name="Itilde" unicode="&#x128;" horiz-adv-x="536" 
d="M188 0v1434h160v-1434h-160zM-61 1618q0 96 54 159.5t148 63.5q42 0 80 -18t60.5 -39.5t48 -39.5t45.5 -18q12 0 22 3t17 7t13 11t9.5 13.5t6 15.5t4 15.5t2 16t0.5 14v12.5v7l149 -20q0 -95 -56.5 -159.5t-146.5 -64.5q-42 0 -79.5 18t-60.5 39.5t-48 39.5t-45 18
q-24 0 -40 -14.5t-22.5 -36.5t-9 -37t-2.5 -27z" />
    <glyph glyph-name="itilde" unicode="&#x129;" horiz-adv-x="495" 
d="M168 0v1024h160v-1024h-160zM-82 1208q0 96 54.5 160t148.5 64q42 0 79.5 -18t60.5 -39.5t48 -39.5t45 -18q12 0 22 3t17 7t13 11t9.5 13.5t6 15.5t4 15.5t2 16t0.5 14v11.5v8l150 -21q0 -94 -56.5 -158.5t-146.5 -64.5q-42 0 -80 18t-60.5 39.5t-48 39.5t-45.5 18
q-24 0 -40 -14.5t-22.5 -36.5t-8.5 -37t-2 -27z" />
    <glyph glyph-name="Imacron" unicode="&#x12a;" horiz-adv-x="536" 
d="M188 0v1434h160v-1434h-160zM-20 1597v129h577v-129h-577z" />
    <glyph glyph-name="imacron" unicode="&#x12b;" horiz-adv-x="487" 
d="M164 0v1024h160v-1024h-160zM-45 1188v129h577v-129h-577z" />
    <glyph glyph-name="Ibreve" unicode="&#x12c;" horiz-adv-x="655" 
d="M248 0v1434h160v-1434h-160zM20 1905h132q2 -73 53 -124.5t123 -51.5t123 51.5t53 124.5h131q0 -129 -89.5 -218.5t-217.5 -89.5q-129 0 -218.5 89.5t-89.5 218.5z" />
    <glyph glyph-name="ibreve" unicode="&#x12d;" horiz-adv-x="368" 
d="M184 1188q-123 0 -184 85t-61 222h131q3 -176 114 -176q112 0 115 176h131q0 -137 -62 -222t-184 -85zM104 0v1024h160v-1024h-160z" />
    <glyph glyph-name="Iogonek" unicode="&#x12e;" horiz-adv-x="610" 
d="M254 0v1434h160v-1434q-55 -31 -86 -73t-31 -85q0 -32 19 -52.5t44 -20.5q72 0 72 73l117 -20q0 -89 -57 -138t-146 -49q-86 0 -134 52.5t-48 130.5q0 118 121 182h-31z" />
    <glyph glyph-name="iogonek" unicode="&#x12f;" horiz-adv-x="487" 
d="M139 1188v192h193v-192h-193zM61 -182q0 118 121 182h-30v1024h159v-1024q-55 -30 -85.5 -72.5t-30.5 -85.5q0 -32 19 -52.5t44 -20.5q72 0 72 73l116 -20q0 -89 -57 -138t-145 -49q-86 0 -134.5 53t-48.5 130z" />
    <glyph glyph-name="Idotaccent" unicode="&#x130;" horiz-adv-x="561" 
d="M201 0v1434h159v-1434h-159zM184 1597v193h193v-193h-193z" />
    <glyph glyph-name="dotlessi" unicode="&#x131;" horiz-adv-x="487" 
d="M164 0v1024h160v-1024h-160z" />
    <glyph glyph-name="Jcircumflex" unicode="&#x134;" horiz-adv-x="1150" 
d="M537 -33q-101 0 -178.5 30t-125.5 80t-78 124t-41.5 153.5t-11.5 177.5h160q0 -213 68 -314t207 -101q274 0 274 334v983h160v-983q0 -484 -434 -484zM631 1597l143 308h234l143 -308h-129l-131 226l-131 -226h-129z" />
    <glyph glyph-name="jcircumflex" unicode="&#x135;" horiz-adv-x="544" 
d="M-61 -410v150h116q87 0 118.5 27.5t31.5 119.5v1137h160v-1180q0 -254 -285 -254h-141zM25 1188l143 307h233l144 -307h-129l-131 225l-131 -225h-129z" />
    <glyph glyph-name="uni0136" unicode="&#x136;" horiz-adv-x="1271" 
d="M184 0v1434h160v-715l623 715h184l-504 -582l563 -852h-184l-481 733l-201 -233v-500h-160zM586 -549v88q79 0 99 25.5t20 107.5h-99v164h205v-164q0 -129 -52 -175t-173 -46z" />
    <glyph glyph-name="uni0137" unicode="&#x137;" horiz-adv-x="1052" 
d="M313 315v-315h-149v1434h149v-908l475 498h189l-367 -391l381 -633h-180l-305 520zM424 -549v88q79 0 99 25.5t20 107.5h-99v164h205v-164q0 -129 -52 -175t-173 -46z" />
    <glyph glyph-name="Lacute" unicode="&#x139;" horiz-adv-x="1112" 
d="M184 0v1434h160v-1284h666v-150h-826zM209 1597l123 308h190l-184 -308h-129z" />
    <glyph glyph-name="lacute" unicode="&#x13a;" horiz-adv-x="522" 
d="M184 0v1454h160v-1454h-160zM188 1597l123 308h191l-185 -308h-129z" />
    <glyph glyph-name="uni013C" unicode="&#x13c;" horiz-adv-x="520" 
d="M176 0v1454h160v-1454h-160zM102 -549v88q79 0 99 25.5t20 107.5h-98v164h205v-164q0 -129 -52.5 -175t-173.5 -46z" />
    <glyph glyph-name="Lcaron" unicode="&#x13d;" horiz-adv-x="1112" 
d="M184 0v1434h160v-1284h666v-150h-826zM614 1026v88q79 0 99 25.5t20 107.5h-98v164h205v-164q0 -129 -52.5 -175t-173.5 -46z" />
    <glyph glyph-name="lcaron" unicode="&#x13e;" horiz-adv-x="651" 
d="M184 0v1454h160v-1454h-160zM487 1047v88q79 0 99 25.5t20 107.5h-98v164h205v-164q0 -129 -52.5 -175t-173.5 -46z" />
    <glyph glyph-name="Ldot" unicode="&#x13f;" horiz-adv-x="1112" 
d="M682 786v205h205v-205h-205zM184 0v1434h160v-1284h666v-150h-826z" />
    <glyph glyph-name="ldot" unicode="&#x140;" horiz-adv-x="782" 
d="M184 0v1454h160v-1454h-160zM528 840v192h193v-192h-193z" />
    <glyph glyph-name="Lslash" unicode="&#x141;" horiz-adv-x="1163" 
d="M20 594v149l216 82v609h159v-547l215 82v-150l-215 -82v-587h666v-150h-825v676z" />
    <glyph glyph-name="lslash" unicode="&#x142;" horiz-adv-x="737" 
d="M82 549v127l227 115v663h160v-584l186 95v-127l-186 -95v-743h-160v664z" />
    <glyph glyph-name="Nacute" unicode="&#x143;" horiz-adv-x="1503" 
d="M184 0v1434h222l753 -1297v1297h160v-1434h-242l-733 1262v-1262h-160zM698 1597l123 308h191l-185 -308h-129z" />
    <glyph glyph-name="nacute" unicode="&#x144;" 
d="M821 674q0 130 -55 181.5t-156 51.5q-40 0 -77 -11t-76.5 -40.5t-68 -76t-46.5 -124.5t-18 -178v-477h-160v1024h160v-221q26 111 114.5 182.5t223.5 71.5q162 0 240.5 -103t78.5 -280v-674h-160v674zM518 1188l123 307h190l-184 -307h-129z" />
    <glyph glyph-name="uni0145" unicode="&#x145;" horiz-adv-x="1503" 
d="M184 0v1434h222l753 -1297v1297h160v-1434h-242l-733 1262v-1262h-160zM618 -549v88q79 0 99 25.5t20 107.5h-98v164h205v-164q0 -129 -52.5 -175t-173.5 -46z" />
    <glyph glyph-name="uni0146" unicode="&#x146;" 
d="M821 674q0 130 -55 181.5t-156 51.5q-40 0 -77 -11t-76.5 -40.5t-68 -76t-46.5 -124.5t-18 -178v-477h-160v1024h160v-221q26 111 114.5 182.5t223.5 71.5q162 0 240.5 -103t78.5 -280v-674h-160v674zM461 -549v88q79 0 99 25.5t20 107.5h-99v164h205v-164
q0 -129 -52 -175t-173 -46z" />
    <glyph glyph-name="Ncaron" unicode="&#x147;" horiz-adv-x="1503" 
d="M184 0v1434h222l753 -1297v1297h160v-1434h-242l-733 1262v-1262h-160zM492 1905h129l131 -226l131 226h129l-144 -308h-233z" />
    <glyph glyph-name="ncaron" unicode="&#x148;" 
d="M821 674q0 130 -55 181.5t-156 51.5q-40 0 -77 -11t-76.5 -40.5t-68 -76t-46.5 -124.5t-18 -178v-477h-160v1024h160v-221q26 111 114.5 182.5t223.5 71.5q162 0 240.5 -103t78.5 -280v-674h-160v674zM313 1495h129l131 -225l132 225h129l-144 -307h-233z" />
    <glyph glyph-name="napostrophe" unicode="&#x149;" horiz-adv-x="1288" 
d="M965 674q0 130 -55 181.5t-156 51.5q-40 0 -77.5 -11t-76.5 -40.5t-67.5 -76t-47 -124.5t-18.5 -178v-477h-160v1024h160v-221q26 111 114.5 182.5t223.5 71.5q162 0 240.5 -103t78.5 -280v-674h-159v674zM0 1047v88q79 0 99 25.5t20 107.5h-99v164h205v-164
q0 -129 -52 -175t-173 -46z" />
    <glyph glyph-name="Eng" unicode="&#x14a;" horiz-adv-x="1503" 
d="M893 -410v150h117q87 0 118 27.5t31 119.5v113h-82l-733 1262v-1262h-160v1434h222l753 -1297v1297h160v-1590q0 -254 -285 -254h-141z" />
    <glyph glyph-name="eng" unicode="&#x14b;" horiz-adv-x="1165" 
d="M555 -410v150h117q87 0 118 27.5t31 119.5v787q0 130 -55 181.5t-156 51.5q-40 0 -77 -11t-76.5 -40.5t-68 -76t-46.5 -124.5t-18 -178v-477h-160v1024h160v-221q26 111 114.5 182.5t223.5 71.5q162 0 240.5 -103t78.5 -280v-830q0 -254 -285 -254h-141z" />
    <glyph glyph-name="Omacron" unicode="&#x14c;" horiz-adv-x="1562" 
d="M782 -33q-83 0 -163 20.5t-154 60t-136 103t-108 144.5t-72 189t-26 233q0 149 37 274t100.5 211.5t148 147t179 88.5t194.5 28t194.5 -28t179 -88.5t147.5 -147t100 -211.5t37 -274t-37 -274t-100 -211.5t-147.5 -147t-179 -89t-194.5 -28.5zM283 717q0 -124 32.5 -232
t93.5 -190.5t157 -130t216 -47.5q159 0 273.5 82.5t169.5 216.5t55 301t-55 301t-169.5 216.5t-273.5 82.5q-120 0 -216 -47.5t-157 -130t-93.5 -190.5t-32.5 -232zM494 1597v129h577v-129h-577z" />
    <glyph glyph-name="omacron" unicode="&#x14d;" horiz-adv-x="1210" 
d="M606 -33q-95 0 -180 33.5t-153.5 98t-109 170t-40.5 239.5q0 108 26.5 198.5t72.5 154.5t107.5 108.5t131.5 66t145 21.5t144.5 -21.5t131 -66t107 -108.5t72 -154.5t26.5 -198.5q0 -134 -40 -239.5t-108.5 -170t-153 -98t-179.5 -33.5zM283 508q0 -178 80.5 -284.5
t242.5 -106.5t243 106.5t81 284.5q0 179 -81.5 289t-242.5 110t-242 -110t-81 -289zM317 1188v129h578v-129h-578z" />
    <glyph glyph-name="Obreve" unicode="&#x14e;" horiz-adv-x="1562" 
d="M782 -33q-83 0 -163 20.5t-154 60t-136 103t-108 144.5t-72 189t-26 233q0 149 37 274t100.5 211.5t148 147t179 88.5t194.5 28t194.5 -28t179 -88.5t147.5 -147t100 -211.5t37 -274t-37 -274t-100 -211.5t-147.5 -147t-179 -89t-194.5 -28.5zM283 717q0 -124 32.5 -232
t93.5 -190.5t157 -130t216 -47.5q159 0 273.5 82.5t169.5 216.5t55 301t-55 301t-169.5 216.5t-273.5 82.5q-120 0 -216 -47.5t-157 -130t-93.5 -190.5t-32.5 -232zM475 1905h131q2 -73 53 -124.5t123 -51.5t123 51.5t53 124.5h132q0 -129 -90 -218.5t-218 -89.5
q-129 0 -218 89.5t-89 218.5z" />
    <glyph glyph-name="obreve" unicode="&#x14f;" horiz-adv-x="1210" 
d="M606 -33q-95 0 -180 33.5t-153.5 98t-109 170t-40.5 239.5q0 108 26.5 198.5t72.5 154.5t107.5 108.5t131.5 66t145 21.5t144.5 -21.5t131 -66t107 -108.5t72 -154.5t26.5 -198.5q0 -134 -40 -239.5t-108.5 -170t-153 -98t-179.5 -33.5zM283 508q0 -178 80.5 -284.5
t242.5 -106.5t243 106.5t81 284.5q0 179 -81.5 289t-242.5 110t-242 -110t-81 -289zM299 1495h131q2 -73 53 -124.5t123 -51.5t123 51.5t53 124.5h131q0 -129 -89.5 -218t-217.5 -89q-129 0 -218 89t-89 218z" />
    <glyph glyph-name="Ohungarumlaut" unicode="&#x150;" horiz-adv-x="1562" 
d="M782 -33q-83 0 -163 20.5t-154 60t-136 103t-108 144.5t-72 189t-26 233q0 149 37 274t100.5 211.5t148 147t179 88.5t194.5 28t194.5 -28t179 -88.5t147.5 -147t100 -211.5t37 -274t-37 -274t-100 -211.5t-147.5 -147t-179 -89t-194.5 -28.5zM283 717q0 -124 32.5 -232
t93.5 -190.5t157 -130t216 -47.5q159 0 273.5 82.5t169.5 216.5t55 301t-55 301t-169.5 216.5t-273.5 82.5q-120 0 -216 -47.5t-157 -130t-93.5 -190.5t-32.5 -232zM571 1597l123 308h191l-185 -308h-129zM885 1597l123 308h190l-184 -308h-129z" />
    <glyph glyph-name="ohungarumlaut" unicode="&#x151;" horiz-adv-x="1210" 
d="M606 -33q-95 0 -180 33.5t-153.5 98t-109 170t-40.5 239.5q0 108 26.5 198.5t72.5 154.5t107.5 108.5t131.5 66t145 21.5t144.5 -21.5t131 -66t107 -108.5t72 -154.5t26.5 -198.5q0 -134 -40 -239.5t-108.5 -170t-153 -98t-179.5 -33.5zM283 508q0 -178 80.5 -284.5
t242.5 -106.5t243 106.5t81 284.5q0 179 -81.5 289t-242.5 110t-242 -110t-81 -289zM395 1188l123 307h191l-185 -307h-129zM709 1188l122 307h191l-184 -307h-129z" />
    <glyph glyph-name="OE" unicode="&#x152;" horiz-adv-x="2279" 
d="M782 -33q-83 0 -163 20.5t-154 60t-136 103t-108 144.5t-72 189t-26 233q0 149 37 274t100.5 211.5t148 147t179 88.5t194.5 28q152 0 289 -66.5t229 -195.5v230h836v-150h-676v-465h574v-149h-574v-520h676v-150h-836v229q-92 -129 -229 -195.5t-289 -66.5zM283 717
q0 -124 32.5 -232t93.5 -190.5t157 -130t216 -47.5q159 0 273.5 82.5t169.5 216.5t55 301t-55 301t-169.5 216.5t-273.5 82.5q-120 0 -216 -47.5t-157 -130t-93.5 -190.5t-32.5 -232z" />
    <glyph glyph-name="oe" unicode="&#x153;" horiz-adv-x="1976" 
d="M606 -33q-95 0 -180 33.5t-153.5 98t-109 170t-40.5 239.5q0 108 26.5 198.5t72.5 154.5t107.5 108.5t131.5 66t145 21.5q124 0 231 -58.5t173 -169.5q66 111 173 169.5t230 58.5q94 0 173 -34.5t139 -101t94 -172.5t34 -241v-37h-763q0 -145 88 -249.5t235 -104.5
q73 0 126 18.5t82 51t43.5 62t23.5 66.5l159 -20q-31 -156 -141.5 -242t-292.5 -86q-124 0 -231 56t-172 165q-65 -109 -172 -165t-232 -56zM283 508q0 -178 80.5 -284.5t242.5 -106.5t243 106.5t81 284.5q0 179 -81.5 289t-242.5 110t-242 -110t-81 -289zM1090 610h604
q0 49 -15.5 98.5t-47.5 95.5t-88.5 74.5t-129.5 28.5t-136 -29t-103 -73.5t-62 -96t-22 -98.5z" />
    <glyph glyph-name="Racute" unicode="&#x154;" horiz-adv-x="1292" 
d="M184 0v1434h451q37 0 78.5 -5.5t98.5 -19t106.5 -42.5t93.5 -71t70 -110.5t26 -153.5q0 -145 -73 -230.5t-187 -107.5q142 -17 195 -94t65 -274l20 -326h-163l-21 356q-3 49 -7 79.5t-14 66t-27.5 56.5t-45.5 40t-71 27t-101 8h-334v-633h-160zM344 782h250
q176 0 265 58.5t89 191.5q0 134 -89.5 193t-264.5 59h-250v-502zM602 1597l123 308h190l-184 -308h-129z" />
    <glyph glyph-name="racute" unicode="&#x155;" horiz-adv-x="780" 
d="M164 0v1024h160v-223q30 103 109 163t179 60h127v-150h-127q-136 0 -212 -98.5t-76 -308.5v-467h-160zM397 1188l123 307h191l-185 -307h-129z" />
    <glyph glyph-name="uni0156" unicode="&#x156;" horiz-adv-x="1292" 
d="M184 0v1434h451q37 0 78.5 -5.5t98.5 -19t106.5 -42.5t93.5 -71t70 -110.5t26 -153.5q0 -145 -73 -230.5t-187 -107.5q142 -17 195 -94t65 -274l20 -326h-163l-21 356q-3 49 -7 79.5t-14 66t-27.5 56.5t-45.5 40t-71 27t-101 8h-334v-633h-160zM344 782h250
q176 0 265 58.5t89 191.5q0 134 -89.5 193t-264.5 59h-250v-502zM524 -549v88q79 0 99 25.5t20 107.5h-98v164h205v-164q0 -129 -52.5 -175t-173.5 -46z" />
    <glyph glyph-name="uni0157" unicode="&#x157;" horiz-adv-x="804" 
d="M188 0v1024h160v-223q30 103 109.5 163t179.5 60h127v-150h-127q-136 0 -212.5 -98.5t-76.5 -308.5v-467h-160zM143 -549v88q79 0 99 25.5t20 107.5h-98v164h205v-164q0 -129 -52.5 -175t-173.5 -46z" />
    <glyph glyph-name="Rcaron" unicode="&#x158;" horiz-adv-x="1292" 
d="M184 0v1434h451q37 0 78.5 -5.5t98.5 -19t106.5 -42.5t93.5 -71t70 -110.5t26 -153.5q0 -145 -73 -230.5t-187 -107.5q142 -17 195 -94t65 -274l20 -326h-163l-21 356q-3 49 -7 79.5t-14 66t-27.5 56.5t-45.5 40t-71 27t-101 8h-334v-633h-160zM344 782h250
q176 0 265 58.5t89 191.5q0 134 -89.5 193t-264.5 59h-250v-502zM397 1905h129l131 -226l131 226h130l-144 -308h-233z" />
    <glyph glyph-name="rcaron" unicode="&#x159;" horiz-adv-x="780" 
d="M164 0v1024h160v-223q30 103 109 163t179 60h127v-150h-127q-136 0 -212 -98.5t-76 -308.5v-467h-160zM193 1495h129l131 -225l131 225h129l-144 -307h-233z" />
    <glyph glyph-name="Sacute" unicode="&#x15a;" horiz-adv-x="1302" 
d="M676 -33q-116 0 -213 36t-168.5 106.5t-111.5 181.5t-40 254l160 20q0 -224 99 -336t274 -112q152 0 237.5 74.5t85.5 199.5q0 67 -21.5 117t-66.5 85t-99.5 57.5t-135.5 43.5q-257 67 -360 159.5t-103 248.5t122.5 260t319.5 104q201 0 320 -114t119 -312l-160 -20
q0 136 -77 216.5t-202 80.5q-127 0 -204.5 -55.5t-77.5 -159.5q0 -103 72.5 -160.5t230.5 -97.5q258 -67 370.5 -169.5t112.5 -283.5q0 -189 -128.5 -306.5t-354.5 -117.5zM598 1597l123 308h190l-184 -308h-129z" />
    <glyph glyph-name="sacute" unicode="&#x15b;" horiz-adv-x="1071" 
d="M553 -33q-193 0 -322 110t-129 302l150 20q0 -88 46 -154t113.5 -97t141.5 -31q116 0 186 41.5t70 128.5q0 45 -13.5 76.5t-41.5 50t-61 28.5t-81 17l-180 24q-122 17 -197 93.5t-75 183.5q0 136 106 216.5t277 80.5q167 0 267.5 -89t100.5 -229l-149 -20q0 92 -56 140
t-163 48q-98 0 -161 -37t-63 -110q0 -60 42 -91.5t135 -45.5l155 -23q143 -21 230.5 -101t87.5 -212q0 -139 -116.5 -229.5t-299.5 -90.5zM465 1188l123 307h190l-184 -307h-129z" />
    <glyph glyph-name="Scircumflex" unicode="&#x15c;" horiz-adv-x="1302" 
d="M676 -33q-116 0 -213 36t-168.5 106.5t-111.5 181.5t-40 254l160 20q0 -224 99 -336t274 -112q152 0 237.5 74.5t85.5 199.5q0 67 -21.5 117t-66.5 85t-99.5 57.5t-135.5 43.5q-257 67 -360 159.5t-103 248.5t122.5 260t319.5 104q201 0 320 -114t119 -312l-160 -20
q0 136 -77 216.5t-202 80.5q-127 0 -204.5 -55.5t-77.5 -159.5q0 -103 72.5 -160.5t230.5 -97.5q258 -67 370.5 -169.5t112.5 -283.5q0 -189 -128.5 -306.5t-354.5 -117.5zM391 1597l144 308h233l143 -308h-129l-131 226l-131 -226h-129z" />
    <glyph glyph-name="scircumflex" unicode="&#x15d;" horiz-adv-x="1071" 
d="M553 -33q-193 0 -322 110t-129 302l150 20q0 -88 46 -154t113.5 -97t141.5 -31q116 0 186 41.5t70 128.5q0 45 -13.5 76.5t-41.5 50t-61 28.5t-81 17l-180 24q-122 17 -197 93.5t-75 183.5q0 136 106 216.5t277 80.5q167 0 267.5 -89t100.5 -229l-149 -20q0 92 -56 140
t-163 48q-98 0 -161 -37t-63 -110q0 -60 42 -91.5t135 -45.5l155 -23q143 -21 230.5 -101t87.5 -212q0 -139 -116.5 -229.5t-299.5 -90.5zM274 1188l144 307h233l144 -307h-129l-131 225l-132 -225h-129z" />
    <glyph glyph-name="Scedilla" unicode="&#x15e;" horiz-adv-x="1302" 
d="M692 -442q-71 0 -123 39.5t-59 105.5l117 21q5 -25 22 -39.5t43 -14.5q31 0 50.5 19.5t19.5 50.5q0 30 -19.5 48.5t-50.5 18.5q-44 0 -59 -34l-105 47l54 153q-201 29 -320 174.5t-119 397.5l160 20q0 -224 99 -336t274 -112q152 0 237.5 74.5t85.5 199.5q0 67 -21.5 117
t-66.5 85t-99.5 57.5t-135.5 43.5q-257 67 -360 159.5t-103 248.5t122.5 260t319.5 104q201 0 320 -114t119 -312l-160 -20q0 136 -77 216.5t-202 80.5q-127 0 -204.5 -55.5t-77.5 -159.5q0 -103 72.5 -160.5t230.5 -97.5q258 -67 370.5 -169.5t112.5 -283.5
q0 -184 -121.5 -300.5t-337.5 -123.5l-16 -45h8q74 0 128 -54t54 -128t-54 -128t-128 -54z" />
    <glyph glyph-name="scedilla" unicode="&#x15f;" horiz-adv-x="1071" 
d="M561 -442q-71 0 -123 39.5t-59 105.5l117 21q5 -25 22 -39.5t43 -14.5q31 0 50.5 19.5t19.5 50.5q0 30 -19.5 48.5t-50.5 18.5q-44 0 -59 -34l-105 47l54 155q-154 27 -251.5 133.5t-97.5 270.5l150 20q0 -88 46 -154t113.5 -97t141.5 -31q116 0 186 41.5t70 128.5
q0 45 -13.5 76.5t-41.5 50t-61 28.5t-81 17l-180 24q-122 17 -197 93.5t-75 183.5q0 136 106 216.5t277 80.5q167 0 267.5 -89t100.5 -229l-149 -20q0 92 -56 140t-163 48q-98 0 -161 -37t-63 -110q0 -60 42 -91.5t135 -45.5l155 -23q143 -21 230.5 -101t87.5 -212
q0 -136 -111.5 -226t-288.5 -94l-16 -45h8q73 0 127.5 -54t54.5 -128t-54.5 -128t-127.5 -54z" />
    <glyph glyph-name="Scaron" unicode="&#x160;" horiz-adv-x="1302" 
d="M676 -33q-116 0 -213 36t-168.5 106.5t-111.5 181.5t-40 254l160 20q0 -224 99 -336t274 -112q152 0 237.5 74.5t85.5 199.5q0 67 -21.5 117t-66.5 85t-99.5 57.5t-135.5 43.5q-257 67 -360 159.5t-103 248.5t122.5 260t319.5 104q201 0 320 -114t119 -312l-160 -20
q0 136 -77 216.5t-202 80.5q-127 0 -204.5 -55.5t-77.5 -159.5q0 -103 72.5 -160.5t230.5 -97.5q258 -67 370.5 -169.5t112.5 -283.5q0 -189 -128.5 -306.5t-354.5 -117.5zM391 1905h129l131 -226l131 226h129l-143 -308h-233z" />
    <glyph glyph-name="scaron" unicode="&#x161;" horiz-adv-x="1071" 
d="M553 -33q-193 0 -322 110t-129 302l150 20q0 -88 46 -154t113.5 -97t141.5 -31q116 0 186 41.5t70 128.5q0 45 -13.5 76.5t-41.5 50t-61 28.5t-81 17l-180 24q-122 17 -197 93.5t-75 183.5q0 136 106 216.5t277 80.5q167 0 267.5 -89t100.5 -229l-149 -20q0 92 -56 140
t-163 48q-98 0 -161 -37t-63 -110q0 -60 42 -91.5t135 -45.5l155 -23q143 -21 230.5 -101t87.5 -212q0 -139 -116.5 -229.5t-299.5 -90.5zM276 1495h130l131 -225l131 225h129l-144 -307h-233z" />
    <glyph glyph-name="uni0162" unicode="&#x162;" horiz-adv-x="1306" 
d="M61 1284v150h1184v-150h-512v-1284h-39l-28 -78h8q74 0 128 -54t54 -128t-54 -128t-128 -54q-71 0 -123 39.5t-59 105.5l116 21q5 -25 22.5 -39.5t43.5 -14.5q31 0 50 19.5t19 50.5t-19 49t-50 18q-45 0 -60 -34l-104 47l63 184v1280h-512z" />
    <glyph glyph-name="uni0163" unicode="&#x163;" horiz-adv-x="784" 
d="M520 0l-41 2l-28 -80h8q73 0 127.5 -54t54.5 -128t-54.5 -128t-127.5 -54q-71 0 -123.5 39.5t-59.5 105.5l117 21q5 -25 22.5 -39.5t43.5 -14.5q31 0 50 19.5t19 50.5t-19 49t-50 18q-45 0 -60 -34l-104 47l72 209q-111 55 -111 225v620h-174v150h174v309l139 21v-330
h267v-150h-267v-577q0 -90 34 -118.5t116 -28.5h117v-150h-142z" />
    <glyph glyph-name="Tcaron" unicode="&#x164;" horiz-adv-x="1306" 
d="M573 0v1284h-512v150h1184v-150h-512v-1284h-160zM393 1905h129l131 -226l131 226h129l-143 -308h-233z" />
    <glyph glyph-name="tcaron" unicode="&#x165;" horiz-adv-x="831" 
d="M520 0q-134 0 -199 61t-65 193v620h-174v150h174v309l139 21v-330h267v-150h-267v-577q0 -90 34 -118.5t116 -28.5h117v-150h-142zM729 1047v88q79 0 99 25.5t20 107.5h-98v164h204v-164q0 -129 -52 -175t-173 -46z" />
    <glyph glyph-name="Tbar" unicode="&#x166;" horiz-adv-x="1306" 
d="M326 659v127h247v498h-512v150h1184v-150h-512v-498h250v-127h-250v-659h-160v659h-247z" />
    <glyph glyph-name="tbar" unicode="&#x167;" horiz-adv-x="784" 
d="M82 498v149h174v227h-174v150h174v309l139 21v-330h267v-150h-267v-227h267v-149h-267v-201q0 -90 34 -118.5t116 -28.5h117v-150h-142q-134 0 -199 61t-65 193v244h-174z" />
    <glyph glyph-name="Utilde" unicode="&#x168;" horiz-adv-x="1382" 
d="M692 -33q-224 0 -366 138.5t-142 390.5v938h160v-938q0 -96 28 -170.5t77 -119t110.5 -67t132.5 -22.5t132 22.5t109.5 67t76.5 118.5t28 171v938h160v-938q0 -128 -38.5 -229t-107 -166.5t-160 -99.5t-200.5 -34zM362 1618q0 96 54.5 159.5t148.5 63.5q42 0 80 -18
t60.5 -39.5t48 -39.5t45.5 -18q13 0 24 3t18.5 9.5t13 13t8.5 16t5.5 17t3 18t0.5 15.5v14v9l150 -20q0 -95 -56.5 -159.5t-146.5 -64.5q-42 0 -79.5 18t-60.5 39.5t-48 39.5t-45 18q-24 0 -40 -14.5t-22.5 -36.5t-9 -37t-2.5 -27z" />
    <glyph glyph-name="utilde" unicode="&#x169;" 
d="M483 -33q-162 0 -240.5 103t-78.5 280v674h160v-674q0 -130 55 -181.5t156 -51.5q40 0 77 11t76.5 40.5t68 76t46.5 124.5t18 178v477h160v-1024h-160v221q-26 -111 -114.5 -182.5t-223.5 -71.5zM242 1208q0 96 54 160t148 64q42 0 80 -18t60.5 -39.5t48 -39.5t45.5 -18
q12 0 22 3t17 7t13 11t9.5 13.5t6 15.5t4 15.5t2 16t0.5 14v11.5v8l149 -21q0 -94 -56.5 -158.5t-146.5 -64.5q-42 0 -79.5 18t-60.5 39.5t-48 39.5t-45 18q-24 0 -40 -14.5t-22.5 -36.5t-9 -37t-2.5 -27z" />
    <glyph glyph-name="Umacron" unicode="&#x16a;" horiz-adv-x="1382" 
d="M692 -33q-224 0 -366 138.5t-142 390.5v938h160v-938q0 -96 28 -170.5t77 -119t110.5 -67t132.5 -22.5t132 22.5t109.5 67t76.5 118.5t28 171v938h160v-938q0 -128 -38.5 -229t-107 -166.5t-160 -99.5t-200.5 -34zM403 1597v129h578v-129h-578z" />
    <glyph glyph-name="umacron" unicode="&#x16b;" 
d="M483 -33q-162 0 -240.5 103t-78.5 280v674h160v-674q0 -130 55 -181.5t156 -51.5q40 0 77 11t76.5 40.5t68 76t46.5 124.5t18 178v477h160v-1024h-160v221q-26 -111 -114.5 -182.5t-223.5 -71.5zM285 1188v129h577v-129h-577z" />
    <glyph glyph-name="Ubreve" unicode="&#x16c;" horiz-adv-x="1382" 
d="M692 -33q-224 0 -366 138.5t-142 390.5v938h160v-938q0 -96 28 -170.5t77 -119t110.5 -67t132.5 -22.5t132 22.5t109.5 67t76.5 118.5t28 171v938h160v-938q0 -128 -38.5 -229t-107 -166.5t-160 -99.5t-200.5 -34zM385 1905h131q2 -73 53 -124.5t123 -51.5t123 51.5
t53 124.5h131q0 -129 -89.5 -218.5t-217.5 -89.5q-129 0 -218 89.5t-89 218.5z" />
    <glyph glyph-name="ubreve" unicode="&#x16d;" 
d="M483 -33q-162 0 -240.5 103t-78.5 280v674h160v-674q0 -130 55 -181.5t156 -51.5q40 0 77 11t76.5 40.5t68 76t46.5 124.5t18 178v477h160v-1024h-160v221q-26 -111 -114.5 -182.5t-223.5 -71.5zM264 1495h131q1 -73 52.5 -124.5t123.5 -51.5t124 51.5t53 124.5h131
q0 -129 -90 -218t-218 -89q-129 0 -218 89t-89 218z" />
    <glyph glyph-name="Uring" unicode="&#x16e;" horiz-adv-x="1382" 
d="M692 -33q-224 0 -366 138.5t-142 390.5v938h160v-938q0 -96 28 -170.5t77 -119t110.5 -67t132.5 -22.5t132 22.5t109.5 67t76.5 118.5t28 171v938h160v-938q0 -128 -38.5 -229t-107 -166.5t-160 -99.5t-200.5 -34zM477 1792q0 88 63.5 151.5t151.5 63.5t151.5 -63.5
t63.5 -151.5t-63.5 -151.5t-151.5 -63.5t-151.5 63.5t-63.5 151.5zM610 1792q0 -35 23.5 -58.5t58.5 -23.5t58.5 23.5t23.5 58.5t-23.5 58.5t-58.5 23.5t-58.5 -23.5t-23.5 -58.5z" />
    <glyph glyph-name="uring" unicode="&#x16f;" 
d="M483 -33q-162 0 -240.5 103t-78.5 280v674h160v-674q0 -130 55 -181.5t156 -51.5q40 0 77 11t76.5 40.5t68 76t46.5 124.5t18 178v477h160v-1024h-160v221q-26 -111 -114.5 -182.5t-223.5 -71.5zM358 1382q0 88 63.5 151.5t151.5 63.5t151.5 -63.5t63.5 -151.5
t-63.5 -151.5t-151.5 -63.5t-151.5 63.5t-63.5 151.5zM492 1382q0 -35 23 -58.5t58 -23.5t58.5 23.5t23.5 58.5t-23.5 58.5t-58.5 23.5t-58 -23.5t-23 -58.5z" />
    <glyph glyph-name="Uhungarumlaut" unicode="&#x170;" horiz-adv-x="1382" 
d="M692 -33q-224 0 -366 138.5t-142 390.5v938h160v-938q0 -96 28 -170.5t77 -119t110.5 -67t132.5 -22.5t132 22.5t109.5 67t76.5 118.5t28 171v938h160v-938q0 -128 -38.5 -229t-107 -166.5t-160 -99.5t-200.5 -34zM481 1597l123 308h191l-185 -308h-129zM795 1597
l123 308h190l-184 -308h-129z" />
    <glyph glyph-name="uhungarumlaut" unicode="&#x171;" horiz-adv-x="1153" 
d="M483 -33q-162 0 -240.5 103t-78.5 280v674h160v-674q0 -130 55 -181.5t156 -51.5q40 0 77 11t76.5 40.5t68 76t46.5 124.5t18 178v477h160v-1024h-160v221q-26 -111 -114.5 -182.5t-223.5 -71.5zM362 1188l123 307h191l-184 -307h-130zM676 1188l123 307h190l-184 -307
h-129z" />
    <glyph glyph-name="Uogonek" unicode="&#x172;" horiz-adv-x="1382" 
d="M733 -365q-86 0 -134 52.5t-48 130.5q0 89 76 153q-198 20 -320.5 156t-122.5 369v938h160v-938q0 -96 28 -170.5t77 -119t110.5 -67t132.5 -22.5t132 22.5t109.5 67t76.5 118.5t28 171v938h160v-938q0 -205 -93.5 -335t-252.5 -173q-168 -44 -168 -146q0 -32 19.5 -52.5
t44.5 -20.5q71 0 71 73l117 -20q0 -89 -57 -138t-146 -49z" />
    <glyph glyph-name="uogonek" unicode="&#x173;" horiz-adv-x="1280" 
d="M483 -33q-162 0 -240.5 103t-78.5 280v674h160v-674q0 -130 55 -181.5t156 -51.5q40 0 77 11t76.5 40.5t68 76t46.5 124.5t18 178v477h160v-1024q-55 -31 -86 -73t-31 -85q0 -32 19.5 -52.5t44.5 -20.5q71 0 71 73l117 -20q0 -89 -57 -138t-146 -49q-86 0 -134 52.5
t-48 130.5q0 118 121 182h-31v221q-26 -111 -114.5 -182.5t-223.5 -71.5z" />
    <glyph glyph-name="Wcircumflex" unicode="&#x174;" horiz-adv-x="1794" 
d="M434 0l-352 1434h160l311 -1264l274 1264h140l274 -1264l311 1264h160l-352 -1434h-221l-242 1108l-242 -1108h-221zM637 1597l143 308h234l143 -308h-129l-131 226l-131 -226h-129z" />
    <glyph glyph-name="wcircumflex" unicode="&#x175;" horiz-adv-x="1583" 
d="M332 0l-250 1024h149l207 -852l279 852h149l279 -852l207 852h149l-250 -1024h-190l-268 825l-271 -825h-190zM530 1188l144 307h233l144 -307h-129l-131 225l-132 -225h-129z" />
    <glyph glyph-name="Ycircumflex" unicode="&#x176;" horiz-adv-x="1179" 
d="M324 0l182 416l-445 1018h160l369 -824l358 824h170l-624 -1434h-170zM330 1597l143 308h234l143 -308h-129l-131 226l-131 -226h-129z" />
    <glyph glyph-name="ycircumflex" unicode="&#x177;" horiz-adv-x="1073" 
d="M276 1188l144 307h233l144 -307h-129l-131 225l-131 -225h-130zM41 1024h160l336 -827l335 827h160l-581 -1434h-160l166 410z" />
    <glyph glyph-name="Ydieresis" unicode="&#x178;" horiz-adv-x="1179" 
d="M324 0l182 416l-445 1018h160l369 -824l358 824h170l-624 -1434h-170zM336 1597v185h184v-185h-184zM659 1597v185h185v-185h-185z" />
    <glyph glyph-name="Zacute" unicode="&#x179;" horiz-adv-x="1228" 
d="M164 150l725 1134h-725v150h901v-150l-725 -1134h725v-150h-901v150zM561 1597l123 308h190l-184 -308h-129z" />
    <glyph glyph-name="zacute" unicode="&#x17a;" horiz-adv-x="1017" 
d="M102 139l635 746h-635v139h813v-139l-632 -746h632v-139h-813v139zM455 1188l123 307h190l-184 -307h-129z" />
    <glyph glyph-name="Zdotaccent" unicode="&#x17b;" horiz-adv-x="1228" 
d="M164 150l725 1134h-725v150h901v-150l-725 -1134h725v-150h-901v150zM518 1597v193h193v-193h-193z" />
    <glyph glyph-name="zdotaccent" unicode="&#x17c;" horiz-adv-x="1017" 
d="M102 139l635 746h-635v139h813v-139l-632 -746h632v-139h-813v139zM412 1188v192h192v-192h-192z" />
    <glyph glyph-name="Zcaron" unicode="&#x17d;" horiz-adv-x="1228" 
d="M164 150l725 1134h-725v150h901v-150l-725 -1134h725v-150h-901v150zM354 1905h129l131 -226l131 226h129l-143 -308h-233z" />
    <glyph glyph-name="zcaron" unicode="&#x17e;" horiz-adv-x="1017" 
d="M102 139l635 746h-635v139h813v-139l-632 -746h632v-139h-813v139zM250 1495h129l131 -225l131 225h129l-143 -307h-234z" />
    <glyph glyph-name="florin" unicode="&#x192;" horiz-adv-x="897" 
d="M20 -442v149h117q36 0 57 4t38.5 15t26.5 36t15.5 60t12.5 94l80 795h-197v149h211l29 279q18 176 83.5 245.5t200.5 69.5h142v-149h-117q-36 0 -57 -4t-38.5 -15t-26.5 -36t-15.5 -60t-12.5 -94l-24 -236h215v-149h-230l-84 -838q-18 -176 -83.5 -245.5t-200.5 -69.5
h-142z" />
    <glyph glyph-name="AEacute" unicode="&#x1fc;" horiz-adv-x="1751" 
d="M82 0l498 1434h1048v-150h-805l162 -465h541v-149h-490l183 -520h409v-150h-520l-160 463h-545l-159 -463h-162zM457 612h438l-219 633zM623 1597l122 308h191l-184 -308h-129z" />
    <glyph glyph-name="aeacute" unicode="&#x1fd;" horiz-adv-x="1837" 
d="M469 -33q-63 0 -123.5 19.5t-111 56.5t-81 97t-30.5 134q0 161 107.5 240t318.5 107q127 17 170 34q105 41 65 144q-13 34 -42.5 57t-67 33t-67 14t-58.5 4q-122 0 -184 -50.5t-62 -143.5l-160 20q0 81 37 145t97.5 102t130 57.5t141.5 19.5q115 0 212.5 -42.5
t143.5 -131.5q67 85 164.5 129.5t204.5 44.5q94 0 173 -34.5t139 -101t94 -172.5t34 -241v-37h-764q0 -94 37.5 -173.5t112.5 -130t174 -50.5q59 0 105.5 13t74 32.5t48 48t30 52t16.5 52.5l160 -20q-31 -156 -141.5 -242t-292.5 -86q-138 0 -254.5 70.5t-177.5 206.5
q-27 -129 -131 -203t-242 -74zM283 266q0 -61 54.5 -105t131.5 -44q64 0 120 23t102 69.5t73 125.5t27 183v55q-54 -76 -273 -102q-118 -17 -176.5 -71t-58.5 -134zM864 1188l123 307h191l-185 -307h-129zM950 610h604q0 49 -15.5 98.5t-47 95.5t-88 74.5t-129.5 28.5
q-97 0 -173.5 -49.5t-113.5 -116t-37 -131.5z" />
    <glyph glyph-name="Oslashacute" unicode="&#x1fe;" horiz-adv-x="1562" 
d="M20 -135l265 336q-162 200 -162 516q0 149 37 274t100.5 211.5t148 147t179 88.5t194.5 28q226 0 396 -133l184 234h180l-262 -334q160 -202 160 -516q0 -149 -37 -274t-100 -211.5t-147.5 -147t-179 -89t-194.5 -28.5q-225 0 -395 133l-186 -235h-181zM283 717
q0 -230 102 -389l698 886q-128 103 -301 103q-120 0 -216 -47.5t-157 -130t-93.5 -190.5t-32.5 -232zM481 219q126 -102 301 -102q159 0 273.5 82.5t169.5 216.5t55 301q0 230 -102 389zM727 1597l123 308h190l-184 -308h-129z" />
    <glyph glyph-name="oslashacute" unicode="&#x1ff;" horiz-adv-x="1374" 
d="M82 -135l229 282q-106 141 -106 361q0 108 26.5 198.5t72.5 154.5t107.5 108.5t131.5 66t145 21.5q163 0 285 -94l160 196h159l-231 -285q108 -143 108 -366q0 -134 -40 -239.5t-108.5 -170t-153 -98t-179.5 -33.5q-162 0 -289 92l-157 -194h-160zM365 508
q0 -138 49 -236l467 576q-78 59 -193 59q-161 0 -242 -110t-81 -289zM494 176q74 -59 194 -59q162 0 243 106.5t81 284.5q0 146 -51 242zM633 1188l123 307h190l-184 -307h-129z" />
    <glyph glyph-name="uni0218" unicode="&#x218;" horiz-adv-x="1302" 
d="M676 -33q-116 0 -213 36t-168.5 106.5t-111.5 181.5t-40 254l160 20q0 -224 99 -336t274 -112q152 0 237.5 74.5t85.5 199.5q0 67 -21.5 117t-66.5 85t-99.5 57.5t-135.5 43.5q-257 67 -360 159.5t-103 248.5t122.5 260t319.5 104q201 0 320 -114t119 -312l-160 -20
q0 136 -77 216.5t-202 80.5q-127 0 -204.5 -55.5t-77.5 -159.5q0 -103 72.5 -160.5t230.5 -97.5q258 -67 370.5 -169.5t112.5 -283.5q0 -189 -128.5 -306.5t-354.5 -117.5zM518 -549v88q79 0 99 25.5t20 107.5h-98v164h204v-164q0 -129 -52 -175t-173 -46z" />
    <glyph glyph-name="uni0218" unicode="&#x219;" horiz-adv-x="1302" 
d="M676 -33q-116 0 -213 36t-168.5 106.5t-111.5 181.5t-40 254l160 20q0 -224 99 -336t274 -112q152 0 237.5 74.5t85.5 199.5q0 67 -21.5 117t-66.5 85t-99.5 57.5t-135.5 43.5q-257 67 -360 159.5t-103 248.5t122.5 260t319.5 104q201 0 320 -114t119 -312l-160 -20
q0 136 -77 216.5t-202 80.5q-127 0 -204.5 -55.5t-77.5 -159.5q0 -103 72.5 -160.5t230.5 -97.5q258 -67 370.5 -169.5t112.5 -283.5q0 -189 -128.5 -306.5t-354.5 -117.5zM518 -549v88q79 0 99 25.5t20 107.5h-98v164h204v-164q0 -129 -52 -175t-173 -46z" />
    <glyph glyph-name="uni021A" unicode="&#x21a;" horiz-adv-x="1306" 
d="M573 0v1284h-512v150h1184v-150h-512v-1284h-160zM520 -549v88q79 0 99 25.5t20 107.5h-98v164h204v-164q0 -129 -52 -175t-173 -46z" />
    <glyph glyph-name="uni021B" unicode="&#x21b;" horiz-adv-x="784" 
d="M520 0q-134 0 -199 61t-65 193v620h-174v150h174v309l139 21v-330h267v-150h-267v-577q0 -90 34 -118.5t116 -28.5h117v-150h-142zM315 -549v88q79 0 99 25.5t20 107.5h-98v164h205v-164q0 -129 -52.5 -175t-173.5 -46z" />
    <glyph glyph-name="uni0237" unicode="&#x237;" horiz-adv-x="548" 
d="M-61 -410v150h116q87 0 118.5 27.5t31.5 119.5v1137h160v-1180q0 -254 -285 -254h-141z" />
    <glyph glyph-name="uni0259" unicode="&#x259;" horiz-adv-x="1169" 
d="M563 1057q95 0 180 -33.5t154 -98t109.5 -170t40.5 -239.5q0 -108 -26.5 -198.5t-73 -154.5t-108 -108.5t-131.5 -66t-145 -21.5q-94 0 -173 34.5t-139 101t-94 172.5t-34 241v37h764q0 94 -37.5 173.5t-112.5 130t-174 50.5q-59 0 -105.5 -13t-74 -32.5t-48 -48t-30 -52
t-16.5 -52.5l-160 20q31 156 141.5 242t292.5 86zM283 414q0 -49 15.5 -98.5t47 -95.5t88 -74.5t129.5 -28.5q97 0 173.5 49.5t113.5 116t37 131.5h-604z" />
    <glyph glyph-name="circumflex" unicode="&#x2c6;" horiz-adv-x="1093" 
d="M287 1188l143 307h234l143 -307h-129l-131 225l-131 -225h-129z" />
    <glyph glyph-name="caron" unicode="&#x2c7;" horiz-adv-x="1093" 
d="M430 1188l-143 307h129l131 -225l131 225h129l-143 -307h-234z" />
    <glyph glyph-name="gravecomb" unicode="&#x300;" horiz-adv-x="0" 
d="M471 1188l-184 307h190l123 -307h-129z" />
    <glyph glyph-name="acutecomb" unicode="&#x301;" horiz-adv-x="0" 
d="M287 1188l123 307h190l-184 -307h-129z" />
    <glyph glyph-name="tildecomb" unicode="&#x303;" horiz-adv-x="0" 
d="M287 1208q0 96 54 160t148 64q42 0 80 -18t60.5 -39.5t48 -39.5t45.5 -18q12 0 22 3t17 7t13 11t9.5 13.5t6 15.5t4 15.5t2 16t0.5 14v11.5v8l149 -21q0 -94 -56.5 -158.5t-146.5 -64.5q-42 0 -79.5 18t-60.5 39.5t-48 39.5t-45 18q-24 0 -40 -14.5t-22.5 -36.5t-9 -37
t-2.5 -27z" />
    <glyph glyph-name="uni0304" unicode="&#x304;" horiz-adv-x="0" 
d="M287 1188v129h577v-129h-577z" />
    <glyph glyph-name="uni0306" unicode="&#x306;" horiz-adv-x="0" 
d="M594 1188q-129 0 -218 89t-89 218h131q2 -73 53 -124.5t123 -51.5t123 51.5t53 124.5h131q0 -129 -89.5 -218t-217.5 -89z" />
    <glyph glyph-name="uni0307" unicode="&#x307;" horiz-adv-x="0" 
d="M287 1188v192h192v-192h-192z" />
    <glyph glyph-name="uni0308" unicode="&#x308;" horiz-adv-x="0" 
d="M610 1188v184h185v-184h-185zM287 1188v184h184v-184h-184z" />
    <glyph glyph-name="uni030A" unicode="&#x30a;" horiz-adv-x="0" 
d="M502 1180q-88 0 -151.5 63.5t-63.5 151.5t63.5 151.5t151.5 63.5t151.5 -63.5t63.5 -151.5t-63.5 -151.5t-151.5 -63.5zM420 1395q0 -35 23.5 -58.5t58.5 -23.5t58.5 23.5t23.5 58.5t-23.5 58.5t-58.5 23.5t-58.5 -23.5t-23.5 -58.5z" />
    <glyph glyph-name="uni030B" unicode="&#x30b;" horiz-adv-x="0" 
d="M600 1188l123 307h190l-184 -307h-129zM287 1188l123 307h190l-184 -307h-129z" />
    <glyph glyph-name="uni0312" unicode="&#x312;" horiz-adv-x="0" 
d="M287 1335q0 129 52 175t173 46v-88q-79 0 -99 -25.5t-20 -107.5h99v-164h-205v164z" />
    <glyph glyph-name="uni0326" unicode="&#x326;" horiz-adv-x="0" 
d="M287 -461q79 0 99 25.5t20 107.5h-99v164h205v-164q0 -129 -52 -175t-173 -46v88z" />
    <glyph glyph-name="uni0327" unicode="&#x327;" horiz-adv-x="0" 
d="M469 -442q-71 0 -123 39.5t-59 105.5l116 21q5 -25 22.5 -39.5t43.5 -14.5q31 0 50.5 19.5t19.5 50.5q0 30 -19.5 48.5t-50.5 18.5q-44 0 -59 -34l-105 47l101 293h122l-67 -191h8q73 0 127.5 -54t54.5 -128t-54.5 -128t-127.5 -54z" />
    <glyph glyph-name="uni0328" unicode="&#x328;" horiz-adv-x="0" 
d="M469 -365q-86 0 -134 52.5t-48 130.5q0 118 121 182h129q-55 -31 -86 -73t-31 -85q0 -32 19 -52.5t44 -20.5q72 0 72 73l117 -20q0 -89 -57 -138t-146 -49z" />
    <glyph glyph-name="uni03A9" unicode="&#x3a9;" horiz-adv-x="1597" 
d="M82 0v152h393q-55 42 -101 85t-93.5 104.5t-80 128t-53 154t-20.5 183.5q0 185 81.5 334t236 237t354.5 88q151 0 277.5 -51t212.5 -140t133.5 -209.5t47.5 -258.5q0 -96 -20.5 -183.5t-53 -154t-80 -128t-93.5 -104.5t-101 -85h394v-152h-594v152q198 165 293 315
t96 340q1 135 -57.5 250t-177.5 187.5t-277 72.5q-119 0 -217.5 -42t-162 -113.5t-98 -162.5t-34.5 -192q0 -98 25.5 -184.5t78 -166.5t120 -151.5t165.5 -152.5v-152h-594z" />
    <glyph glyph-name="uni03BC" unicode="&#x3bc;" 
d="M483 -33q-94 0 -159 35v-412h-160v1434h160v-674q0 -130 55 -181.5t156 -51.5q40 0 77 11t76.5 40.5t68 76t46.5 124.5t18 178v477h160v-1024h-160v221q-26 -111 -114.5 -182.5t-223.5 -71.5z" />
    <glyph glyph-name="pi" unicode="&#x3c0;" horiz-adv-x="1454" 
d="M1169 0q-134 0 -199 61t-65 193v641h-377v-895h-159v895h-205v129h1106v-129h-205v-598q0 -93 25.5 -120t103.5 -27h76v-150h-101z" />
    <glyph glyph-name="uni1E20" unicode="&#x1e20;" horiz-adv-x="1617" 
d="M782 -33q-83 0 -163 20.5t-154 60t-136 103t-108 144.5t-72 189t-26 233q0 149 37 274t100.5 211t148 146t179 88t194.5 28q91 0 178 -22t167 -69t143 -114.5t106.5 -164t57.5 -211.5l-160 -21q-13 86 -52 165.5t-99 144.5t-148.5 104t-192.5 39q-120 0 -216 -47
t-157 -129t-93.5 -190t-32.5 -232t32.5 -232t93.5 -190.5t157 -130t216 -47.5q200 0 327.5 118t160.5 300h-498v149h662v-684h-150l35 379q-28 -106 -86.5 -188t-133.5 -129.5t-155 -71t-162 -23.5zM489 1597v129h578v-129h-578z" />
    <glyph glyph-name="uni1E21" unicode="&#x1e21;" horiz-adv-x="1247" 
d="M598 -442q-94 0 -171.5 22.5t-127 56.5t-83.5 77.5t-48 84t-14 76.5l159 21q0 -22 16.5 -51.5t48.5 -61.5t90 -54t130 -22q159 0 237 76.5t78 255.5v186q-24 -114 -111 -186t-224 -72q-105 0 -192 44.5t-143.5 120.5t-88 174t-31.5 206t31.5 206t88 174t143.5 120.5
t192 44.5q137 0 224 -72t111 -186v225h150v-985q0 -248 -110.5 -364.5t-354.5 -116.5zM283 512q0 -189 91.5 -292t223.5 -103t223.5 103t91.5 292t-91.5 292t-223.5 103q-139 0 -227 -101.5t-88 -293.5zM305 1188v129h578v-129h-578z" />
    <glyph glyph-name="Wgrave" unicode="&#x1e80;" horiz-adv-x="1794" 
d="M434 0l-352 1434h160l311 -1264l274 1264h140l274 -1264l311 1264h160l-352 -1434h-221l-242 1108l-242 -1108h-221zM639 1905h190l123 -308h-129z" />
    <glyph glyph-name="wgrave" unicode="&#x1e81;" horiz-adv-x="1583" 
d="M332 0l-250 1024h149l207 -852l279 852h149l279 -852l207 852h149l-250 -1024h-190l-268 825l-271 -825h-190zM532 1495h191l123 -307h-129z" />
    <glyph glyph-name="Wacute" unicode="&#x1e82;" horiz-adv-x="1794" 
d="M434 0l-352 1434h160l311 -1264l274 1264h140l274 -1264l311 1264h160l-352 -1434h-221l-242 1108l-242 -1108h-221zM844 1597l123 308h190l-184 -308h-129z" />
    <glyph glyph-name="wacute" unicode="&#x1e83;" horiz-adv-x="1583" 
d="M332 0l-250 1024h149l207 -852l279 852h149l279 -852l207 852h149l-250 -1024h-190l-268 825l-271 -825h-190zM737 1188l123 307h191l-185 -307h-129z" />
    <glyph glyph-name="Wdieresis" unicode="&#x1e84;" horiz-adv-x="1794" 
d="M434 0l-352 1434h160l311 -1264l274 1264h140l274 -1264l311 1264h160l-352 -1434h-221l-242 1108l-242 -1108h-221zM623 1597v185h184v-185h-184zM946 1597v185h184v-185h-184z" />
    <glyph glyph-name="wdieresis" unicode="&#x1e85;" horiz-adv-x="1583" 
d="M332 0l-250 1024h149l207 -852l279 852h149l279 -852l207 852h149l-250 -1024h-190l-268 825l-271 -825h-190zM537 1188v184h184v-184h-184zM860 1188v184h184v-184h-184z" />
    <glyph glyph-name="uni1E9E" unicode="&#x1e9e;" horiz-adv-x="1335" 
d="M590 0v156h102q52 0 100.5 8.5t96 29t82.5 51t56.5 78.5t21.5 107q0 73 -32 128t-85.5 84.5t-113.5 43.5t-126 14h-102v156l350 438h-596v-1294h-160v1434h779q48 0 83.5 -22.5t51 -56t9 -75.5t-37.5 -78l-303 -356q205 -19 325.5 -128.5t120.5 -287.5q0 -198 -142 -314
t-378 -116h-102z" />
    <glyph glyph-name="uni1EBC" unicode="&#x1ebc;" horiz-adv-x="1163" 
d="M184 0v1434h836v-150h-676v-465h574v-149h-574v-520h676v-150h-836zM272 1577q0 96 54.5 159.5t148.5 63.5q42 0 80 -18t60.5 -39t48 -39t45.5 -18q13 0 24 3t18.5 9t13 12.5t8.5 16.5t5.5 17t3 17.5t0.5 15.5v14v9l150 -20q0 -95 -56.5 -159.5t-146.5 -64.5
q-42 0 -79.5 18t-60.5 39.5t-48 39.5t-45 18q-24 0 -40 -14.5t-22.5 -36.5t-9 -37t-2.5 -27z" />
    <glyph glyph-name="uni1EBD" unicode="&#x1ebd;" horiz-adv-x="1169" 
d="M606 -33q-95 0 -180 33.5t-153.5 98t-109 170t-40.5 239.5q0 108 26.5 198.5t72.5 154.5t107.5 108.5t131.5 66t145 21.5q94 0 173 -34.5t139.5 -101t94.5 -172.5t34 -241v-37h-764q0 -145 88 -249.5t235 -104.5q73 0 126 18.5t82 51t43.5 62t23.5 66.5l159 -20
q-31 -156 -141.5 -242t-292.5 -86zM254 1208q0 96 54.5 160t148.5 64q42 0 79.5 -18t60.5 -39.5t48 -39.5t45 -18q12 0 22 3t17 7t13 11t9.5 13.5t6 15.5t4 15.5t2 16t0.5 14v11.5v8l149 -21q0 -95 -56 -159t-146 -64q-42 0 -80 18t-60.5 39.5t-48 39.5t-45.5 18
q-24 0 -40 -14.5t-22.5 -36.5t-9 -37t-2.5 -27zM283 610h604q0 49 -15.5 98.5t-47.5 95.5t-88.5 74.5t-129.5 28.5t-136 -29t-103 -73.5t-62 -96t-22 -98.5z" />
    <glyph glyph-name="Ygrave" unicode="&#x1ef2;" horiz-adv-x="1179" 
d="M324 0l182 416l-445 1018h160l369 -824l358 824h170l-624 -1434h-170zM332 1905h190l123 -308h-129z" />
    <glyph glyph-name="ygrave" unicode="&#x1ef3;" horiz-adv-x="1073" 
d="M463 1188l-184 307h190l123 -307h-129zM41 1024h160l336 -827l335 827h160l-581 -1434h-160l166 410z" />
    <glyph glyph-name="uni1EF8" unicode="&#x1ef8;" horiz-adv-x="1179" 
d="M324 0l182 416l-445 1018h160l369 -824l358 824h170l-624 -1434h-170zM260 1618q0 96 54.5 159.5t148.5 63.5q42 0 79.5 -18t60.5 -39.5t48 -39.5t45 -18q12 0 22 3t17 7t13 11t9.5 13.5t6 15.5t4 15.5t2 16t0.5 14v12.5v7l150 -20q0 -95 -56.5 -159.5t-146.5 -64.5
q-42 0 -80 18t-60.5 39.5t-48 39.5t-45.5 18q-24 0 -40 -14.5t-22.5 -36.5t-8.5 -37t-2 -27z" />
    <glyph glyph-name="uni1EF9" unicode="&#x1ef9;" horiz-adv-x="1073" 
d="M291 -410l166 410l-416 1024h160l336 -827l335 827h160l-581 -1434h-160zM207 1208q0 96 54.5 160t148.5 64q42 0 79.5 -18t60.5 -39.5t48 -39.5t45 -18q12 0 22 3t17 7t13 11t9.5 13.5t6 15.5t4 15.5t2 16t0.5 14v11.5v8l149 -21q0 -95 -56 -159t-146 -64q-42 0 -80 18
t-60.5 39.5t-48 39.5t-45.5 18q-24 0 -40 -14.5t-22.5 -36.5t-9 -37t-2.5 -27z" />
    <glyph glyph-name="endash" unicode="&#x2013;" horiz-adv-x="1382" 
d="M164 530v150h1055v-150h-1055z" />
    <glyph glyph-name="emdash" unicode="&#x2014;" horiz-adv-x="1792" 
d="M164 530v150h1464v-150h-1464z" />
    <glyph glyph-name="quoteleft" unicode="&#x2018;" horiz-adv-x="593" 
d="M430 1364q-79 0 -109 -48t-30 -147h98v-204h-205v204q0 283 246 283v-88z" />
    <glyph glyph-name="quoteright" unicode="&#x2019;" horiz-adv-x="593" 
d="M164 1053q79 0 109 47.5t30 146.5h-98v205h205v-205q0 -282 -246 -282v88z" />
    <glyph glyph-name="quotedblleft" unicode="&#x201c;" horiz-adv-x="901" 
d="M799 1364q-79 0 -109.5 -48t-30.5 -147h99v-204h-205v204q0 283 246 283v-88zM184 965v204q0 283 246 283v-88q-79 0 -109 -48t-30 -147h98v-204h-205z" />
    <glyph glyph-name="quotedblright" unicode="&#x201d;" horiz-adv-x="901" 
d="M471 1053q79 0 109 47.5t30 146.5h-98v205h205v-205q0 -282 -246 -282v88zM102 965v88q79 0 109.5 47.5t30.5 146.5h-99v205h205v-205q0 -282 -246 -282z" />
    <glyph glyph-name="bullet" unicode="&#x2022;" horiz-adv-x="757" 
d="M379 315q-88 0 -151.5 63.5t-63.5 151.5t63.5 151.5t151.5 63.5t151.5 -63.5t63.5 -151.5t-63.5 -151.5t-151.5 -63.5z" />
    <glyph glyph-name="ellipsis" unicode="&#x2026;" horiz-adv-x="1474" 
d="M184 0v205h205v-205h-205zM635 0v205h205v-205h-205zM1085 0v205h205v-205h-205z" />
    <glyph glyph-name="perthousand" unicode="&#x2030;" horiz-adv-x="2396" 
d="M184 0l1073 1466h177l-1074 -1466h-176zM82 1118q0 141 103.5 244.5t244.5 103.5t244.5 -103.5t103.5 -244.5t-103.5 -244.5t-244.5 -103.5t-244.5 103.5t-103.5 244.5zM231 1118q0 -79 59.5 -138.5t139.5 -59.5t139.5 59.5t59.5 138.5q0 80 -59.5 139.5t-139.5 59.5
t-139.5 -59.5t-59.5 -139.5zM840 315q0 141 103.5 245t244.5 104t244.5 -104t103.5 -245t-103.5 -244.5t-244.5 -103.5t-244.5 103.5t-103.5 244.5zM989 315q0 -79 59.5 -138.5t139.5 -59.5t139 59.5t59 138.5q0 80 -59.5 139.5t-138.5 59.5q-80 0 -139.5 -60t-59.5 -139z
M1618 315q0 141 103.5 245t244.5 104t244.5 -104t103.5 -245t-103.5 -244.5t-244.5 -103.5t-244.5 103.5t-103.5 244.5zM1767 315q0 -79 59.5 -138.5t139.5 -59.5t139.5 59.5t59.5 138.5t-59.5 139t-139.5 60t-139.5 -60t-59.5 -139z" />
    <glyph glyph-name="guilsinglleft" unicode="&#x2039;" horiz-adv-x="825" 
d="M563 0q0 77 -26 148t-68.5 123.5t-95 92.5t-107 60t-102.5 20v136q48 0 102.5 20t107 60t95 92.5t68.5 123.5t26 148h139q0 -105 -51 -215t-131.5 -190t-165.5 -107q131 -41 239.5 -196.5t108.5 -315.5h-139z" />
    <glyph glyph-name="guilsinglright" unicode="&#x203a;" horiz-adv-x="825" 
d="M123 0q0 160 108.5 315.5t239.5 196.5q-85 27 -165.5 107t-131.5 190t-51 215h139q0 -95 40 -181t100.5 -141.5t129.5 -88.5t130 -33v-136q-61 0 -130 -33t-129.5 -88.5t-100.5 -141.5t-40 -181h-139z" />
    <glyph glyph-name="fraction" unicode="&#x2044;" horiz-adv-x="1538" 
d="M164 0l1050 1466h150l-1051 -1466h-149z" />
    <glyph glyph-name="uni20A9" unicode="&#x20a9;" horiz-adv-x="1794" 
d="M434 0l-108 438h-203v129h172l-51 205h-121v129h90l-131 533h160l131 -533h338l116 533h140l116 -533h338l131 533h160l-131 -533h90v-129h-121l-51 -205h172v-129h-203l-108 -438h-221l-97 438h-290l-97 -438h-221zM406 772l49 -205h184l45 205h-278zM487 438l66 -268
l57 268h-123zM778 567h238l-45 205h-148zM852 901h90l-45 207zM1110 772l45 -205h184l50 205h-279zM1184 438l57 -268l66 268h-123z" />
    <glyph glyph-name="Euro" unicode="&#x20ac;" horiz-adv-x="1757" 
d="M989 -33q-106 0 -205.5 33t-186 97t-151.5 167.5t-94 235.5h-168v129h150q-4 58 -4 88q0 51 2 76h-148v129h166q28 135 92 241t151 171t187.5 98.5t208.5 33.5q110 0 210 -34t185 -101.5t145.5 -178.5t84.5 -255l-164 -23q-20 94 -57 172t-92.5 139.5t-135 95.5
t-176.5 34q-185 0 -307.5 -107.5t-167.5 -285.5h590v-129h-610q-5 -63 -5 -76q0 -15 5 -88h610v-129h-586q46 -174 167 -278.5t304 -104.5q192 0 308.5 115t154.5 315l162 -21q-23 -143 -83.5 -253t-146 -175.5t-185 -98t-210.5 -32.5z" />
    <glyph glyph-name="uni20B9" unicode="&#x20b9;" horiz-adv-x="1271" 
d="M655 0l-491 633v149h225q161 0 249 48t103 157h-577v129h569q-51 168 -344 168h-225v150h985v-129h-350q75 -72 98 -189h252v-129h-248q-8 -89 -49.5 -157t-94.5 -104t-120 -58.5t-115 -28.5t-92 -6h-76l492 -633h-191z" />
    <glyph glyph-name="uni20BA" unicode="&#x20ba;" horiz-adv-x="1396" 
d="M362 0v565l-239 -65v129l239 65v164l-239 -65v129l239 65v447h160v-404l500 137v-129l-500 -137v-164l500 137v-129l-500 -137v-458h318q135 0 230 94.5t95 228.5l150 -20q0 -193 -138.5 -323t-336.5 -130h-478z" />
    <glyph glyph-name="uni20BD" unicode="&#x20bd;" horiz-adv-x="1271" 
d="M123 319v130h143v204h-143v129h143v652h451q37 0 78.5 -5.5t98.5 -19t106.5 -42.5t93.5 -71t70 -110.5t26 -153.5q0 -73 -20 -134t-52 -101t-76 -71t-87 -48t-91 -28t-82 -14t-65 -3h-291v-184h473v-130h-473v-319h-160v319h-143zM426 782h250q176 0 265 58.5t89 191.5
q0 134 -89.5 193t-264.5 59h-250v-502z" />
    <glyph glyph-name="uni20BF" unicode="&#x20bf;" horiz-adv-x="1230" 
d="M184 0v1434h160v163h129v-163h80q53 0 84 -4v167h129v-192q260 -80 260 -361q0 -95 -44.5 -178.5t-129.5 -122.5q120 -34 188 -123.5t68 -218.5q0 -78 -21.5 -142t-55 -105t-80.5 -71.5t-91.5 -46t-93.5 -24.5v-176h-129v164h-2h-162v-164h-129v164h-160zM334 150h301
q313 0 313 251q0 252 -313 252h-301v-503zM334 803h219q313 0 313 241q0 240 -313 240h-219v-481z" />
    <glyph glyph-name="uni2116" unicode="&#x2116;" horiz-adv-x="2465" 
d="M184 0v1434h222l753 -1297v1297h160v-1434h-242l-733 1262v-1262h-160zM1483 754q0 184 128.5 312t311.5 128q185 0 312.5 -128t127.5 -312q0 -185 -128 -313t-312 -128q-183 0 -311.5 128.5t-128.5 312.5zM1579 0v150h686v-150h-686zM1632 754q0 -122 85 -206.5
t206 -84.5q124 0 207.5 84.5t83.5 206.5q0 123 -83.5 206.5t-207.5 83.5q-122 0 -206.5 -83.5t-84.5 -206.5z" />
    <glyph glyph-name="uni2117" unicode="&#x2117;" horiz-adv-x="962" 
d="M481 586q-183 0 -311.5 128t-128.5 312t128.5 312t311.5 128q185 0 313 -128t128 -312t-128 -312t-313 -128zM117 1026q0 -152 106 -258t258 -106q155 0 260 105.5t105 258.5q0 154 -105 259.5t-260 105.5q-153 0 -258.5 -105.5t-105.5 -259.5zM367 809v459h149
q19 0 41 -4.5t50 -17t46.5 -42t18.5 -71.5t-18.5 -71t-46.5 -41.5t-50 -17t-41 -4.5h-74v-190h-75zM442 1073h62q51 0 71.5 13t20.5 47q0 35 -21 48t-71 13h-62v-121z" />
    <glyph glyph-name="trademark" unicode="&#x2122;" horiz-adv-x="1654" 
d="M788 688v746h142l211 -584l209 584h141v-746h-121v486l-172 -486h-117l-172 486v-486h-121zM20 1323v111h646v-111h-263v-635h-120v635h-263z" />
    <glyph glyph-name="uni2153" unicode="&#x2153;" horiz-adv-x="1644" 
d="M1323 -16q-130 0 -213.5 73.5t-65.5 180.5l123 14q-7 -53 16 -88.5t58.5 -48.5t81.5 -13q67 0 112.5 26t45.5 81t-45.5 79.5t-112.5 24.5h-82v119h82q63 0 98 24.5t35 69.5t-34.5 68.5t-98.5 23.5q-67 0 -99 -28t-32 -70l-123 15q-7 74 62.5 136t191.5 62
q119 0 186.5 -58.5t67.5 -148.5q0 -98 -78 -153q105 -45 105 -164q0 -101 -78.5 -163t-202.5 -62zM123 717v117h184v340q-48 -60 -135 -60h-49v115h49q41 0 63 5.5t40.5 26.5t25 62t6.5 111h121v-600h184v-117h-489zM287 0l1050 1466h150l-1051 -1466h-149z" />
    <glyph glyph-name="uni2154" unicode="&#x2154;" horiz-adv-x="1685" 
d="M104 823q15 12 74 51.5t106 75t100.5 81.5t84.5 92t31 85q0 59 -40 93t-100 34q-67 0 -107 -41t-32 -125l-119 17q-6 116 66 190t192 74q114 0 187.5 -70.5t73.5 -171.5q0 -171 -320 -374h336v-117h-533v106zM307 0l1051 1466h149l-1050 -1466h-150zM1065 238l123 14
q-10 -78 36.5 -114t118.5 -36q67 0 112.5 26t45.5 81t-45.5 79.5t-112.5 24.5h-81v119h81q64 0 99 24.5t35 69.5t-35 68.5t-99 23.5q-67 0 -99 -28t-32 -70l-122 15q-7 74 62 136t191 62q119 0 186.5 -58.5t67.5 -148.5q0 -99 -77 -153q104 -44 104 -164q0 -101 -78.5 -163
t-202.5 -62q-130 0 -213 73.5t-65 180.5z" />
    <glyph glyph-name="oneeighth" unicode="&#x215b;" horiz-adv-x="1652" 
d="M1325 -16q-113 0 -199 61.5t-86 163.5q0 129 115 174q-39 27 -63.5 66t-24.5 77q0 93 68.5 150t189.5 57t190.5 -57.5t69.5 -149.5q0 -42 -24.5 -81t-65.5 -66q56 -23 86.5 -68t30.5 -102q0 -102 -87 -163.5t-200 -61.5zM123 717v117h184v340q-48 -60 -135 -60h-49v115
h49q41 0 63 5.5t40.5 26.5t25 62t6.5 111h121v-600h184v-117h-489zM287 0l1050 1466h150l-1051 -1466h-149zM1163 209q0 -47 43.5 -77t118.5 -30t119.5 30t44.5 77t-44.5 76.5t-119.5 29.5t-118.5 -29.5t-43.5 -76.5zM1188 526q0 -43 43 -68.5t94 -25.5t95 25.5t44 68.5
q0 42 -43.5 67t-95.5 25q-51 0 -94 -24.5t-43 -67.5z" />
    <glyph glyph-name="threeeighths" unicode="&#x215c;" horiz-adv-x="1673" 
d="M342 700q-130 0 -213.5 73.5t-65.5 180.5l123 15q-7 -53 16 -88.5t58.5 -48.5t81.5 -13q67 0 112.5 26t45.5 81t-45.5 79.5t-112.5 24.5h-82v119h82q63 0 98 24.5t35 69.5t-34.5 68.5t-98.5 23.5q-67 0 -99 -28t-32 -70l-123 14q-7 74 62.5 136.5t191.5 62.5
q119 0 186.5 -58.5t67.5 -148.5q0 -98 -78 -153q105 -45 105 -164q0 -101 -78.5 -163.5t-202.5 -62.5zM246 0l1050 1466h150l-1051 -1466h-149zM999 209q0 129 115 174q-39 27 -63.5 66t-24.5 77q0 93 68.5 150t189.5 57t190.5 -57.5t69.5 -149.5q0 -42 -24.5 -81t-65.5 -66
q56 -23 86.5 -68t30.5 -102q0 -102 -87 -163.5t-200 -61.5t-199 61.5t-86 163.5zM1122 209q0 -47 43.5 -77t118.5 -30t119.5 30t44.5 77t-44.5 76.5t-119.5 29.5t-118.5 -29.5t-43.5 -76.5zM1147 526q0 -43 43 -68.5t94 -25.5t95 25.5t44 68.5q0 42 -43.5 67t-95.5 25
q-51 0 -94 -24.5t-43 -67.5z" />
    <glyph glyph-name="fiveeighths" unicode="&#x215d;" horiz-adv-x="1652" 
d="M352 696q-121 0 -195.5 59t-74.5 158l123 21q0 -45 38 -84t109 -39q74 0 112 40t38 105t-38.5 105.5t-111.5 40.5q-35 0 -63 -9t-43.5 -23t-24 -25.5t-12.5 -22.5h-117l35 412h442v-115h-331l-13 -148q47 41 127 41q119 0 195 -68t76 -188t-76 -190t-195 -70zM246 0
l1050 1466h150l-1051 -1466h-149zM999 209q0 129 115 174q-39 27 -63.5 66t-24.5 77q0 93 68.5 150t189.5 57t190.5 -57.5t69.5 -149.5q0 -42 -24.5 -81t-65.5 -66q56 -23 86.5 -68t30.5 -102q0 -102 -87 -163.5t-200 -61.5t-199 61.5t-86 163.5zM1122 209q0 -47 43.5 -77
t118.5 -30t119.5 30t44.5 77t-44.5 76.5t-119.5 29.5t-118.5 -29.5t-43.5 -76.5zM1147 526q0 -43 43 -68.5t94 -25.5t95 25.5t44 68.5q0 42 -43.5 67t-95.5 25q-51 0 -94 -24.5t-43 -67.5z" />
    <glyph glyph-name="seveneighths" unicode="&#x215e;" horiz-adv-x="1447" 
d="M197 717q-3 211 53 362.5t147 239.5h-356v115h532v-115q-50 -27 -93 -74.5t-80.5 -119t-58 -177t-19.5 -231.5h-125zM102 0l1051 1466h150l-1051 -1466h-150zM856 209q0 129 115 174q-39 27 -63.5 66t-24.5 77q0 93 68.5 150t189.5 57t190.5 -57.5t69.5 -149.5
q0 -42 -24.5 -81t-65.5 -66q56 -23 86 -68t30 -102q0 -102 -86.5 -163.5t-199.5 -61.5t-199 61.5t-86 163.5zM979 209q0 -47 43.5 -77t118.5 -30t119.5 30t44.5 77t-44.5 76.5t-119.5 29.5t-118.5 -29.5t-43.5 -76.5zM1004 526q0 -43 43 -68.5t94 -25.5t95 25.5t44 68.5
q0 42 -43.5 67t-95.5 25q-51 0 -94 -24.5t-43 -67.5z" />
    <glyph glyph-name="arrowleft" unicode="&#x2190;" horiz-adv-x="1726" 
d="M563 98q0 94 -28.5 173t-72 129.5t-98 86t-105.5 51t-95 15.5v135q44 0 95 15.5t105.5 51t98 86t72 129.5t28.5 173h139q0 -180 -73 -296t-178 -159h1112v-135h-1112q105 -43 178 -159t73 -296h-139z" />
    <glyph glyph-name="arrowup" unicode="&#x2191;" horiz-adv-x="1372" 
d="M164 930q94 0 172.5 28.5t129.5 72t86.5 98t50.5 105.5t15 95h136q0 -44 15 -95t50.5 -105.5t86.5 -98t129.5 -72t172.5 -28.5v-139q-180 0 -295.5 73t-158.5 178v-1112h-136v1112q-43 -105 -158.5 -178t-295.5 -73v139z" />
    <glyph glyph-name="arrowright" unicode="&#x2192;" horiz-adv-x="1726" 
d="M1024 98q0 93 21.5 172t58 134t80 92t92.5 57h-1112v135h1112q-49 20 -92.5 57t-80 92t-58 134t-21.5 172h139q0 -94 28.5 -173t72.5 -129.5t98.5 -86t105.5 -51t95 -15.5v-135q-44 0 -95 -15.5t-105.5 -51t-98.5 -86t-72.5 -129.5t-28.5 -173h-139z" />
    <glyph glyph-name="arrowdown" unicode="&#x2193;" horiz-adv-x="1372" 
d="M618 -90q0 44 -15 95t-50.5 105.5t-86.5 98t-129.5 72t-172.5 28.5v140q93 0 172 -21.5t133.5 -58t91.5 -80t57 -92.5v1112h136v-1112q20 49 57 92.5t91.5 80t133.5 58t172 21.5v-140q-94 0 -172.5 -28.5t-129.5 -72t-86.5 -98t-50.5 -105.5t-15 -95h-136z" />
    <glyph glyph-name="arrowboth" unicode="&#x2194;" horiz-adv-x="1873" 
d="M1171 98q0 93 21.5 172t58 134t80 92t92.5 57h-972q105 -43 178 -159t73 -296h-139q0 94 -28.5 173t-72 129.5t-98 86t-105.5 51t-95 15.5v135q44 0 95 15.5t105.5 51t98 86t72 129.5t28.5 173h139q0 -180 -73 -296t-178 -159h972q-49 20 -92.5 57t-80 92t-58 134
t-21.5 172h140q0 -94 28.5 -173t72 -129.5t98 -86t105.5 -51t95 -15.5v-135q-44 0 -95 -15.5t-105.5 -51t-98 -86t-72 -129.5t-28.5 -173h-140z" />
    <glyph glyph-name="uni2196" unicode="&#x2196;" horiz-adv-x="1452" 
d="M1192 86l-786 786q20 -48 24.5 -105t-8.5 -121.5t-54 -136t-106 -136.5l-98 98q82 82 117 177t26 176.5t-36.5 146t-67.5 104.5l96 94q31 -31 77.5 -56t110.5 -38.5t130.5 -8.5t142 41t141.5 103l100 -100q-66 -65 -137.5 -106t-136 -53.5t-121 -8t-104.5 24.5l786 -785z
" />
    <glyph glyph-name="uni2197" unicode="&#x2197;" horiz-adv-x="1452" 
d="M260 86l-96 96l786 785q-48 -20 -104.5 -24.5t-121 8t-136 53.5t-137.5 106l100 100q66 -67 141.5 -103t142 -41t130.5 8.5t110.5 38.5t77.5 56l96 -94q-40 -40 -67.5 -104.5t-36.5 -146t26 -176.5t117 -177l-98 -98q-65 65 -106 136.5t-53.5 136t-8 121.5t24.5 105z" />
    <glyph glyph-name="uni2198" unicode="&#x2198;" horiz-adv-x="1452" 
d="M451 131q66 65 137.5 106t136 53.5t121 8t104.5 -24.5l-786 785l96 96l787 -786q-20 48 -24.5 105t8 121.5t53.5 136t106 136.5l98 -98q-82 -82 -117 -177t-26 -176.5t36.5 -146t67.5 -104.5l-96 -94q-31 31 -77.5 56t-110.5 38.5t-130.5 8.5t-142 -41t-141.5 -103z" />
    <glyph glyph-name="uni2199" unicode="&#x2199;" horiz-adv-x="1452" 
d="M901 31q-66 67 -141.5 103t-142 41t-130.5 -8.5t-110.5 -38.5t-77.5 -56l-96 94q40 40 67.5 104.5t36.5 146t-26 176.5t-117 177l98 98q65 -65 106 -136.5t54 -136t8.5 -121.5t-24.5 -105l786 786l96 -96l-786 -785q48 20 104.5 24.5t121 -8t136 -53.5t137.5 -106z" />
    <glyph glyph-name="uni2206" unicode="&#x2206;" horiz-adv-x="1228" 
d="M0 0l498 1434h209l477 -1434h-1184zM211 150h764l-375 1122z" />
    <glyph glyph-name="product" unicode="&#x220f;" horiz-adv-x="1445" 
d="M1081 -442v1726h-716v-1726h-160v1876h1036v-1876h-160z" />
    <glyph glyph-name="summation" unicode="&#x2211;" horiz-adv-x="1396" 
d="M205 -442v149l551 789l-551 788v150h987v-150h-811l551 -788l-551 -789h811v-149h-987z" />
    <glyph glyph-name="minus" unicode="&#x2212;" horiz-adv-x="1226" 
d="M164 530v150h899v-150h-899z" />
    <glyph glyph-name="radical" unicode="&#x221a;" horiz-adv-x="1333" 
d="M545 -442l-242 913h-201v139h324l221 -843l424 1667h160l-477 -1876h-209z" />
    <glyph glyph-name="infinity" unicode="&#x221e;" horiz-adv-x="1853" 
d="M1270 113q-96 0 -189 45t-153 127q-61 -82 -153.5 -127t-188.5 -45q-75 0 -148.5 28t-135 78.5t-100 132t-38.5 178.5t38.5 179t99.5 135t135.5 82.5t148.5 29.5q95 0 188 -47t154 -131q60 84 153.5 131t188.5 47q73 0 147 -29.5t135 -82.5t99.5 -135.5t38.5 -178.5
q0 -78 -25 -146.5t-67 -117t-96.5 -84t-113.5 -52.5t-118 -17zM324 530q0 -68 27.5 -127t88.5 -100t146 -41t146 41t88.5 100t27.5 127q0 44 -16.5 91t-47 89.5t-83 69.5t-115.5 27t-115.5 -27t-83 -69.5t-47 -89.5t-16.5 -91zM1008 530q0 -68 27.5 -127t88.5 -100t146 -41
t146 41t88.5 100t27.5 127q0 44 -16.5 91t-47 89.5t-83 69.5t-115.5 27t-115.5 -27t-83 -69.5t-47 -89.5t-16.5 -91z" />
    <glyph glyph-name="integral" unicode="&#x222b;" horiz-adv-x="1224" 
d="M205 -442v149h117q45 0 68 5.5t41 29t25.5 62t14.5 112.5l123 1223q18 176 84 245.5t201 69.5h141v-149h-117q-45 0 -68 -5.5t-41 -29t-25.5 -62t-14.5 -112.5l-123 -1223q-18 -176 -84 -245.5t-201 -69.5h-141z" />
    <glyph glyph-name="approxequal" unicode="&#x2248;" horiz-adv-x="1226" 
d="M164 885q82 82 246 82q55 0 110 -19t93.5 -42.5t93.5 -42.5t110 -19q164 0 246 82v-150q-82 -82 -246 -82q-55 0 -110 19t-93.5 42.5t-93.5 42.5t-110 19q-164 0 -246 -82v150zM164 258v150q81 81 246 81q55 0 110 -19t93.5 -42t93.5 -42t110 -19q164 0 246 82v-150
q-82 -82 -246 -82q-55 0 -110 19t-93.5 42.5t-93.5 42.5t-110 19q-164 0 -246 -82z" />
    <glyph glyph-name="notequal" unicode="&#x2260;" horiz-adv-x="1226" 
d="M324 45l94 248h-254v149h311l125 328h-436v150h493l103 266h141l-100 -266h262v-150h-320l-125 -328h445v-149h-502l-94 -248h-143z" />
    <glyph glyph-name="lessequal" unicode="&#x2264;" horiz-adv-x="1206" 
d="M1042 340l-899 348v170l899 348v-170l-682 -262l682 -264v-170zM143 -2v149h899v-149h-899z" />
    <glyph glyph-name="greaterequal" unicode="&#x2265;" horiz-adv-x="1206" 
d="M164 340v170l682 264l-682 262v170l899 -348v-170zM164 -2v149h899v-149h-899z" />
    <glyph glyph-name="uni2460" unicode="&#x2460;" horiz-adv-x="1826" 
d="M690 369v116h184v340q-50 -59 -135 -59h-49v115h49q41 0 63 5.5t40.5 26t25 61.5t6.5 111h121v-600h185v-116h-490zM164 717q0 153 59.5 291.5t159.5 238.5t239.5 159.5t292.5 59.5q152 0 290.5 -59.5t238.5 -159.5t159.5 -239t59.5 -291q0 -204 -100.5 -376.5
t-272.5 -273t-375 -100.5q-153 0 -292.5 59.5t-239.5 160t-159.5 239t-59.5 291.5zM295 717q0 -125 49 -239.5t132 -197.5t198 -132.5t241 -49.5q124 0 238.5 49.5t197 132.5t132 197.5t49.5 239.5t-49 239.5t-132 197.5t-197 132t-239 49q-168 0 -311 -83t-226 -225.5
t-83 -309.5z" />
    <glyph glyph-name="uni2461" unicode="&#x2461;" horiz-adv-x="1826" 
d="M649 475q16 12 60 42.5t83 57.5t87.5 66t83 73.5t58 73.5t23.5 72q0 59 -39.5 93t-99.5 34q-67 0 -107 -41t-32 -125l-119 17q-6 116 66 190t192 74q114 0 187 -70t73 -172q0 -172 -319 -375h336v-116h-533v106zM164 717q0 153 59.5 291.5t159.5 238.5t239.5 159.5
t292.5 59.5q152 0 290.5 -59.5t238.5 -159.5t159.5 -239t59.5 -291q0 -204 -100.5 -376.5t-272.5 -273t-375 -100.5q-153 0 -292.5 59.5t-239.5 160t-159.5 239t-59.5 291.5zM295 717q0 -125 49 -239.5t132 -197.5t198 -132.5t241 -49.5q124 0 238.5 49.5t197 132.5
t132 197.5t49.5 239.5t-49 239.5t-132 197.5t-197 132t-239 49q-168 0 -311 -83t-226 -225.5t-83 -309.5z" />
    <glyph glyph-name="uni2462" unicode="&#x2462;" horiz-adv-x="1826" 
d="M915 352q-130 0 -213 73.5t-65 180.5l123 15q-10 -78 36.5 -114t118.5 -36q67 0 112.5 26t45.5 81t-45.5 79.5t-112.5 24.5h-81v119h81q64 0 99 24.5t35 69.5t-35 68.5t-99 23.5q-67 0 -99 -28t-32 -70l-122 14q-7 74 62 136.5t191 62.5q119 0 186.5 -58.5t67.5 -148.5
q0 -100 -77 -154q104 -44 104 -163q0 -101 -78.5 -163.5t-202.5 -62.5zM164 717q0 153 59.5 291.5t159.5 238.5t239.5 159.5t292.5 59.5q152 0 290.5 -59.5t238.5 -159.5t159.5 -239t59.5 -291q0 -204 -100.5 -376.5t-272.5 -273t-375 -100.5q-153 0 -292.5 59.5t-239.5 160
t-159.5 239t-59.5 291.5zM295 717q0 -125 49 -239.5t132 -197.5t198 -132.5t241 -49.5q124 0 238.5 49.5t197 132.5t132 197.5t49.5 239.5t-49 239.5t-132 197.5t-197 132t-239 49q-168 0 -311 -83t-226 -225.5t-83 -309.5z" />
    <glyph glyph-name="uni2463" unicode="&#x2463;" horiz-adv-x="1826" 
d="M985 369v198h-436v95q104 54 158.5 171.5t54.5 251.5h125q0 -97 -37 -212t-100 -191h235v403h121v-403h92v-115h-92v-198h-121zM164 717q0 153 59.5 291.5t159.5 238.5t239.5 159.5t292.5 59.5q152 0 290.5 -59.5t238.5 -159.5t159.5 -239t59.5 -291
q0 -204 -100.5 -376.5t-272.5 -273t-375 -100.5q-153 0 -292.5 59.5t-239.5 160t-159.5 239t-59.5 291.5zM295 717q0 -125 49 -239.5t132 -197.5t198 -132.5t241 -49.5q124 0 238.5 49.5t197 132.5t132 197.5t49.5 239.5t-49 239.5t-132 197.5t-197 132t-239 49
q-168 0 -311 -83t-226 -225.5t-83 -309.5z" />
    <glyph glyph-name="uni2464" unicode="&#x2464;" horiz-adv-x="1826" 
d="M913 348q-121 0 -195.5 59t-74.5 158l123 21q0 -45 38 -84t109 -39q74 0 112 40t38 105t-38.5 105.5t-111.5 40.5q-35 0 -63 -9t-43.5 -23t-24 -25.5t-12.5 -22.5h-117l35 411h442v-114h-331l-13 -148q47 41 127 41q119 0 195 -68t76 -188t-76 -190t-195 -70zM164 717
q0 153 59.5 291.5t159.5 238.5t239.5 159.5t292.5 59.5q152 0 290.5 -59.5t238.5 -159.5t159.5 -239t59.5 -291q0 -204 -100.5 -376.5t-272.5 -273t-375 -100.5q-153 0 -292.5 59.5t-239.5 160t-159.5 239t-59.5 291.5zM295 717q0 -125 49 -239.5t132 -197.5t198 -132.5
t241 -49.5q124 0 238.5 49.5t197 132.5t132 197.5t49.5 239.5t-49 239.5t-132 197.5t-197 132t-239 49q-168 0 -311 -83t-226 -225.5t-83 -309.5z" />
    <glyph glyph-name="uni2465" unicode="&#x2465;" horiz-adv-x="1826" 
d="M920 352q-67 0 -119 23.5t-83.5 61t-52 89t-28.5 101.5t-8 104q0 190 79.5 280.5t211.5 90.5q98 0 174.5 -51.5t105.5 -151.5l-125 -20q-49 108 -155 108q-152 0 -175 -219q58 78 175 78q114 0 190 -64t76 -182t-76.5 -183t-189.5 -65zM164 717q0 153 59.5 291.5
t159.5 238.5t239.5 159.5t292.5 59.5q152 0 290.5 -59.5t238.5 -159.5t159.5 -239t59.5 -291q0 -204 -100.5 -376.5t-272.5 -273t-375 -100.5q-153 0 -292.5 59.5t-239.5 160t-159.5 239t-59.5 291.5zM295 717q0 -125 49 -239.5t132 -197.5t198 -132.5t241 -49.5
q124 0 238.5 49.5t197 132.5t132 197.5t49.5 239.5t-49 239.5t-132 197.5t-197 132t-239 49q-168 0 -311 -83t-226 -225.5t-83 -309.5zM770 600q0 -36 14.5 -63t38 -41t48 -20.5t49.5 -6.5q56 0 100.5 31t44.5 100q0 48 -24.5 78.5t-55 40.5t-65.5 10q-25 0 -49.5 -6
t-48 -20t-38 -40.5t-14.5 -62.5z" />
    <glyph glyph-name="uni2466" unicode="&#x2466;" horiz-adv-x="1826" 
d="M803 369q-3 211 53.5 362.5t147.5 239.5h-357v114h533v-114q-50 -27 -93 -74.5t-80.5 -119t-58.5 -177t-20 -231.5h-125zM164 717q0 153 59.5 291.5t159.5 238.5t239.5 159.5t292.5 59.5q152 0 290.5 -59.5t238.5 -159.5t159.5 -239t59.5 -291q0 -204 -100.5 -376.5
t-272.5 -273t-375 -100.5q-153 0 -292.5 59.5t-239.5 160t-159.5 239t-59.5 291.5zM295 717q0 -125 49 -239.5t132 -197.5t198 -132.5t241 -49.5q124 0 238.5 49.5t197 132.5t132 197.5t49.5 239.5t-49 239.5t-132 197.5t-197 132t-239 49q-168 0 -311 -83t-226 -225.5
t-83 -309.5z" />
    <glyph glyph-name="uni2467" unicode="&#x2467;" horiz-adv-x="1826" 
d="M913 352q-113 0 -198.5 62t-85.5 164q0 129 114 174q-39 27 -63.5 66t-24.5 77q0 93 68.5 150t189.5 57t191 -57.5t70 -149.5q0 -42 -25 -81t-66 -66q56 -23 86.5 -68t30.5 -102q0 -102 -87 -164t-200 -62zM164 717q0 153 59.5 291.5t159.5 238.5t239.5 159.5t292.5 59.5
q152 0 290.5 -59.5t238.5 -159.5t159.5 -239t59.5 -291q0 -204 -100.5 -376.5t-272.5 -273t-375 -100.5q-153 0 -292.5 59.5t-239.5 160t-159.5 239t-59.5 291.5zM295 717q0 -125 49 -239.5t132 -197.5t198 -132.5t241 -49.5q124 0 238.5 49.5t197 132.5t132 197.5
t49.5 239.5t-49 239.5t-132 197.5t-197 132t-239 49q-168 0 -311 -83t-226 -225.5t-83 -309.5zM752 578q0 -47 43 -77t118 -30t119.5 30t44.5 77t-44.5 76.5t-119.5 29.5t-118 -29.5t-43 -76.5zM776 895q0 -43 43 -68.5t94 -25.5t95.5 25.5t44.5 68.5q0 42 -44 67t-96 25
q-51 0 -94 -24.5t-43 -67.5z" />
    <glyph glyph-name="uni2468" unicode="&#x2468;" horiz-adv-x="1826" 
d="M909 352q-98 0 -174.5 51.5t-105.5 151.5l125 20q49 -108 155 -108q151 0 174 219q-58 -78 -174 -78q-114 0 -190 64t-76 182t76.5 183t189.5 65q67 0 119 -23.5t83.5 -61t52 -89t28.5 -101.5t8 -104q0 -190 -79.5 -280.5t-211.5 -90.5zM164 717q0 153 59.5 291.5
t159.5 238.5t239.5 159.5t292.5 59.5q152 0 290.5 -59.5t238.5 -159.5t159.5 -239t59.5 -291q0 -204 -100.5 -376.5t-272.5 -273t-375 -100.5q-153 0 -292.5 59.5t-239.5 160t-159.5 239t-59.5 291.5zM295 717q0 -125 49 -239.5t132 -197.5t198 -132.5t241 -49.5
q124 0 238.5 49.5t197 132.5t132 197.5t49.5 239.5t-49 239.5t-132 197.5t-197 132t-239 49q-168 0 -311 -83t-226 -225.5t-83 -309.5zM764 854q0 -48 24.5 -78.5t55 -40.5t65.5 -10q25 0 49.5 6t48 20t38 40.5t14.5 62.5t-14.5 63t-38 41t-48 20.5t-49.5 6.5
q-56 0 -100.5 -31t-44.5 -100z" />
    <glyph glyph-name="uni24EA" unicode="&#x24ea;" horiz-adv-x="1826" 
d="M915 352q-138 0 -219.5 103t-81.5 272t81.5 272t219.5 103t218.5 -103t80.5 -272t-80.5 -272t-218.5 -103zM164 717q0 153 59.5 291.5t159.5 238.5t239.5 159.5t292.5 59.5q152 0 290.5 -59.5t238.5 -159.5t159.5 -239t59.5 -291q0 -204 -100.5 -376.5t-272.5 -273
t-375 -100.5q-153 0 -292.5 59.5t-239.5 160t-159.5 239t-59.5 291.5zM295 717q0 -125 49 -239.5t132 -197.5t198 -132.5t241 -49.5q124 0 238.5 49.5t197 132.5t132 197.5t49.5 239.5t-49 239.5t-132 197.5t-197 132t-239 49q-168 0 -311 -83t-226 -225.5t-83 -309.5z
M735 727q0 -113 44.5 -185.5t135.5 -72.5t135 72.5t44 185.5q0 114 -44 187t-135 73t-135.5 -73.5t-44.5 -186.5z" />
    <glyph glyph-name="uni24FF" unicode="&#x24ff;" horiz-adv-x="1867" 
d="M936 -53q-209 0 -387 103.5t-281.5 280.5t-103.5 386t103.5 386t281.5 280.5t387 103.5q155 0 297.5 -61t245.5 -164.5t164 -246t61 -298.5t-61 -298.5t-164 -246t-245.5 -164.5t-297.5 -61zM635 727q0 -169 81.5 -272t219.5 -103t218.5 103t80.5 272t-80.5 272
t-218.5 103t-219.5 -103t-81.5 -272zM752 727q0 117 45 190.5t139 73.5t138 -73.5t44 -190.5t-44 -189.5t-138 -72.5t-139 73t-45 189z" />
    <glyph glyph-name="lozenge" unicode="&#x25ca;" horiz-adv-x="1187" 
d="M498 0l-334 717l334 717h172l354 -717l-354 -717h-172zM313 717l273 -584l288 584l-288 583z" />
    <glyph glyph-name="circle" unicode="&#x25cb;" horiz-adv-x="1826" 
d="M915 -33q-153 0 -292.5 59.5t-239.5 160t-159.5 239t-59.5 291.5t59.5 291.5t159.5 238.5t239.5 159.5t292.5 59.5q152 0 290.5 -59.5t238.5 -159.5t159.5 -239t59.5 -291q0 -204 -100.5 -376.5t-272.5 -273t-375 -100.5zM295 717q0 -125 49 -239.5t132 -197.5
t198 -132.5t241 -49.5q124 0 238.5 49.5t197 132.5t132 197.5t49.5 239.5t-49 239.5t-132 197.5t-197 132t-239 49q-168 0 -311 -83t-226 -225.5t-83 -309.5z" />
    <glyph glyph-name="uni25CF" unicode="&#x25cf;" horiz-adv-x="1826" 
d="M915 -33q-153 0 -292.5 59.5t-239.5 160t-159.5 239t-59.5 291.5t59.5 291.5t159.5 238.5t239.5 159.5t292.5 59.5q152 0 290.5 -59.5t238.5 -159.5t159.5 -239t59.5 -291q0 -204 -100.5 -376.5t-272.5 -273t-375 -100.5z" />
    <glyph glyph-name="uni2776" unicode="&#x2776;" horiz-adv-x="1867" 
d="M936 -53q-209 0 -387 103.5t-281.5 280.5t-103.5 386t103.5 386t281.5 280.5t387 103.5q155 0 297.5 -61t245.5 -164.5t164 -246t61 -298.5t-61 -298.5t-164 -246t-245.5 -164.5t-297.5 -61zM711 369h489v116h-184v600h-121q0 -70 -6.5 -111t-25 -61.5t-40.5 -26
t-63 -5.5h-49v-115h49q85 0 135 59v-340h-184v-116z" />
    <glyph glyph-name="uni2777" unicode="&#x2777;" horiz-adv-x="1867" 
d="M936 -53q-209 0 -387 103.5t-281.5 280.5t-103.5 386t103.5 386t281.5 280.5t387 103.5q155 0 297.5 -61t245.5 -164.5t164 -246t61 -298.5t-61 -298.5t-164 -246t-245.5 -164.5t-297.5 -61zM668 838l118 -17q-8 84 32.5 125t107.5 41q60 0 99.5 -34t39.5 -93
q0 -33 -23.5 -72t-58 -73.5t-83 -73.5t-87.5 -66t-83 -57.5t-60 -42.5v-106h532v116h-336q320 203 320 375q0 102 -73 172t-187 70q-120 0 -192 -74t-66 -190z" />
    <glyph glyph-name="uni2778" unicode="&#x2778;" horiz-adv-x="1867" 
d="M936 -53q-209 0 -387 103.5t-281.5 280.5t-103.5 386t103.5 386t281.5 280.5t387 103.5q155 0 297.5 -61t245.5 -164.5t164 -246t61 -298.5t-61 -298.5t-164 -246t-245.5 -164.5t-297.5 -61zM657 606q-18 -107 65.5 -180.5t213.5 -73.5q124 0 202.5 62.5t78.5 163.5
q0 118 -105 163q78 55 78 154q0 90 -67.5 148.5t-186.5 58.5q-122 0 -191.5 -62.5t-62.5 -136.5l123 -14q0 42 32 70t99 28q64 0 98.5 -23.5t34.5 -68.5t-35 -69.5t-98 -24.5h-82v-119h82q67 0 112.5 -24.5t45.5 -79.5t-45.5 -81t-112.5 -26q-46 0 -81.5 13t-58.5 48.5
t-16 88.5z" />
    <glyph glyph-name="uni2779" unicode="&#x2779;" horiz-adv-x="1867" 
d="M936 -53q-209 0 -387 103.5t-281.5 280.5t-103.5 386t103.5 386t281.5 280.5t387 103.5q155 0 297.5 -61t245.5 -164.5t164 -246t61 -298.5t-61 -298.5t-164 -246t-245.5 -164.5t-297.5 -61zM569 567h437v-198h120v198h93v115h-93v403h-120v-403h-236q63 76 100 191
t37 212h-125q0 -134 -54.5 -251.5t-158.5 -171.5v-95z" />
    <glyph glyph-name="uni277A" unicode="&#x277a;" horiz-adv-x="1867" 
d="M936 -53q-209 0 -387 103.5t-281.5 280.5t-103.5 386t103.5 386t281.5 280.5t387 103.5q155 0 297.5 -61t245.5 -164.5t164 -246t61 -298.5t-61 -298.5t-164 -246t-245.5 -164.5t-297.5 -61zM664 561q0 -96 74.5 -154.5t195.5 -58.5q118 0 194 70t76 190t-75.5 188
t-194.5 68q-80 0 -127 -41l12 148h332v114h-442l-35 -411h117q4 11 12.5 22.5t24 25.5t43.5 23t63 9q73 0 111 -40.5t38 -105.5t-38 -105t-111 -40q-71 0 -109.5 38.5t-38.5 80.5z" />
    <glyph glyph-name="uni277B" unicode="&#x277b;" horiz-adv-x="1867" 
d="M936 -53q-209 0 -387 103.5t-281.5 280.5t-103.5 386t103.5 386t281.5 280.5t387 103.5q155 0 297.5 -61t245.5 -164.5t164 -246t61 -298.5t-61 -298.5t-164 -246t-245.5 -164.5t-297.5 -61zM649 731q0 -54 8 -104t28.5 -101.5t52 -89t83.5 -61t119 -23.5q113 0 189.5 65
t76.5 183t-76 182t-190 64q-116 0 -174 -78q23 219 174 219q107 0 156 -108l125 20q-29 100 -106 151.5t-175 51.5q-132 0 -211.5 -90.5t-79.5 -280.5zM786 600q0 38 14.5 65.5t38.5 41.5t49 20t52 6q21 0 41 -3.5t40.5 -13t35 -24t24 -38t9.5 -54.5q0 -72 -45 -103.5
t-105 -31.5q-27 0 -52 6.5t-49 21t-38.5 42t-14.5 65.5z" />
    <glyph glyph-name="uni277C" unicode="&#x277c;" horiz-adv-x="1867" 
d="M936 -53q-209 0 -387 103.5t-281.5 280.5t-103.5 386t103.5 386t281.5 280.5t387 103.5q155 0 297.5 -61t245.5 -164.5t164 -246t61 -298.5t-61 -298.5t-164 -246t-245.5 -164.5t-297.5 -61zM668 971h356q-91 -88 -147.5 -239.5t-53.5 -362.5h125q-1 126 20 231.5
t58.5 177t80.5 119t93 74.5v114h-532v-114z" />
    <glyph glyph-name="uni277D" unicode="&#x277d;" horiz-adv-x="1867" 
d="M936 -53q-209 0 -387 103.5t-281.5 280.5t-103.5 386t103.5 386t281.5 280.5t387 103.5q155 0 297.5 -61t245.5 -164.5t164 -246t61 -298.5t-61 -298.5t-164 -246t-245.5 -164.5t-297.5 -61zM649 578q0 -102 86 -164t199 -62t200 62t87 164q0 57 -30.5 102t-86.5 68
q41 27 65.5 66t24.5 81q0 92 -69.5 149.5t-190.5 57.5t-189.5 -57t-68.5 -150q0 -38 24.5 -77t63.5 -66q-115 -45 -115 -174zM768 578q0 50 44 80t122 30q79 0 123.5 -30t44.5 -80t-45 -80.5t-123 -30.5t-122 30.5t-44 80.5zM793 895q0 46 43 71t98 25q56 0 99.5 -25
t43.5 -71t-44 -72t-99 -26t-98 26t-43 72z" />
    <glyph glyph-name="uni277E" unicode="&#x277e;" horiz-adv-x="1867" 
d="M936 -53q-209 0 -387 103.5t-281.5 280.5t-103.5 386t103.5 386t281.5 280.5t387 103.5q155 0 297.5 -61t245.5 -164.5t164 -246t61 -298.5t-61 -298.5t-164 -246t-245.5 -164.5t-297.5 -61zM649 555q29 -100 106 -151.5t175 -51.5q132 0 211.5 90.5t79.5 280.5
q0 54 -8 104t-28.5 101.5t-52 89t-83.5 61t-119 23.5q-113 0 -189.5 -65t-76.5 -183t76 -182t190 -64q116 0 174 78q-23 -219 -174 -219q-107 0 -156 108zM780 854q0 72 45 103.5t105 31.5q37 0 69.5 -11t58 -42.5t25.5 -81.5q0 -31 -9.5 -54.5t-25 -38t-36.5 -24t-41 -13
t-41 -3.5t-41 3.5t-40.5 13t-35 24t-24 38t-9.5 54.5z" />
    <glyph glyph-name="uni004A0301" horiz-adv-x="1148" 
d="M537 -33q-101 0 -178.5 30t-125.5 80t-78 124t-41.5 153.5t-11.5 177.5h160q0 -213 68 -314t207 -101q274 0 274 334v983h160v-983q0 -484 -434 -484zM836 1597l122 308h191l-184 -308h-129z" />
    <glyph glyph-name="Y.ss01" horiz-adv-x="1286" 
d="M563 0v571l-522 863h180l422 -697l422 697h180l-522 -863v-571h-160z" />
    <glyph glyph-name="Yacute.ss01" horiz-adv-x="1286" 
d="M563 0v571l-522 863h180l422 -697l422 697h180l-522 -863v-571h-160zM590 1597l123 308h190l-184 -308h-129z" />
    <glyph glyph-name="Ycircumflex.ss01" horiz-adv-x="1286" 
d="M563 0v571l-522 863h180l422 -697l422 697h180l-522 -863v-571h-160zM383 1597l143 308h234l143 -308h-129l-131 226l-131 -226h-129z" />
    <glyph glyph-name="Ydieresis.ss01" horiz-adv-x="1286" 
d="M563 0v571l-522 863h180l422 -697l422 697h180l-522 -863v-571h-160zM389 1597v185h184v-185h-184zM713 1597v185h184v-185h-184z" />
    <glyph glyph-name="Ygrave.ss01" horiz-adv-x="1286" 
d="M563 0v571l-522 863h180l422 -697l422 697h180l-522 -863v-571h-160zM385 1905h190l123 -308h-129z" />
    <glyph glyph-name="uni1EF8.ss01" horiz-adv-x="1286" 
d="M563 0v571l-522 863h180l422 -697l422 697h180l-522 -863v-571h-160zM313 1618q0 96 54.5 159.5t148.5 63.5q42 0 80 -18t60.5 -39.5t48 -39.5t45.5 -18q13 0 24 3t18.5 9.5t13 13t8.5 16t5.5 17t3 18t0.5 15.5v14v9l150 -20q0 -95 -56.5 -159.5t-146.5 -64.5
q-42 0 -79.5 18t-60.5 39.5t-48 39.5t-45 18q-24 0 -40 -14.5t-22.5 -36.5t-9 -37t-2.5 -27z" />
    <glyph glyph-name="i.loclTRK" horiz-adv-x="520" 
d="M164 1188v192h192v-192h-192zM180 0v1024h160v-1024h-160z" />
    <glyph glyph-name="uni006A0301" horiz-adv-x="542" 
d="M-61 -410v150h116q87 0 118.5 27.5t31.5 119.5v1137h160v-1180q0 -254 -285 -254h-141zM229 1188l123 307h191l-185 -307h-129z" />
    <glyph glyph-name="y.ss01" horiz-adv-x="1073" 
d="M125 -410v150h123q48 0 85 25.5t56 70.5l68 166l-416 1022h160l336 -825l335 825h160l-506 -1247q-35 -88 -108.5 -137.5t-167.5 -49.5h-125z" />
    <glyph glyph-name="y.ss01.001" horiz-adv-x="1073" 
d="M125 -410v150h123q48 0 85 25.5t56 70.5l68 166l-416 1022h160l336 -825l335 825h160l-506 -1247q-35 -88 -108.5 -137.5t-167.5 -49.5h-125z" />
    <glyph glyph-name="yacute.ss01" horiz-adv-x="1073" 
d="M125 -410v150h123q48 0 85 25.5t56 70.5l68 166l-416 1022h160l336 -825l335 825h160l-506 -1247q-35 -88 -108.5 -137.5t-167.5 -49.5h-125zM483 1188l123 307h191l-185 -307h-129z" />
    <glyph glyph-name="ycircumflex.ss01" horiz-adv-x="1073" 
d="M125 -410v150h123q48 0 85 25.5t56 70.5l68 166l-416 1022h160l336 -825l335 825h160l-506 -1247q-35 -88 -108.5 -137.5t-167.5 -49.5h-125zM276 1188l144 307h233l144 -307h-129l-131 225l-131 -225h-130z" />
    <glyph glyph-name="ydieresis.ss01" horiz-adv-x="1073" 
d="M125 -410v150h123q48 0 85 25.5t56 70.5l68 166l-416 1022h160l336 -825l335 825h160l-506 -1247q-35 -88 -108.5 -137.5t-167.5 -49.5h-125zM283 1188v184h184v-184h-184zM606 1188v184h185v-184h-185z" />
    <glyph glyph-name="ygrave.ss01" horiz-adv-x="1073" 
d="M125 -410v150h123q48 0 85 25.5t56 70.5l68 166l-416 1022h160l336 -825l335 825h160l-506 -1247q-35 -88 -108.5 -137.5t-167.5 -49.5h-125zM279 1495h190l123 -307h-129z" />
    <glyph glyph-name="uni1EF9.ss01" horiz-adv-x="1073" 
d="M125 -410v150h123q48 0 85 25.5t56 70.5l68 166l-416 1022h160l336 -825l335 825h160l-506 -1247q-35 -88 -108.5 -137.5t-167.5 -49.5h-125zM207 1208q0 96 54.5 160t148.5 64q42 0 79.5 -18t60.5 -39.5t48 -39.5t45 -18q12 0 22 3t17 7t13 11t9.5 13.5t6 15.5t4 15.5
t2 16t0.5 14v11.5v8l149 -21q0 -95 -56 -159t-146 -64q-42 0 -80 18t-60.5 39.5t-48 39.5t-45.5 18q-24 0 -40 -14.5t-22.5 -36.5t-9 -37t-2.5 -27z" />
    <glyph glyph-name="one.ss02" horiz-adv-x="856" 
d="M451 0v1034q-29 -71 -110.5 -115.5t-199.5 -44.5h-59v150h59q156 0 233 99t77 311h159v-1434h-159z" />
    <glyph glyph-name="four.ss02" horiz-adv-x="1277" 
d="M811 0v395h-729v150l729 889h160v-889h184v-150h-184v-395h-160zM262 545h549v665z" />
    <glyph glyph-name="uni2776.ss02" horiz-adv-x="1867" 
d="M936 -53q-209 0 -387 103.5t-281.5 280.5t-103.5 386t103.5 386t281.5 280.5t387 103.5q155 0 297.5 -61t245.5 -164.5t164 -246t61 -298.5t-61 -298.5t-164 -246t-245.5 -164.5t-297.5 -61zM711 766h49q88 0 135 59v-456h121v716h-121q0 -70 -6.5 -111t-25 -61.5
t-40.5 -26t-63 -5.5h-49v-115z" />
    <glyph glyph-name="uni2779.ss02" horiz-adv-x="1867" 
d="M936 -53q-209 0 -387 103.5t-281.5 280.5t-103.5 386t103.5 386t281.5 280.5t387 103.5q155 0 297.5 -61t245.5 -164.5t164 -246t61 -298.5t-61 -298.5t-164 -246t-245.5 -164.5t-297.5 -61zM604 567h365v-198h121v198h92v115h-92v403h-111l-375 -415v-103zM768 682
l201 223v-223h-201z" />
    <glyph glyph-name="uni2460.ss02" horiz-adv-x="1703" 
d="M854 369v456q-47 -59 -135 -59h-49v115h49q41 0 63 5.5t40.5 26t25 61.5t6.5 111h121v-716h-121zM143 717q0 153 59.5 291.5t160 238.5t240 159.5t292.5 59.5q152 0 290 -59.5t238.5 -159.5t159.5 -239t59 -291t-59 -291t-159.5 -239.5t-238.5 -160t-290 -59.5
q-153 0 -292.5 59.5t-240 160t-160 239t-59.5 291.5zM274 717q0 -167 83.5 -310t226.5 -226t311 -83q124 0 238 49.5t197 132.5t132 197.5t49 239.5q0 167 -83 309.5t-225 225.5t-308 83q-168 0 -311 -83t-226.5 -225.5t-83.5 -309.5z" />
    <glyph glyph-name="uni2463.ss02" horiz-adv-x="1703" 
d="M866 369v198h-364v103l375 415h110v-403h92v-115h-92v-198h-121zM82 717q0 153 59.5 291.5t160 238.5t240 159.5t292.5 59.5q152 0 290 -59.5t238.5 -159.5t159.5 -239t59 -291t-59 -291t-159.5 -239.5t-238.5 -160t-290 -59.5q-153 0 -292.5 59.5t-240 160t-160 239
t-59.5 291.5zM213 717q0 -167 83.5 -310t226.5 -226t311 -83q124 0 238 49.5t197 132.5t132 197.5t49 239.5q0 167 -83 309.5t-225 225.5t-308 83q-168 0 -311 -83t-226.5 -225.5t-83.5 -309.5zM666 682h200v223z" />
    <glyph glyph-name="zero.dnom" horiz-adv-x="763" 
d="M383 -16q-138 0 -219.5 102.5t-81.5 271.5t81.5 272t219.5 103t218.5 -103t80.5 -272t-80.5 -271.5t-218.5 -102.5zM203 358q0 -113 44.5 -185.5t135.5 -72.5t134.5 72t43.5 186t-43.5 187t-134.5 73t-135.5 -73.5t-44.5 -186.5z" />
    <glyph glyph-name="one.dnom" horiz-adv-x="653" 
d="M123 0v117h184v340q-48 -60 -135 -60h-49v115h49q41 0 63 5.5t40.5 26.5t25 62t6.5 111h121v-600h184v-117h-489z" />
    <glyph glyph-name="two.dnom" horiz-adv-x="698" 
d="M104 106q15 11 74 51.5t106 76t100.5 81.5t84.5 92t31 85q0 59 -40 92.5t-100 33.5q-67 0 -107 -40.5t-32 -124.5l-119 16q-6 116 66 190t192 74q114 0 187.5 -70t73.5 -171q0 -172 -320 -375h336v-117h-533v106z" />
    <glyph glyph-name="three.dnom" horiz-adv-x="724" 
d="M342 -16q-130 0 -213.5 73.5t-65.5 180.5l123 14q-7 -53 16 -88.5t58.5 -48.5t81.5 -13q67 0 112.5 26t45.5 81t-45.5 79.5t-112.5 24.5h-82v119h82q63 0 98 24.5t35 69.5t-34.5 68.5t-98.5 23.5q-67 0 -99 -28t-32 -70l-123 15q-7 74 62.5 136t191.5 62
q119 0 186.5 -58.5t67.5 -148.5q0 -98 -78 -153q105 -45 105 -164q0 -101 -78.5 -163t-202.5 -62z" />
    <glyph glyph-name="four.dnom" horiz-adv-x="813" 
d="M61 293q104 54 158.5 172t54.5 252h125q0 -98 -36.5 -213.5t-100.5 -190.5h236v404h120v-404h93v-114h-93v-199h-120v199h-437v94z" />
    <glyph glyph-name="five.dnom" horiz-adv-x="704" 
d="M352 -20q-121 0 -195.5 59t-74.5 158l123 20q0 -45 38 -84t109 -39q73 0 111.5 40.5t38.5 105.5t-38 105t-112 40q-35 0 -63 -9t-43.5 -23t-24 -25.5t-12.5 -22.5h-117l35 412h442v-115h-331l-13 -147q47 41 127 41q119 0 195 -68t76 -188t-76 -190t-195 -70z" />
    <glyph glyph-name="six.dnom" horiz-adv-x="735" 
d="M393 -16q-67 0 -119 23.5t-83.5 61t-52 88.5t-28.5 101t-8 104q0 190 79.5 280.5t211.5 90.5q98 0 175 -51.5t106 -151.5l-125 -20q-49 108 -156 108q-151 0 -174 -219q58 78 174 78q114 0 190 -64t76 -182t-76 -182.5t-190 -64.5zM244 231q0 -47 25.5 -78.5t57 -42
t66.5 -10.5t65.5 10.5t55.5 41.5t25 79t-25 78.5t-55.5 40.5t-65.5 10t-66.5 -10t-57 -41t-25.5 -78z" />
    <glyph glyph-name="seven.dnom" horiz-adv-x="593" 
d="M197 0q-3 211 53 362.5t147 239.5h-356v115h532v-115q-50 -27 -93 -74.5t-80.5 -119t-58 -177t-19.5 -231.5h-125z" />
    <glyph glyph-name="eight.dnom" horiz-adv-x="735" 
d="M367 -16q-113 0 -199 61.5t-86 163.5q0 129 115 174q-39 27 -63.5 66t-24.5 77q0 93 68.5 150t189.5 57t190.5 -57.5t69.5 -149.5q0 -42 -24.5 -81t-65.5 -66q56 -23 86 -68t30 -102q0 -102 -86.5 -163.5t-199.5 -61.5zM205 209q0 -47 43.5 -77t118.5 -30t119 30t44 77
t-44 76.5t-119 29.5t-118.5 -29.5t-43.5 -76.5zM229 526q0 -43 43.5 -68.5t94.5 -25.5t95 25.5t44 68.5q0 42 -43.5 67t-95.5 25q-51 0 -94.5 -25t-43.5 -67z" />
    <glyph glyph-name="nine.dnom" horiz-adv-x="735" 
d="M342 -16q-98 0 -175 51t-106 151l125 21q50 -109 156 -109q151 0 174 219q-57 -77 -174 -77q-114 0 -190 64t-76 181q0 118 76.5 183t189.5 65q67 0 119 -23.5t83.5 -61t52 -89t28.5 -101.5t8 -104q0 -189 -79.5 -279.5t-211.5 -90.5zM197 485q0 -48 24.5 -78.5t55 -40.5
t65.5 -10q25 0 49.5 6t48 20t38 40.5t14.5 62.5t-14.5 63t-38 41t-48 20.5t-49.5 6.5q-56 0 -100.5 -31t-44.5 -100z" />
    <glyph glyph-name="zero.numr" horiz-adv-x="763" 
d="M383 700q-138 0 -219.5 103t-81.5 272t81.5 272t219.5 103t218.5 -103t80.5 -272t-80.5 -272t-218.5 -103zM203 1075q0 -113 44.5 -185.5t135.5 -72.5t134.5 72t43.5 186t-43.5 187t-134.5 73t-135.5 -73.5t-44.5 -186.5z" />
    <glyph glyph-name="one.numr" horiz-adv-x="653" 
d="M123 717v117h184v340q-48 -60 -135 -60h-49v115h49q41 0 63 5.5t40.5 26.5t25 62t6.5 111h121v-600h184v-117h-489z" />
    <glyph glyph-name="two.numr" horiz-adv-x="698" 
d="M104 823q15 12 74 51.5t106 75t100.5 81.5t84.5 92t31 85q0 59 -40 93t-100 34q-67 0 -107 -41t-32 -125l-119 17q-6 116 66 190t192 74q114 0 187.5 -70.5t73.5 -171.5q0 -171 -320 -374h336v-117h-533v106z" />
    <glyph glyph-name="three.numr" horiz-adv-x="724" 
d="M342 700q-130 0 -213.5 73.5t-65.5 180.5l123 15q-7 -53 16 -88.5t58.5 -48.5t81.5 -13q67 0 112.5 26t45.5 81t-45.5 79.5t-112.5 24.5h-82v119h82q63 0 98 24.5t35 69.5t-34.5 68.5t-98.5 23.5q-67 0 -99 -28t-32 -70l-123 14q-7 74 62.5 136.5t191.5 62.5
q119 0 186.5 -58.5t67.5 -148.5q0 -98 -78 -153q105 -45 105 -164q0 -101 -78.5 -163.5t-202.5 -62.5z" />
    <glyph glyph-name="four.numr" horiz-adv-x="813" 
d="M61 1030q105 55 159 163.5t54 240.5h125q0 -98 -36.5 -213.5t-100.5 -190.5h236v404h120v-404h93v-115h-93v-198h-120v198h-437v115z" />
    <glyph glyph-name="five.numr" horiz-adv-x="704" 
d="M352 696q-121 0 -195.5 59t-74.5 158l123 21q0 -45 38 -84t109 -39q74 0 112 40t38 105t-38.5 105.5t-111.5 40.5q-35 0 -63 -9t-43.5 -23t-24 -25.5t-12.5 -22.5h-117l35 412h442v-115h-331l-13 -148q47 41 127 41q119 0 195 -68t76 -188t-76 -190t-195 -70z" />
    <glyph glyph-name="six.numr" horiz-adv-x="735" 
d="M393 700q-67 0 -119 23.5t-83.5 61t-52 89t-28.5 101.5t-8 104q0 190 79.5 280.5t211.5 90.5q98 0 175 -51.5t106 -151.5l-125 -20q-49 108 -156 108q-151 0 -174 -219q58 78 174 78q114 0 190 -64t76 -182t-76.5 -183t-189.5 -65zM244 948q0 -47 25.5 -78.5t57 -42
t66.5 -10.5t65.5 10.5t55.5 41.5t25 79t-25 78.5t-55.5 40.5t-65.5 10t-66.5 -10t-57 -41t-25.5 -78z" />
    <glyph glyph-name="seven.numr" horiz-adv-x="593" 
d="M197 717q-3 211 53 362.5t147 239.5h-356v115h532v-115q-50 -27 -93 -74.5t-80.5 -119t-58 -177t-19.5 -231.5h-125z" />
    <glyph glyph-name="eight.numr" horiz-adv-x="735" 
d="M367 700q-113 0 -199 62t-86 164q0 129 115 174q-39 27 -63.5 66t-24.5 77q0 93 68.5 150t189.5 57t190.5 -57.5t69.5 -149.5q0 -42 -24.5 -81t-65.5 -66q56 -23 86 -68t30 -102q0 -102 -86.5 -164t-199.5 -62zM205 926q0 -47 43.5 -77t118.5 -30t119 30t44 77t-44 76.5
t-119 29.5t-118.5 -29.5t-43.5 -76.5zM229 1243q0 -43 43.5 -68.5t94.5 -25.5t95 25.5t44 68.5q0 42 -43.5 67t-95.5 25q-51 0 -94.5 -25t-43.5 -67z" />
    <glyph glyph-name="nine.numr" horiz-adv-x="735" 
d="M342 700q-98 0 -175 51.5t-106 151.5l125 21q50 -109 156 -109q151 0 174 219q-58 -78 -174 -78q-114 0 -190 64t-76 182t76.5 183t189.5 65q67 0 119 -23.5t83.5 -61t52 -89t28.5 -101.5t8 -104q0 -190 -79.5 -280.5t-211.5 -90.5zM197 1202q0 -48 24.5 -78.5t55 -40.5
t65.5 -10q25 0 49.5 6t48 20t38 40.5t14.5 62.5t-14.5 63t-38 41t-48 20.5t-49.5 6.5q-56 0 -100.5 -31t-44.5 -100z" />
    <glyph glyph-name="one.dnom.ss02" horiz-adv-x="530" 
d="M266 0v457q-48 -60 -135 -60h-49v115h49q41 0 63 5.5t40.5 26.5t25 62t6.5 111h121v-717h-121z" />
    <glyph glyph-name="four.dnom.ss02" horiz-adv-x="741" 
d="M426 0v199h-365v102l375 416h111v-404h92v-114h-92v-199h-121zM225 313h201v224z" />
    <glyph glyph-name="one.numr.ss02" horiz-adv-x="530" 
d="M266 717v457q-48 -60 -135 -60h-49v115h49q41 0 63 5.5t40.5 26.5t25 62t6.5 111h121v-717h-121z" />
    <glyph glyph-name="four.numr.ss02" horiz-adv-x="741" 
d="M426 717v198h-365v103l375 416h111v-404h92v-115h-92v-198h-121zM225 1030h201v223z" />
    <glyph glyph-name="onehalf.ss02" horiz-adv-x="1511" 
d="M307 717v457q-48 -60 -135 -60h-49v115h49q41 0 63 5.5t40.5 26.5t25 62t6.5 111h121v-717h-121zM184 0l1051 1466h149l-1050 -1466h-150zM936 469q-6 116 66 190t192 74q114 0 187 -70t73 -171q0 -172 -319 -375h335v-117h-532v106q16 12 60 42.5t83 58t87.5 66.5
t83 73.5t58 73.5t23.5 72q0 59 -39.5 92.5t-99.5 33.5q-67 0 -107 -40.5t-32 -124.5z" />
    <glyph glyph-name="uni2153.ss02" horiz-adv-x="1542" 
d="M307 717v457q-48 -60 -135 -60h-49v115h49q41 0 63 5.5t40.5 26.5t25 62t6.5 111h121v-717h-121zM184 0l1051 1466h149l-1050 -1466h-150zM942 238l123 14q-7 -53 16 -88.5t58.5 -48.5t81.5 -13q66 0 111.5 25.5t45.5 81.5q0 55 -45 79.5t-112 24.5h-82v119h82
q63 0 98 24.5t35 69.5t-34.5 68.5t-98.5 23.5q-67 0 -99 -28t-32 -70l-123 15q-7 74 62.5 136t191.5 62q119 0 186.5 -58.5t67.5 -148.5q0 -98 -78 -153q104 -44 104 -164q0 -101 -78 -163t-202 -62q-130 0 -213.5 73.5t-65.5 180.5z" />
    <glyph glyph-name="onequarter.ss02" horiz-adv-x="1476" 
d="M307 717v457q-48 -60 -135 -60h-49v115h49q41 0 63 5.5t40.5 26.5t25 62t6.5 111h121v-717h-121zM184 0l1051 1466h149l-1050 -1466h-150zM858 199v102l375 416h110v-404h93v-114h-93v-199h-120v199h-365zM1022 313h201v224z" />
    <glyph glyph-name="threequarters.ss02" horiz-adv-x="1599" 
d="M342 700q-130 0 -213.5 73.5t-65.5 180.5l123 15q-7 -53 16 -88.5t58.5 -48.5t81.5 -13q67 0 112.5 26t45.5 81t-45.5 79.5t-112.5 24.5h-82v119h82q63 0 98 24.5t35 69.5t-34.5 68.5t-98.5 23.5q-67 0 -99 -28t-32 -70l-123 14q-7 74 62.5 136.5t191.5 62.5
q119 0 186.5 -58.5t67.5 -148.5q0 -98 -78 -153q105 -45 105 -164q0 -101 -78.5 -163.5t-202.5 -62.5zM246 0l1050 1466h150l-1051 -1466h-149zM920 199v102l374 416h111v-404h92v-114h-92v-199h-121v199h-364zM1083 313h201v224z" />
    <glyph glyph-name="oneeighth.ss02" horiz-adv-x="1570" 
d="M1243 -16q-113 0 -199 61.5t-86 163.5q0 129 115 174q-39 27 -63.5 66t-24.5 77q0 93 68.5 150t189.5 57t190.5 -57.5t69.5 -149.5q0 -42 -24.5 -81t-65.5 -66q56 -23 86.5 -68t30.5 -102q0 -102 -87 -163.5t-200 -61.5zM123 1114v115h49q41 0 63 5.5t40.5 26.5t25 62
t6.5 111h121v-717h-121v457q-48 -60 -135 -60h-49zM164 0l1050 1466h150l-1051 -1466h-149zM1081 209q0 -47 43.5 -77t118.5 -30t119.5 30t44.5 77t-44.5 76.5t-119.5 29.5t-118.5 -29.5t-43.5 -76.5zM1106 526q0 -43 43 -68.5t94 -25.5t95 25.5t44 68.5q0 42 -43.5 67
t-95.5 25q-51 0 -94 -24.5t-43 -67.5z" />
    <glyph glyph-name="exclam.ss03" horiz-adv-x="593" 
d="M238 340l-21 1094h160l-21 -1094h-118zM205 0v184h184v-184h-184z" />
    <glyph glyph-name="exclamdown.ss03" horiz-adv-x="593" 
d="M238 737h118l21 -1093h-160zM205 893v184h184v-184h-184z" />
    <glyph glyph-name="question.ss03" horiz-adv-x="1177" 
d="M475 442q0 66 22 122t57 96t77.5 75.5t85.5 70t78 70.5t57 85.5t22 107.5q0 108 -77 178t-199 70q-143 0 -224 -96t-81 -289l-150 20q0 229 127 371.5t328 142.5q196 0 316 -112.5t120 -284.5q0 -71 -22.5 -131t-58.5 -103t-79.5 -81t-87.5 -72t-80 -68.5t-58.5 -78
t-22.5 -93.5v-102h-150v102zM459 0v184h184v-184h-184z" />
    <glyph glyph-name="questiondown.ss03" horiz-adv-x="1177" 
d="M702 635q0 -66 -22 -122t-57 -96t-77.5 -75.5t-85.5 -70t-78 -70.5t-57 -85.5t-22 -107.5q0 -108 77.5 -178t199.5 -70q143 0 224 96t81 289l149 -20q0 -229 -127 -371.5t-327 -142.5q-196 0 -316.5 112.5t-120.5 284.5q0 71 22.5 131t59 103t80 81t87 72t80 68.5t59 78
t22.5 93.5v102h149v-102zM535 893v184h184v-184h-184z" />
    </font>
</defs>
</svg>
