<svg width="66" height="78" viewBox="0 0 66 78" fill="none" xmlns="http://www.w3.org/2000/svg">
<g clip-path="url(#clip0_300_23)">
<path d="M59.08 77.1504H7.01994C5.79811 77.1477 4.62708 76.6608 3.76311 75.7969C2.89914 74.9329 2.41272 73.7619 2.41008 72.54V46.29C2.41273 45.0028 2.9257 43.7696 3.83684 42.8604C4.74798 41.9511 5.98272 41.4404 7.26994 41.4404H59.08C60.3009 41.4404 61.4721 41.9247 62.3363 42.7871C63.2006 43.6495 63.6872 44.8191 63.6899 46.04V72.54C63.6872 73.7619 63.2008 74.9329 62.3368 75.7969C61.4729 76.6608 60.3018 77.1477 59.08 77.1504V77.1504ZM7.26994 43.0596C6.41329 43.0596 5.59199 43.4001 4.98625 44.0059C4.38051 44.6116 4.03996 45.4334 4.03996 46.29V72.54C4.03996 73.3357 4.35626 74.0985 4.91887 74.6611C5.48148 75.2237 6.24431 75.54 7.03996 75.54H59.08C59.8757 75.54 60.6385 75.2237 61.2011 74.6611C61.7637 74.0985 62.08 73.3357 62.08 72.54V46.04C62.08 45.2444 61.7637 44.4816 61.2011 43.9189C60.6385 43.3563 59.8757 43.04 59.08 43.04L7.26994 43.0596Z" fill="black" stroke="black" stroke-width="0.75" stroke-miterlimit="10"/>
<path d="M2.64006 45.9698L1.7299 45.0499C1.30206 44.6227 0.962949 44.1152 0.731369 43.5567C0.499789 42.9982 0.380295 42.3996 0.380295 41.795C0.380295 41.1904 0.499789 40.5918 0.731369 40.0333C0.962949 39.4748 1.30206 38.9674 1.7299 38.5401L38.54 1.71981C38.9676 1.29177 39.4759 0.952763 40.0356 0.722736C40.5952 0.492709 41.1952 0.376392 41.8002 0.379963C42.4053 0.376392 43.0048 0.492709 43.5644 0.722736C44.124 0.952763 44.6324 1.29177 45.06 1.71981L63.8002 20.46C64.2296 20.8872 64.57 21.3956 64.8017 21.9552C65.0334 22.5147 65.1515 23.1141 65.1498 23.7198C65.1515 24.3255 65.0334 24.9259 64.8017 25.4854C64.57 26.045 64.2296 26.5524 63.8002 26.9796L47.9501 42.8302L46.8002 41.67L62.6401 25.8302C63.2004 25.2705 63.5166 24.5117 63.5199 23.7198C63.5208 23.3288 63.4435 22.9418 63.2924 22.5811C63.1413 22.2205 62.9195 21.8938 62.6401 21.6202L43.8998 2.87996C43.6262 2.60057 43.2996 2.37875 42.9389 2.22762C42.5782 2.07648 42.1913 1.9992 41.8002 2.00008C41.0083 2.00342 40.2495 2.31963 39.6899 2.87996L2.87981 39.6905C2.32711 40.2517 2.0175 41.0073 2.0175 41.795C2.0175 42.5827 2.32711 43.3392 2.87981 43.9005L3.78996 44.8204L2.64006 45.9698Z" fill="black" stroke="black" stroke-width="0.75" stroke-miterlimit="10"/>
<path d="M33.79 68.0303C31.4745 68.025 29.2554 67.1021 27.6191 65.4639C25.9827 63.8257 25.0626 61.6055 25.06 59.29C25.0626 56.9746 25.9827 54.7544 27.6191 53.1162C29.2554 51.478 31.4745 50.5551 33.79 50.5498C36.1071 50.5525 38.3287 51.4738 39.9672 53.1123C41.6057 54.7508 42.5276 56.9729 42.5302 59.29C42.5276 61.6072 41.6057 63.8283 39.9672 65.4668C38.3287 67.1053 36.1071 68.0276 33.79 68.0303V68.0303ZM33.79 52.1797C31.9051 52.1823 30.0984 52.9328 28.7655 54.2656C27.4327 55.5984 26.6827 57.4052 26.6801 59.29C26.6827 61.1749 27.4327 62.9816 28.7655 64.3145C30.0984 65.6473 31.9051 66.3977 33.79 66.4004C35.6748 66.3977 37.4816 65.6473 38.8144 64.3145C40.1472 62.9816 40.8972 61.1749 40.8998 59.29C40.8893 57.4104 40.1361 55.6115 38.8041 54.2852C37.4722 52.9588 35.6697 52.2126 33.79 52.21V52.1797Z" fill="black" stroke="black" stroke-width="0.75" stroke-miterlimit="10"/>
<path d="M33.79 40.8799C31.4754 40.8772 29.2567 39.9569 27.62 38.3203C25.9834 36.6837 25.0626 34.4649 25.06 32.1504C25.0626 29.8349 25.9827 27.6148 27.6191 25.9766C29.2554 24.3384 31.4745 23.4154 33.79 23.4102C36.1071 23.4128 38.3287 24.3342 39.9672 25.9727C41.6057 27.6112 42.5276 29.8332 42.5302 32.1504C42.5249 34.4658 41.602 36.684 39.9638 38.3203C38.3256 39.9566 36.1054 40.8772 33.79 40.8799V40.8799ZM33.79 25.04C31.9051 25.0427 30.0984 25.7922 28.7655 27.125C27.4327 28.4578 26.6827 30.2655 26.6801 32.1504C26.6827 34.0353 27.4327 35.842 28.7655 37.1748C30.0984 38.5076 31.9051 39.2571 33.79 39.2598C35.6748 39.2571 37.4816 38.5076 38.8144 37.1748C40.1472 35.842 40.8972 34.0353 40.8998 32.1504C40.8972 30.2655 40.1472 28.4578 38.8144 27.125C37.4816 25.7922 35.6748 25.0427 33.79 25.04V25.04Z" fill="black" stroke="black" stroke-width="0.75" stroke-miterlimit="10"/>
<path d="M56.6699 50.79C55.8477 50.79 55.0593 50.4632 54.478 49.8818C53.8966 49.3005 53.5703 48.5126 53.5703 47.6904C53.5689 47.2825 53.648 46.8782 53.8032 46.501C53.9584 46.1237 54.1866 45.7801 54.4745 45.4912C54.7625 45.2023 55.1046 44.9728 55.4814 44.8164C55.8581 44.66 56.2619 44.5801 56.6699 44.5801C57.0783 44.5801 57.483 44.6601 57.8603 44.8164C58.2376 44.9727 58.5803 45.2024 58.8691 45.4912C59.1579 45.78 59.3871 46.1227 59.5434 46.5C59.6997 46.8773 59.7802 47.282 59.7802 47.6904C59.7802 48.0984 59.6993 48.5021 59.5429 48.8789C59.3865 49.2557 59.1575 49.5977 58.8686 49.8857C58.5797 50.1737 58.2366 50.4014 57.8593 50.5566C57.4821 50.7118 57.0778 50.7914 56.6699 50.79V50.79ZM56.6699 46.21C56.476 46.21 56.2839 46.2487 56.1049 46.3232C55.9259 46.3977 55.7635 46.507 55.6269 46.6445C55.4903 46.7821 55.3823 46.9445 55.309 47.124C55.2357 47.3035 55.1988 47.4965 55.2001 47.6904C55.2001 48.0803 55.3551 48.4538 55.6308 48.7295C55.9065 49.0052 56.28 49.1602 56.6699 49.1602C56.8637 49.1615 57.0563 49.1241 57.2358 49.0508C57.4153 48.9775 57.5782 48.87 57.7158 48.7334C57.8533 48.5968 57.9626 48.4339 58.037 48.2549C58.1115 48.0759 58.1498 47.8843 58.1498 47.6904C58.1498 47.2979 57.9943 46.9211 57.7167 46.6436C57.4392 46.366 57.0624 46.21 56.6699 46.21V46.21Z" fill="black" stroke="black" stroke-width="0.75" stroke-miterlimit="10"/>
<path d="M8.83977 74.4697C8.01494 74.4697 7.22428 74.1418 6.64104 73.5586C6.0578 72.9754 5.7299 72.1852 5.7299 71.3604C5.7299 70.5355 6.0578 69.7444 6.64104 69.1611C7.22428 68.5779 8.01494 68.25 8.83977 68.25C9.66286 68.2526 10.4516 68.5811 11.0326 69.1641C11.6137 69.747 11.9399 70.5373 11.9399 71.3604C11.9399 72.1834 11.6137 72.9727 11.0326 73.5557C10.4516 74.1386 9.66286 74.4671 8.83977 74.4697V74.4697ZM8.83977 69.8799C8.44725 69.8799 8.07093 70.0359 7.79338 70.3135C7.51583 70.591 7.35979 70.9678 7.35979 71.3604C7.35979 71.7529 7.51583 72.1287 7.79338 72.4062C8.07093 72.6838 8.44725 72.8398 8.83977 72.8398C9.23055 72.8372 9.6049 72.6806 9.88029 72.4033C10.1557 72.1261 10.31 71.7511 10.31 71.3604C10.31 70.9696 10.1557 70.5947 9.88029 70.3174C9.6049 70.0401 9.23055 69.8825 8.83977 69.8799V69.8799Z" fill="black" stroke="black" stroke-width="0.75" stroke-miterlimit="10"/>
<path d="M41.56 11.2695C41.1521 11.2695 40.7483 11.1896 40.3715 11.0332C39.9948 10.8768 39.6527 10.6473 39.3647 10.3584C39.0767 10.0695 38.8485 9.72689 38.6933 9.34963C38.5381 8.97236 38.4586 8.56811 38.4599 8.16017C38.4599 7.338 38.7867 6.54915 39.3681 5.96779C39.9495 5.38643 40.7378 5.05959 41.56 5.05959C41.9679 5.05827 42.3722 5.13778 42.7495 5.29298C43.1267 5.44819 43.4698 5.67687 43.7587 5.96486C44.0477 6.25285 44.2766 6.59493 44.433 6.9717C44.5895 7.34846 44.6699 7.75223 44.6699 8.16017C44.6699 8.985 44.3425 9.77615 43.7592 10.3594C43.176 10.9426 42.3848 11.2695 41.56 11.2695V11.2695ZM41.56 6.69045C41.1701 6.69045 40.7961 6.84445 40.5204 7.12013C40.2448 7.39581 40.0898 7.7703 40.0898 8.16017C40.0885 8.35406 40.1259 8.5461 40.1992 8.7256C40.2724 8.90511 40.3804 9.06851 40.517 9.20607C40.6537 9.34363 40.8161 9.45286 40.9951 9.52736C41.1741 9.60186 41.3661 9.63967 41.56 9.63966C41.9525 9.63966 42.3288 9.48362 42.6064 9.20607C42.8839 8.92852 43.04 8.55269 43.04 8.16017C43.04 7.96628 43.0017 7.77375 42.9272 7.59474C42.8527 7.41574 42.7435 7.25384 42.6059 7.1172C42.4683 6.98057 42.3049 6.87213 42.1254 6.79884C41.9459 6.72556 41.7539 6.68913 41.56 6.69045V6.69045Z" fill="black" stroke="black" stroke-width="0.75" stroke-miterlimit="10"/>
</g>
<defs>
<clipPath id="clip0_300_23">
<rect width="65.52" height="77.53" fill="white"/>
</clipPath>
</defs>
</svg>
