<svg width="58" height="57" viewBox="0 0 58 57" fill="none" xmlns="http://www.w3.org/2000/svg">
<path d="M57.7042 4.55057V52.4404C57.6884 52.557 57.6688 52.6716 57.653 52.7902C57.532 53.7538 57.1165 54.6581 56.4619 55.3828C55.8074 56.1075 54.9448 56.6182 53.9889 56.8469C53.68 56.9207 53.3632 56.9498 53.0503 57.0004H39.372C39.372 56.9129 39.372 56.8236 39.372 56.7342V34.2785H48.6208C48.6208 34.1794 48.6345 34.0978 48.6345 34.0162V26.2447C48.6345 25.9921 48.6345 25.9921 48.3807 25.9921H39.3799V25.7629C39.3897 24.9566 39.3799 24.1483 39.4173 23.342C39.4567 22.4172 39.5098 21.4924 39.5983 20.5715C39.7321 19.1901 40.5213 18.2206 41.6882 17.527C42.4615 17.0704 43.3392 16.9208 44.2188 16.8198C45.4332 16.6932 46.6575 16.688 47.873 16.8043C48.115 16.8237 48.361 16.8373 48.6208 16.8548C48.6208 16.7635 48.6345 16.6935 48.6345 16.6236C48.6345 13.9761 48.6345 11.3273 48.6345 8.67723C48.6345 8.52569 48.5912 8.46935 48.4378 8.46546C47.5916 8.44409 46.7435 8.40717 45.8953 8.39163C44.2419 8.34776 42.5877 8.44135 40.9502 8.6714C39.767 8.83506 38.6047 9.12228 37.4829 9.52821C36.4427 9.90189 35.4715 10.4414 34.6079 11.1253C33.4568 12.0539 32.7051 13.2624 32.0734 14.5661C31.3703 16.0363 30.8827 17.5979 30.6251 19.2037C30.4139 20.4198 30.2955 21.6499 30.2709 22.8835C30.2552 23.8452 30.2709 24.8089 30.2709 25.7706C30.2709 25.8386 30.2709 25.9086 30.2709 25.9941H24.3202C24.0841 25.9941 24.0841 25.9941 24.0841 26.2233V34.0453C24.0841 34.2785 24.0841 34.2785 24.3163 34.2785H30.023C30.2866 34.2785 30.2866 34.2785 30.2866 34.5369V56.7342C30.2866 56.8216 30.2866 56.911 30.3024 56.9984H4.6421C4.41776 56.9673 4.18949 56.9421 3.96712 56.9032C2.85346 56.6995 1.8471 56.1175 1.12251 55.258C0.397931 54.3985 0.000814471 53.3158 4.65354e-06 52.1976C4.65354e-06 36.3955 4.65354e-06 20.5935 4.65354e-06 4.79149C-0.000498286 4.43584 0.0397673 4.08127 0.120038 3.73456C0.362191 2.66933 0.966276 1.71799 1.83188 1.03866C2.69749 0.359337 3.7725 -0.00706174 4.87822 0.00036328C20.8477 0.00036328 36.8158 0.00036328 52.7827 0.00036328C53.1017 -0.00365383 53.4203 0.0256546 53.7331 0.0877949C55.7167 0.519113 56.9879 1.70815 57.5389 3.63742C57.6101 3.93876 57.6652 4.24356 57.7042 4.55057Z" fill="#F1BE00"/>
</svg>
