<svg width="68" height="83" viewBox="0 0 68 83" fill="none" xmlns="http://www.w3.org/2000/svg">
<g clip-path="url(#clip0_48_225)">
<path d="M25.9694 65.6898C12.1447 65.6898 0.842041 54.4607 0.842041 40.518C0.842041 26.5752 12.0513 15.3462 25.9694 15.3462C39.8876 15.3462 51.0968 26.5752 51.0968 40.518C51.0968 54.4607 39.7942 65.6898 25.9694 65.6898ZM25.9694 16.937C12.9854 16.937 2.43002 27.511 2.43002 40.518C2.43002 53.525 12.9854 64.099 25.9694 64.099C38.9535 64.099 49.5088 53.525 49.5088 40.518C49.5088 27.511 38.9535 16.937 25.9694 16.937Z" fill="#00312F" stroke="#00312F" stroke-width="0.75" stroke-miterlimit="10"/>
<path d="M43.9951 56.8824L42.8486 57.9829L65.9184 82.1023L67.0649 81.0018L43.9951 56.8824Z" fill="#00312F" stroke="#00312F" stroke-width="0.75" stroke-miterlimit="10"/>
<path d="M32.8818 78.5098H19.0571C17.8428 78.5098 16.8153 77.4805 16.8153 76.264V33.7807C16.8153 32.845 16.3482 32.0028 15.6009 31.4413C10.9304 27.8855 8.40833 22.271 8.78197 16.3757C9.43584 7.67318 16.7218 0.561454 25.5024 0.374303C30.1729 0.280727 34.6566 1.96508 38.0194 5.24022C41.3822 8.51536 43.2504 12.9134 43.2504 17.5922C43.2504 23.0196 40.7283 28.0726 36.4314 31.3478C35.6841 31.9092 35.2171 32.845 35.2171 33.6872V76.1704C35.1237 77.4805 34.1896 78.5098 32.8818 78.5098ZM25.9695 1.96508C25.7826 1.96508 25.6892 1.96508 25.5024 1.96508C17.5625 2.15224 10.9304 8.51536 10.3699 16.4693C9.9963 21.8031 12.3316 26.8561 16.535 30.1313C17.6559 30.9735 18.4032 32.3771 18.4032 33.7807V76.264C18.4032 76.6383 18.6835 76.919 19.0571 76.919H32.8818C33.2555 76.919 33.5357 76.6383 33.5357 76.264V33.7807C33.5357 32.3771 34.1896 30.9735 35.4039 30.1313C39.3271 27.1369 41.6624 22.5517 41.6624 17.6858C41.6624 13.4749 39.981 9.45112 36.8985 6.45671C33.9093 3.55587 30.0795 1.96508 25.9695 1.96508Z" fill="#00312F" stroke="#00312F" stroke-width="0.75" stroke-miterlimit="10"/>
</g>
<defs>
<clipPath id="clip0_48_225">
<rect width="66.9752" height="82.5335" fill="white" transform="translate(0.561829)"/>
</clipPath>
</defs>
</svg>
