<svg width="58" height="58" viewBox="0 0 58 58" fill="none" xmlns="http://www.w3.org/2000/svg">
<g clip-path="url(#clip0_470_121)">
<path d="M12.0089 21.5718C10.7203 24.5569 10.2255 27.8245 10.5726 31.0573L13.8207 30.695C13.5581 28.365 13.8351 26.0059 14.6304 23.8002C15.4256 21.5945 16.7176 19.6013 18.4066 17.9749C20.0955 16.3486 22.136 15.1326 24.3701 14.4212C26.6043 13.7097 28.9722 13.5219 31.2905 13.8721C32.6269 14.0684 33.932 14.4382 35.1727 14.9721L36.4668 11.9828C34.9823 11.3479 33.4201 10.9128 31.8211 10.6887C30.8962 10.5453 29.9619 10.4717 29.0259 10.4687C28.3427 10.4685 27.66 10.5073 26.9813 10.5852L25.5837 10.7405L24.9367 5.02073C22.069 5.51717 19.3126 6.52065 16.797 7.98413C16.9064 7.25543 16.7973 6.51067 16.4835 5.84396C16.1697 5.17724 15.6653 4.61851 15.0341 4.23836C14.4029 3.85821 13.6731 3.67371 12.937 3.70818C12.201 3.74265 11.4917 3.99455 10.8987 4.43203C10.3058 4.8695 9.85582 5.47293 9.60572 6.16605C9.35562 6.85917 9.31657 7.61088 9.49356 8.32617C9.67055 9.04146 10.0556 9.68824 10.6 10.1848C11.1445 10.6813 11.8239 11.0053 12.5525 11.1158C10.4069 13.0878 8.63194 15.4282 7.31152 18.0261L12.5783 20.3166L12.0089 21.5718Z" fill="#E77971"/>
<path d="M45.991 36.4281C47.2976 33.4436 47.7931 30.1671 47.4274 26.9297L44.1923 27.292C44.3362 28.6232 44.3057 29.9674 44.1017 31.2907C43.803 33.2736 43.1163 35.1782 42.081 36.8955C41.0456 38.6128 39.6819 40.1092 38.0678 41.299C36.4537 42.4889 34.6208 43.3489 32.6741 43.8298C30.7273 44.3108 28.7049 44.4032 26.7224 44.1019C25.3863 43.9041 24.0815 43.5344 22.8402 43.002L21.5461 45.9913C23.0372 46.6204 24.6029 47.0553 26.2047 47.2853C27.1296 47.4293 28.064 47.5028 28.9999 47.5053C29.6831 47.5056 30.3658 47.4667 31.0446 47.3889L32.4422 47.2336L33.0762 52.9404C35.9512 52.4559 38.7138 51.4517 41.2289 49.977C41.1195 50.7057 41.2286 51.4505 41.5424 52.1172C41.8562 52.7839 42.3605 53.3426 42.9918 53.7228C43.623 54.1029 44.3528 54.2874 45.0888 54.253C45.8249 54.2185 46.5342 53.9666 47.1272 53.5291C47.7201 53.0916 48.17 52.4882 48.4202 51.7951C48.6703 51.102 48.7093 50.3503 48.5323 49.635C48.3553 48.9197 47.9702 48.2729 47.4258 47.7764C46.8813 47.2798 46.2019 46.9559 45.4734 46.8454C47.6189 44.8733 49.3939 42.5329 50.7143 39.935L45.4475 37.6316L45.991 36.4281Z" fill="#9DD8BD"/>
<path d="M31.7174 53.1857L31.2257 48.8247C29.5027 49.0069 27.7637 48.9721 26.0494 48.7212C24.3239 48.4588 22.6403 47.9716 21.0414 47.2718C18.7488 46.2769 16.667 44.8539 14.9075 43.079C15.6037 43.0934 16.2899 42.9124 16.8885 42.5567C17.487 42.2009 17.974 41.6846 18.2941 41.0663C18.6142 40.4479 18.7547 39.7522 18.6996 39.0581C18.6445 38.364 18.3961 37.6992 17.9825 37.1391C17.5688 36.5789 17.0066 36.1459 16.3594 35.889C15.7122 35.6321 15.006 35.5616 14.3209 35.6856C13.6357 35.8095 12.9989 36.1229 12.4828 36.5903C11.9667 37.0577 11.5917 37.6603 11.4006 38.3298C9.38837 34.558 8.65715 30.2341 9.31717 26.0103C9.56989 24.2884 10.053 22.6084 10.7536 21.0152L6.72904 19.2553L2.45864 17.3789C0.677787 21.4547 -0.141677 25.8855 0.0636271 30.3286C0.268931 34.7718 1.49348 39.1081 3.64261 43.0023C5.79173 46.8965 8.8078 50.2442 12.4576 52.7864C16.1073 55.3286 20.2929 56.9972 24.6907 57.6632C27.1966 58.0435 29.7415 58.0957 32.261 57.8184L31.7174 53.1857Z" fill="#E8AC26"/>
<path d="M52.345 11.8022C50.0903 8.7323 47.2515 6.138 43.9915 4.16821C40.7314 2.19843 37.1144 0.891965 33.3481 0.323849C30.8421 -0.0587563 28.2964 -0.106625 25.7778 0.181501L26.2955 4.81426L26.7872 9.17525C28.5096 8.97971 30.2503 9.01452 31.9635 9.27878C33.6866 9.54481 35.3693 10.0274 36.9715 10.7152C39.2586 11.7256 41.3384 13.1517 43.1053 14.9209C42.4092 14.9065 41.723 15.0875 41.1244 15.4433C40.5258 15.799 40.0389 16.3153 39.7188 16.9337C39.3987 17.552 39.2582 18.2477 39.3133 18.9418C39.3684 19.6359 39.6168 20.3007 40.0304 20.8609C40.4441 21.421 41.0063 21.8541 41.6535 22.111C42.3007 22.3679 43.0069 22.4383 43.692 22.3144C44.3772 22.1904 45.014 21.877 45.5301 21.4096C46.0462 20.9423 46.4211 20.3397 46.6123 19.6701C47.7781 21.8811 48.5199 24.2907 48.7993 26.7745C48.9936 28.497 48.9587 30.2375 48.6957 31.9508C48.4316 33.6702 47.9489 35.3488 47.2593 36.9459L51.2709 38.7058L55.5543 40.5693C56.5722 38.2486 57.2772 35.803 57.6507 33.2966C58.2212 29.541 58.0463 25.7097 57.1359 22.0217C56.2256 18.3336 54.5976 14.861 52.345 11.8022Z" fill="#C4D8FD"/>
</g>
<defs>
<clipPath id="clip0_470_121">
<rect width="58" height="58" fill="white"/>
</clipPath>
</defs>
</svg>
