<svg width="58" height="57" viewBox="0 0 58 57" fill="none" xmlns="http://www.w3.org/2000/svg">
<path d="M52.8201 0H4.60863C2.06336 0 0 2.0372 0 4.55021V52.1506C0 54.6636 2.06336 56.7008 4.60863 56.7008H52.8201C55.3653 56.7008 57.4287 54.6636 57.4287 52.1506V4.55021C57.4287 2.0372 55.3653 0 52.8201 0Z" fill="#F1BE00"/>
<path d="M22.6138 8H35.6368C35.7425 8.02425 35.8496 8.04177 35.9576 8.05246C37.4433 8.09908 38.929 8.14378 40.3871 8.46435C44.1831 9.29784 46.8809 11.4253 48.2899 15.0507C48.8999 16.6244 49.0967 18.2759 49.1655 19.9467C49.1852 20.4499 49.2305 20.9512 49.2639 21.4544V34.3123C49.2443 34.4172 49.2187 34.5202 49.2088 34.6271C49.0908 35.9871 49.0691 37.3665 48.8389 38.7071C48.0301 43.4205 44.4625 46.8225 39.6551 47.4151C37.6905 47.6343 35.715 47.7458 33.7379 47.7492C30.1152 47.792 26.4904 47.7492 22.8677 47.724C21.3026 47.7343 19.7394 47.616 18.1941 47.3704C13.6564 46.5796 10.3681 43.4166 9.44524 38.9675C9.07135 37.1586 9.02212 35.3265 9.01031 33.4983C8.98473 29.358 9.01035 25.2177 9.04774 21.0775C9.05954 19.5232 9.14612 17.9689 9.52787 16.4457C10.4016 12.9602 12.4501 10.4461 15.8446 9.06275C17.5212 8.3808 19.2902 8.15932 21.0868 8.09132C21.5965 8.07383 22.1042 8.02914 22.6138 8ZM29.1273 11.5419V11.6118C27.3032 11.6118 25.481 11.5827 23.6588 11.6215C22.2518 11.6507 20.8428 11.7225 19.4437 11.8566C18.155 11.9614 16.9163 12.3967 15.8504 13.1195C14.0204 14.3804 13.1112 16.1931 12.8987 18.3205C12.7196 20.1294 12.6547 21.9537 12.6351 23.7722C12.5996 26.9294 12.6154 30.0885 12.6547 33.2457C12.6724 34.6446 12.7571 36.0473 12.8929 37.4404C12.9995 38.7129 13.4396 39.9362 14.17 40.99C15.449 42.7969 17.285 43.6925 19.4397 43.9043C21.2836 44.083 23.1412 44.1394 24.9949 44.1666C27.6672 44.2093 30.3415 44.1996 33.0157 44.1666C34.7454 44.1471 36.4791 44.085 38.2068 43.9723C39.6964 43.879 41.1211 43.5079 42.3726 42.657C44.2224 41.3999 45.1276 39.5775 45.35 37.4365C45.531 35.616 45.5998 33.7819 45.6156 31.9517C45.6431 28.5731 45.6156 25.1944 45.5762 21.8158C45.5625 20.3936 45.533 18.9675 45.2358 17.5648C44.6868 14.9807 43.2306 13.1525 40.6666 12.2646C39.617 11.9128 38.5181 11.7253 37.4098 11.7089C34.649 11.639 31.8882 11.5943 29.1273 11.538V11.5419Z" fill="#F6EDC2"/>
<path d="M39.474 27.8758C39.4761 29.2175 39.2102 30.5465 38.6915 31.7867C38.1728 33.0268 37.4116 34.1538 36.4513 35.1032C35.491 36.0526 34.3506 36.8057 33.0952 37.3195C31.8398 37.8332 30.4941 38.0975 29.1351 38.0973C27.7737 38.1001 26.4251 37.8373 25.1668 37.3241C23.9085 36.8109 22.7653 36.0573 21.8028 35.1067C20.8403 34.156 20.0775 33.027 19.5581 31.7844C19.0388 30.5419 18.7732 29.2103 18.7766 27.8661C18.7766 26.5246 19.0445 25.1963 19.565 23.9572C20.0854 22.718 20.8483 21.5924 21.8099 20.6446C22.7714 19.6969 23.9129 18.9456 25.1688 18.4338C26.4247 17.9221 27.7706 17.6598 29.1293 17.6621C30.4881 17.6608 31.8339 17.9242 33.0895 18.437C34.3452 18.9498 35.4862 19.7021 36.447 20.6508C37.4079 21.5995 38.1698 22.7259 38.6892 23.9657C39.2086 25.2054 39.4753 26.5342 39.474 27.8758ZM22.417 27.8758C22.4033 31.4371 25.4081 34.4563 28.9403 34.5107C30.7149 34.5485 32.4331 33.8942 33.7223 32.6897C35.0116 31.4851 35.768 29.8274 35.8277 28.0759C35.8529 27.1911 35.6983 26.3103 35.373 25.4855C35.0478 24.6607 34.5584 23.9086 33.9338 23.2736C33.3092 22.6387 32.5621 22.1337 31.7365 21.7886C30.911 21.4435 30.0238 21.2652 29.1273 21.2642C27.3518 21.2668 25.6495 21.9629 24.3922 23.2006C23.1349 24.4384 22.4248 26.117 22.417 27.87V27.8758Z" fill="#F6EDC2"/>
<path d="M42.2943 17.2834C42.2939 17.5985 42.23 17.9103 42.1064 18.2009C41.9827 18.4914 41.8019 18.7547 41.5743 18.9756C41.3467 19.1965 41.077 19.3706 40.7807 19.4876C40.4844 19.6047 40.1675 19.6625 39.8484 19.6576C39.2092 19.6509 38.5985 19.3953 38.1492 18.9463C37.7 18.4972 37.4485 17.8912 37.4496 17.2601C37.4477 16.9448 37.5096 16.6323 37.6315 16.3408C37.7533 16.0494 37.9328 15.7849 38.1595 15.5627C38.3861 15.3406 38.6554 15.1653 38.9514 15.0471C39.2475 14.9288 39.5644 14.8701 39.8838 14.8742C40.2035 14.8718 40.5205 14.9327 40.816 15.0533C41.1115 15.1739 41.3795 15.3517 41.6042 15.5763C41.8289 15.8009 42.0058 16.0677 42.1243 16.3609C42.2429 16.6541 42.3007 16.9678 42.2943 17.2834Z" fill="#F6EDC2"/>
</svg>
