<svg width="58" height="57" viewBox="0 0 58 57" fill="none" xmlns="http://www.w3.org/2000/svg">
<path d="M52.8201 0H4.60862C2.06335 0 0 2.0372 0 4.55021V52.1506C0 54.6636 2.06335 56.7008 4.60862 56.7008H52.8201C55.3653 56.7008 57.4287 54.6636 57.4287 52.1506V4.55021C57.4287 2.0372 55.3653 0 52.8201 0Z" fill="#F1BE00"/>
<path d="M16.0849 11.123C17.1436 11.4572 18.1177 11.9002 18.8045 12.8347C19.3161 13.5327 19.5966 14.3699 19.6075 15.2314C19.6184 16.093 19.3592 16.9368 18.8654 17.6472C18.3562 18.3627 17.6312 18.9012 16.7937 19.1859C15.9563 19.4706 15.0492 19.4869 14.2017 19.2326C13.3551 18.9775 12.6121 18.464 12.0796 17.7658C11.5471 17.0676 11.2525 16.2207 11.2382 15.3469C11.2271 14.4852 11.4892 13.6418 11.9878 12.9345C12.4864 12.2273 13.1965 11.6917 14.0187 11.4028C14.2686 11.3173 14.5166 11.2202 14.7645 11.1289L16.0849 11.123Z" fill="#F6EDC2"/>
<path d="M23.6453 22.5975H30.5464V25.5313C31.4165 24.41 32.5221 23.488 33.7874 22.8287C36.5581 21.4299 41.7314 21.7873 43.9078 24.2801C45.3188 25.8985 45.8973 27.8316 45.9957 29.8814C46.1413 32.8928 46.1433 35.9043 46.1787 38.9274C46.2043 41.1209 46.1787 43.3144 46.1787 45.5565H38.9568C38.9568 45.2631 38.9568 44.9833 38.9568 44.7035C38.9312 40.6701 38.9568 36.6367 38.8466 32.6072C38.821 31.6552 38.4531 30.6838 38.0989 29.7784C37.9316 29.3529 37.4672 28.9663 37.0421 28.7312C34.8087 27.4916 31.8451 28.6787 31.2233 31.1229C30.9626 32.275 30.8371 33.4531 30.8494 34.6336C30.8022 37.989 30.8317 41.3462 30.8317 44.7035V45.5778H23.6413L23.6453 22.5975Z" fill="#F6EDC2"/>
<path d="M18.9992 22.625V45.5645H11.8502V22.625H18.9992Z" fill="#F6EDC2"/>
</svg>
