<svg width="206" height="53" viewBox="0 0 206 53" fill="none" xmlns="http://www.w3.org/2000/svg">
<g clip-path="url(#clip0_786_165)">
<path d="M64.7912 10.2173V8.86929C64.7729 8.66167 64.7976 8.45248 64.8634 8.25503C64.9293 8.05758 65.0349 7.87618 65.1737 7.7224C65.3125 7.56862 65.4813 7.4458 65.6694 7.36178C65.8575 7.27776 66.0608 7.23438 66.2664 7.23438C66.4719 7.23438 66.6752 7.27776 66.8634 7.36178C67.0515 7.4458 67.2203 7.56862 67.359 7.7224C67.4978 7.87618 67.6035 8.05758 67.6693 8.25503C67.7352 8.45248 67.7598 8.66167 67.7416 8.86929V10.2646C67.7088 10.6384 67.5391 10.9862 67.2661 11.2395C66.9931 11.4928 66.6364 11.6333 66.2664 11.6333C65.8963 11.6333 65.5396 11.4928 65.2666 11.2395C64.9936 10.9862 64.824 10.6384 64.7912 10.2646V10.2173ZM64.7912 37.7225V15.2548C64.824 14.8811 64.9936 14.5333 65.2666 14.28C65.5396 14.0267 65.8963 13.8862 66.2664 13.8862C66.6364 13.8862 66.9931 14.0267 67.2661 14.28C67.5391 14.5333 67.7088 14.8811 67.7416 15.2548V37.7225C67.7088 38.0962 67.5391 38.444 67.2661 38.6973C66.9931 38.9506 66.6364 39.0911 66.2664 39.0911C65.8963 39.0911 65.5396 38.9506 65.2666 38.6973C64.9936 38.444 64.824 38.0962 64.7912 37.7225V37.7225Z" fill="#00312F"/>
<path d="M72.3008 37.722V21.2615C72.3039 19.2804 73.0813 17.3813 74.4628 15.9805C75.8443 14.5796 77.7171 13.7912 79.6708 13.7881H81.1519C83.1065 13.7881 84.9811 14.5755 86.3633 15.977C87.7454 17.3785 88.5219 19.2794 88.5219 21.2615V37.722C88.4891 38.0958 88.3195 38.4436 88.0465 38.6969C87.7735 38.9502 87.4168 39.0907 87.0467 39.0907C86.6767 39.0907 86.32 38.9502 86.047 38.6969C85.774 38.4436 85.6044 38.0958 85.5715 37.722V21.2615C85.5715 20.673 85.4572 20.0902 85.2351 19.5465C85.013 19.0027 84.6875 18.5087 84.2771 18.0925C83.8667 17.6763 83.3794 17.3462 82.8432 17.121C82.307 16.8958 81.7323 16.7798 81.1519 16.7798H79.6708C79.0904 16.7798 78.5157 16.8958 77.9795 17.121C77.4433 17.3462 76.9561 17.6763 76.5456 18.0925C76.1352 18.5087 75.8097 19.0027 75.5876 19.5465C75.3655 20.0902 75.2511 20.673 75.2511 21.2615V37.722C75.2183 38.0958 75.0487 38.4436 74.7757 38.6969C74.5027 38.9502 74.146 39.0907 73.776 39.0907C73.4059 39.0907 73.0493 38.9502 72.7762 38.6969C72.5032 38.4436 72.3336 38.0958 72.3008 37.722V37.722Z" fill="#00312F"/>
<path d="M93.1052 31.7385V21.2615C93.1083 19.2784 93.8874 17.3775 95.2714 15.9763C96.6554 14.5751 98.5312 13.7881 100.487 13.7881H101.98C103.935 13.7881 105.811 14.5751 107.195 15.9763C108.579 17.3775 109.358 19.2784 109.361 21.2615C109.38 21.4691 109.355 21.6783 109.289 21.8758C109.223 22.0733 109.118 22.2546 108.979 22.4084C108.84 22.5622 108.671 22.685 108.483 22.769C108.295 22.8531 108.092 22.8964 107.886 22.8964C107.681 22.8964 107.477 22.8531 107.289 22.769C107.101 22.685 106.932 22.5622 106.793 22.4084C106.655 22.2546 106.549 22.0733 106.483 21.8758C106.417 21.6783 106.393 21.4691 106.411 21.2615C106.408 20.0718 105.94 18.9319 105.109 18.0918C104.278 17.2516 103.153 16.7798 101.98 16.7798H100.51C99.337 16.7798 98.2116 17.2516 97.3809 18.0918C96.5502 18.9319 96.082 20.0718 96.0789 21.2615V31.7385C96.082 32.9283 96.5502 34.0682 97.3809 34.9083C98.2116 35.7485 99.337 36.2203 100.51 36.2203H101.98C103.153 36.2203 104.278 35.7485 105.109 34.9083C105.94 34.0682 106.408 32.9283 106.411 31.7385C106.393 31.5309 106.417 31.3217 106.483 31.1243C106.549 30.9268 106.655 30.7454 106.793 30.5917C106.932 30.4379 107.101 30.3151 107.289 30.2311C107.477 30.147 107.681 30.1036 107.886 30.1036C108.092 30.1036 108.295 30.147 108.483 30.2311C108.671 30.3151 108.84 30.4379 108.979 30.5917C109.118 30.7454 109.223 30.9268 109.289 31.1243C109.355 31.3217 109.38 31.5309 109.361 31.7385C109.355 33.7208 108.575 35.6198 107.192 37.0204C105.808 38.4209 103.934 39.2089 101.98 39.212H100.51C98.5514 39.2151 96.6714 38.4299 95.283 37.0287C93.8947 35.6275 93.1114 33.7248 93.1052 31.7385V31.7385Z" fill="#00312F"/>
<path d="M113.921 31.739V8.86929C113.903 8.66167 113.927 8.45248 113.993 8.25503C114.059 8.05758 114.165 7.87618 114.303 7.7224C114.442 7.56862 114.611 7.4458 114.799 7.36178C114.987 7.27776 115.191 7.23438 115.396 7.23438C115.602 7.23438 115.805 7.27776 115.993 7.36178C116.181 7.4458 116.35 7.56862 116.489 7.7224C116.628 7.87618 116.733 8.05758 116.799 8.25503C116.865 8.45248 116.89 8.66167 116.871 8.86929V31.7863C116.871 32.9749 117.337 34.1149 118.166 34.9553C118.995 35.7958 120.119 36.268 121.291 36.268C121.496 36.2495 121.702 36.2745 121.897 36.3412C122.091 36.408 122.27 36.5152 122.422 36.6559C122.574 36.7966 122.695 36.9678 122.778 37.1585C122.861 37.3493 122.903 37.5554 122.903 37.7639C122.903 37.9723 122.861 38.1785 122.778 38.3692C122.695 38.56 122.574 38.7311 122.422 38.8719C122.27 39.0126 122.091 39.1197 121.897 39.1865C121.702 39.2533 121.496 39.2782 121.291 39.2597C120.32 39.2582 119.358 39.0623 118.462 38.6832C117.565 38.3041 116.751 37.7493 116.066 37.0506C115.382 36.352 114.84 35.5231 114.472 34.6116C114.103 33.7002 113.916 32.724 113.921 31.739V31.739Z" fill="#00312F"/>
<path d="M127.355 31.7385V15.2779C127.388 14.9042 127.558 14.5564 127.831 14.3031C128.104 14.0498 128.461 13.9093 128.831 13.9093C129.201 13.9093 129.557 14.0498 129.83 14.3031C130.103 14.5564 130.273 14.9042 130.306 15.2779V31.7385C130.306 32.327 130.42 32.9098 130.642 33.4535C130.864 33.9973 131.19 34.4913 131.6 34.9075C132.011 35.3237 132.498 35.6538 133.034 35.879C133.57 36.1042 134.145 36.2202 134.725 36.2202H136.207C137.379 36.2202 138.503 35.748 139.332 34.9075C140.161 34.067 140.626 32.9271 140.626 31.7385V15.2779C140.659 14.9042 140.829 14.5564 141.102 14.3031C141.375 14.0498 141.731 13.9093 142.101 13.9093C142.471 13.9093 142.828 14.0498 143.101 14.3031C143.374 14.5564 143.544 14.9042 143.577 15.2779V31.7385C143.574 33.7196 142.796 35.6187 141.415 37.0195C140.033 38.4204 138.16 39.2088 136.207 39.2119H134.725C132.772 39.2088 130.899 38.4204 129.518 37.0195C128.136 35.6187 127.359 33.7196 127.355 31.7385V31.7385Z" fill="#00312F"/>
<path d="M148.159 31.739V21.262C148.162 19.2788 148.941 17.3779 150.325 15.9767C151.709 14.5755 153.585 13.7885 155.541 13.7885H157.01C158.609 13.7902 160.163 14.3171 161.441 15.2903V8.86929C161.423 8.66167 161.448 8.45248 161.514 8.25503C161.58 8.05758 161.685 7.87618 161.824 7.7224C161.963 7.56862 162.132 7.4458 162.32 7.36178C162.508 7.27776 162.711 7.23438 162.917 7.23438C163.122 7.23438 163.326 7.27776 163.514 7.36178C163.702 7.4458 163.871 7.56862 164.009 7.7224C164.148 7.87618 164.254 8.05758 164.32 8.25503C164.385 8.45248 164.41 8.66167 164.392 8.86929V31.7863C164.386 33.7685 163.606 35.6676 162.222 37.0681C160.839 38.4686 158.965 39.2566 157.01 39.2597H155.541C154.569 39.2582 153.607 39.0623 152.71 38.6834C151.812 38.3045 150.998 37.7499 150.312 37.0514C149.627 36.3528 149.084 35.5241 148.714 34.6125C148.345 33.701 148.156 32.7245 148.159 31.739V31.739ZM151.109 31.739C151.113 32.9287 151.581 34.0686 152.411 34.9088C153.242 35.7489 154.368 36.2207 155.541 36.2207H157.01C158.183 36.2207 159.309 35.7489 160.139 34.9088C160.97 34.0686 161.438 32.9287 161.441 31.739V21.262C161.438 20.0723 160.97 18.9324 160.139 18.0922C159.309 17.2521 158.183 16.7803 157.01 16.7803H155.541C154.368 16.7803 153.242 17.2521 152.411 18.0922C151.581 18.9324 151.113 20.0723 151.109 21.262V31.739Z" fill="#00312F"/>
<path d="M168.975 31.7385V21.2615C168.975 19.2794 169.751 17.3785 171.133 15.977C172.516 14.5755 174.39 13.7881 176.345 13.7881H177.779C179.733 13.7912 181.606 14.5796 182.987 15.9805C184.369 17.3813 185.146 19.2804 185.149 21.2615C185.149 27.6234 184.228 27.99 176.986 27.99H171.949V31.7385C171.949 32.9272 172.414 34.0671 173.243 34.9076C174.072 35.7481 175.196 36.2203 176.368 36.2203H177.779C178.951 36.2203 180.076 35.7481 180.904 34.9076C181.733 34.0671 182.199 32.9272 182.199 31.7385C182.181 31.5309 182.205 31.3217 182.271 31.1243C182.337 30.9268 182.443 30.7454 182.581 30.5917C182.72 30.4379 182.889 30.3151 183.077 30.2311C183.265 30.147 183.469 30.1036 183.674 30.1036C183.88 30.1036 184.083 30.147 184.271 30.2311C184.459 30.3151 184.628 30.4379 184.767 30.5917C184.906 30.7454 185.011 30.9268 185.077 31.1243C185.143 31.3217 185.168 31.5309 185.149 31.7385C185.146 33.7197 184.369 35.6188 182.987 37.0196C181.606 38.4205 179.733 39.2089 177.779 39.212H176.298C174.353 39.1964 172.492 38.4025 171.12 37.003C169.749 35.6035 168.978 33.7115 168.975 31.7385V31.7385ZM171.925 24.9983H177.08C179.482 24.9983 181.558 24.9983 181.989 24.6672C182.264 23.5549 182.351 22.4033 182.246 21.2615C182.246 20.0729 181.78 18.933 180.951 18.0925C180.122 17.252 178.998 16.7798 177.826 16.7798H176.345C175.173 16.7798 174.049 17.252 173.22 18.0925C172.391 18.933 171.925 20.0729 171.925 21.2615V24.9983Z" fill="#00312F"/>
<path d="M189.779 31.739V21.262C189.782 19.2808 190.56 17.3818 191.941 15.9809C193.323 14.58 195.196 13.7917 197.149 13.7885H198.63C200.225 13.7902 201.776 14.3173 203.05 15.2903V8.86929C203.032 8.66167 203.056 8.45248 203.122 8.25503C203.188 8.05758 203.294 7.87618 203.433 7.7224C203.571 7.56862 203.74 7.4458 203.928 7.36178C204.116 7.27776 204.32 7.23438 204.525 7.23438C204.731 7.23438 204.934 7.27776 205.122 7.36178C205.31 7.4458 205.479 7.56862 205.618 7.7224C205.757 7.87618 205.862 8.05758 205.928 8.25503C205.994 8.45248 206.019 8.66167 206 8.86929V31.7863C205.997 33.7674 205.22 35.6665 203.838 37.0674C202.457 38.4682 200.584 39.2566 198.63 39.2597H197.149C196.178 39.2582 195.217 39.0623 194.32 38.6832C193.424 38.3041 192.61 37.7493 191.925 37.0506C191.24 36.352 190.698 35.5231 190.33 34.6116C189.962 33.7002 189.775 32.724 189.779 31.739ZM192.73 31.739C192.73 32.9276 193.195 34.0675 194.024 34.908C194.853 35.7485 195.977 36.2207 197.149 36.2207H198.63C199.803 36.2207 200.927 35.7485 201.756 34.908C202.584 34.0675 203.05 32.9276 203.05 31.739V21.262C203.05 20.0733 202.584 18.9334 201.756 18.0929C200.927 17.2524 199.803 16.7803 198.63 16.7803H197.149C195.977 16.7803 194.853 17.2524 194.024 18.0929C193.195 18.9334 192.73 20.0733 192.73 21.262V31.739Z" fill="#00312F"/>
<path d="M10.8218 19.7124C9.66056 22.4402 9.21466 25.4261 9.52742 28.3802L12.4545 28.0491C12.2179 25.92 12.4675 23.7643 13.1841 21.7487C13.9007 19.7331 15.0651 17.9118 16.5871 16.4256C18.109 14.9394 19.9478 13.8283 21.9611 13.1782C23.9744 12.5281 26.1083 12.3564 28.1975 12.6765C29.4018 12.8558 30.5778 13.1937 31.6959 13.6816L32.8621 10.95C31.5243 10.3699 30.1165 9.97225 28.6756 9.76751C27.8421 9.63641 27.0001 9.56921 26.1567 9.56648C25.541 9.56624 24.9258 9.60177 24.3142 9.6729L23.0547 9.81482L22.4717 4.58814C19.8874 5.04178 17.4036 5.95875 15.1366 7.29607C15.2351 6.63019 15.1368 5.94963 14.8541 5.34039C14.5713 4.73115 14.1168 4.22059 13.5479 3.87321C12.9791 3.52584 12.3215 3.35724 11.6582 3.38874C10.9949 3.42024 10.3557 3.65042 9.82135 4.05018C9.28701 4.44995 8.88154 5.00135 8.65616 5.63472C8.43078 6.26809 8.3956 6.95499 8.55509 7.60862C8.71458 8.26225 9.06156 8.85328 9.55219 9.307C10.0428 9.76072 10.6551 10.0568 11.3116 10.1577V10.1577C9.37818 11.9598 7.77864 14.0984 6.58875 16.4723L11.3349 18.5654L10.8218 19.7124Z" fill="#E77971"/>
<path d="M41.4445 33.288C42.622 30.5608 43.0685 27.5667 42.739 24.6084L39.8236 24.9395C39.9533 26.1559 39.9258 27.3843 39.742 28.5934C39.4728 30.4054 38.854 32.1458 37.921 33.7151C36.988 35.2844 35.7591 36.6517 34.3045 37.739C32.8499 38.8263 31.1983 39.6122 29.444 40.0516C27.6897 40.4911 25.8671 40.5756 24.0806 40.3003C22.8766 40.1195 21.7007 39.7817 20.5822 39.2951L19.416 42.0267C20.7597 42.6016 22.1706 42.999 23.6141 43.2092C24.4475 43.3408 25.2896 43.408 26.133 43.4103C26.7487 43.4105 27.3639 43.375 27.9755 43.3038L29.235 43.1619L29.8064 48.3768C32.3971 47.9341 34.8867 47.0164 37.1531 45.6689C37.0546 46.3347 37.1529 47.0153 37.4356 47.6246C37.7184 48.2338 38.1729 48.7444 38.7418 49.0917C39.3106 49.4391 39.9682 49.6077 40.6315 49.5762C41.2948 49.5447 41.934 49.3145 42.4684 48.9148C43.0027 48.515 43.4082 47.9636 43.6335 47.3302C43.8589 46.6969 43.8941 46.01 43.7346 45.3563C43.5751 44.7027 43.2281 44.1117 42.7375 43.658C42.2468 43.2042 41.6346 42.9082 40.9781 42.8072V42.8072C42.9115 41.0051 44.5111 38.8665 45.701 36.4926L40.9548 34.3877L41.4445 33.288Z" fill="#9DD8BD"/>
<path d="M28.582 48.6011L28.1389 44.616C26.5862 44.7825 25.0191 44.7508 23.4743 44.5214C21.9194 44.2817 20.4021 43.8365 18.9613 43.197C16.8953 42.2879 15.0193 40.9875 13.4338 39.3657C14.0611 39.3788 14.6795 39.2135 15.2189 38.8884C15.7583 38.5633 16.1971 38.0915 16.4855 37.5264C16.774 36.9614 16.9006 36.3257 16.851 35.6914C16.8013 35.0572 16.5774 34.4497 16.2047 33.9378C15.832 33.426 15.3253 33.0302 14.7421 32.7955C14.1589 32.5607 13.5225 32.4963 12.9051 32.6096C12.2876 32.7229 11.7138 33.0093 11.2487 33.4364C10.7836 33.8634 10.4457 34.4141 10.2735 35.0259C8.46015 31.5792 7.80121 27.6281 8.39599 23.7684C8.62373 22.195 9.05909 20.6597 9.6904 19.204L6.0637 17.5958L2.21542 15.8811C0.610604 19.6055 -0.127856 23.6544 0.0571535 27.7145C0.242163 31.7746 1.34567 35.7371 3.28235 39.2956C5.21904 42.8541 7.93697 45.9132 11.226 48.2362C14.5149 50.5593 18.2868 52.084 22.2498 52.6926C24.5081 53.0401 26.8014 53.0878 29.0718 52.8345L28.582 48.6011Z" fill="#E8AC26"/>
<path d="M47.1707 10.7844C45.1389 7.97918 42.5807 5.60852 39.6429 3.80855C36.7051 2.00857 33.4457 0.814735 30.0516 0.295594C27.7934 -0.0540278 25.4993 -0.0977701 23.2297 0.165517L23.6961 4.3989L24.1393 8.38394C25.6914 8.20526 27.26 8.23707 28.8039 8.47855C30.3567 8.72164 31.873 9.16266 33.3168 9.79113C35.3779 10.7145 37.2521 12.0176 38.8444 13.6343C38.217 13.6212 37.5986 13.7865 37.0592 14.1116C36.5199 14.4367 36.0811 14.9085 35.7926 15.4735C35.5041 16.0386 35.3775 16.6743 35.4272 17.3086C35.4768 17.9429 35.7007 18.5503 36.0734 19.0622C36.4462 19.574 36.9529 19.9698 37.5361 20.2045C38.1193 20.4393 38.7556 20.5037 39.3731 20.3904C39.9905 20.2771 40.5643 19.9907 41.0294 19.5637C41.4946 19.1366 41.8324 18.5859 42.0047 17.9741C43.0553 19.9944 43.7237 22.1963 43.9755 24.4661C44.1506 26.04 44.1192 27.6305 43.8821 29.1961C43.6442 30.7673 43.2092 32.3012 42.5877 33.7606L46.2028 35.3688L50.0627 37.0716C50.98 34.951 51.6153 32.7162 51.9519 30.4259C52.466 26.994 52.3084 23.493 51.488 20.1229C50.6677 16.7528 49.2006 13.5795 47.1707 10.7844V10.7844Z" fill="#C4D8FD"/>
</g>
<defs>
<clipPath id="clip0_786_165">
<rect width="206" height="53" fill="white"/>
</clipPath>
</defs>
</svg>
