<svg width="88" height="78" viewBox="0 0 88 78" fill="none" xmlns="http://www.w3.org/2000/svg">
<g clip-path="url(#clip0_300_5)">
<path d="M15.3636 71.674H2.43291C1.87608 71.674 1.34215 71.4541 0.948409 71.0632C0.554671 70.6722 0.333313 70.1419 0.333313 69.589V56.748C0.335684 56.1958 0.557824 55.667 0.951049 55.2765C1.34427 54.886 1.87681 54.6654 2.43291 54.6631H15.3636C15.9204 54.6631 16.4543 54.8829 16.8481 55.2739C17.2418 55.6649 17.463 56.1951 17.463 56.748V69.589C17.463 70.1419 17.2418 70.6722 16.8481 71.0632C16.4543 71.4541 15.9204 71.674 15.3636 71.674V71.674ZM2.43291 56.1486C2.27279 56.1486 2.11935 56.2118 2.00613 56.3242C1.89291 56.4367 1.82926 56.589 1.82926 56.748V69.589C1.82926 69.748 1.89291 69.9004 2.00613 70.0128C2.11935 70.1252 2.27279 70.1884 2.43291 70.1884H15.3636C15.5237 70.1884 15.6771 70.1252 15.7904 70.0128C15.9036 69.9004 15.9672 69.748 15.9672 69.589V56.748C15.9672 56.589 15.9036 56.4367 15.7904 56.3242C15.6771 56.2118 15.5237 56.1486 15.3636 56.1486H2.43291Z" fill="black" stroke="black" stroke-width="0.75" stroke-miterlimit="10"/>
<path d="M15.3636 48.3909H2.43291C1.87608 48.3909 1.34215 48.171 0.948409 47.7801C0.554671 47.3891 0.333313 46.8588 0.333313 46.3059V33.4658C0.335684 32.9136 0.557824 32.3848 0.951049 31.9943C1.34427 31.6038 1.87681 31.3832 2.43291 31.3809H15.3636C15.9204 31.3809 16.4543 31.6007 16.8481 31.9917C17.2418 32.3827 17.463 32.9129 17.463 33.4658V46.3059C17.463 46.8588 17.2418 47.3891 16.8481 47.7801C16.4543 48.171 15.9204 48.3909 15.3636 48.3909V48.3909ZM2.43291 32.8664C2.27279 32.8664 2.11935 32.9296 2.00613 33.042C1.89291 33.1544 1.82926 33.3068 1.82926 33.4658V46.3059C1.82926 46.4649 1.89291 46.6173 2.00613 46.7297C2.11935 46.8421 2.27279 46.9053 2.43291 46.9053H15.3636C15.5237 46.9053 15.6771 46.8421 15.7904 46.7297C15.9036 46.6173 15.9672 46.4649 15.9672 46.3059V33.4658C15.9672 33.3068 15.9036 33.1544 15.7904 33.042C15.6771 32.9296 15.5237 32.8664 15.3636 32.8664H2.43291Z" fill="black" stroke="black" stroke-width="0.75" stroke-miterlimit="10"/>
<path d="M15.3636 25.1085H2.43291C1.87681 25.1062 1.34427 24.8856 0.951049 24.4951C0.557824 24.1046 0.335684 23.5758 0.333313 23.0236V10.1826C0.335684 9.6304 0.557824 9.10157 0.951049 8.71109C1.34427 8.3206 1.87681 8.10001 2.43291 8.09766H15.3636C15.9204 8.09766 16.4543 8.31747 16.8481 8.70846C17.2418 9.09946 17.463 9.62967 17.463 10.1826V23.0236C17.463 23.5765 17.2418 24.1067 16.8481 24.4977C16.4543 24.8887 15.9204 25.1085 15.3636 25.1085V25.1085ZM2.43291 9.58317C2.27279 9.58317 2.11935 9.64638 2.00613 9.75881C1.89291 9.87124 1.82926 10.0236 1.82926 10.1826V23.0236C1.82926 23.1826 1.89291 23.3349 2.00613 23.4474C2.11935 23.5598 2.27279 23.623 2.43291 23.623H15.3636C15.5237 23.623 15.6771 23.5598 15.7904 23.4474C15.9036 23.3349 15.9672 23.1826 15.9672 23.0236V10.1826C15.9672 10.0236 15.9036 9.87124 15.7904 9.75881C15.6771 9.64638 15.5237 9.58317 15.3636 9.58317H2.43291Z" fill="black" stroke="black" stroke-width="0.75" stroke-miterlimit="10"/>
<path d="M8.53328 43.5947C8.25864 43.5955 7.98664 43.5427 7.73295 43.4382C7.47926 43.3338 7.24903 43.1801 7.05559 42.9865L4.47839 40.4095L5.53259 39.3627L8.12783 41.9396C8.18316 41.9954 8.24916 42.0396 8.32187 42.0698C8.39457 42.1 8.47251 42.1153 8.55132 42.1153C8.63013 42.1153 8.70806 42.1 8.78077 42.0698C8.85347 42.0396 8.91947 41.9954 8.9748 41.9396L20.2744 30.7188L21.3286 31.7656L10.038 42.9865C9.84078 43.1825 9.60613 43.3372 9.34769 43.4417C9.08924 43.5462 8.8123 43.5981 8.53328 43.5947V43.5947Z" fill="black" stroke="black" stroke-width="0.75" stroke-miterlimit="10"/>
<path d="M8.53328 66.9764C8.25865 66.9773 7.98664 66.9236 7.73295 66.8191C7.47926 66.7146 7.24904 66.5609 7.0556 66.3673L4.46036 63.7904L5.51456 62.7435L8.1098 65.3205C8.16513 65.3762 8.23113 65.4205 8.30383 65.4507C8.37653 65.4809 8.45447 65.497 8.53328 65.497C8.61209 65.497 8.69003 65.4809 8.76273 65.4507C8.83544 65.4205 8.90143 65.3762 8.95676 65.3205L20.2564 54.0996L21.3106 55.1465L10.02 66.3673C9.82488 66.5612 9.59319 66.7147 9.33801 66.8191C9.08283 66.9235 8.80928 66.9775 8.53328 66.9764V66.9764Z" fill="black" stroke="black" stroke-width="0.75" stroke-miterlimit="10"/>
<path d="M8.53328 19.4258C8.2585 19.4276 7.98612 19.3747 7.73229 19.2702C7.47846 19.1657 7.24842 19.012 7.05559 18.8176L4.47839 16.2494L5.53259 15.2025L8.12783 17.7795C8.18316 17.8352 8.24916 17.8795 8.32187 17.9097C8.39457 17.9399 8.47251 17.9551 8.55132 17.9551C8.63013 17.9551 8.70806 17.9399 8.78077 17.9097C8.85347 17.8795 8.91947 17.8352 8.9748 17.7795L20.2744 6.55859L21.3286 7.60544L10.038 18.8263C9.84034 19.0211 9.60529 19.1751 9.34681 19.2781C9.08832 19.3811 8.81174 19.4309 8.53328 19.4258V19.4258Z" fill="black" stroke="black" stroke-width="0.75" stroke-miterlimit="10"/>
<path d="M81.5753 71.674H68.6356C68.3604 71.674 68.0878 71.6198 67.8336 71.5149C67.5793 71.41 67.3485 71.256 67.1542 71.0623C66.96 70.8686 66.8062 70.6388 66.7017 70.3859C66.5972 70.133 66.5439 69.8624 66.5451 69.589V56.748C66.5451 56.1966 66.7651 55.6681 67.1569 55.2774C67.5487 54.8867 68.0804 54.6655 68.6356 54.6631H81.5753C82.1306 54.6655 82.6623 54.8867 83.0541 55.2774C83.4459 55.6681 83.6657 56.1966 83.6657 56.748V69.589C83.6669 69.8624 83.6138 70.133 83.5093 70.3859C83.4047 70.6388 83.251 70.8686 83.0567 71.0623C82.8625 71.256 82.6316 71.41 82.3774 71.5149C82.1232 71.6198 81.8506 71.674 81.5753 71.674ZM68.6356 56.1486C68.4771 56.1509 68.3259 56.2156 68.2146 56.3277C68.1033 56.4399 68.041 56.5906 68.041 56.748V69.589C68.041 69.7465 68.1033 69.8971 68.2146 70.0093C68.3259 70.1215 68.4771 70.1861 68.6356 70.1884H81.5753C81.7354 70.1884 81.8889 70.1252 82.0021 70.0128C82.1153 69.9004 82.179 69.748 82.179 69.589V56.748C82.179 56.589 82.1153 56.4367 82.0021 56.3242C81.8889 56.2118 81.7354 56.1486 81.5753 56.1486H68.6356Z" fill="black" stroke="black" stroke-width="0.75" stroke-miterlimit="10"/>
<path d="M81.5753 48.3909H68.6356C68.3604 48.3909 68.0878 48.3367 67.8336 48.2318C67.5793 48.1269 67.3485 47.9738 67.1542 47.7801C66.96 47.5863 66.8062 47.3557 66.7017 47.1028C66.5972 46.8499 66.5439 46.5793 66.5451 46.3059V33.4658C66.5451 32.9144 66.7651 32.385 67.1569 31.9943C67.5487 31.6036 68.0804 31.3832 68.6356 31.3809H81.5753C82.1306 31.3832 82.6623 31.6036 83.0541 31.9943C83.4459 32.385 83.6657 32.9144 83.6657 33.4658V46.3059C83.6669 46.5793 83.6138 46.8499 83.5093 47.1028C83.4047 47.3557 83.251 47.5863 83.0567 47.7801C82.8625 47.9738 82.6316 48.1269 82.3774 48.2318C82.1232 48.3367 81.8506 48.3909 81.5753 48.3909V48.3909ZM68.6356 32.8664C68.4771 32.8687 68.3259 32.9325 68.2146 33.0446C68.1033 33.1568 68.041 33.3084 68.041 33.4658V46.3059C68.041 46.4634 68.1033 46.6149 68.2146 46.7271C68.3259 46.8393 68.4771 46.903 68.6356 46.9053H81.5753C81.7354 46.9053 81.8889 46.8421 82.0021 46.7297C82.1153 46.6173 82.179 46.4649 82.179 46.3059V33.4658C82.179 33.3068 82.1153 33.1544 82.0021 33.042C81.8889 32.9296 81.7354 32.8664 81.5753 32.8664H68.6356Z" fill="black" stroke="black" stroke-width="0.75" stroke-miterlimit="10"/>
<path d="M81.5753 25.1085H68.6356C68.0804 25.1062 67.5486 24.885 67.1568 24.4942C66.765 24.1035 66.545 23.575 66.545 23.0236V10.1826C66.545 9.63122 66.765 9.1027 67.1568 8.71196C67.5486 8.32122 68.0804 8.10002 68.6356 8.09766H81.5753C82.1306 8.10002 82.6623 8.32122 83.0541 8.71196C83.4459 9.1027 83.6657 9.63122 83.6657 10.1826V23.0236C83.6657 23.575 83.4459 24.1035 83.0541 24.4942C82.6623 24.885 82.1306 25.1062 81.5753 25.1085V25.1085ZM68.6356 9.58317C68.4771 9.58552 68.3258 9.65013 68.2146 9.7623C68.1033 9.87448 68.041 10.0252 68.041 10.1826V23.0236C68.041 23.181 68.1033 23.3317 68.2146 23.4439C68.3258 23.5561 68.4771 23.6207 68.6356 23.623H81.5753C81.7354 23.623 81.8889 23.5598 82.0021 23.4474C82.1153 23.3349 82.179 23.1826 82.179 23.0236V10.1826C82.179 10.0236 82.1153 9.87124 82.0021 9.75881C81.8889 9.64638 81.7354 9.58317 81.5753 9.58317H68.6356Z" fill="black" stroke="black" stroke-width="0.75" stroke-miterlimit="10"/>
<path d="M74.7631 43.5947C74.487 43.5962 74.2134 43.5436 73.9581 43.4391C73.7029 43.3347 73.4712 43.1807 73.2764 42.9865L70.6811 40.4095L71.7443 39.3627L74.3306 41.9396C74.445 42.0506 74.5987 42.1126 74.7587 42.1126C74.9186 42.1126 75.0721 42.0506 75.1865 41.9396L86.4862 30.7188L87.5404 31.7656L76.2407 42.9865C76.0473 43.1801 75.8171 43.3338 75.5634 43.4382C75.3097 43.5427 75.0377 43.5955 74.7631 43.5947Z" fill="black" stroke="black" stroke-width="0.75" stroke-miterlimit="10"/>
<path d="M74.7631 66.9764C74.487 66.9779 74.2134 66.9244 73.9581 66.82C73.7029 66.7155 73.4712 66.5616 73.2764 66.3673L70.6811 63.7904L71.7443 62.7435L74.3306 65.3205C74.445 65.4314 74.5987 65.4935 74.7587 65.4935C74.9186 65.4935 75.0721 65.4314 75.1865 65.3205L86.4862 54.0996L87.5404 55.1465L76.2407 66.3673C76.0473 66.5609 75.8171 66.7146 75.5634 66.8191C75.3097 66.9236 75.0377 66.9773 74.7631 66.9764Z" fill="black" stroke="black" stroke-width="0.75" stroke-miterlimit="10"/>
<path d="M74.7631 19.4262C74.4868 19.4288 74.2128 19.376 73.9575 19.2715C73.7021 19.167 73.4706 19.0131 73.2764 18.818L70.6811 16.2411L71.7443 15.1942L74.3306 17.7712C74.445 17.8821 74.5987 17.9442 74.7587 17.9442C74.9186 17.9442 75.0721 17.8821 75.1865 17.7712L86.4862 6.55029L87.5404 7.59714L76.2407 18.818C76.0479 19.0124 75.8179 19.1661 75.5641 19.2707C75.3102 19.3752 75.0378 19.4281 74.7631 19.4262V19.4262Z" fill="black" stroke="black" stroke-width="0.75" stroke-miterlimit="10"/>
<path d="M49.8573 77.6602H36.0887C35.4936 77.6602 34.9229 77.4253 34.5021 77.0074C34.0813 76.5896 33.845 76.0228 33.845 75.4319V33.3761C33.8408 32.9141 33.7296 32.4597 33.5203 32.047C33.3109 31.6343 33.0089 31.275 32.6374 30.9967C30.343 29.2859 28.5184 27.029 27.3312 24.4351C26.1441 21.8412 25.6323 18.9927 25.8432 16.1512C26.1848 11.951 28.0675 8.02152 31.1338 5.10857C34.2001 2.19561 38.2365 0.502628 42.4772 0.34968C44.7748 0.2758 47.0638 0.664584 49.2057 1.49353C51.3475 2.32247 53.298 3.57405 54.9393 5.17236C56.5934 6.75504 57.9077 8.65368 58.8028 10.7544C59.6979 12.8551 60.1554 15.1145 60.1476 17.3955C60.1543 20.0364 59.5392 22.6418 58.3518 25.0048C57.1644 27.3678 55.4373 29.4229 53.3083 31.0054C52.9387 31.2828 52.6383 31.6411 52.4305 32.0523C52.2227 32.4635 52.1131 32.9161 52.11 33.3761V75.4319C52.1076 76.0236 51.8691 76.5907 51.4469 77.0083C51.0247 77.4259 50.4532 77.6602 49.8573 77.6602V77.6602ZM42.9819 1.87976H42.5223C38.6738 2.01355 35.0086 3.54448 32.2216 6.18338C29.4347 8.82227 27.7197 12.3856 27.4021 16.1966C27.2102 18.7818 27.6749 21.3728 28.7533 23.7334C29.8317 26.094 31.4894 28.1484 33.5746 29.7078C34.1311 30.1274 34.5829 30.668 34.8954 31.2886C35.2079 31.9092 35.3726 32.5932 35.3768 33.287V75.3428C35.3791 75.5248 35.4528 75.699 35.5825 75.8277C35.7121 75.9565 35.8873 76.029 36.0706 76.0313H49.8392C50.0232 76.0313 50.1997 75.9587 50.3298 75.8295C50.4599 75.7003 50.5331 75.5255 50.5331 75.3428V33.287C50.5379 32.5933 50.7027 31.9099 51.0151 31.2894C51.3275 30.6689 51.7793 30.1278 52.3353 29.7078C54.2725 28.2702 55.8437 26.4023 56.9234 24.2533C58.0031 22.1044 58.5611 19.7341 58.5527 17.3326C58.558 15.2585 58.1407 13.2051 57.3262 11.2953C56.5117 9.38544 55.3167 7.65862 53.8129 6.21921C50.9133 3.42134 47.0249 1.8637 42.9819 1.87976V1.87976Z" fill="black" stroke="black" stroke-width="0.75" stroke-miterlimit="10"/>
</g>
<defs>
<clipPath id="clip0_300_5">
<rect width="88" height="78" fill="white"/>
</clipPath>
</defs>
</svg>
