<svg width="84" height="70" viewBox="0 0 84 70" fill="none" xmlns="http://www.w3.org/2000/svg">
<g clip-path="url(#clip0_605_25)">
<mask id="path-1-outside-1_605_25" maskUnits="userSpaceOnUse" x="-1" y="0" width="84" height="55" fill="black">
<rect fill="white" x="-1" width="84" height="55"/>
<path d="M77.2702 2.37733L80.806 17.0243L78.4383 15.3322C77.939 14.9804 77.3208 14.8393 76.7179 14.9395C76.1149 15.0397 75.576 15.3732 75.2181 15.8673L54.1846 45.2872C54.0863 45.4256 53.9562 45.5386 53.8052 45.6167C53.6541 45.6947 53.4865 45.7356 53.3164 45.7358C53.0959 45.7343 52.881 45.6657 52.7008 45.539L42.4405 38.2273L31.612 30.53C31.0379 30.1168 30.3469 29.8963 29.6389 29.9004C29.0942 29.8992 28.5572 30.028 28.0726 30.2758C27.588 30.5236 27.1697 30.8833 26.8528 31.325L11.5334 52.7484C11.4689 52.8362 11.3846 52.9076 11.2872 52.9568C11.1899 53.0061 11.0822 53.0317 10.9731 53.0317C10.8315 53.0323 10.6934 52.9882 10.5784 52.9058L1.652 46.5622C1.57816 46.5115 1.51555 46.4462 1.46803 46.3704C1.42052 46.2946 1.38913 46.2098 1.37578 46.1214C1.35796 46.0327 1.35927 45.9411 1.37968 45.8529C1.4001 45.7647 1.43912 45.6818 1.49414 45.6098L17.9658 22.5651L25.298 12.3335C25.3963 12.195 25.5263 12.0821 25.6774 12.004C25.8284 11.926 25.996 11.8851 26.1661 11.8849C26.3867 11.8863 26.6015 11.955 26.7818 12.0816L47.8942 27.0906C48.4684 27.5039 49.1594 27.7243 49.8674 27.7203C50.412 27.7214 50.949 27.5927 51.4336 27.3449C51.9182 27.0971 52.3364 26.7374 52.6534 26.2957L65.1631 8.79962C65.3464 8.5496 65.4776 8.26542 65.5488 7.96391C65.62 7.6624 65.6297 7.34971 65.5774 7.04437C65.5252 6.73903 65.412 6.44727 65.2445 6.18638C65.0771 5.92548 64.8588 5.70074 64.6027 5.52552L62.2349 3.83335L77.2307 2.38521M77.5069 1H77.4043L60.9563 2.57409C60.7647 2.59304 60.5834 2.66981 60.4366 2.79415C60.2898 2.9185 60.1845 3.08451 60.1348 3.27006C60.085 3.45561 60.0932 3.65188 60.1582 3.83268C60.2232 4.01347 60.3419 4.1702 60.4986 4.28197L63.7897 6.64312C63.9934 6.78854 64.1309 7.0085 64.1724 7.25483C64.2138 7.50115 64.1557 7.75382 64.0107 7.95752L51.5011 25.4614C51.3106 25.7267 51.0594 25.9428 50.7684 26.092C50.4775 26.2412 50.1551 26.3191 49.8279 26.3193C49.4024 26.3183 48.9881 26.1833 48.644 25.9337L27.5316 10.9325C27.1241 10.6348 26.6318 10.4749 26.1267 10.476C25.7392 10.4756 25.3573 10.5675 25.0127 10.7441C24.6681 10.9207 24.3708 11.1769 24.1457 11.4914L16.8135 21.723L0.381319 44.7992C0.22474 45.0176 0.112958 45.2647 0.0523999 45.5263C-0.00815792 45.7878 -0.0163243 46.0588 0.0284102 46.3235C0.0731447 46.5882 0.169881 46.8415 0.313059 47.0689C0.456237 47.2962 0.64305 47.4932 0.86275 47.6483L9.78128 53.9919C10.1306 54.2361 10.5465 54.3679 10.9731 54.3697C11.2992 54.3702 11.6208 54.2925 11.9106 54.1432C12.2004 53.9939 12.45 53.7773 12.6384 53.5118L27.9262 32.1277C28.1167 31.8625 28.3679 31.6464 28.6589 31.4972C28.9498 31.348 29.2722 31.2701 29.5994 31.2699C30.0249 31.2709 30.4392 31.4058 30.7833 31.6555L41.6118 39.3686L51.8721 46.6802C52.2795 46.9779 52.7718 47.1379 53.2769 47.1367C53.6644 47.1372 54.0463 47.0453 54.3909 46.8687C54.7355 46.6921 55.0328 46.4359 55.2579 46.1214L76.2836 16.7016C76.3551 16.5991 76.4466 16.5119 76.5524 16.4451C76.6583 16.3784 76.7764 16.3334 76.9 16.3129C77.0235 16.2924 77.15 16.2967 77.2718 16.3256C77.3937 16.3545 77.5085 16.4074 77.6095 16.4812L80.9007 18.8424C81.0584 18.9589 81.2491 19.0223 81.4453 19.0234C81.5895 19.0241 81.732 18.9918 81.8619 18.9293C81.9917 18.8667 82.1056 18.7753 82.1946 18.6622C82.2837 18.5491 82.3457 18.4172 82.3759 18.2766C82.406 18.1359 82.4036 17.9902 82.3687 17.8507L78.5014 1.82639C78.4514 1.60422 78.3275 1.4055 78.1498 1.26257C77.972 1.11965 77.751 1.04094 77.5227 1.03934L77.5069 1Z"/>
</mask>
<path d="M77.2702 2.37733L80.806 17.0243L78.4383 15.3322C77.939 14.9804 77.3208 14.8393 76.7179 14.9395C76.1149 15.0397 75.576 15.3732 75.2181 15.8673L54.1846 45.2872C54.0863 45.4256 53.9562 45.5386 53.8052 45.6167C53.6541 45.6947 53.4865 45.7356 53.3164 45.7358C53.0959 45.7343 52.881 45.6657 52.7008 45.539L42.4405 38.2273L31.612 30.53C31.0379 30.1168 30.3469 29.8963 29.6389 29.9004C29.0942 29.8992 28.5572 30.028 28.0726 30.2758C27.588 30.5236 27.1697 30.8833 26.8528 31.325L11.5334 52.7484C11.4689 52.8362 11.3846 52.9076 11.2872 52.9568C11.1899 53.0061 11.0822 53.0317 10.9731 53.0317C10.8315 53.0323 10.6934 52.9882 10.5784 52.9058L1.652 46.5622C1.57816 46.5115 1.51555 46.4462 1.46803 46.3704C1.42052 46.2946 1.38913 46.2098 1.37578 46.1214C1.35796 46.0327 1.35927 45.9411 1.37968 45.8529C1.4001 45.7647 1.43912 45.6818 1.49414 45.6098L17.9658 22.5651L25.298 12.3335C25.3963 12.195 25.5263 12.0821 25.6774 12.004C25.8284 11.926 25.996 11.8851 26.1661 11.8849C26.3867 11.8863 26.6015 11.955 26.7818 12.0816L47.8942 27.0906C48.4684 27.5039 49.1594 27.7243 49.8674 27.7203C50.412 27.7214 50.949 27.5927 51.4336 27.3449C51.9182 27.0971 52.3364 26.7374 52.6534 26.2957L65.1631 8.79962C65.3464 8.5496 65.4776 8.26542 65.5488 7.96391C65.62 7.6624 65.6297 7.34971 65.5774 7.04437C65.5252 6.73903 65.412 6.44727 65.2445 6.18638C65.0771 5.92548 64.8588 5.70074 64.6027 5.52552L62.2349 3.83335L77.2307 2.38521M77.5069 1H77.4043L60.9563 2.57409C60.7647 2.59304 60.5834 2.66981 60.4366 2.79415C60.2898 2.9185 60.1845 3.08451 60.1348 3.27006C60.085 3.45561 60.0932 3.65188 60.1582 3.83268C60.2232 4.01347 60.3419 4.1702 60.4986 4.28197L63.7897 6.64312C63.9934 6.78854 64.1309 7.0085 64.1724 7.25483C64.2138 7.50115 64.1557 7.75382 64.0107 7.95752L51.5011 25.4614C51.3106 25.7267 51.0594 25.9428 50.7684 26.092C50.4775 26.2412 50.1551 26.3191 49.8279 26.3193C49.4024 26.3183 48.9881 26.1833 48.644 25.9337L27.5316 10.9325C27.1241 10.6348 26.6318 10.4749 26.1267 10.476C25.7392 10.4756 25.3573 10.5675 25.0127 10.7441C24.6681 10.9207 24.3708 11.1769 24.1457 11.4914L16.8135 21.723L0.381319 44.7992C0.22474 45.0176 0.112958 45.2647 0.0523999 45.5263C-0.00815792 45.7878 -0.0163243 46.0588 0.0284102 46.3235C0.0731447 46.5882 0.169881 46.8415 0.313059 47.0689C0.456237 47.2962 0.64305 47.4932 0.86275 47.6483L9.78128 53.9919C10.1306 54.2361 10.5465 54.3679 10.9731 54.3697C11.2992 54.3702 11.6208 54.2925 11.9106 54.1432C12.2004 53.9939 12.45 53.7773 12.6384 53.5118L27.9262 32.1277C28.1167 31.8625 28.3679 31.6464 28.6589 31.4972C28.9498 31.348 29.2722 31.2701 29.5994 31.2699C30.0249 31.2709 30.4392 31.4058 30.7833 31.6555L41.6118 39.3686L51.8721 46.6802C52.2795 46.9779 52.7718 47.1379 53.2769 47.1367C53.6644 47.1372 54.0463 47.0453 54.3909 46.8687C54.7355 46.6921 55.0328 46.4359 55.2579 46.1214L76.2836 16.7016C76.3551 16.5991 76.4466 16.5119 76.5524 16.4451C76.6583 16.3784 76.7764 16.3334 76.9 16.3129C77.0235 16.2924 77.15 16.2967 77.2718 16.3256C77.3937 16.3545 77.5085 16.4074 77.6095 16.4812L80.9007 18.8424C81.0584 18.9589 81.2491 19.0223 81.4453 19.0234C81.5895 19.0241 81.732 18.9918 81.8619 18.9293C81.9917 18.8667 82.1056 18.7753 82.1946 18.6622C82.2837 18.5491 82.3457 18.4172 82.3759 18.2766C82.406 18.1359 82.4036 17.9902 82.3687 17.8507L78.5014 1.82639C78.4514 1.60422 78.3275 1.4055 78.1498 1.26257C77.972 1.11965 77.751 1.04094 77.5227 1.03934L77.5069 1Z" fill="black"/>
<path d="M80.806 17.0243L80.6897 17.187L81.1264 17.499L81.0004 16.9773L80.806 17.0243ZM78.4383 15.3322L78.5546 15.1694L78.5535 15.1687L78.4383 15.3322ZM75.2181 15.8673L75.0561 15.75L75.0554 15.751L75.2181 15.8673ZM54.1846 45.2872L54.0219 45.1709L54.0215 45.1714L54.1846 45.2872ZM53.3164 45.7358L53.3151 45.9358H53.3167L53.3164 45.7358ZM52.7008 45.539L52.5847 45.7019L52.5858 45.7027L52.7008 45.539ZM42.4405 38.2273L42.5566 38.0645L42.5564 38.0643L42.4405 38.2273ZM31.612 30.53L31.4952 30.6924L31.4961 30.693L31.612 30.53ZM29.6389 29.9004L29.6385 30.1004L29.64 30.1004L29.6389 29.9004ZM26.8528 31.325L26.6903 31.2083L26.6901 31.2086L26.8528 31.325ZM11.5334 52.7484L11.6946 52.8668L11.6961 52.8647L11.5334 52.7484ZM10.9731 53.0317L10.9731 52.8317L10.9722 52.8317L10.9731 53.0317ZM10.5784 52.9058L10.695 52.7433L10.6943 52.7428L10.5784 52.9058ZM1.652 46.5622L1.76787 46.3991L1.76522 46.3973L1.652 46.5622ZM1.37578 46.1214L1.57377 46.0915L1.57187 46.0821L1.37578 46.1214ZM1.49414 45.6098L1.65313 45.7313L1.65685 45.7261L1.49414 45.6098ZM17.9658 22.5651L17.8032 22.4486L17.8031 22.4488L17.9658 22.5651ZM25.298 12.3335L25.4606 12.45L25.4611 12.4493L25.298 12.3335ZM26.1661 11.8849L26.1675 11.6849L26.1659 11.6849L26.1661 11.8849ZM26.7818 12.0816L26.8977 11.9186L26.8967 11.918L26.7818 12.0816ZM47.8942 27.0906L48.0111 26.9283L48.0101 26.9276L47.8942 27.0906ZM49.8674 27.7203L49.8678 27.5203L49.8662 27.5203L49.8674 27.7203ZM52.6534 26.2957L52.8159 26.4123L52.8161 26.412L52.6534 26.2957ZM65.1631 8.79962L65.0018 8.68133L65.0004 8.68329L65.1631 8.79962ZM64.6027 5.52552L64.4864 5.68827L64.4898 5.6906L64.6027 5.52552ZM62.2349 3.83335L62.2157 3.63428L61.6842 3.6856L62.1186 3.99607L62.2349 3.83335ZM77.5069 1L77.6925 0.925464L77.6421 0.8H77.5069V1ZM77.4043 1V0.8H77.3948L77.3853 0.80091L77.4043 1ZM60.9563 2.57409L60.9373 2.375L60.9367 2.37506L60.9563 2.57409ZM60.4986 4.28197L60.6152 4.11947L60.6147 4.11918L60.4986 4.28197ZM63.7897 6.64312L63.6731 6.80562L63.6735 6.80587L63.7897 6.64312ZM64.0107 7.95752L64.1735 8.07381L64.1737 8.07347L64.0107 7.95752ZM51.5011 25.4614L51.6636 25.5781L51.6638 25.5777L51.5011 25.4614ZM49.8279 26.3193L49.8274 26.5193H49.8281L49.8279 26.3193ZM48.644 25.9337L48.7615 25.7718L48.7599 25.7706L48.644 25.9337ZM27.5316 10.9325L27.4136 11.094L27.4157 11.0956L27.5316 10.9325ZM26.1267 10.476L26.1265 10.676L26.1271 10.676L26.1267 10.476ZM24.1457 11.4914L24.3082 11.6079L24.3083 11.6078L24.1457 11.4914ZM16.8135 21.723L16.651 21.6065L16.6506 21.607L16.8135 21.723ZM0.381319 44.7992L0.543859 44.9157L0.544235 44.9152L0.381319 44.7992ZM0.86275 47.6483L0.978674 47.4853L0.978125 47.4849L0.86275 47.6483ZM9.78128 53.9919L9.66535 54.1549L9.66669 54.1558L9.78128 53.9919ZM10.9731 54.3697L10.9722 54.5697H10.9728L10.9731 54.3697ZM12.6384 53.5118L12.4757 53.3955L12.4752 53.3961L12.6384 53.5118ZM27.9262 32.1277L27.7638 32.011L27.7635 32.0114L27.9262 32.1277ZM29.5994 31.2699L29.5999 31.0699L29.5993 31.0699L29.5994 31.2699ZM30.7833 31.6555L30.6658 31.8174L30.6673 31.8184L30.7833 31.6555ZM41.6118 39.3686L41.7279 39.2057L41.7278 39.2057L41.6118 39.3686ZM51.8721 46.6802L51.9901 46.5187L51.9881 46.5173L51.8721 46.6802ZM53.2769 47.1367L53.2772 46.9367H53.2765L53.2769 47.1367ZM55.2579 46.1214L55.4205 46.2379L55.4206 46.2377L55.2579 46.1214ZM76.2836 16.7016L76.4463 16.8179L76.4476 16.8161L76.2836 16.7016ZM77.6095 16.4812L77.4915 16.6427L77.4929 16.6437L77.6095 16.4812ZM80.9007 18.8424L81.0196 18.6815L81.0173 18.6798L80.9007 18.8424ZM81.4453 19.0234L81.4441 19.2234H81.4443L81.4453 19.0234ZM82.3687 17.8507L82.1743 17.8976L82.1747 17.8991L82.3687 17.8507ZM78.5014 1.82639L78.3062 1.87026L78.307 1.87331L78.5014 1.82639ZM77.5227 1.03934L77.3371 1.11388L77.3871 1.2384L77.5213 1.23934L77.5227 1.03934ZM77.0757 2.42427L80.6116 17.0712L81.0004 16.9773L77.4646 2.3304L77.0757 2.42427ZM80.9223 16.8616L78.5546 15.1694L78.322 15.4949L80.6897 17.187L80.9223 16.8616ZM78.5535 15.1687C78.0112 14.7866 77.3398 14.6334 76.6851 14.7422L76.7506 15.1368C77.3018 15.0452 77.8669 15.1742 78.3231 15.4956L78.5535 15.1687ZM76.6851 14.7422C76.0303 14.8511 75.4449 15.2131 75.0561 15.75L75.3801 15.9846C75.707 15.5332 76.1995 15.2284 76.7506 15.1368L76.6851 14.7422ZM75.0554 15.751L54.0219 45.1709L54.3473 45.4035L75.3808 15.9837L75.0554 15.751ZM54.0215 45.1714C53.9417 45.2838 53.836 45.3756 53.7133 45.439L53.897 45.7943C54.0763 45.7017 54.2309 45.5674 54.3476 45.4029L54.0215 45.1714ZM53.7133 45.439C53.5906 45.5024 53.4544 45.5356 53.3161 45.5358L53.3167 45.9358C53.5186 45.9355 53.7176 45.887 53.897 45.7943L53.7133 45.439ZM53.3177 45.5358C53.1378 45.5346 52.9627 45.4786 52.8157 45.3754L52.5858 45.7027C52.7994 45.8528 53.0539 45.9341 53.3151 45.9358L53.3177 45.5358ZM52.8168 45.3762L42.5566 38.0645L42.3244 38.3902L52.5847 45.7019L52.8168 45.3762ZM42.5564 38.0643L31.7279 30.367L31.4961 30.693L42.3246 38.3903L42.5564 38.0643ZM31.7288 30.3677C31.1203 29.9297 30.388 29.696 29.6377 29.7004L29.64 30.1004C30.3058 30.0965 30.9554 30.3039 31.4952 30.6924L31.7288 30.3677ZM29.6393 29.7004C29.0629 29.6992 28.4945 29.8354 27.9815 30.0977L28.1636 30.4538C28.62 30.2205 29.1256 30.0993 29.6385 30.1004L29.6393 29.7004ZM27.9815 30.0977C27.4686 30.36 27.0259 30.7408 26.6903 31.2083L27.0153 31.4416C27.3136 31.0258 27.7074 30.6872 28.1636 30.4538L27.9815 30.0977ZM26.6901 31.2086L11.3708 52.632L11.6961 52.8647L27.0155 31.4413L26.6901 31.2086ZM11.3723 52.63C11.3264 52.6925 11.2663 52.7433 11.197 52.7784L11.3775 53.1353C11.5029 53.0719 11.6115 52.9799 11.6946 52.8668L11.3723 52.63ZM11.197 52.7784C11.1277 52.8134 11.0509 52.8317 10.9731 52.8317L10.973 53.2317C11.1135 53.2317 11.2521 53.1987 11.3775 53.1353L11.197 52.7784ZM10.9722 52.8317C10.8727 52.8321 10.7757 52.8011 10.695 52.7433L10.4618 53.0683C10.611 53.1753 10.7903 53.2325 10.9739 53.2317L10.9722 52.8317ZM10.6943 52.7428L1.76786 46.3992L1.53615 46.7252L10.4626 53.0688L10.6943 52.7428ZM1.76522 46.3973C1.71394 46.3621 1.67047 46.3168 1.6375 46.2642L1.29857 46.4766C1.36063 46.5756 1.44239 46.6609 1.53878 46.7271L1.76522 46.3973ZM1.6375 46.2642C1.60455 46.2116 1.5828 46.1529 1.57354 46.0916L1.17803 46.1513C1.19547 46.2668 1.23649 46.3775 1.29857 46.4766L1.6375 46.2642ZM1.57187 46.0821C1.55964 46.0212 1.56055 45.9584 1.57454 45.898L1.18483 45.8078C1.15799 45.9238 1.15628 46.0442 1.1797 46.1608L1.57187 46.0821ZM1.57454 45.898C1.58853 45.8375 1.61528 45.7807 1.65305 45.7313L1.33523 45.4884C1.26295 45.583 1.21167 45.6919 1.18483 45.8078L1.57454 45.898ZM1.65685 45.7261L18.1285 22.6814L17.8031 22.4488L1.33143 45.4935L1.65685 45.7261ZM18.1284 22.6816L25.4606 12.45L25.1354 12.217L17.8032 22.4486L18.1284 22.6816ZM25.4611 12.4493C25.5409 12.3369 25.6465 12.2451 25.7692 12.1817L25.5856 11.8263C25.4062 11.919 25.2517 12.0532 25.1349 12.2177L25.4611 12.4493ZM25.7692 12.1817C25.8919 12.1183 26.0281 12.0851 26.1664 12.0849L26.1659 11.6849C25.9639 11.6852 25.7649 11.7337 25.5856 11.8263L25.7692 12.1817ZM26.1648 12.0849C26.3447 12.0861 26.5199 12.1421 26.6668 12.2453L26.8967 11.918C26.6831 11.7679 26.4286 11.6866 26.1675 11.6849L26.1648 12.0849ZM26.6659 12.2446L47.7784 27.2536L48.0101 26.9276L26.8977 11.9186L26.6659 12.2446ZM47.7774 27.253C48.3859 27.6909 49.1182 27.9246 49.8685 27.9203L49.8662 27.5203C49.2005 27.5241 48.5508 27.3168 48.0111 26.9283L47.7774 27.253ZM49.867 27.9203C50.4434 27.9214 51.0117 27.7852 51.5246 27.5229L51.3425 27.1668C50.8862 27.4001 50.3806 27.5213 49.8678 27.5203L49.867 27.9203ZM51.5246 27.5229C52.0376 27.2606 52.4803 26.8799 52.8159 26.4123L52.4909 26.1791C52.1926 26.5948 51.7988 26.9335 51.3425 27.1668L51.5246 27.5229ZM52.8161 26.412L65.3258 8.91594L65.0004 8.68329L52.4907 26.1794L52.8161 26.412ZM65.3243 8.9179C65.5236 8.64627 65.6661 8.3375 65.7434 8.00986L65.3541 7.91796C65.2891 8.19334 65.1693 8.45292 65.0018 8.68134L65.3243 8.9179ZM65.7434 8.00986C65.8208 7.68222 65.8314 7.34243 65.7746 7.01063L65.3803 7.07811C65.428 7.35699 65.4191 7.64257 65.3541 7.91796L65.7434 8.00986ZM65.7746 7.01063C65.7178 6.67882 65.5948 6.36181 65.4128 6.07835L65.0762 6.2944C65.2292 6.53274 65.3326 6.79924 65.3803 7.07811L65.7746 7.01063ZM65.4128 6.07835C65.2309 5.7949 64.9938 5.55077 64.7156 5.36045L64.4898 5.6906C64.7238 5.85071 64.9232 6.05605 65.0762 6.2944L65.4128 6.07835ZM64.719 5.36281L62.3512 3.67063L62.1186 3.99607L64.4864 5.68824L64.719 5.36281ZM62.2542 4.03243L77.2499 2.58429L77.2115 2.18614L62.2157 3.63428L62.2542 4.03243ZM77.5069 0.8H77.4043V1.2H77.5069V0.8ZM77.3853 0.80091L60.9373 2.375L60.9754 2.77319L77.4234 1.19909L77.3853 0.80091ZM60.9367 2.37506C60.7047 2.398 60.4851 2.49093 60.3073 2.64155L60.5658 2.94676C60.6816 2.84868 60.8247 2.78808 60.976 2.77312L60.9367 2.37506ZM60.3073 2.64155C60.1295 2.79218 60.0019 2.99334 59.9416 3.21828L60.3279 3.32184C60.3671 3.17568 60.4501 3.04483 60.5658 2.94676L60.3073 2.64155ZM59.9416 3.21828C59.8813 3.44324 59.8912 3.68119 59.97 3.90034L60.3464 3.76502C60.2952 3.62258 60.2888 3.46799 60.3279 3.32184L59.9416 3.21828ZM59.97 3.90034C60.0488 4.1195 60.1927 4.30939 60.3824 4.44477L60.6147 4.11918C60.4912 4.03101 60.3976 3.90745 60.3464 3.76502L59.97 3.90034ZM60.382 4.44448L63.6731 6.80562L63.9063 6.48061L60.6152 4.11947L60.382 4.44448ZM63.6735 6.80587C63.8341 6.92058 63.9425 7.09398 63.9751 7.28799L64.3696 7.22167C64.3194 6.92302 64.1526 6.6565 63.906 6.48036L63.6735 6.80587ZM63.9751 7.28799C64.0077 7.48199 63.962 7.68104 63.8478 7.84157L64.1737 8.07347C64.3493 7.8266 64.4198 7.52031 64.3696 7.22167L63.9751 7.28799ZM63.848 7.84123L51.3384 25.3452L51.6638 25.5777L64.1735 8.07381L63.848 7.84123ZM51.3387 25.3448C51.1667 25.5841 50.9399 25.7793 50.6772 25.914L50.8597 26.27C51.1789 26.1063 51.4545 25.8692 51.6636 25.5781L51.3387 25.3448ZM50.6772 25.914C50.4144 26.0487 50.1233 26.1191 49.8278 26.1193L49.8281 26.5193C50.1869 26.5191 50.5405 26.4336 50.8597 26.27L50.6772 25.914ZM49.8284 26.1193C49.4449 26.1184 49.0715 25.9967 48.7615 25.7718L48.5266 26.0955C48.9047 26.3699 49.36 26.5182 49.8274 26.5193L49.8284 26.1193ZM48.7599 25.7706L27.6474 10.7695L27.4157 11.0956L48.5282 26.0967L48.7599 25.7706ZM27.6496 10.771C27.2077 10.4482 26.6739 10.2748 26.1262 10.276L26.1271 10.676C26.5897 10.675 27.0405 10.8215 27.4136 11.094L27.6496 10.771ZM26.1269 10.276C25.7077 10.2756 25.2944 10.375 24.9215 10.5661L25.1039 10.9221C25.4202 10.76 25.7708 10.6756 26.1265 10.676L26.1269 10.276ZM24.9215 10.5661C24.5486 10.7573 24.2268 11.0346 23.9831 11.3749L24.3083 11.6078C24.5149 11.3193 24.7876 11.0842 25.1039 10.9221L24.9215 10.5661ZM23.9831 11.3749L16.651 21.6065L16.9761 21.8395L24.3082 11.6079L23.9831 11.3749ZM16.6506 21.607L0.218403 44.6832L0.544235 44.9152L16.9764 21.839L16.6506 21.607ZM0.218779 44.6827C0.0468393 44.9225 -0.0759321 45.1938 -0.142447 45.4811L0.247247 45.5714C0.301847 45.3355 0.402641 45.1127 0.543858 44.9157L0.218779 44.6827ZM-0.142447 45.4811C-0.208959 45.7685 -0.217931 46.066 -0.168794 46.3568L0.225614 46.2902C0.185283 46.0515 0.192643 45.8072 0.247247 45.5714L-0.142447 45.4811ZM-0.168794 46.3568C-0.119659 46.6476 -0.0134092 46.9258 0.143823 47.1755L0.482295 46.9623C0.353172 46.7573 0.265948 46.5289 0.225614 46.2902L-0.168794 46.3568ZM0.143823 47.1755C0.301054 47.4251 0.50618 47.6413 0.747376 47.8117L0.978125 47.4849C0.77992 47.345 0.611419 47.1673 0.482295 46.9623L0.143823 47.1755ZM0.746827 47.8113L9.66536 54.1549L9.8972 53.8289L0.978674 47.4853L0.746827 47.8113ZM9.66669 54.1558C10.0494 54.4234 10.505 54.5677 10.9722 54.5697L10.9739 54.1697C10.588 54.1681 10.2118 54.0488 9.89586 53.828L9.66669 54.1558ZM10.9728 54.5697C11.3309 54.5702 11.6839 54.4849 12.0022 54.321L11.819 53.9654C11.5576 54.1 11.2676 54.1701 10.9733 54.1697L10.9728 54.5697ZM12.0022 54.321C12.3204 54.157 12.5946 53.9192 12.8015 53.6275L12.4752 53.3961C12.3054 53.6355 12.0804 53.8307 11.819 53.9654L12.0022 54.321ZM12.8011 53.6281L28.0889 32.244L27.7635 32.0114L12.4757 53.3955L12.8011 53.6281ZM28.0886 32.2444C28.2606 32.005 28.4873 31.8099 28.7501 31.6751L28.5676 31.3192C28.2484 31.4829 27.9729 31.72 27.7638 32.011L28.0886 32.2444ZM28.7501 31.6751C29.0128 31.5404 29.304 31.4701 29.5995 31.4699L29.5993 31.0699C29.2404 31.0701 28.8868 31.1556 28.5676 31.3192L28.7501 31.6751ZM29.5989 31.4699C29.9824 31.4708 30.3558 31.5924 30.6658 31.8174L30.9007 31.4936C30.5226 31.2193 30.0674 31.071 29.5999 31.0699L29.5989 31.4699ZM30.6673 31.8184L41.4958 39.5315L41.7278 39.2057L30.8993 31.4926L30.6673 31.8184ZM41.4957 39.5314L51.756 46.8431L51.9881 46.5173L41.7279 39.2057L41.4957 39.5314ZM51.7541 46.8417C52.196 47.1646 52.7297 47.338 53.2774 47.3367L53.2765 46.9367C52.8139 46.9378 52.3631 46.7913 51.99 46.5187L51.7541 46.8417ZM53.2767 47.3367C53.6959 47.3372 54.1092 47.2378 54.4821 47.0466L54.2997 46.6907C53.9834 46.8528 53.6328 46.9371 53.2772 46.9367L53.2767 47.3367ZM54.4821 47.0466C54.8551 46.8555 55.1768 46.5782 55.4205 46.2379L55.0953 46.005C54.8887 46.2935 54.616 46.5286 54.2997 46.6907L54.4821 47.0466ZM55.4206 46.2377L76.4463 16.8179L76.1209 16.5853L55.0952 46.0051L55.4206 46.2377ZM76.4476 16.8161C76.5039 16.7355 76.5758 16.6669 76.6591 16.6143L76.4458 16.276C76.3174 16.3569 76.2065 16.4627 76.1196 16.5871L76.4476 16.8161ZM76.6591 16.6143C76.7424 16.5618 76.8355 16.5264 76.9328 16.5102L76.8672 16.1156C76.7174 16.1405 76.5742 16.195 76.4458 16.276L76.6591 16.6143ZM76.9328 16.5102C77.0301 16.494 77.1297 16.4974 77.2257 16.5202L77.318 16.131C77.1703 16.0959 77.017 16.0907 76.8672 16.1156L76.9328 16.5102ZM77.2257 16.5202C77.3216 16.5429 77.412 16.5846 77.4915 16.6427L77.7275 16.3197C77.605 16.2302 77.4657 16.166 77.318 16.131L77.2257 16.5202ZM77.4929 16.6437L80.7841 19.0049L81.0173 18.6798L77.7261 16.3187L77.4929 16.6437ZM80.7819 19.0032C80.9736 19.1449 81.2055 19.222 81.4441 19.2234L81.4464 18.8234C81.2926 18.8225 81.1431 18.7728 81.0196 18.6815L80.7819 19.0032ZM81.4443 19.2234C81.619 19.2242 81.7915 19.1852 81.9487 19.1094L81.775 18.7491C81.6725 18.7985 81.56 18.8239 81.4462 18.8234L81.4443 19.2234ZM81.9487 19.1094C82.1059 19.0336 82.2438 18.923 82.3518 18.7859L82.0375 18.5385C81.9673 18.6276 81.8775 18.6997 81.775 18.7491L81.9487 19.1094ZM82.3518 18.7859C82.4597 18.6489 82.5348 18.489 82.5714 18.3185L82.1803 18.2346C82.1565 18.3454 82.1077 18.4493 82.0375 18.5385L82.3518 18.7859ZM82.5714 18.3185C82.608 18.148 82.605 17.9714 82.5628 17.8022L82.1747 17.8991C82.2022 18.0091 82.2041 18.1238 82.1803 18.2346L82.5714 18.3185ZM82.5631 17.8037L78.6958 1.77947L78.307 1.87331L82.1743 17.8976L82.5631 17.8037ZM78.6965 1.78253C78.6366 1.51612 78.488 1.27795 78.2751 1.10672L78.0244 1.41843C78.167 1.53305 78.2663 1.69232 78.3063 1.87025L78.6965 1.78253ZM78.2751 1.10672C78.0622 0.935501 77.7975 0.841266 77.5241 0.839348L77.5213 1.23934C77.7046 1.24062 77.8819 1.30379 78.0244 1.41843L78.2751 1.10672ZM77.7083 0.964807L77.6925 0.925464L77.3213 1.07454L77.3371 1.11388L77.7083 0.964807Z" fill="black" mask="url(#path-1-outside-1_605_25)"/>
<path d="M44.4506 53.5743C39.8079 53.5759 35.269 52.2044 31.408 49.6334C27.5469 47.0624 24.5372 43.4073 22.7594 39.1304C20.9816 34.8535 20.5157 30.1469 21.4204 25.6059C22.3252 21.0649 24.5602 16.8935 27.8425 13.6192C31.1249 10.345 35.3072 8.11488 39.8606 7.21109C44.414 6.30729 49.1339 6.77035 53.4234 8.54173C57.7128 10.3131 61.3792 13.3132 63.9587 17.1626C66.5382 21.012 67.9151 25.5378 67.9151 30.1676C67.9088 36.3722 65.4349 42.3209 61.036 46.709C56.6372 51.097 50.6726 53.566 44.4506 53.5743V53.5743ZM44.4506 6.89457C39.8312 6.88678 35.3133 8.24575 31.4687 10.7995C27.6241 13.3532 24.6256 16.987 22.8528 21.2407C21.08 25.4945 20.6125 30.1772 21.5095 34.696C22.4065 39.2149 24.6276 43.3668 27.8918 46.6263C31.156 49.8858 35.3166 52.1064 39.8469 53.007C44.3772 53.9076 49.0735 53.4477 53.3416 51.6856C57.6097 49.9235 61.2577 46.9383 63.8238 43.1079C66.3899 39.2775 67.7588 34.7741 67.7572 30.1676C67.7531 24.0005 65.2977 18.0864 60.9292 13.7212C56.5606 9.35596 50.635 6.89547 44.4506 6.87881V6.89457Z" fill="white"/>
<mask id="path-4-inside-2_605_25" fill="white">
<path d="M44.4506 6.0918C39.674 6.0918 35.0046 7.50429 31.033 10.1506C27.0614 12.797 23.9659 16.5583 22.138 20.959C20.31 25.3598 19.8317 30.2022 20.7636 34.8739C21.6955 39.5457 23.9957 43.837 27.3732 47.2052C30.7508 50.5733 35.0542 52.867 39.739 53.7963C44.4239 54.7256 49.2798 54.2487 53.6929 52.4259C58.1059 50.603 61.8778 47.5162 64.5315 43.5556C67.1853 39.5951 68.6017 34.9387 68.6017 30.1754C68.5955 23.79 66.049 17.6679 61.5211 13.1526C56.9933 8.63744 50.854 6.09805 44.4506 6.0918V6.0918ZM44.4506 52.7716C39.969 52.7716 35.5881 51.4463 31.8618 48.9634C28.1355 46.4806 25.2311 42.9515 23.5161 38.8226C21.8011 34.6937 21.3523 30.1504 22.2266 25.7672C23.101 21.3839 25.259 17.3577 28.428 14.1976C31.597 11.0374 35.6345 8.88537 40.03 8.01349C44.4255 7.14161 48.9816 7.58911 53.122 9.29936C57.2625 11.0096 60.8014 13.9058 63.2912 17.6217C65.7811 21.3376 67.11 25.7063 67.11 30.1754C67.1038 36.1664 64.7144 41.9102 60.4663 46.1464C56.2182 50.3827 50.4583 52.7653 44.4506 52.7716Z"/>
</mask>
<path d="M44.4506 6.0918C39.674 6.0918 35.0046 7.50429 31.033 10.1506C27.0614 12.797 23.9659 16.5583 22.138 20.959C20.31 25.3598 19.8317 30.2022 20.7636 34.8739C21.6955 39.5457 23.9957 43.837 27.3732 47.2052C30.7508 50.5733 35.0542 52.867 39.739 53.7963C44.4239 54.7256 49.2798 54.2487 53.6929 52.4259C58.1059 50.603 61.8778 47.5162 64.5315 43.5556C67.1853 39.5951 68.6017 34.9387 68.6017 30.1754C68.5955 23.79 66.049 17.6679 61.5211 13.1526C56.9933 8.63744 50.854 6.09805 44.4506 6.0918V6.0918ZM44.4506 52.7716C39.969 52.7716 35.5881 51.4463 31.8618 48.9634C28.1355 46.4806 25.2311 42.9515 23.5161 38.8226C21.8011 34.6937 21.3523 30.1504 22.2266 25.7672C23.101 21.3839 25.259 17.3577 28.428 14.1976C31.597 11.0374 35.6345 8.88537 40.03 8.01349C44.4255 7.14161 48.9816 7.58911 53.122 9.29936C57.2625 11.0096 60.8014 13.9058 63.2912 17.6217C65.7811 21.3376 67.11 25.7063 67.11 30.1754C67.1038 36.1664 64.7144 41.9102 60.4663 46.1464C56.2182 50.3827 50.4583 52.7653 44.4506 52.7716Z" fill="black"/>
<path d="M68.6017 30.1754H73.6017L73.6017 30.1705L68.6017 30.1754ZM44.4506 52.7716V57.7716L44.4558 57.7716L44.4506 52.7716ZM67.11 30.1754L72.11 30.1807V30.1754H67.11ZM44.4506 1.0918C38.6882 1.0918 33.054 2.79574 28.2605 5.9897L33.8055 14.3116C36.9553 12.2128 40.6598 11.0918 44.4506 11.0918V1.0918ZM28.2605 5.9897C23.4669 9.18378 19.7285 13.7251 17.5204 19.0411L26.7555 22.877C28.2032 19.3915 30.6559 16.4102 33.8055 14.3116L28.2605 5.9897ZM17.5204 19.0411C15.3123 24.3571 14.7343 30.2076 15.8602 35.852L25.667 33.8959C24.9291 30.1968 25.3077 26.3624 26.7555 22.877L17.5204 19.0411ZM15.8602 35.852C16.9861 41.4964 19.7648 46.6791 23.8427 50.7457L30.9038 43.6647C28.2266 40.9949 26.4049 37.595 25.667 33.8959L15.8602 35.852ZM23.8427 50.7457C27.9204 54.812 33.1141 57.5796 38.7662 58.7008L40.7118 48.8919C36.9942 48.1544 33.5812 46.3346 30.9038 43.6647L23.8427 50.7457ZM38.7662 58.7008C44.4182 59.8219 50.2768 59.2467 55.6017 57.0471L51.784 47.8046C48.2829 49.2507 44.4296 49.6293 40.7118 48.8919L38.7662 58.7008ZM55.6017 57.0471C60.9268 54.8476 65.4805 51.1218 68.6853 46.3388L60.3778 40.7724C58.2751 43.9105 55.285 46.3585 51.784 47.8046L55.6017 57.0471ZM68.6853 46.3388C71.8902 41.5557 73.6017 35.9307 73.6017 30.1754H63.6017C63.6017 33.9467 62.4804 37.6345 60.3778 40.7724L68.6853 46.3388ZM73.6017 30.1705C73.5942 22.4562 70.5176 15.0628 65.0517 9.61217L57.9905 16.6931C61.5804 20.2729 63.5968 25.1238 63.6017 30.1803L73.6017 30.1705ZM65.0517 9.61217C59.5863 4.16203 52.1787 1.09934 44.4555 1.0918L44.4457 11.0918C49.5292 11.0968 54.4002 13.1128 57.9905 16.6931L65.0517 9.61217ZM44.4506 47.7716C40.9548 47.7716 37.5387 46.7378 34.6343 44.8025L29.0893 53.1244C33.6375 56.1549 38.9832 57.7716 44.4506 57.7716V47.7716ZM34.6343 44.8025C31.73 42.8674 29.4685 40.1183 28.1336 36.9046L18.8986 40.7406C20.9938 45.7847 24.5409 50.0938 29.0893 53.1244L34.6343 44.8025ZM28.1336 36.9046C26.7988 33.6911 26.4497 30.1558 27.13 26.7452L17.3232 24.7891C16.2549 30.145 16.8034 35.6964 18.8986 40.7406L28.1336 36.9046ZM27.13 26.7452C27.8104 23.3346 29.4899 20.1998 31.9586 17.738L24.8974 10.6571C21.0281 14.5156 18.3915 19.4333 17.3232 24.7891L27.13 26.7452ZM31.9586 17.738C34.4274 15.2761 37.5746 13.598 41.0029 12.9179L39.0572 3.10904C33.6945 4.17278 28.7666 6.79875 24.8974 10.6571L31.9586 17.738ZM41.0029 12.9179C44.4312 12.2379 47.9846 12.5871 51.2132 13.9206L55.0309 4.67808C49.9785 2.59117 44.4198 2.04532 39.0572 3.10904L41.0029 12.9179ZM51.2132 13.9206C54.4416 15.2542 57.1987 17.5115 59.1375 20.4049L67.445 14.8385C64.4041 10.3002 60.0834 6.76505 55.0309 4.67808L51.2132 13.9206ZM59.1375 20.4049C61.0762 23.2983 62.11 26.6984 62.11 30.1754H72.11C72.11 24.7143 70.486 19.377 67.445 14.8385L59.1375 20.4049ZM62.11 30.1702C62.1052 34.8324 60.2459 39.305 56.9358 42.606L63.9969 49.6869C69.183 44.5153 72.1024 37.5004 72.11 30.1807L62.11 30.1702ZM56.9358 42.606C53.6251 45.9073 49.1334 47.7667 44.4454 47.7716L44.4558 57.7716C51.7833 57.764 58.8113 54.858 63.9969 49.6869L56.9358 42.606Z" fill="black" mask="url(#path-4-inside-2_605_25)"/>
<path d="M61.7974 46.7826L61.7062 46.8696L82.9292 68.993L83.0204 68.906L61.7974 46.7826Z" fill="white"/>
<path d="M61.8141 45.8848L60.7329 46.9079L82.9266 69.9999L84 68.9767L61.8141 45.8848Z" fill="black"/>
</g>
<defs>
<clipPath id="clip0_605_25">
<rect width="84" height="70" fill="white"/>
</clipPath>
</defs>
</svg>
