<svg width="67" height="79" viewBox="0 0 67 79" fill="none" xmlns="http://www.w3.org/2000/svg">
<g clip-path="url(#clip0_300_33)">
<path d="M50.0675 48.4805H48.5542V32.6969C48.5484 30.087 47.8657 27.5231 46.573 25.2551C45.2802 22.987 43.4212 21.0921 41.1773 19.7549C38.852 18.3778 36.1988 17.6505 33.4955 17.6505C30.7922 17.6505 28.1385 18.3778 25.8132 19.7549C23.5682 21.0916 21.7083 22.9862 20.414 25.2542C19.1197 27.5222 18.4356 30.0863 18.4279 32.6969V48.4805H16.923V32.6969C16.93 29.8249 17.6812 27.0032 19.1033 24.5071C20.5253 22.0109 22.5702 19.9248 25.0385 18.4519C27.5968 16.9361 30.5165 16.1367 33.491 16.1367C36.4656 16.1367 39.3853 16.9361 41.9436 18.4519C44.4148 19.9223 46.4621 22.0079 47.8859 24.5044C49.3098 27.0009 50.0614 29.8237 50.0675 32.6969V48.4805Z" fill="black" stroke="black" stroke-width="0.75" stroke-miterlimit="10"/>
<path d="M65.8876 48.4808H64.3738V32.6972C64.3852 28.6119 63.579 24.5652 62.0021 20.7958C60.4253 17.0264 58.1099 13.6098 55.192 10.7471C49.4278 5.02667 41.6255 1.82659 33.5 1.84934H33.1077C29.0799 1.90783 25.1037 2.76319 21.4087 4.36552C17.7136 5.96784 14.373 8.28537 11.58 11.1847C5.8449 16.9749 2.62458 24.7887 2.61676 32.9337V48.4808H1.10345V32.9337C1.12415 24.4076 4.4967 16.2307 10.4949 10.1645C13.4271 7.12296 16.9335 4.69139 20.8116 3.01093C24.6897 1.33046 28.8626 0.43438 33.0895 0.373791H33.5C37.7274 0.35695 41.9167 1.17248 45.8281 2.77434C49.7396 4.3762 53.2964 6.73295 56.2953 9.70916C59.3558 12.712 61.7844 16.2957 63.438 20.2497C65.0915 24.2037 65.9368 28.4485 65.9241 32.7336L65.8876 48.4808Z" fill="black" stroke="black" stroke-width="0.75" stroke-miterlimit="10"/>
<path d="M15.9752 65.0558H3.55617C2.70168 65.0534 1.88311 64.7129 1.27975 64.1085C0.67639 63.5042 0.337216 62.6851 0.337219 61.8316V47.7334H19.1937V61.8316C19.1937 62.6851 18.8549 63.5042 18.2516 64.1085C17.6482 64.7129 16.8297 65.0534 15.9752 65.0558ZM1.85097 49.2454V61.8316C1.85096 62.2842 2.03011 62.7186 2.34962 63.0395C2.66913 63.3603 3.10311 63.5422 3.55617 63.5446H15.9752C16.4298 63.5446 16.8656 63.3641 17.1871 63.043C17.5085 62.7219 17.6893 62.2857 17.6893 61.8316V49.2454H1.85097Z" fill="black" stroke="black" stroke-width="0.75" stroke-miterlimit="10"/>
<path d="M63.4255 65.0558H51.0158C50.1605 65.0534 49.3411 64.7136 48.7363 64.1094C48.1315 63.5053 47.7904 62.686 47.788 61.8316V47.7334H66.6533V61.8316C66.6509 62.686 66.3103 63.5053 65.7054 64.1094C65.1006 64.7136 64.2808 65.0534 63.4255 65.0558ZM49.3017 49.2454V61.8316C49.3017 62.2857 49.4824 62.7219 49.8039 63.043C50.1254 63.3641 50.5612 63.5446 51.0158 63.5446H63.4255C63.8801 63.5446 64.3163 63.3641 64.6378 63.043C64.9593 62.7219 65.14 62.2857 65.14 61.8316V49.2454H49.3017Z" fill="black" stroke="black" stroke-width="0.75" stroke-miterlimit="10"/>
<path d="M2.61691 68.0981H1.1033V78.6631H2.61691V68.0981Z" fill="black" stroke="black" stroke-width="0.75" stroke-miterlimit="10"/>
<path d="M10.5314 68.0981H9.01782V78.6631H10.5314V68.0981Z" fill="black" stroke="black" stroke-width="0.75" stroke-miterlimit="10"/>
<path d="M18.4369 68.0981H16.9232V78.6631H18.4369V68.0981Z" fill="black" stroke="black" stroke-width="0.75" stroke-miterlimit="10"/>
<path d="M50.0767 68.0981H48.5631V78.6631H50.0767V68.0981Z" fill="black" stroke="black" stroke-width="0.75" stroke-miterlimit="10"/>
<path d="M57.9822 68.0981H56.4686V78.6631H57.9822V68.0981Z" fill="black" stroke="black" stroke-width="0.75" stroke-miterlimit="10"/>
<path d="M65.8876 68.0981H64.374V78.6631H65.8876V68.0981Z" fill="black" stroke="black" stroke-width="0.75" stroke-miterlimit="10"/>
</g>
<defs>
<clipPath id="clip0_300_33">
<rect width="67" height="79" fill="white"/>
</clipPath>
</defs>
</svg>
