<svg width="58" height="57" viewBox="0 0 58 57" fill="none" xmlns="http://www.w3.org/2000/svg">
<path d="M52.8201 0H4.60862C2.06335 0 0 2.0372 0 4.55021V52.1506C0 54.6636 2.06335 56.7008 4.60862 56.7008H52.8201C55.3653 56.7008 57.4287 54.6636 57.4287 52.1506V4.55021C57.4287 2.0372 55.3653 0 52.8201 0Z" fill="#F1BE00"/>
<path d="M28.6829 22.3583C28.6455 21.5578 28.5569 20.8156 28.5904 20.0773C28.6261 19.066 28.8672 18.0721 29.2996 17.1546C29.732 16.2371 30.3467 15.4147 31.1072 14.7364C33.1439 12.8634 35.5741 12.2359 38.2858 12.743C39.8117 13.0279 41.21 13.7749 42.2864 14.8801C42.3445 14.9511 42.4227 15.0033 42.511 15.0303C42.5993 15.0573 42.6937 15.0578 42.7822 15.0317C44.3668 14.6859 45.8916 14.1132 47.3082 13.3317C47.3791 13.2909 47.4558 13.2617 47.6073 13.1898C47.0194 14.9469 45.8502 16.4578 44.2876 17.4797C45.7989 17.367 47.2197 16.924 48.6857 16.3276C48.0828 17.2481 47.3728 18.0958 46.5703 18.8533C46.0468 19.339 45.488 19.7937 44.9331 20.2444C44.8495 20.304 44.7832 20.3841 44.7407 20.4768C44.6983 20.5695 44.6811 20.6716 44.691 20.7729C44.7762 23.0512 44.496 25.3286 43.8606 27.5205C43.3255 29.3976 42.5582 31.2026 41.576 32.8944C40.5164 34.739 39.2032 36.4298 37.6738 37.9187C35.6572 39.8848 33.2654 41.4361 30.6369 42.4825C28.1249 43.4798 25.4542 44.0309 22.7479 44.1107C20.8414 44.1914 18.932 44.04 17.0629 43.6599C15.1729 43.2798 13.3434 42.6498 11.6239 41.787C10.9135 41.4217 10.209 41.0409 9.50848 40.6213C13.8377 40.9768 17.7556 39.9179 21.2878 37.2853C17.5903 36.9648 15.1227 35.1482 13.7609 31.7248C14.9228 31.9334 16.1171 31.885 17.2577 31.583C15.4642 31.1551 13.8662 30.1495 12.716 28.725C11.5554 27.2996 10.9372 25.5178 10.9686 23.6891C12.104 24.2428 13.2336 24.6198 14.5697 24.6372C12.8124 23.3802 11.6809 21.7948 11.2244 19.7801C10.7712 17.8288 11.0849 15.7804 12.102 14.0486C16.4863 19.1117 21.9883 21.9017 28.6829 22.3583Z" fill="#F6EDC2"/>
</svg>
